<svg xmlns="http://www.w3.org/2000/svg" viewBox="0 0 123 73.35"><defs><style>.cls-1{font-size:11px;fill:#241e20;font-family:AlethiaPro-Regular, Alethia Pro;}.cls-2,.cls-3{fill:none;stroke:#271d1f;stroke-miterlimit:10;}.cls-3{stroke-width:0.99px;}</style></defs><g id="Layer_2" data-name="Layer 2"><g id="Artwork"><text class="cls-1" transform="translate(39.45 70.49)">H</text><text class="cls-1" transform="translate(39.62 60.66)">N</text><text class="cls-1" transform="translate(70.12 70.49)">H</text><text class="cls-1" transform="translate(70.28 60.66)">N</text><text class="cls-1" transform="translate(102.04 60.65)">NH2</text><polyline class="cls-2" points="49.19 53.6 59.04 42.88 46.38 24.53 32.63 27.96"/><polyline class="cls-2" points="24.78 38.72 23.98 51.65 37.97 57.13"/><line class="cls-2" x1="69.22" y1="54.04" x2="58.99" y2="42.87"/><polyline class="cls-2" points="101.31 54.14 91.04 42.88 80.76 54.04"/><line class="cls-3" x1="89.57" y1="44.5" x2="89.57" y2="26.27"/><line class="cls-3" x1="92.45" y1="44.5" x2="92.45" y2="26.27"/><text class="cls-1" transform="translate(86.58 24.43)">O</text><text class="cls-1" transform="translate(50.92 9.35)">O</text><text class="cls-1" transform="translate(0 61.52)">O</text><line class="cls-3" x1="44.56" y1="24.83" x2="51.66" y2="10.38"/><line class="cls-3" x1="47.29" y1="25.79" x2="54.24" y2="11.65"/><line class="cls-3" x1="10.34" y1="54.8" x2="24.01" y2="50.13"/><line class="cls-3" x1="11.09" y1="57.5" x2="26" y2="52.41"/><text class="cls-1" transform="translate(14 36.22)">HN</text></g></g></svg>