<svg xmlns="http://www.w3.org/2000/svg" viewBox="0 0 155.49 63.54"><defs><style>.cls-1{fill:none;stroke:#271d1f;stroke-miterlimit:10;}.cls-2{font-size:11px;fill:#241e20;font-family:AlethiaPro-Regular, Alethia Pro;}</style></defs><g id="Layer_2" data-name="Layer 2"><g id="Artwork"><polyline class="cls-1" points="52.6 7.54 44.81 12.04 44.81 27.19 57.94 34.76 71.06 27.19 71.06 12.04 63.4 7.62"/><line class="cls-1" x1="97.27" y1="12.04" x2="89.61" y2="7.62"/><line class="cls-1" x1="78.8" y1="7.54" x2="71.02" y2="12.04"/><line class="cls-1" x1="57.88" y1="50.02" x2="57.88" y2="34.87"/><line class="cls-1" x1="31.59" y1="34.76" x2="44.71" y2="27.19"/><polyline class="cls-1" points="44.71 12.04 31.59 4.46 18.46 12.04"/><line class="cls-1" x1="70.73" y1="27.19" x2="83.85" y2="34.76"/><polygon class="cls-1" points="97.42 12.04 97.42 27.19 110.54 34.76 123.67 27.19 123.67 12.04 110.54 4.46 97.42 12.04"/><line class="cls-1" x1="123.88" y1="27.19" x2="137.01" y2="34.76"/><line class="cls-1" x1="100.46" y1="25.5" x2="110.66" y2="31.39"/><line class="cls-1" x1="110.66" y1="7.83" x2="100.46" y2="13.72"/><line class="cls-1" x1="120.86" y1="25.5" x2="120.86" y2="13.72"/><text class="cls-2" transform="translate(53.54 9.35)">O</text><text class="cls-2" transform="translate(79.79 9.35)">O</text><text class="cls-2" transform="translate(49.17 60.68)">OH</text><text class="cls-2" transform="translate(84.5 43.02)">OH</text><text class="cls-2" transform="translate(137.5 43.02)">OH</text><text class="cls-2" transform="translate(13.29 42.31)">HO</text><text class="cls-2" transform="translate(0 19.85)">HO</text></g></g></svg>