<svg xmlns="http://www.w3.org/2000/svg" viewBox="0 0 51.5 47.98"><defs><style>.cls-1{fill:#ededed;}</style></defs><g id="Layer_2" data-name="Layer 2"><g id="Artwork"><rect class="cls-1" x="36.73" y="3.38" width="2.98" height="0.66"/><rect class="cls-1" x="40.04" width="0.66" height="2.98"/><rect class="cls-1" x="41.1" y="3.31" width="2.98" height="0.66"/><rect class="cls-1" x="40.11" y="4.37" width="0.66" height="2.98"/><rect class="cls-1" x="44.15" y="10.9" width="2.98" height="0.66"/><rect class="cls-1" x="47.46" y="7.51" width="0.66" height="2.98"/><rect class="cls-1" x="48.52" y="10.82" width="2.98" height="0.66"/><rect class="cls-1" x="47.53" y="11.88" width="0.66" height="2.98"/><path class="cls-1" d="M4.17,33.12a10.76,10.76,0,0,0,4.34.8,10.76,10.76,0,0,0,4.34-.8,11.27,11.27,0,0,1,4.57-.85,11.35,11.35,0,0,1,4.57.85,10.73,10.73,0,0,0,4.34.8,10.8,10.8,0,0,0,4.34-.8,11.27,11.27,0,0,1,4.57-.85,11.27,11.27,0,0,1,4.57.85,10.63,10.63,0,0,0,4.15.8V26.33H0v6A11.32,11.32,0,0,1,4.17,33.12Z"/><path class="cls-1" d="M39.58,33.74a10.57,10.57,0,0,0-4.34-.81,10.53,10.53,0,0,0-4.34.81,11.55,11.55,0,0,1-4.57.84,11.48,11.48,0,0,1-4.57-.84,10.57,10.57,0,0,0-4.34-.81,10.57,10.57,0,0,0-4.34.81,11.48,11.48,0,0,1-4.57.84,11.48,11.48,0,0,1-4.57-.84A10.56,10.56,0,0,0,0,32.94V48H44V34.58A11.57,11.57,0,0,1,39.58,33.74Z"/><path class="cls-1" d="M44,25.67V18.83A165.42,165.42,0,0,0,21.88,17,159.16,159.16,0,0,0,0,18.83v6.84Z"/></g></g></svg>