<svg xmlns="http://www.w3.org/2000/svg" viewBox="0 0 43.89 45.87"><defs><style>.cls-1{fill:#ededed;}</style></defs><g id="Layer_2" data-name="Layer 2"><g id="Artwork"><path class="cls-1" d="M4.13,30.49a10.76,10.76,0,0,0,4.34.8,10.73,10.73,0,0,0,4.34-.8,11.35,11.35,0,0,1,4.57-.85,11.27,11.27,0,0,1,4.57.85,10.76,10.76,0,0,0,4.34.8,10.76,10.76,0,0,0,4.34-.8,11.31,11.31,0,0,1,4.57-.85,11.27,11.27,0,0,1,4.57.85,10.72,10.72,0,0,0,4.12.8v-7H0v5.4A11.33,11.33,0,0,1,4.13,30.49Z"/><path class="cls-1" d="M39.54,31.11a10.7,10.7,0,0,0-4.34-.81,10.74,10.74,0,0,0-4.34.81,11.27,11.27,0,0,1-4.57.85,11.27,11.27,0,0,1-4.57-.85,10.74,10.74,0,0,0-4.34-.81,10.74,10.74,0,0,0-4.34.81A11.27,11.27,0,0,1,8.47,32a11.35,11.35,0,0,1-4.57-.85,10.41,10.41,0,0,0-3.9-.8V45.87H43.89V32A11.48,11.48,0,0,1,39.54,31.11Z"/><path class="cls-1" d="M27.94,15.1a7.41,7.41,0,0,1-12,0C8.42,15.51,1.45,16.55,0,16.78v6.81H43.89V16.78C42.43,16.56,35.44,15.53,27.94,15.1Z"/><rect class="cls-1" x="21.51" width="0.66" height="9.07"/><rect class="cls-1" x="15.94" y="1.21" width="0.66" height="8.3" transform="translate(-0.68 7.84) rotate(-26.57)"/><rect class="cls-1" x="23.26" y="5.03" width="8.3" height="0.66" transform="translate(10.36 27.48) rotate(-63.43)"/></g></g></svg>