<svg xmlns="http://www.w3.org/2000/svg" viewBox="0 0 91.84 46.18"><g id="Layer_2" data-name="Layer 2"><g id="Layer_1-2" data-name="Layer 1"><path d="M5.67,42.37H1.1v3.72H0v-7.7H1.1v3.55H5.67V38.39h1.1v7.7H5.67Z"/><path d="M12.38,38.31a3.94,3.94,0,0,1,0,7.87,3.94,3.94,0,0,1,0-7.87Zm0,7.47c1.59,0,2.77-1.46,2.77-3.54S14,38.71,12.38,38.71s-2.77,1.45-2.77,3.53S10.79,45.78,12.38,45.78Z"/><path d="M79.47,18.91a3.8,3.8,0,0,1,3.9,3.93,3.91,3.91,0,1,1-7.81,0A3.8,3.8,0,0,1,79.47,18.91Zm0,7.47c1.59,0,2.77-1.46,2.77-3.54s-1.18-3.53-2.77-3.53-2.76,1.45-2.76,3.53S77.88,26.38,79.47,26.38Z"/><path d="M90.74,23H86.18v3.72h-1.1V19h1.1v3.55h4.56V19h1.1v7.7h-1.1Z"/><polygon points="54.31 38.31 35.9 27.68 17.48 38.31 16.98 37.45 35.9 26.52 54.81 37.45 54.31 38.31"/><rect x="34.04" y="9.78" width="0.98" height="18.24"/><rect x="36.92" y="9.78" width="0.98" height="18.24"/><path d="M36.25,0a3.8,3.8,0,0,1,3.9,3.93,3.91,3.91,0,1,1-7.81,0A3.8,3.8,0,0,1,36.25,0Zm0,7.47C37.84,7.47,39,6,39,3.93S37.84.4,36.25.4s-2.76,1.45-2.76,3.53S34.66,7.47,36.25,7.47Z"/><polygon points="36.22 26.78 54.64 37.41 73.05 26.78 73.55 27.64 54.64 38.56 35.72 27.64 36.22 26.78"/></g></g></svg>