<svg xmlns="http://www.w3.org/2000/svg" viewBox="0 0 65.76 72.96"><defs><style>.cls-1{fill:#dadad9;}.cls-1,.cls-2{stroke:#fff;stroke-miterlimit:10;stroke-width:0.96px;}.cls-2{fill:none;}</style></defs><g id="Layer_2" data-name="Layer 2"><g id="Artwork"><path class="cls-1" d="M33.08,18.85a7,7,0,0,1-6.95-7c0-2.75,3.46-7.9,5.52-10.73a1.83,1.83,0,0,1,2.86,0C36.57,4,40,9.15,40,11.9A7,7,0,0,1,33.08,18.85Z"/><path class="cls-1" d="M65.28,72.48H.48V29.28a233.29,233.29,0,0,1,32.25-2.8c15.2,0,32.55,2.8,32.55,2.8Z"/><path class="cls-2" d="M.33,48.88c6.48,0,6.48,2.4,13,2.4s6.48-2.4,13-2.4,6.48,2.4,13,2.4,6.48-2.4,13-2.4,6.49,2.4,13,2.4"/><line class="cls-2" x1="0.33" y1="40.08" x2="65.13" y2="40.08"/></g></g></svg>