<svg xmlns="http://www.w3.org/2000/svg" viewBox="0 0 244.22 297.19"><defs><style>.cls-1{fill:#0082ae;}.cls-2{fill:#b5b6a1;}.cls-3{fill:#b5b5b4;}</style></defs><g id="Layer_2" data-name="Layer 2"><g id="Artwork"><ellipse class="cls-1" cx="122.11" cy="217.46" rx="74.95" ry="125.07" transform="translate(-120.31 276.03) rotate(-74.27)"/><path class="cls-2" d="M150.15,74.07c0,1-.44.66-1,1.21s-.67.43-1.24,1-.58.53-1.16,1-.54.57-1.14,1.07-.58.52-1.21,1-.56.56-1.22,1-.81.18-1.48.58-.54.62-1.23,1-.71.33-1.42.68-.72.31-1.44.62-.76.22-1.49.51-.73.31-1.49.54-.75.29-1.55.42a10.92,10.92,0,0,1-1.62.06,9.85,9.85,0,0,1-1.63,0,11.37,11.37,0,0,1-1.65,0,12.85,12.85,0,0,1-1.58-.45c-.77-.27-.65-.56-1.37-.88a16,16,0,0,1-1.49-.6c-.69-.41-.58-.58-1.23-1s-.69-.4-1.3-.89-.74-.34-1.32-.88-.56-.56-1.13-1.1-.38-.73-.89-1.31-.67-.46-1.17-1.06-.32-.74-.8-1.35-.6-.53-1-1.17-.54-.57-1-1.22-.17-.82-.58-1.47-.39-.68-.76-1.35-.64-.54-1-1.22-.21-.77-.54-1.47-.34-.7-.66-1.41-.2-.77-.48-1.49-.41-.68-.66-1.42-.33-.72-.55-1.48a11.63,11.63,0,0,1-.3-1.54c-.16-.77-.3-.74-.42-1.52s.1-.81,0-1.58-.27-.75-.35-1.52.15-.8.1-1.57-.08-.77-.11-1.54-.1-.78-.1-1.55.05-.77.05-1.54-.08-.77-.06-1.54,0-.77.07-1.54.11-.76.14-1.53,0-.77,0-1.53,0-.77,0-1.54.15-.75.19-1.52.08-.76.1-1.52l0-1.52c0-.76-.3-.76-.31-1.51s.22-.76.19-1.52-.07-.75-.11-1.5a7.14,7.14,0,0,0-.11-1.41.83.83,0,0,0-.45-.52c-.15-.1-.18-.19,0-.63.06-.22.75-.86,1-.79.56.16.72.4.78.64s0,.51.13.94c.18.85-.08.88,0,1.68s.16.76.19,1.54,0,.78,0,1.55,0,.77,0,1.54l-.06,1.54c0,.77.12.77.09,1.54s-.15.76-.18,1.53L109.06,43c0,.76.1.77.06,1.53s-.25.76-.27,1.52,0,.76,0,1.52.17.77.16,1.52v1.52c0,.76-.07.75,0,1.51s0,.76.1,1.51-.11.76,0,1.51,0,.75.11,1.5.19.74.31,1.48.17.73.32,1.46a14.71,14.71,0,0,0,.41,1.44c.21.71,0,.76.29,1.47s.24.71.51,1.41.4.65.69,1.34.42.64.74,1.31.3.69.64,1.36.2.75.57,1.41.44.61.82,1.26.57.54,1,1.17.35.67.78,1.29.26.74.7,1.35.65.45,1.12,1,.37.67.87,1.23.5.55,1,1.1.59.47,1.14,1,.6.45,1.16.92.58.47,1.17.9a13.6,13.6,0,0,0,1.23.8c.62.38.51.59,1.16.93a9.17,9.17,0,0,0,2.8.79,9.53,9.53,0,0,0,1.41.29,8.54,8.54,0,0,0,1.43,0,8.76,8.76,0,0,0,1.44-.08c.73-.12.69-.32,1.4-.47s.69-.27,1.38-.51.7-.25,1.37-.55.69-.29,1.35-.62.75-.17,1.41-.53.7-.29,1.35-.68.63-.4,1.27-.81.44-.68,1.06-1.1.7-.31,1.3-.76.68-.36,1.26-.84.38-.71.92-1.22.6-.46,1.13-1,.16-.88,1.06-1.05C149.33,73.05,150.15,73.8,150.15,74.07Z"/><path class="cls-2" d="M202.21,239.31c.61-1.9,1.12-1.53,2.31-3s1.33-1.38,2.49-2.89,1.16-1.51,2.27-3.06,1.05-1.59,2.12-3.16,1-1.59,2.08-3.19.92-1.66,1.91-3.28,1.22-1.48,2.17-3.13.68-1.79,1.57-3.46.86-1.69,1.68-3.4.79-1.72,1.5-3.48.78-1.73,1.38-3.53.57-1.81,1.07-3.63.46-1.84.87-3.68.57-1.82.9-3.68.33-1.87.57-3.74a10.84,10.84,0,0,0,.06-1.88c0-.47,0-.94,0-1.88.05-1.88,0-1.88,0-3.76a15.18,15.18,0,0,1,0-1.88,7.69,7.69,0,0,0,0-1.89c-.25-1.88-.42-1.85-.78-3.69-.16-.93-.26-1.39-.32-1.86a10.53,10.53,0,0,0-.38-1.85c-.56-1.8-.6-1.79-1.27-3.55a8.23,8.23,0,0,0-.8-1.71,16,16,0,0,1-.85-1.67c-.88-1.64-.8-1.69-1.79-3.28a37.47,37.47,0,0,0-1.89-3.24,31.61,31.61,0,0,0-2.59-2.71c-1.26-1.36-1.19-1.47-2.56-2.77s-1.52-1.14-3-2.35-1.53-1.12-3-2.25-1.36-1.36-2.9-2.48-1.55-1.1-3.14-2.16-1.75-.8-3.36-1.82-1.52-1.16-3.14-2.17l-3.26-2c-1.63-1-1.57-1.1-3.2-2.1s-1.7-.9-3.33-1.91-1.68-.93-3.29-2-1.57-1.11-3.15-2.2-1.65-1-3.21-2.14-1.41-1.33-2.92-2.53-1.61-1.09-3.05-2.39-1.27-1.48-2.61-2.88c-.66-.71-1-1.06-1.31-1.43s-.65-.72-1.23-1.51-.89-1.15-1.17-1.55a16.38,16.38,0,0,1-1.09-1.63,14.83,14.83,0,0,1-.93-1.72c-.2-.44-.45-.87-.82-1.78s-.58-1.34-.76-1.8a12.91,12.91,0,0,1-.64-1.86c-.53-1.9-.43-1.89-.88-3.77s-.31-1.9-.64-3.8-.39-1.88-.66-3.79-.31-1.9-.55-3.82-.08-1.92-.21-3.84-.08-1.93-.16-3.85,0-1.92-.08-3.84-.33-1.93-.26-3.86.3-1.92.41-3.84.1-1.93.28-3.84.28-1.91.55-3.82-.42-2.06.59-3.79a.79.79,0,0,1,1.29.22c.43,1.94-.15,1.88-.4,3.77s-.48,1.85-.7,3.74-.06,1.91-.19,3.8-.19,1.89-.25,3.79,0,1.9,0,3.8,0,1.9.06,3.8.21,1.9.35,3.79,0,1.9.21,3.79.2,1.9.47,3.78.4,1.86.72,3.73.14,1.91.51,3.78.41,1.88.91,3.67a8.21,8.21,0,0,0,.66,1.75l.76,1.69a17.77,17.77,0,0,0,.8,1.68c.21.41.42.83.91,1.62s.73,1.19,1,1.6a11.77,11.77,0,0,0,1.06,1.54c.55.75.89,1.08,1.19,1.44s.62.7,1.26,1.39,1,1,1.26,1.4a11.69,11.69,0,0,0,1.32,1.36c1.4,1.26,1.37,1.3,2.84,2.5s1.52,1.13,3.05,2.26,1.55,1.1,3.12,2.17,1.6,1,3.19,2.08,1.53,1.14,3.14,2.17l3.25,2c1.63,1,1.69.9,3.32,1.9s1.7.89,3.33,1.89,1.61,1,3.23,2.07,1.52,1.18,3.13,2.23,1.63,1,3.22,2.11,1.69.93,3.23,2.1,1.49,1.24,3,2.45,1.33,1.41,2.78,2.68,1.61,1.09,3,2.53a35.56,35.56,0,0,1,2.44,3.06l1.13,1.59a18.54,18.54,0,0,1,1.05,1.64c1,1.65,1,1.64,2,3.37.41.88.62,1.32.82,1.76a14.41,14.41,0,0,1,.76,1.8c.7,1.82.65,1.83,1.23,3.69.27.94.36,1.42.48,1.89s.26.94.43,1.9c.37,1.91.11,2,.36,3.87.15,1,.16,1.44.23,1.92s.14,1,.16,1.93c.06,1.93.21,1.93.16,3.88a16,16,0,0,1-.14,1.93l-.2,1.93c-.26,1.93-.2,1.94-.56,3.83s-.43,1.89-.87,3.76-.3,1.92-.81,3.78-.51,1.87-1.09,3.71-.66,1.82-1.33,3.64-.74,1.78-1.49,3.56-1,1.68-1.83,3.41-.95,1.68-1.88,3.36-.92,1.69-1.93,3.33-.73,1.81-1.79,3.42-1.2,1.52-2.29,3.1-1.22,1.49-2.35,3.05-.91,1.72-2.07,3.25-1.24,1.48-2.42,3-.85,1.83-2.46,3C202.87,240.55,202.06,239.79,202.21,239.31Z"/><path class="cls-2" d="M101.51,125.72c.41.85-.16.61-.42,1.19s-.4.51-.64,1.09-.22.58-.44,1.16-.1.62-.29,1.21-.11.6-.25,1.19,0,.61-.09,1.2-.38.56-.4,1.16.23.6.26,1.2,0,.61.07,1.22,0,.61.15,1.23,0,.63.15,1.25.19.61.3,1.25.19.62.29,1.27,0,.66,0,1.33,0,.66,0,1.34.18.69.08,1.39a7.33,7.33,0,0,1-.31,1.37c-.23.68-.5.57-.8,1.18s-.17.69-.53,1.26-.53.43-.9,1-.31.56-.67,1.07-.19.62-.5,1.12a7,7,0,0,0-.53,1c-.2.51-.43.44-.55,1s.12.56.15,1.09-.14.58,0,1.15.32.52.53,1.08.33.53.58,1.1,0,.7.24,1.28l.5,1.17c.26.58.53.46.79,1s.1.65.37,1.23.26.58.53,1.15.15.64.42,1.21.39.52.65,1.1.37.53.64,1.11.19.61.45,1.19.37.54.63,1.12.06.67.32,1.25.43.51.69,1.1.06.66.32,1.25.29.57.53,1.16.32.56.57,1.15.2.61.44,1.2.32.56.55,1.16.22.6.44,1.21.15.62.37,1.23.27.58.48,1.19.26.6.45,1.21.07.66.25,1.28.11.63.27,1.25.16.62.31,1.24.46.55.61,1.17-.06.67.09,1.29.19.6.34,1.22.08.63.24,1.24.86.43.32,1.21a1.87,1.87,0,0,1-1.25.37c-.87-.41-.35-.57-.52-1.19s.07-.68-.09-1.3-.27-.59-.42-1.21-.09-.64-.24-1.26-.16-.61-.31-1.22l-.3-1.23c-.16-.62-.29-.58-.45-1.19s-.06-.63-.24-1.23l-.38-1.2c-.2-.59-.33-.55-.54-1.14s0-.67-.23-1.26-.26-.58-.49-1.17-.4-.52-.64-1.1l-.48-1.17c-.25-.58-.17-.62-.41-1.2s-.29-.56-.54-1.15-.12-.64-.38-1.22-.21-.59-.47-1.17-.34-.55-.6-1.13l-.55-1.14c-.27-.58-.31-.56-.58-1.13s-.14-.64-.41-1.21-.26-.58-.53-1.16-.37-.53-.64-1.11-.38-.52-.64-1.1-.23-.6-.5-1.18-.1-.65-.36-1.23-.33-.56-.59-1.14-.43-.51-.69-1.09-.19-.62-.43-1.24,0-.7-.21-1.34-.41-.62-.49-1.34a6,6,0,0,1,.21-1.46,6.29,6.29,0,0,1,.41-1.36,7.57,7.57,0,0,1,.54-1.27c.35-.57.3-.61.68-1.15l.76-1c.36-.51.37-.51.7-1s.56-.37.84-.9a6.67,6.67,0,0,0,.39-1.11,6.45,6.45,0,0,0,.14-1.16,8.76,8.76,0,0,0,.18-1.16c0-.6,0-.6-.06-1.21s0-.61,0-1.23-.25-.59-.36-1.2-.18-.61-.3-1.23l-.24-1.27c-.11-.64-.1-.64-.2-1.29s.09-.67,0-1.33.06-.67.06-1.34a11.75,11.75,0,0,1,.11-1.32c.09-.66-.21-.71-.07-1.37s.33-.61.51-1.25.33-.58.55-1.19-.06-.72.19-1.33.31-.57.57-1.16-.19-.8.56-1.15A2.17,2.17,0,0,1,101.51,125.72Z"/><path class="cls-2" d="M121.13,204.82c-.92-.56-.34-.75-.57-1.53s-.06-.84-.29-1.62l-.46-1.57c-.23-.78-.33-.75-.55-1.54s-.28-.77-.5-1.56-.34-.75-.55-1.54.08-.87-.14-1.66-.44-.73-.66-1.52-.16-.8-.37-1.59-.19-.8-.37-1.59-.14-.81-.34-1.6-.27-.78-.47-1.57-.27-.78-.47-1.57-.06-.83-.25-1.62-.19-.8-.39-1.59-.39-.75-.57-1.55-.19-.79-.39-1.59.11-.86-.08-1.66-.35-.75-.53-1.55,0-.84-.17-1.64-.26-.78-.44-1.58-.37-.75-.54-1.55l-.33-1.6c-.17-.8.07-.85-.1-1.65s-.36-.76-.53-1.56,0-.84-.13-1.64-.32-.77-.48-1.57-.28-.78-.44-1.58.14-.87,0-1.68-.14-.81-.26-1.63-.4-.77-.52-1.59,0-.84,0-1.66-.09-.81-.17-1.63,0-.83,0-1.65-.19-.81-.25-1.63-.14-.82-.18-1.64,0-.83,0-1.65-.13-.82-.14-1.64.21-.82.21-1.64-.18-.82-.17-1.65.21-.81.23-1.63,0-.82,0-1.64-.06-.82,0-1.64.09-.82.12-1.64-.06-.82,0-1.64l.11-1.63c0-.82.12-.81.17-1.63s0-.82,0-1.64,0-.81,0-1.63.18-.81.23-1.62.11-.81.17-1.63l.11-1.63c0-.81-.26-.83-.21-1.65s.27-.8.32-1.61l.06-1.63c0-.82.13-.81.18-1.63s-.68-.86.09-1.62a1.48,1.48,0,0,1,1.3.06c.69.83.14.83.1,1.64s-.28.81-.33,1.62.07.82,0,1.64-.11.81-.16,1.63l-.1,1.63-.12,1.63c-.06.81.08.82,0,1.63s-.17.81-.22,1.62-.06.82-.11,1.63.08.82,0,1.64-.26.8-.31,1.61,0,.82,0,1.63.14.82.11,1.64,0,.81,0,1.62-.12.81-.14,1.62v1.63c0,.81-.16.81-.17,1.62s0,.82,0,1.63.08.81.09,1.62l.06,1.63c0,.81.08.8.11,1.61s-.11.82-.06,1.63l.11,1.62c.06.81.16.8.25,1.61s.21.79.29,1.59,0,.81.15,1.61,0,.82.06,1.63.2.78.34,1.58.34.76.48,1.55.09.82.25,1.61-.06.85.11,1.65.4.75.56,1.55,0,.83.19,1.62l.34,1.6c.17.8.26.78.43,1.58s.24.78.41,1.58l.34,1.59.35,1.59c.18.8-.07.86.11,1.65s.24.78.42,1.58.32.76.5,1.56.11.81.3,1.6l.4,1.58c.2.79.11.81.31,1.6s.34.76.55,1.55.26.77.46,1.56l.42,1.58c.2.79.2.79.41,1.57s0,.84.25,1.63.12.81.33,1.59l.44,1.58c.21.78.51.7.73,1.49s0,.83.27,1.61.08.83.3,1.61.52.7.74,1.49.16.8.39,1.59.71.65.41,1.58C122.43,204.67,121.36,205,121.13,204.82Z"/><path class="cls-2" d="M178.25,126.07c.53.91-.11.75-.23,1.53s-.26.74-.35,1.52,0,.79,0,1.59.12.79.16,1.59.12.8.17,1.6.2.8.27,1.62-.24.84-.19,1.66.3.81.33,1.65,0,.84-.07,1.68-.1.85-.18,1.7-.2.84-.41,1.67a12.05,12.05,0,0,1-.47,1.66c-.33.78-.26.82-.64,1.58s-.51.68-.92,1.4-.41.7-.81,1.41-.23.8-.6,1.5-.35.7-.66,1.41-.56.6-.78,1.34a8.44,8.44,0,0,0-.08,1.5c0,.72-.23.73-.14,1.48a12,12,0,0,0,.41,1.5c.21.77.41.71.65,1.49s.22.81.42,1.65-.07.9,0,1.78c0,.46,0,.68,0,.92a2.45,2.45,0,0,1-.08.95c-.3.9-.5.81-.94,1.58a11.65,11.65,0,0,1-.92,1.49c-.55.63-.49.7-1,1.31s-.76.4-1.3,1-.56.58-1.07,1.21-.29.81-.81,1.43-.64.52-1.14,1.16l-1,1.28c-.49.64-.58.58-1.06,1.23s-.37.73-.85,1.39-.37.73-.82,1.4-.53.62-1,1.29-.34.74-.78,1.42-.64.56-1.06,1.25-.26.79-.68,1.49-.61.58-1,1.29l-.77,1.42c-.41.71-.34.75-.72,1.46s-.43.69-.82,1.4-.29.77-.67,1.49-.38.71-.75,1.43-.43.7-.79,1.43-.3.75-.66,1.48-.28.77-.62,1.5-.46.69-.79,1.43-.38.72-.71,1.47-.33.74-.65,1.49,0,.87-.33,1.62-.52.66-.82,1.42l-.57,1.52c-.3.76-.37.73-.66,1.49s.38,1-.59,1.51a1.48,1.48,0,0,1-1.22-.46c-.4-1,.12-.82.41-1.59s.51-.68.82-1.43.19-.81.49-1.57.36-.74.68-1.49l.62-1.52c.31-.75.34-.74.66-1.49s.21-.81.54-1.56.45-.69.79-1.44.35-.74.69-1.48.24-.8.6-1.53.55-.65.91-1.38.34-.75.71-1.48.2-.82.59-1.54.39-.72.77-1.45.46-.68.87-1.39l.78-1.45c.41-.71.54-.64,1-1.34s.46-.68.89-1.38.37-.73.81-1.43l.86-1.39c.45-.69.42-.71.88-1.39s.57-.6,1-1.28l1-1.33c.48-.66.37-.74.87-1.39s.41-.73.91-1.38.53-.63,1.06-1.26.66-.52,1.18-1.15.48-.68,1-1.3.4-.74,1-1.36.61-.54,1.13-1.14.68-.45,1.1-1.08.17-.75.38-1.39.3-.64.31-1.37a7.7,7.7,0,0,0-.19-1.48c-.18-.76-.27-.73-.5-1.5s-.29-.76-.52-1.57a13.12,13.12,0,0,1-.35-1.7,8.33,8.33,0,0,1-.07-1.8c.1-.9.36-.86.56-1.7a12.81,12.81,0,0,1,.5-1.63c.34-.78.23-.83.61-1.59s.47-.69.87-1.41l.8-1.42c.39-.7.47-.66.85-1.36s.2-.78.51-1.5a9.4,9.4,0,0,0,.4-1.47,12.42,12.42,0,0,0,.29-1.5,13.13,13.13,0,0,0,.13-1.55c0-.78.2-.78.2-1.57s.06-.81,0-1.61l-.12-1.62c-.07-.81-.38-.79-.45-1.6s.11-.83.06-1.66.1-.84.09-1.67-.29-.84-.26-1.69a16.25,16.25,0,0,1,.27-1.7c.13-.84-.3-1,.43-1.67C177.07,125.47,178.12,125.84,178.25,126.07Z"/><path class="cls-2" d="M138.86,210.82c-.44-1,.15-.83.41-1.64s.42-.75.67-1.56l.5-1.61c.26-.81.16-.84.41-1.64s.2-.83.46-1.63.13-.85.39-1.65.55-.72.8-1.53,0-.87.27-1.68.3-.79.56-1.6l.54-1.61c.25-.8.32-.78.58-1.59s.19-.82.45-1.63.18-.83.44-1.64.39-.76.65-1.57l.53-1.61c.26-.8.07-.87.34-1.67l.52-1.61c.28-.8.55-.71.82-1.51s.11-.86.38-1.66.46-.74.73-1.54.2-.83.48-1.63.09-.87.37-1.67.29-.79.57-1.59.51-.72.79-1.51.1-.87.38-1.66.47-.73.75-1.53.13-.85.41-1.65.17-.84.44-1.64.56-.7.83-1.5l.57-1.59c.27-.8,0-.9.26-1.7s.44-.74.71-1.54l.53-1.61c.27-.8.4-.76.66-1.56s.14-.84.41-1.65.16-.83.43-1.64.34-.77.61-1.58.16-.83.42-1.64.48-.73.74-1.53.09-.87.35-1.67.46-.74.72-1.54l.48-1.62c.26-.81.19-.83.45-1.64s.3-.79.56-1.6.16-.83.42-1.64l.52-1.6c.26-.81.34-.79.59-1.59s.19-.83.44-1.64.2-.82.44-1.63.37-.77.62-1.58.3-.79.55-1.6l.5-1.62c.25-.81-.05-.9.19-1.71s.46-.74.7-1.55l.45-1.63c.25-.81.33-.79.57-1.6s-.44-1,.49-1.61a1.45,1.45,0,0,1,1.26.37c.46,1-.07.86-.31,1.67s-.48.74-.72,1.55-.13.84-.37,1.65-.31.8-.56,1.61-.24.81-.47,1.62l-.52,1.61c-.25.81-.12.85-.37,1.66s-.36.77-.61,1.58l-.5,1.62c-.26.8-.13.84-.39,1.65s-.45.75-.71,1.55-.21.82-.46,1.63-.08.86-.33,1.67-.26.81-.51,1.62-.34.78-.6,1.58-.23.82-.47,1.63-.4.76-.66,1.56-.31.79-.57,1.6-.18.83-.45,1.63l-.5,1.62c-.26.81-.21.82-.48,1.63s-.4.75-.66,1.56l-.54,1.6c-.27.81-.16.84-.43,1.65s-.15.84-.42,1.64-.31.79-.58,1.59-.44.75-.71,1.55-.21.82-.48,1.62-.09.87-.37,1.67-.34.78-.62,1.58-.5.72-.77,1.52-.06.88-.34,1.68-.42.75-.7,1.55l-.56,1.59c-.28.8-.19.83-.48,1.63s-.22.82-.49,1.61-.29.8-.57,1.6l-.55,1.59c-.28.8-.52.72-.79,1.52s-.22.82-.49,1.62-.15.84-.41,1.64-.34.78-.61,1.58l-.5,1.61c-.26.81-.35.78-.61,1.59s-.1.85-.36,1.65-.19.83-.45,1.64l-.5,1.61-.5,1.62c-.26.8-.43.75-.68,1.56s-.34.78-.59,1.59l-.51,1.61c-.25.81,0,.9-.21,1.71s-.42.75-.68,1.56-.39.76-.65,1.57,0,.9-.22,1.71-.33.78-.59,1.59.21,1-.56,1.6C140,211.44,139,211.07,138.86,210.82Z"/><path class="cls-2" d="M50.87,120c1.05,1.58.46,1.74.81,3.51s.2,1.81.55,3.58l.74,3.54c.37,1.77.48,1.75.85,3.52s.43,1.75.81,3.52.52,1.73.91,3.49.1,1.83.51,3.59.66,1.7,1.09,3.45.39,1.76.84,3.51l.9,3.49c.5,1.74.42,1.76.92,3.49s.58,1.71,1.11,3.43.61,1.7,1.17,3.41.43,1.76,1,3.46l1.2,3.4c.64,1.68.78,1.67,1.47,3.28.35.79.53,1.19.71,1.58l.87,1.51c.42.77.64,1.15.83,1.55a9,9,0,0,0,.92,1.52,16.08,16.08,0,0,0,1.22,1.3l1.27,1.24A31.31,31.31,0,0,0,74,187c1.33,1.19,1.43,1.08,2.8,2.21s1.55.92,3,1.92,1.47,1,3,1.95,1.41,1.13,3,2,1.68.68,3.26,1.52,1.51,1,3.14,1.76,1.7.61,3.35,1.33,1.7.59,3.37,1.26,1.56.94,3.25,1.58l3.38,1.28c1.69.62,1.8.33,3.49.93s1.65.75,3.37,1.29,1.72.54,3.45,1.05,1.69.61,3.43,1.09,1.78.31,3.53.74,1.77.31,3.53.64,1.75.43,3.52.72,1.79.14,3.57.4,1.76.43,3.55.58,1.8,0,3.59,0,1.79.27,3.59.3,1.81,0,3.6,0,1.78-.14,3.54-.31c.88-.11,1.31-.16,1.75-.24a14,14,0,0,0,1.71-.36,10.16,10.16,0,0,0,1.63-.6c.4-.16.78-.37,1.55-.75a14.52,14.52,0,0,0,1.46-.9l.57-.4.78-.66,1.28-1.22a11.41,11.41,0,0,0,1.22-1.28c1.17-1.34,1.06-1.42,2.15-2.83s1-1.48,1.92-3,1-1.47,1.91-3,.91-1.55,1.71-3.16.81-1.61,1.56-3.25.44-1.77,1.17-3.42.91-1.57,1.59-3.24.64-1.69,1.31-3.37.74-1.65,1.4-3.34,0-2,1.33-3.35a.81.81,0,0,1,1.22.48c0,1.89-.5,1.73-1.15,3.41s-.89,1.6-1.55,3.28-.55,1.73-1.24,3.41-.76,1.65-1.45,3.33-.7,1.68-1.46,3.33-.79,1.64-1.59,3.27-.7,1.69-1.56,3.3-1,1.55-1.95,3.1-1,1.53-2,3-1,1.58-2.18,3a7.64,7.64,0,0,1-1.32,1.3c-.37.29-.71.59-1.39,1.23l-.84.73-.61.46a12.35,12.35,0,0,1-1.59,1c-.84.41-1.25.66-1.67.86a8.37,8.37,0,0,1-1.76.69c-.92.23-1.37.35-1.83.43s-.93.17-1.85.28c-1.85.18-1.85.09-3.69.16s-1.83.06-3.64,0-1.81-.16-3.63-.23-1.82-.13-3.64-.25-1.82-.1-3.63-.29-1.82-.18-3.61-.48-1.81-.25-3.6-.6-1.75-.51-3.53-.89-1.77-.43-3.53-.88-1.79-.34-3.54-.86-1.78-.4-3.51-.94-1.72-.61-3.44-1.18-1.66-.75-3.37-1.37-1.73-.56-3.42-1.21-1.77-.46-3.46-1.13-1.66-.75-3.34-1.46-1.58-.93-3.23-1.7-1.74-.57-3.38-1.37-1.55-1-3.15-1.85-1.59-.88-3.14-1.84-1.6-.89-3.13-1.9-1.52-1-3-2.09-1.45-1.12-2.83-2.35a33.56,33.56,0,0,1-2.66-2.54,6.74,6.74,0,0,1-1.16-1.44,11.32,11.32,0,0,0-1.09-1.49l-1.11-1.48a9.93,9.93,0,0,1-1-1.53c-.46-.8-.73-1.19-1-1.58s-.44-.82-.82-1.68c-.73-1.71-.59-1.73-1.23-3.43l-1.24-3.41c-.6-1.72-.49-1.75-1.07-3.47s-.71-1.68-1.26-3.41-.59-1.72-1.12-3.46-.5-1.74-1-3.49l-1-3.5c-.44-1.76-.28-1.81-.72-3.56s-.35-1.79-.77-3.55l-.82-3.53c-.39-1.77-.7-1.7-1.08-3.47s-.22-1.81-.59-3.59-.24-1.8-.6-3.57-.67-1.72-1-3.49-.29-1.79-.65-3.57-.85-1.71-.66-3.56C49.5,119.76,50.6,119.6,50.87,120Z"/><path class="cls-2" d="M57.65,156.86c-.43-1.06.17-.9.44-1.76s.44-.81.72-1.68l.56-1.72c.3-.87.2-.9.51-1.76s.25-.88.58-1.73.2-.89.53-1.73.61-.74.94-1.58.09-.93.41-1.78.37-.82.69-1.67l.66-1.68c.31-.85.4-.83.77-1.69a12.14,12.14,0,0,1,.81-1.71,12.69,12.69,0,0,1,1-1.62c.54-.78.7-.65,1.29-1.37s.65-.67,1.31-1.34.56-.77,1.27-1.38.74-.58,1.48-1.14.94-.28,1.7-.79.7-.63,1.49-1.1.9-.27,1.71-.71.78-.48,1.6-.89.74-.57,1.57-1,.85-.35,1.69-.72.93-.12,1.77-.47.78-.51,1.62-.85.92-.14,1.77-.46.8-.47,1.65-.78.82-.42,1.68-.72,1,0,1.81-.32l1.72-.57c.85-.3.76-.57,1.61-.87s.91-.13,1.76-.43l1.7-.61c.85-.31.89-.2,1.74-.51s.79-.44,1.63-.77.81-.41,1.63-.76.86-.27,1.69-.61.78-.47,1.59-.83.91-.18,1.72-.57.72-.55,1.5-1,.9-.22,1.65-.69.75-.48,1.49-1,.68-.58,1.4-1.09.7-.52,1.37-1.09.53-.68,1.12-1.3.58-.67,1.12-1.38.61-.65,1.09-1.39.43-.77.87-1.53.36-.8.76-1.58.49-.75.8-1.57.34-.82.62-1.65.26-.85.46-1.72-.12-.93,0-1.79.36-.84.49-1.73.08-.89.18-1.78.18-.89.27-1.78-.64-1,.16-1.79a1.39,1.39,0,0,1,1.31.1c.64.94.1.92,0,1.82s-.33.89-.43,1.79,0,.92-.1,1.83-.19.9-.34,1.8-.15.91-.36,1.81-.25.9-.48,1.79-.14.93-.48,1.81-.46.82-.84,1.67-.41.84-.86,1.64-.35.88-.87,1.66-.71.63-1.24,1.38-.54.75-1.11,1.47-.51.82-1.18,1.5l-1.44,1.23c-.76.54-.81.47-1.57,1s-.76.52-1.54,1-.88.33-1.68.77-.82.4-1.65.8-.78.49-1.61.86l-1.66.77c-.84.36-.82.4-1.66.75s-.9.21-1.75.54l-1.69.65c-.86.32-.81.43-1.67.74s-.81.43-1.67.73-.87.26-1.72.56-.92.13-1.77.43-.84.36-1.69.65-.79.48-1.64.78-.88.23-1.72.53-.93.09-1.77.42-.76.54-1.6.87-.89.19-1.73.53l-1.66.68c-.83.35-.8.43-1.61.8s-.8.42-1.6.8-.81.38-1.6.79-.79.41-1.56.85-.91.21-1.66.69-.72.52-1.45,1-.64.61-1.32,1.17-.74.49-1.38,1.09-.63.61-1.21,1.27a14.33,14.33,0,0,0-1.17,1.29,13.46,13.46,0,0,0-.83,1.54,11.08,11.08,0,0,0-.73,1.56c-.33.79-.34.76-.65,1.62s-.32.85-.63,1.7-.49.79-.81,1.64-.4.81-.72,1.66L62.41,147c-.33.85,0,1-.36,1.8s-.49.78-.8,1.62-.44.8-.73,1.65,0,.95-.28,1.81-.35.83-.62,1.69.2,1-.59,1.71C58.81,157.48,57.76,157.12,57.65,156.86Z"/><path class="cls-2" d="M161.42,122c.13,1.1-.39.78-.88,1.49s-.63.63-1.12,1.35l-1,1.44c-.49.72-.4.78-.89,1.5s-.44.75-.92,1.47-.39.79-.88,1.51-.74.55-1.23,1.26-.28.86-.77,1.58-.53.69-1,1.41l-1,1.42c-.49.72-.55.67-1,1.39s-.43.76-.92,1.48-.42.76-.91,1.48-.6.64-1.09,1.36l-1,1.44c-.49.72-.32.84-.81,1.56l-1,1.44c-.49.72-.73.56-1.22,1.28s-.34.82-.82,1.54-.65.61-1.14,1.33-.41.77-.9,1.48-.32.84-.81,1.56l-1,1.43c-.48.72-.68.58-1.17,1.3s-.33.83-.81,1.55-.66.61-1.15,1.33-.35.8-.84,1.52a10.83,10.83,0,0,1-1.08,1.53c-.67.69-.86.47-1.63,1a4.6,4.6,0,0,1-.86.47,4.73,4.73,0,0,1-1,.27c-.53.05-.82.07-1.12.07a1.79,1.79,0,0,1-1.12-.35,2.24,2.24,0,0,1-.74-.87c-.12-.25-.22-.48-.43-.94a10.26,10.26,0,0,1-.57-1.76c-.22-.84-.1-.87-.32-1.71s-.35-.81-.57-1.65-.32-.82-.54-1.66-.14-.86-.36-1.7-.33-.81-.55-1.65,0-.9-.21-1.74-.4-.8-.62-1.64,0-.89-.24-1.73-.23-.84-.47-1.67-.29-.83-.51-1.67-.17-.85-.39-1.69-.31-.82-.53-1.66l-.42-1.69c-.22-.84-.14-.86-.36-1.7s-.28-.83-.5-1.67-.28-.82-.5-1.66-.1-.87-.32-1.72-.17-.85-.39-1.69l-.44-1.68c-.22-.85-.52-.77-.74-1.61s0-.89-.23-1.73l-.48-1.68c-.22-.84-.14-.86-.36-1.7s-.92-.68-.43-1.68a1.42,1.42,0,0,1,1.27-.33c.91.63.39.79.61,1.63s0,.9.21,1.74.34.81.55,1.65.16.86.38,1.7l.46,1.67.42,1.69c.22.84.35.81.57,1.65s.11.87.33,1.71.21.84.43,1.68.35.81.57,1.65,0,.89.23,1.73.26.83.48,1.67.4.8.62,1.64.22.84.45,1.68.14.86.36,1.7.24.84.47,1.67.08.88.3,1.72.18.85.4,1.69.29.82.51,1.66.24.84.47,1.68.27.83.49,1.67.08.87.3,1.71l.44,1.69c.22.84.34.81.56,1.65a9,9,0,0,0,.6,1.5,2.35,2.35,0,0,0,.72,1.06l.49.32a.9.9,0,0,0,.6.13,2.09,2.09,0,0,0,.65-.22c.16-.09.31-.18.63-.39.62-.45.5-.61,1-1.16a10.39,10.39,0,0,0,1.07-1.21c.48-.71.67-.59,1.16-1.3s.29-.86.78-1.58.6-.63,1.09-1.35l1-1.44c.49-.72.41-.77.9-1.49s.43-.76.92-1.48l1-1.43,1-1.44c.49-.72.7-.57,1.19-1.29s.44-.76.92-1.48.38-.79.87-1.51.55-.67,1-1.39l1-1.46c.49-.72.57-.66,1-1.38s.36-.81.85-1.53.43-.76.92-1.48l1-1.44,1-1.44c.48-.72.63-.62,1.12-1.34s.56-.67,1-1.39l1-1.44c.49-.72.24-.89.72-1.61s.64-.62,1.13-1.34.6-.64,1.09-1.36.24-.89.73-1.61.54-.68,1-1.4.08-1,1-1.42C160.48,121,161.39,121.68,161.42,122Z"/><path class="cls-3" d="M114.25,49.87A1.44,1.44,0,0,0,115,51a2,2,0,0,0,1.32.46,2.21,2.21,0,0,0,1.3-.64,1.78,1.78,0,0,0,.54-1.35,1.92,1.92,0,0,0-.75-1.31c-.38-.25-.94-.06-1.45,0a1.82,1.82,0,0,0-1.2.54A1.38,1.38,0,0,0,114.25,49.87Z"/><path class="cls-2" d="M129.83,50.45c.58.5,0,.28-.1.52s-.25.17-.36.41l-.2.46c-.11.24,0,.28-.13.51s-.06.25-.17.48,0,.28-.13.5-.39.08-.5.3.1.34,0,.56-.16.19-.27.41-.14.2-.25.42-.17.18-.27.4-.05.24-.14.46,0,.24-.1.46-.2.16-.27.38a2.47,2.47,0,0,0-.11.43c0,.21.14.25.13.44s0,.2,0,.39-.27.2-.25.4.23.15.27.33-.13.25,0,.42.15.15.28.3.29,0,.41.19a2.65,2.65,0,0,0,.29.29c.16.13,0,.33.17.46s.27-.06.42,0,.09.26.28.33.23-.09.42-.06.2-.09.37-.08.19.29.39.26a2.2,2.2,0,0,0,.37-.07c.18-.08.05-.34.17-.42s.23.06.35-.06a1.14,1.14,0,0,0,.15-.23c.06-.14.19-.09.22-.27s-.1-.18-.1-.35-.12-.15-.16-.31,0-.18,0-.32-.16-.07-.24-.16.05-.27,0-.32-.14.14-.18.13-.1-.22-.21-.2a.22.22,0,0,0-.1.08s0,0,0,.07,0,.12,0,.2,0,.07,0,.16.13.12.2.26.09.19.2.39.05.24.18.43.18.16.31.34.19.14.33.32.06.24.22.4.12.2.29.34a4,4,0,0,0,.34.27c.19.12.35-.14.53-.05s.09.29.28.38.21,0,.42.11.18.14.4.19.34-.67.44.08a4.74,4.74,0,0,1-.18,1.3c-.37.67-.31.14-.58.08s-.21-.29-.48-.37-.3,0-.57-.08a14.33,14.33,0,0,0-1-.58,5.28,5.28,0,0,1-.44-.36c-.21-.17-.3-.08-.51-.27s-.11-.29-.29-.49l-.33-.42c-.17-.22-.27-.15-.42-.37s0-.34-.11-.56-.16-.18-.31-.46-.29-.16-.41-.58a2.34,2.34,0,0,1-.07-.87c.1-.42.17-.39.39-.72.1-.13.17-.19.21-.24a1.2,1.2,0,0,1,.41-.28c.4-.13.45,0,.83,0a1.94,1.94,0,0,1,.75.24c.33.18.36.12.63.36a2.38,2.38,0,0,1,.42.54,2.77,2.77,0,0,1,.29.6c.08.32-.06.35,0,.66a2.31,2.31,0,0,1-.05.64c-.07.31,0,.35-.09.67s-.08.39-.32.68a3.22,3.22,0,0,1-.56.41c-.29.17-.37,0-.66.14s-.28.17-.59.23-.29.24-.62.25a6.19,6.19,0,0,1-.62-.13c-.31-.07-.26-.29-.53-.37s-.37.13-.66,0-.2-.27-.45-.45a5.44,5.44,0,0,1-.43-.36c-.21-.2-.29-.11-.48-.33s-.24-.19-.43-.42a2.82,2.82,0,0,1-.31-.53,2.12,2.12,0,0,1-.25-.58c-.08-.31.14-.37.1-.65s-.09-.29-.11-.58-.11-.3-.09-.59.12-.28.17-.55a2.85,2.85,0,0,1,.12-.54c.08-.26.17-.24.25-.49s0-.3.05-.55,0-.27.15-.5l.22-.48c.11-.23.11-.23.23-.45s.27-.15.39-.37.19-.18.31-.4l.23-.44c.11-.22-.16-.36-.05-.58s.27-.14.38-.36.24-.15.34-.37-.17-.35-.07-.57.16-.19.25-.41-.37-.4.23-.42A5.22,5.22,0,0,1,129.83,50.45Z"/><path class="cls-2" d="M110.87,48.87c-.23-.7.07-.16.18-.21s.19.09.31,0l.22-.12c.12-.06.07-.16.19-.21s.1-.1.22-.15.07-.17.19-.22.24.24.36.19,0-.27.16-.31.14,0,.26,0,.14,0,.26-.05.15,0,.27,0,.11-.09.24-.13.1-.1.23-.13.16.1.28.07a2.44,2.44,0,0,1,.26-.06c.13,0,.09-.22.22-.24l.26-.06c.13,0,.17.27.3.25s.1-.2.23-.21.15.18.28.17.12-.1.25-.11.12-.22.25-.22h.27c.13,0,.13.24.26.23s.13-.19.26-.19.13.2.26.21.13-.15.26-.14.14-.11.28-.1.1.3.23.31.12,0,.25.06.17-.28.3-.26.1.18.23.2l.26.05c.13,0,.1.15.23.18s.15-.11.28-.08.15-.08.28,0,.1.11.23.15.15-.08.28,0,.06.25.18.29.18-.13.3-.09.06.24.18.29.13,0,.25.05.15,0,.27,0,.1.09.22.14.15,0,.27,0a2.53,2.53,0,0,0,.23.12c.12.06.08.14.2.19s.14,0,.25.07.15,0,.26.06.06.17.17.24.08.11.19.18l.22.13c.1.07.27-.2.38-.13s0,.26.1.33.13,0,.23.11.06.15.17.22.53-.5.2.15a8,8,0,0,1-.79,1c-.52.52-.2.08-.29,0s0-.26,0-.33-.17,0-.26,0-.06-.12-.16-.18l-.21-.11c-.1-.06-.09-.08-.19-.14s-.16.06-.26,0-.05-.16-.15-.22l-.2-.11c-.1,0-.16.07-.27,0s0-.24-.11-.3-.12,0-.23-.05-.18.13-.29.08l-.21-.08c-.1,0-.07-.13-.18-.17s-.12,0-.23,0-.06-.17-.17-.21-.1-.08-.21-.12-.13,0-.24,0-.12,0-.23,0-.13,0-.24,0-.07-.17-.19-.19l-.23,0c-.11,0-.13.1-.25.08s-.13.1-.24.07-.11-.05-.22-.07-.09-.18-.2-.2-.13.06-.24,0-.13.18-.25.18-.1-.09-.22-.09-.1-.24-.22-.24-.12.23-.23.23-.11-.15-.23-.15h-.23c-.11,0-.11.09-.23.09s-.11.07-.22.08h-.23l-.22,0c-.11,0-.15-.24-.26-.23s-.11.07-.22.09-.1.15-.21.17-.12,0-.24,0l-.22.06c-.11,0-.13-.06-.24,0s-.08.19-.19.21-.09.1-.2.12a2,2,0,0,1-.22.08l-.21.07c-.11,0-.17-.13-.28-.09s-.14,0-.25,0l-.21.09c-.11,0,0,.33-.1.37s-.17-.12-.28-.07-.16-.09-.27,0,0,.33-.08.38-.13,0-.23,0,.13.49-.23.06A10.92,10.92,0,0,1,110.87,48.87Z"/><path class="cls-2" d="M111.14,48.8c.49-.55.16,0,.26,0s0,.21.12.27l.21.12c.11.06.16,0,.26,0s.14,0,.24.06.16-.05.27,0,0,.33.06.38.22-.16.33-.11.08.1.18.15.1.08.2.12.08.12.19.16.13,0,.24,0,.14,0,.25,0,.06.17.17.21l.23.07c.11,0,.17-.17.27-.13l.23,0c.11,0,0,.31.16.34s.15-.15.26-.13.08.21.2.23.13-.06.24,0,.15-.18.26-.17l.23,0c.12,0,.09.25.21.26s.14-.18.25-.17.11.21.23.21.12-.15.24-.14.12-.11.24-.11.12.29.24.3.12,0,.24,0,.12-.3.24-.3.12.17.25.17l.24,0c.12,0,.13.13.25.12s.11-.14.23-.15.12-.11.24-.12.12.07.24.06.12-.12.24-.13.14.22.26.2.1-.19.22-.2.15.19.27.17.12,0,.24-.06.11-.09.23-.11.13,0,.25,0,.11-.11.23-.13l.24,0c.12,0,.14.06.26,0s.11-.08.23-.1.11-.08.23-.11.15.1.27.08.13,0,.25,0l.24,0c.12,0,.06-.33.18-.36s.16.19.29.16.11-.07.23-.09.14,0,.26,0,0-.73.24,0a9,9,0,0,1,.3,1.27c0,.73-.08.2-.21.23s-.17-.2-.3-.17-.1.14-.22.17-.14,0-.26,0l-.25.07a1.9,1.9,0,0,1-.25,0c-.12,0-.1.16-.22.18s-.15-.09-.28-.06l-.25,0c-.12,0-.1.15-.23.17s-.16-.19-.28-.17-.12.07-.25.09-.1.2-.22.22l-.26,0c-.13,0-.14-.07-.26,0s-.13.06-.25.07-.15-.13-.28-.11-.13,0-.26,0-.12.1-.24.11-.13,0-.26.05-.12.06-.25.07-.14-.13-.27-.12h-.26c-.12,0-.12.13-.25.13s-.12.13-.25.13-.13,0-.26,0-.14-.17-.27-.17-.13.07-.26.07-.13.2-.26.19-.13-.07-.26-.08-.12-.23-.25-.24-.15.24-.28.22-.12-.15-.25-.16l-.27,0c-.13,0-.14.08-.27.06s-.14,0-.28,0l-.26-.06-.27,0c-.13,0-.08-.28-.2-.31s-.15,0-.28,0-.16.09-.29.06-.11-.11-.23-.15-.14,0-.27-.06-.09-.13-.22-.17-.18.1-.3.06-.15,0-.28,0l-.25-.09-.25-.11c-.12-.06,0-.22-.16-.28s-.08-.13-.2-.19l-.23-.12c-.11-.06-.26.21-.38.14s0-.22-.14-.28,0-.19-.15-.25-.27.19-.38.12-.07-.13-.19-.2-.37.35-.19-.17A9.61,9.61,0,0,1,111.14,48.8Z"/><path class="cls-2" d="M137.4,51.12c-.24-.69.06-.15.18-.21s.19.09.3,0l.23-.12c.11-.06.07-.16.19-.21s.09-.1.22-.15.07-.16.19-.21.24.23.35.19,0-.28.16-.32.15,0,.27,0,.14,0,.26-.05.14,0,.27,0,.11-.09.23-.12.11-.11.24-.14.16.1.28.07l.26-.05c.12,0,.08-.23.22-.25l.25-.06c.13,0,.18.27.3.25s.11-.19.24-.21.15.18.28.17.12-.1.25-.11.12-.21.25-.22h.26c.13,0,.14.24.27.24s.13-.2.26-.2.13.21.25.21.14-.15.27-.14.14-.11.27-.1.11.3.23.32a2.38,2.38,0,0,1,.26,0c.13,0,.16-.28.3-.26s.1.19.23.21l.25,0c.13,0,.11.15.23.18s.16-.1.28-.08.16-.08.28,0,.11.11.23.15.16-.07.28,0,.07.25.19.29.18-.13.3-.09,0,.25.17.29.14,0,.26.05.15,0,.27,0,.1.1.21.15.16,0,.28,0a2.53,2.53,0,0,1,.23.12c.11,0,.08.13.19.19s.14,0,.26.06.14,0,.26.07.06.16.16.23.09.11.2.18l.21.14c.11.06.28-.2.39-.13s0,.25.1.32.12,0,.23.12.06.14.16.21.54-.5.21.15a10.29,10.29,0,0,1-.79,1c-.53.52-.2.08-.3,0s.05-.26,0-.33-.16,0-.26,0,0-.12-.15-.18l-.21-.11a2.31,2.31,0,0,1-.19-.14c-.1-.06-.17.06-.27,0s0-.16-.14-.21l-.21-.11c-.1-.06-.16.06-.26,0s0-.24-.11-.29-.13,0-.23,0-.19.12-.29.07l-.21-.08c-.11,0-.08-.13-.18-.17s-.13,0-.24,0-.06-.18-.16-.22-.1-.08-.21-.12-.14,0-.25,0-.12,0-.23,0-.12,0-.23,0-.08-.17-.19-.19l-.23,0c-.11,0-.14.09-.25.07s-.13.1-.24.07-.11-.05-.22-.07-.09-.18-.21-.19-.12.05-.24,0-.13.17-.24.17-.11-.08-.22-.09-.1-.23-.22-.24-.12.23-.24.23-.11-.15-.22-.14h-.23c-.12,0-.12.09-.23.1s-.11.06-.22.07h-.23l-.23,0c-.11,0-.14-.24-.26-.23s-.1.08-.22.1-.09.15-.2.16-.13,0-.24,0a1.42,1.42,0,0,0-.22.07c-.11,0-.14-.06-.25,0s-.07.19-.18.22-.1.09-.21.12l-.21.07-.21.08c-.11,0-.17-.14-.28-.1s-.14,0-.25,0l-.21.09c-.11.05,0,.33-.1.37s-.18-.12-.28-.07-.17-.08-.27,0,0,.32-.08.37-.13,0-.24,0,.14.49-.22.06A10.92,10.92,0,0,1,137.4,51.12Z"/><path class="cls-2" d="M137.66,51.05c.49-.55.16,0,.27,0s0,.21.11.28l.22.11c.1.06.16,0,.26,0s.13,0,.24.07.16-.06.26,0,0,.33.07.38.22-.16.32-.11.08.1.19.15.09.08.2.13.08.11.19.15.13,0,.24,0,.14,0,.24,0,.07.17.18.2l.22.07c.11,0,.17-.16.28-.13l.22,0c.12,0,0,.3.16.33s.16-.15.27-.13.08.21.19.24.13-.07.25,0,.14-.18.26-.17l.23,0c.11,0,.09.26.21.26s.13-.18.25-.17.1.21.22.22.13-.15.25-.15.12-.11.24-.11.11.3.24.3.12,0,.24,0,.12-.3.24-.3.12.17.24.17h.24c.12,0,.13.12.25.11s.12-.13.24-.14.11-.12.23-.13.13.08.25.06.11-.12.23-.13.15.22.27.21.1-.2.22-.21.14.19.27.18.11,0,.24-.07.11-.09.23-.11.13,0,.25,0,.1-.11.23-.13l.24,0c.12,0,.13.06.26,0s.11-.08.23-.11.11-.08.23-.1.14.09.26.07.13,0,.26,0l.24,0c.12,0,.05-.33.17-.36s.17.19.29.16.11-.06.23-.09.14,0,.26,0,0-.73.25,0a9.33,9.33,0,0,1,.29,1.27c.05.74-.08.21-.2.24s-.18-.21-.3-.18-.1.14-.22.17-.14,0-.27,0a2.17,2.17,0,0,1-.24.07,2.42,2.42,0,0,1-.25,0c-.13,0-.1.16-.23.19s-.15-.09-.27-.07l-.25,0c-.13,0-.1.15-.23.17s-.16-.19-.29-.16-.12.06-.24.08-.1.21-.23.23l-.25,0c-.13,0-.14-.06-.27,0s-.12.06-.25.08-.14-.13-.27-.12-.13,0-.26,0-.12.09-.25.1-.12,0-.25.05-.13.06-.26.07-.13-.13-.26-.12h-.26c-.13,0-.12.13-.25.13s-.13.13-.26.14-.13,0-.26,0-.13-.17-.26-.17-.13.07-.26.07-.13.2-.26.2-.13-.08-.26-.09-.13-.23-.26-.24-.14.24-.27.23-.13-.16-.26-.17l-.26,0c-.13,0-.14.08-.28.06s-.14,0-.27,0l-.26-.05-.27-.06c-.13,0-.08-.27-.21-.31s-.14,0-.27,0-.16.09-.29.06-.11-.11-.24-.15-.13,0-.26-.06-.1-.12-.22-.17-.18.11-.31.06-.15,0-.27,0l-.25-.09-.25-.11c-.12,0,0-.22-.17-.27s-.07-.14-.19-.2l-.23-.12c-.12-.06-.27.21-.38.15s0-.22-.14-.29-.05-.19-.16-.25-.26.19-.37.12-.08-.13-.19-.19-.38.35-.19-.18A10.76,10.76,0,0,1,137.66,51.05Z"/><path class="cls-3" d="M140.79,52.12a1.5,1.5,0,0,0,.64,1.17,2.14,2.14,0,0,0,1.37.41A2.06,2.06,0,0,0,144,53a1.66,1.66,0,0,0,.64-1.25,1.79,1.79,0,0,0-.8-1.22,2.13,2.13,0,0,0-1.42-.3,1.94,1.94,0,0,0-1.15.76A1.39,1.39,0,0,0,140.79,52.12Z"/><path class="cls-2" d="M126.07,68.72c-.45-.58,0-.17.09-.25s.21,0,.3,0,.09-.09.19-.16,0-.16.14-.23.08-.12.19-.19.06-.16.18-.23.25.24.36.19,0-.27.16-.31.14,0,.27,0a2.28,2.28,0,0,1,.26,0c.13,0,.14.06.26,0s.12-.07.25-.08.13-.07.26-.07.12.15.25.16l.24,0c.13,0,.17-.18.3-.14l.26.06c.12,0,0,.32.14.36s.18-.12.29-.07,0,.23.13.27.14,0,.22,0,.18-.13.26-.1a.91.91,0,0,0,.13.08c.06,0,0,.25,0,.27s.1-.17.12-.17a1.34,1.34,0,0,0,0,.2c0,.09,0,.08,0,.08a.57.57,0,0,0-.08-.09l-.08-.06,0,0,.05,0c.06,0,.12.08.14.05s0,0,.07-.1-.26-.15-.22-.27.22-.11.27-.27l.12-.32c.08-.14.18,0,.25-.17s0-.23.12-.33.07-.19.22-.27.18,0,.33,0,.13-.12.3-.12.17.26.31.31.16-.14.32-.06.1.29.23.37.17.06.28.13.13,0,.22,0,.06.1.15.16.14,0,.23.05.08.08.17.14,0,.13.12.19.12,0,.21.08.12,0,.21.08,0,.17.09.23,0,.11.13.18l.16.14c.08.07.28-.17.36-.1s-.06.24,0,.31.11,0,.19.11,0,.14.09.21.58-.44.15.15c-.11.15-.77.82-.91.94-.57.46-.2.06-.27,0s.1-.24,0-.31-.16,0-.23,0,0-.12-.11-.18-.08,0-.15-.12a.93.93,0,0,1-.14-.14c-.08-.06-.16,0-.24,0s0-.15-.08-.21l-.15-.12c-.07-.06-.15,0-.23,0s.05-.23,0-.28-.11,0-.19-.08-.18.1-.26,0l-.17-.1c-.08-.05,0-.12-.11-.17s-.06,0-.09,0,0-.15,0-.18,0-.06-.06-.08,0,.07-.07.05,0,0-.06,0,0,.06,0,.07-.11-.14-.14-.11l0,.07s.07.14.06.17.1.1.09.12,0,0,0,0-.19.05-.23.15,0,.15-.07.3.09.25-.07.43-.22.12-.43.24-.31-.11-.5-.07-.19.25-.4.24-.14-.18-.29-.22l-.25-.09c-.12,0-.16,0-.26,0s-.14,0-.23,0l-.18-.11-.15-.07c-.07,0,0-.28-.05-.3s-.1,0-.18,0-.11.1-.18.08-.06-.09-.14-.11-.08,0-.16,0-.07-.1-.15-.1-.09.16-.16.15-.07.08-.15.08l-.14,0-.14,0c-.07,0-.12-.16-.19-.13s-.11-.07-.18,0l-.15.07c-.08,0,.06.31,0,.34s-.15-.11-.22-.07-.15-.08-.21,0,.12.28.06.33-.1,0-.15,0,.31.4-.15.08A13.59,13.59,0,0,1,126.07,68.72Z"/><path class="cls-2" d="M127.22,68.77c.55-.49.14,0,.2,0s0,.18,0,.24l.14.1c.07,0,.14,0,.2,0s.11,0,.18,0,.14,0,.2,0-.1.3,0,.35.2-.15.28-.11,0,.09.11.14.06.08.13.12,0,.1.11.15.11,0,.18,0,.11,0,.19,0,0,.16.09.2l.16.07c.07,0,.16-.15.23-.12l.16,0c.08,0,0,.31,0,.34s.14-.14.22-.12,0,.21.1.24.11-.06.19,0,.13-.17.21-.15l.15,0c.08,0,0,.25.11.27s.12-.17.2-.16,0,.21.13.22.1-.14.18-.13.08-.11.16-.1.06.3.14.3.08,0,.16,0,.08-.3.15-.3.09.17.17.16l.17,0c.08,0,.09.12.17.11s.07-.15.14-.16.06-.12.14-.14.1.07.17.05.05-.13.13-.15.14.19.22.17,0-.2.1-.23.14.17.22.14.07-.06.14-.1.05-.1.12-.13.1,0,.17,0,0-.12.1-.16l.15-.07c.07,0,.11,0,.18,0s0-.09.11-.14,0-.09.09-.14.14,0,.21,0,.1,0,.17-.07l.13-.1c.06-.06-.15-.29-.09-.35s.21.11.27,0,0-.09.08-.15.12,0,.18-.06-.49-.54.11-.13a11.88,11.88,0,0,1,1,.86c.48.55.06.19,0,.27s-.25-.08-.32,0,0,.16-.06.23-.11,0-.19.1a1.92,1.92,0,0,1-.14.15c-.08.07-.09,0-.17.12s0,.17-.07.23-.16,0-.24,0l-.17.12c-.09.06,0,.16-.1.22s-.21-.12-.29-.07-.07.09-.16.14,0,.22-.09.26l-.19.11c-.1,0-.13,0-.23,0s-.08.08-.18.12-.15-.1-.24-.06-.12,0-.21,0-.08.11-.18.14-.09,0-.19.08-.09.07-.2.1-.13-.12-.23-.1l-.2,0c-.1,0-.09.14-.19.15s-.1.14-.2.15-.11,0-.22,0-.11-.17-.22-.17-.1.07-.21.07-.12.2-.23.19-.1-.09-.21-.1S131.06,72,131,72s-.14.22-.24.21-.08-.17-.18-.19l-.2,0c-.1,0-.13.06-.23,0s-.11,0-.21,0l-.2-.07-.2-.07c-.09,0,0-.27-.1-.31s-.11,0-.21,0-.14.09-.23,0-.07-.11-.16-.15a1.46,1.46,0,0,0-.19-.07c-.09,0-.05-.12-.14-.17s-.16.1-.25,0-.12,0-.21,0l-.18-.09-.18-.1c-.08-.06,0-.21-.07-.26s0-.13-.12-.18l-.16-.12c-.09,0-.26.2-.35.14s0-.21,0-.27,0-.17-.07-.23-.27.17-.35.1,0-.12-.11-.18-.41.3-.12-.17A13.59,13.59,0,0,1,127.22,68.77Z"/><path class="cls-2" d="M132.11,66.92c0-.43.2-.52.34-.47s.27.19.44.21c.32,0,.26.22.46.29l.36.11c.18.07.22,0,.4,0s.21,0,.39.12.25,0,.43.09,0,.37.2.5.32-.06.51.1a4.5,4.5,0,0,1,.3.42,2.4,2.4,0,0,1,.24.51,1.6,1.6,0,0,1,0,.57c0,.27.09.28,0,.57a1.87,1.87,0,0,1-.12.58c-.15.25-.26.18-.42.37a2.69,2.69,0,0,1-.35.33c-.18.14-.07.3-.26.43a4,4,0,0,1-.39.23c-.19.09-.31-.17-.5-.09s-.12.24-.31.31-.24-.12-.44-.07-.17.14-.38.18-.16.25-.38.27a3,3,0,0,1-.42,0c-.21,0-.22-.22-.42-.23s-.21.2-.42.18-.19-.22-.39-.25-.22.13-.42.09-.23.06-.43,0-.12-.34-.31-.4l-.36-.15c-.19-.08-.3.19-.49.1s-.11-.25-.29-.34l-.34-.19c-.18-.11-.11-.22-.27-.33s-.24,0-.39-.12-.23,0-.38-.17-.1-.2-.25-.33-.24-.06-.44-.33-.06-.32,0-.47a.3.3,0,0,0,0-.19c-.06-.25-.25-.24-.23-.62a.51.51,0,0,1,.22-.36c.08-.08.17-.13.3-.26a1.43,1.43,0,0,1,.25-.23.77.77,0,0,1,.26-.15c.26-.09.23-.15.48-.2s.23,0,.45,0,.22-.1.42-.08.21,0,.41,0,.18.11.38.14.2,0,.4,0,.2,0,.44,0,.14.19.3.24.14.11.21.13l.16,0c.08,0,0-.34,0-.34l0,0s.14.13.17.09,0,0,.05-.18.15-.13.27-.33-.38-.73.4-.45a2.2,2.2,0,0,1,.42.5l.33.5a1.82,1.82,0,0,0,.28.27s-.14-.09-.15,0-.27,0-.35.15,0,.29-.17.53-.2.18-.33.28a.42.42,0,0,0-.13.07,1.16,1.16,0,0,1-.53.21,1.68,1.68,0,0,1-.59,0c-.29-.07-.33.05-.52,0s-.15-.18-.29-.23l-.29-.08c-.15,0-.18.09-.34.06s-.12-.24-.29-.26-.17,0-.32,0-.17.18-.31.17l-.26,0c-.09,0-.13-.07-.19,0s0,0,0,0-.09-.1-.09-.11-.09,0,0,0,0,0,.06,0-.05,0,0,.12,0,0,0,0,.07,0,.09.06.06,0,.16.13.16.07.28.18,0,.21.17.31l.26.2c.14.1.2,0,.34.08s.2,0,.34,0,.12.12.26.18.07.23.22.29.18,0,.33,0,.21-.14.36-.1.13.11.28.15.11.25.27.28.19-.22.34-.21.15.15.31.16.15,0,.31,0,.15-.11.3-.13.14-.08.29-.11.15,0,.29-.06l.3-.09c.15-.06.24.19.39.13s.13-.12.27-.19.08-.18.2-.26.16,0,.26-.09.08-.1.16-.18.14,0,.2-.12-.11-.14-.1-.2,0-.06-.06-.13,0-.06,0-.11l-.07-.13c-.06-.07.07-.19,0-.28s0-.16-.16-.24l-.25-.17c-.14-.08-.29.19-.42.12s-.06-.23-.21-.29-.1-.2-.26-.26-.26.22-.42.17-.12-.11-.16-.12a2.58,2.58,0,0,0,0-.29v0a.64.64,0,0,0,0,.07s0,0,0,0l-.25-.37A1.82,1.82,0,0,1,132.11,66.92Z"/><path class="cls-2" d="M137.46,47.77c-.26-.68,0-.15.13-.19s.18.1.27.05l.18-.11c.1-.05.05-.15.15-.19s.07-.1.17-.15,0-.15.14-.2.23.24.32.19,0-.26.11-.3.12,0,.22,0,.11,0,.21-.05.12,0,.22,0,.08-.09.18-.13.08-.11.18-.14.15.09.25.06l.2-.07c.1,0,0-.22.15-.25l.2-.08c.11,0,.18.25.29.23s.05-.2.16-.23.15.16.25.14.09-.11.19-.13.06-.22.17-.25l.21,0c.11,0,.15.21.26.19s.07-.21.17-.23.14.19.25.17.08-.17.19-.18.09-.13.19-.15.15.28.25.27.11,0,.21,0,.08-.31.19-.32.12.17.23.16l.21,0c.11,0,.11.12.22.12s.1-.14.21-.14.1-.12.21-.12.11.09.22.09.1-.11.21-.11.11.22.21.22.11-.17.22-.17.1.21.2.22.11,0,.22,0,.11-.07.22-.07.1.06.21.07.11-.08.22-.07.1,0,.21,0,.09.09.2.11.11,0,.22,0,.11,0,.22,0,.09.14.19.15.1.08.2.1l.21,0c.1,0,.17-.28.27-.26s.06.23.17.26.11,0,.21,0,.09.11.19.13.3-.67.21.06c0,.18-.28,1.09-.35,1.26-.29.68-.14.15-.24.13s0-.26-.13-.28-.12.1-.21.07-.08-.08-.18-.1-.1,0-.19,0-.09,0-.19-.06-.12.11-.21.09-.08-.13-.18-.14l-.19,0c-.09,0-.11.11-.21.1s-.07-.23-.16-.24-.11,0-.2,0-.12.17-.21.16h-.2c-.09,0-.09-.09-.18-.09s-.1,0-.2,0-.09-.15-.19-.16-.09,0-.19,0-.1.08-.2.08-.1,0-.19,0-.1,0-.2,0-.1-.14-.2-.14h-.19c-.1,0-.09.12-.19.13s-.09.13-.19.13-.1,0-.19,0-.11-.16-.21-.15-.09.07-.19.08-.07.21-.17.22-.1-.06-.2,0-.13-.21-.22-.2-.06.25-.16.27-.12-.13-.21-.11l-.2,0c-.09,0-.07.11-.17.13s-.08.08-.17.1l-.19,0-.19,0c-.09,0-.16-.22-.25-.2s-.08.08-.18.11-.06.15-.15.18-.11-.05-.21,0-.08.05-.18.08-.12,0-.21,0,0,.18-.13.21-.07.1-.16.13l-.18.08-.17.07c-.09,0-.16-.13-.25-.09s-.13,0-.22,0l-.17.08c-.09,0,0,.32,0,.36s-.16-.12-.25-.08-.15-.08-.24,0,0,.31,0,.36-.11,0-.2,0,.16.48-.19,0A11,11,0,0,1,137.46,47.77Z"/><path class="cls-2" d="M113.25,43.8c0-.73.1-.12.21-.13s.14.15.25.14l.22,0c.11,0,.1-.11.21-.11s.11-.06.22-.07.11-.12.22-.12.1.31.21.31.11-.24.22-.24.1.05.21.06.11,0,.21,0,.1.08.21.08.11-.06.21-.05.11-.07.22-.06.09.14.2.15l.21,0c.1,0,.12-.19.23-.18h.21c.1,0,.07.3.17.31s.13-.16.23-.15.08.2.18.22.12-.08.22-.06.13-.19.23-.17l.21,0c.1,0,.07.26.17.27s.13-.17.24-.16.07.22.17.24.13-.14.23-.12.12-.09.23-.08,0,.31.15.33.09,0,.2.06.16-.27.26-.25.07.19.17.21l.2,0c.1,0,.08.15.18.17s.13-.11.23-.08.13-.08.23-.06.08.1.18.13.13-.09.23-.06,0,.25.15.27.15-.15.25-.12.05.23.15.25.11,0,.21,0,.12,0,.22,0,.09.08.19.11.12-.06.22,0l.2.08c.1,0,.08.12.18.15s.12,0,.22,0,.12,0,.22,0,.06.15.16.19.08.09.18.13l.2.08c.1,0,.22-.24.32-.19s0,.24.12.28.12,0,.22.07.06.13.16.18.48-.56.2.12a11.44,11.44,0,0,1-.69,1.11c-.46.58-.17.12-.25.08s0-.26,0-.3-.13.07-.22,0,0-.1-.14-.14l-.18-.06-.17-.09c-.09,0-.14.09-.23.06s0-.14-.14-.18l-.18-.07c-.09,0-.13.09-.22.06s0-.23-.12-.26-.11,0-.2,0-.15.15-.25.12l-.19,0c-.09,0-.07-.11-.16-.14s-.11,0-.21,0,0-.17-.15-.2-.09-.06-.18-.09-.12,0-.21,0-.11,0-.2,0-.11,0-.21,0-.07-.16-.16-.18l-.2,0c-.09,0-.12.1-.22.08s-.12.1-.22.08-.09-.06-.18-.08-.07-.19-.17-.21-.11,0-.21,0-.13.18-.23.16-.08-.09-.18-.11-.06-.24-.16-.26-.14.22-.23.2-.08-.16-.18-.17l-.19,0c-.1,0-.12.08-.22.07s-.1,0-.2,0a1.42,1.42,0,0,1-.2,0l-.19,0c-.1,0-.07-.27-.17-.28s-.11,0-.2,0-.12.12-.22.11-.09-.09-.19-.09-.1,0-.19,0-.1-.1-.19-.11-.12.15-.21.15-.11.06-.2.05h-.39c-.1,0-.09-.18-.19-.18s-.1-.09-.2-.09h-.19c-.1,0-.1.31-.19.31s-.1-.17-.19-.17-.1-.14-.2-.13-.07.3-.16.31-.09-.06-.18-.05,0,.5-.18,0A12.21,12.21,0,0,1,113.25,43.8Z"/><circle class="cls-3" cx="138.5" cy="74.01" r="1.01"/><path class="cls-2" d="M194.94,248.35c-1.76,1.76-2.1,1.29-4.29,2.41s-2.28,1-4.54,1.93-2.26,1-4.57,1.85c-1.16.41-1.73.64-2.3.88a21.07,21.07,0,0,1-2.33.81c-2.37.69-2.33.83-4.73,1.41s-2.36.76-4.78,1.23-2.48.2-4.91.57-2.4.61-4.85.88-2.46.19-4.92.38-2.47.08-4.93.18-2.46-.07-4.92-.07-2.46,0-4.93-.12-2.46-.1-4.91-.3-2.44-.38-4.88-.7-2.44-.31-4.86-.73-2.47-.19-4.88-.7-2.42-.47-4.81-1.05-2.32-.86-4.7-1.49-2.41-.5-4.78-1.18-2.28-.92-4.62-1.68-2.36-.71-4.66-1.58-2.38-.66-4.65-1.6-2.27-1-4.53-2-2.13-1.25-4.36-2.3-2.3-.89-4.47-2.06-2.07-1.36-4.21-2.57-2.21-1.1-4.28-2.44-2.12-1.27-4.15-2.7A11.87,11.87,0,0,1,62.31,234a17.43,17.43,0,0,0-1.83-1.67c-1.84-1.64-1.84-1.64-3.64-3.33s-2-1.51-3.65-3.34-1.56-1.92-3.1-3.85-1.58-1.9-3-3.89-1.35-2.07-2.71-4.13-1.43-2-2.71-4.12c-.64-1.05-1-1.58-1.27-2.11s-.63-1.07-1.21-2.16c-1.14-2.19-1-2.25-2.09-4.47s-1.06-2.23-2-4.51-.63-2.39-1.46-4.72-.92-2.3-1.58-4.68-.44-2.43-.93-4.85-.53-2.42-.9-4.84-.45-2.41-.82-4.84-.31-2.43-.64-4.86-.4-2.42-.71-4.86-.26-2.44-.49-4.89-.14-2.45-.32-4.9-.22-2.46-.31-4.92-.14-2.45-.16-4.92.14-2.46.24-4.92.17-2.46.39-4.92.25-2.45.59-4.89.07-2.61,1.23-5a7,7,0,0,1,.89-1.31,4,4,0,0,1,.76-.77c.26-.21.49-.45.82-.7s.72-.55,1.27-.89a15.76,15.76,0,0,1,4.7-2,32.68,32.68,0,0,1,5-.73c2.46-.23,2.47-.94,4.89-.36a.7.7,0,0,1,.09,1.3c-2.32.88-2.41.32-4.82.54a31.25,31.25,0,0,0-4.76.55,12.64,12.64,0,0,0-2.24.76c-.51.28-1.06.5-2,1.11a9.63,9.63,0,0,0-1.77,1.42,3.16,3.16,0,0,0-.61.68,6.15,6.15,0,0,0-.75,1.12,11.87,11.87,0,0,0-1.36,4.43c-.33,2.4-.36,2.4-.59,4.82s-.07,2.43-.2,4.85-.21,2.43-.23,4.86,0,2.44.09,4.87.23,2.43.37,4.86,0,2.45.19,4.88.28,2.42.55,4.85.47,2.4.8,4.82.34,2.42.69,4.84.28,2.43.66,4.84.47,2.39.9,4.78.41,2.39,1,4.75.65,2.35,1.34,4.68.89,2.26,1.72,4.54.94,2.25,1.93,4.47,1,2.19,2.16,4.34c.58,1.07.83,1.63,1.09,2.18A16.57,16.57,0,0,0,42.77,209c1.26,2.07,1.2,2.12,2.56,4.13s1.42,2,2.87,3.93,1.54,1.88,3.07,3.76,1.53,1.87,3.14,3.69,1.56,1.86,3.25,3.6,1.84,1.6,3.64,3.22,2,1.42,3.92,2.84,1.9,1.5,4,2.8,1.94,1.48,4,2.74,2.23,1,4.38,2.15,2.09,1.24,4.27,2.35,2.19,1.06,4.41,2.06,2.26.91,4.52,1.83,2.28.85,4.56,1.72,2.29.83,4.58,1.65,2.31.77,4.64,1.49,2.25,1,4.61,1.59,2.37.59,4.74,1.14,2.4.44,4.79.92,2.38.54,4.78,1,2.41.34,4.82.7,2.4.38,4.83.66,2.44,0,4.86.21,2.44.06,4.87.12,2.43,0,4.86,0,2.43,0,4.86-.21,2.44,0,4.86-.24,2.43-.16,4.84-.55,2.4-.38,4.79-.86,2.31-.81,4.66-1.39,2.39-.48,4.72-1.16l2.33-.68c.59-.17,1.17-.34,2.32-.75,2.29-.84,2.15-1.19,4.4-2.09s2.23-1,4.43-2,1.94-1.6,4.31-2.25C194.89,246.9,195.38,247.9,194.94,248.35Z"/><path class="cls-2" d="M30.52,118.41c-.77-.88-.16-.92-.27-1.89s0-1-.17-1.93-.22-1-.48-1.89-.37-.91-.67-1.85-.37-.92-.68-1.85-.44-.9-.77-1.84,0-1-.36-2-.55-.87-.85-1.84-.24-1-.49-2a14,14,0,0,1-.31-2.09,6.94,6.94,0,0,1,.23-2.2A5.8,5.8,0,0,1,26.09,96a3.58,3.58,0,0,1,.7-1,6.49,6.49,0,0,1,.93-.73,5.06,5.06,0,0,1,1-.52,17.34,17.34,0,0,0,1.79-.64,3.68,3.68,0,0,0,1.26-1.18c.33-.4.49-.65.71-.9a2,2,0,0,1,.45-.38,2,2,0,0,1,.88-.3,2.92,2.92,0,0,1,.84.07,1.23,1.23,0,0,0,.27,0l.2,0a2.28,2.28,0,0,0,.35-.11L36,90a1.5,1.5,0,0,0,.62-.63c.28-.43.42-.71.61-1a2.1,2.1,0,0,1,1.11-.8,2,2,0,0,1,1.38.12,3.6,3.6,0,0,0,.88.3c.36,0,.35-.06.5-.16a.85.85,0,0,0,.27-.44,1.47,1.47,0,0,0,0-.77,4.92,4.92,0,0,1-.16-1l-.08-2c-.06-1,.18-1,.12-2s-.25-1-.32-2,.15-1,.09-2-.21-1-.26-2-.16-1-.19-2,.27-1,.27-2,0-1,.08-2c.06-.56.08-.84.09-1.14a2.25,2.25,0,0,1,.37-1.15,2.16,2.16,0,0,1,1.08-.94,2.08,2.08,0,0,1,1.64.06,2.1,2.1,0,0,1,1,1,4.82,4.82,0,0,1,.37,1.07c.26,1,.13,1,.39,2s.37.94.61,1.91.35.94.58,1.92.14,1,.37,2,.31,1,.52,1.93,0,1,.18,2,.37.94.56,1.93,0,1,.14,2,.21,1,.36,2,.22,1,.38,2,.08,1,.21,2,.23,1,.34,2l.2,2c.1,1,0,1,.09,2s.16,1,.21,2,.12,1,.18,2-.09,1-.05,2,0,1,0,2l0,2c0,1,.31,1,.27,2s-.26,1-.3,2l-.12,2c-.08,1-.15,1-.28,2s.59,1.11-.25,2a1.24,1.24,0,0,1-1.29-.18c-.61-1-.07-1,.05-2s.36-1,.43-1.94,0-1,0-2,.1-1,.14-2,0-1,0-2l0-2c0-1-.15-1-.18-2s.11-1,.05-2-.05-1-.11-2-.2-1-.27-2,.13-1,0-2-.16-1-.26-2-.3-1-.43-1.94-.13-1-.27-2-.06-1-.22-2-.19-1-.36-1.94,0-1-.2-2-.14-1-.33-2-.26-1-.47-1.92-.23-1-.45-1.93-.27-1-.49-1.92-.09-1-.33-2L44.68,71c-.25-1-.37-.93-.62-1.88a2.09,2.09,0,0,0-.33-.8,1,1,0,0,0-.32-.3.26.26,0,0,0-.2,0c-.06,0-.2.08-.39.38-.35.67-.54.67-.68,1.5s0,1,0,1.93.2,1,.22,2,0,1,0,2-.18,1-.13,2,.3,1,.36,2-.09,1,0,2,.05,1,.11,2,.14,1,.19,2c0,.51.07.76.1,1a3.47,3.47,0,0,1-.09,1.24A2.24,2.24,0,0,1,42,89.13a2.73,2.73,0,0,1-.57.29,2.23,2.23,0,0,1-.94.08,10.73,10.73,0,0,1-1.07-.23,1.31,1.31,0,0,0-.57,0,5.64,5.64,0,0,0-.56.21,1.41,1.41,0,0,0-.62.61,8.13,8.13,0,0,1-.6.9,2.48,2.48,0,0,1-1,.77,3.88,3.88,0,0,1-1.24.32c-.33,0-.75-.07-.91,0a.89.89,0,0,0-.28.07l-.22.11a2.84,2.84,0,0,0-.61.6,4.87,4.87,0,0,1-1.62,1.52,14.61,14.61,0,0,1-1.93.77,2.62,2.62,0,0,0-.79.47l-.6.54a1.87,1.87,0,0,0-.43.62,5,5,0,0,0-.25.74,5.33,5.33,0,0,0-.1,1.71,11.07,11.07,0,0,0,.3,1.83c.23.92.07,1,.34,1.92s.21,1,.52,1.9l.64,1.87c.33.94.62.84,1,1.78s.16,1,.47,2,.17,1,.44,2,.56.9.79,1.9.13,1,.29,2,.62,1,.13,2.06C31.83,118.66,30.72,118.64,30.52,118.41Z"/><path class="cls-2" d="M104.93,29.28a2.81,2.81,0,0,1-.77-1.53L104.1,27a6.78,6.78,0,0,0,0-1,11.38,11.38,0,0,1-.11-1.7c0-.43.11-.86.14-1.71a8.54,8.54,0,0,1,.19-1.68c.09-.42.13-.85.34-1.67s.39-1.21.5-1.62a6.49,6.49,0,0,1,.64-1.58,19.42,19.42,0,0,1,1.68-2.94c.48-.7.77-1,1-1.37a8.61,8.61,0,0,1,1.07-1.32,23.75,23.75,0,0,1,2.66-2.07,29.29,29.29,0,0,1,2.51-2.22c1.41-.91,1.43-.88,2.89-1.71a30.74,30.74,0,0,1,3-1.44,31.87,31.87,0,0,1,3.14-1.15l1.59-.5a10,10,0,0,1,1.62-.44,33.25,33.25,0,0,1,3.27-.67c1.66-.18,1.68-.06,3.34-.15s1.66-.07,3.33,0,1.67-.11,3.34,0,1.66.17,3.3.49,1.58.63,3.19,1,1.65.28,3.23.84a30.74,30.74,0,0,1,3,1.46c.77.33,1.14.52,1.51.7a15.2,15.2,0,0,1,1.49.76A27.06,27.06,0,0,1,158.82,7a28.1,28.1,0,0,1,2.61,2.15c1.2,1.15,1,1.32,2.18,2.52s1.27,1.09,2.32,2.38.89,1.42,1.85,2.77,1.08,1.27,2,2.68,1,1.37,1.75,2.83.5,1.61,1.21,3.11S173.35,27,174,28.5s.85,1.45,1.38,3a27.32,27.32,0,0,1,.72,3.28c.34,1.63.32,1.63.58,3.27s.09,1.65.29,3.28.32,1.62.49,3.25.27,1.62.45,3.24.1,1.63.31,3.24.33,1.6.59,3.19.07,1.63.46,3.18a6.1,6.1,0,0,0,.56,1.47c.09.17.18.34.28.56s.26.41.42.72a9,9,0,0,0,.87,1.09,3.29,3.29,0,0,0,1.2.85,9.25,9.25,0,0,0,1.45.51c.38.1.77.18,1.55.34,1.58.3,1.6.2,3.22.46.82.14,1.23.23,1.64.33s.81.21,1.63.43,1.24.39,1.64.58a6.44,6.44,0,0,1,.66.28c.24.14.53.31.91.55a8.12,8.12,0,0,1,1.33,1.22,8.89,8.89,0,0,1,1,1.46,6.82,6.82,0,0,1,.68,1.63,15.89,15.89,0,0,1,.41,1.68c.15.85.21,1.27.25,1.7a11.29,11.29,0,0,1,.09,1.7,23.76,23.76,0,0,1-.24,3.37c-.29,1.65-.44,1.64-.83,3.24s-.48,1.56-.85,3.14a19,19,0,0,0-.51,3.14c-.05,1.55.24,1.56.56,3a5.54,5.54,0,0,0,.25.8,2.11,2.11,0,0,0,.2.54c.07.17.14.33.24.54s.31.39.55.67a6.3,6.3,0,0,0,2.5,1.48,9.39,9.39,0,0,0,1.44.32,5.05,5.05,0,0,0,1.48,0,2.64,2.64,0,0,0,1.35-.63,2.69,2.69,0,0,1,1.39-.42c.39,0,1,.66.75,1.07a2.41,2.41,0,0,1-1.43,1.16c-.46.14-1,.15-1.84.3a4.67,4.67,0,0,1-1.81-.07c-.44-.09-.88-.2-1.73-.45a11,11,0,0,1-1.65-.68,6.81,6.81,0,0,1-1.44-1.06c-.31-.34-.54-.59-.71-.82s-.26-.44-.38-.64a3.39,3.39,0,0,1-.32-.66,6.88,6.88,0,0,1-.36-1,9.4,9.4,0,0,1-.31-3.48,20,20,0,0,1,.54-3.32c.38-1.62.27-1.65.68-3.23s.52-1.53.8-3.1a21.08,21.08,0,0,0,.28-3.16,7.35,7.35,0,0,0-.11-1.57c-.06-.39-.13-.77-.26-1.53s-.21-1.12-.29-1.5a4.3,4.3,0,0,0-.51-1.44,6.51,6.51,0,0,0-.89-1.22,9.53,9.53,0,0,0-1.12-1c-.32-.2-.56-.34-.77-.45s-.4-.14-.58-.21c-.35-.13-.73-.21-1.46-.46a25.24,25.24,0,0,0-3.09-.66c-1.61-.26-1.6-.32-3.24-.63-.82-.16-1.24-.25-1.65-.36a9.29,9.29,0,0,1-1.66-.57,5,5,0,0,1-1.51-1,6.61,6.61,0,0,1-.53-.53c-.18-.23-.41-.49-.68-.86s-.39-.7-.51-1l-.23-.65c-.15-.41-.27-.81-.5-1.62a33.19,33.19,0,0,1-.78-3.24c-.27-1.63-.31-1.62-.53-3.26s-.25-1.62-.44-3.26,0-1.64-.21-3.27-.17-1.62-.35-3.25-.3-1.6-.53-3.21-.35-1.59-.68-3.15a26.94,26.94,0,0,0-.79-3.09c-.52-1.52-.35-1.59-.92-3.1s-.65-1.48-1.32-2.95-.85-1.38-1.61-2.8-.7-1.46-1.53-2.84-.67-1.48-1.58-2.82-1.14-1.16-2.14-2.43-.92-1.33-2-2.52-1.11-1.17-2.27-2.29a29.85,29.85,0,0,0-2.53-1.95,27.8,27.8,0,0,0-2.69-1.71c-.69-.4-1-.58-1.39-.77s-.7-.4-1.43-.72a30.73,30.73,0,0,0-3-1.23c-1.5-.53-1.43-.76-3-1.22s-1.57-.37-3.16-.66S141.63,2,140,1.72s-1.59-.25-3.2-.3-1.61,0-3.22.05-1.61,0-3.21.19a30.2,30.2,0,0,0-3.13.72,10.68,10.68,0,0,0-1.54.41l-1.52.49a31.56,31.56,0,0,0-3,1.17,28.24,28.24,0,0,0-2.87,1.41c-1.39.78-1.47.65-2.82,1.52A25.29,25.29,0,0,0,113,9.25a23.06,23.06,0,0,0-2.34,2.19,4.64,4.64,0,0,0-.93,1.3,11.79,11.79,0,0,1-.85,1.33,17,17,0,0,0-1.76,2.61c-.35.7-.57,1-.71,1.41a14.9,14.9,0,0,0-.58,1.47,5.39,5.39,0,0,0-.17,1.57c0,.39,0,.78,0,1.55s-.06,1.16-.09,1.55.06.77.15,1.55a4.72,4.72,0,0,0,.18.9l.29.59a3,3,0,0,1,.2,1.56C106.28,29.28,105.22,29.63,104.93,29.28Z"/><path class="cls-2" d="M166.71,49.4c-.71-.19-.1-.11-.09-.2s.18-.07.19-.16v-.18c0-.09-.1-.1-.1-.19s-.05-.09-.05-.17-.13-.09-.13-.17.31-.1.3-.18-.25-.07-.26-.14.05-.09,0-.17,0-.08,0-.16,0-.09,0-.16-.08-.06-.11-.12-.1,0-.12-.1.09-.12.05-.19l-.07-.11c0-.06-.2.07-.24,0s-.05,0-.08-.08.15-.25.1-.29-.17.1-.21.06,0-.2,0-.23-.09,0-.16,0-.13.16-.19.14-.05,0-.11,0,0-.25-.1-.26-.09.18-.16.17-.06-.21-.14-.2-.07.15-.15.16-.06.12-.13.12-.12-.27-.2-.26h-.16c-.08,0,0,.31-.07.33s-.13-.14-.2-.11l-.15.06c-.07,0-.13-.08-.2,0s0,.15-.08.19,0,.13-.07.17-.11,0-.17,0,0,.14-.06.19-.21-.12-.27-.06.06.19,0,.25-.21-.09-.27,0,0,.09-.09.15,0,.12-.05.18-.09.05-.15.12,0,.12,0,.2-.06.06-.11.13-.12,0-.17.11,0,.11,0,.19,0,.11,0,.19-.15,0-.2.11-.09.06-.13.14l-.09.17c-.05.09.23.23.19.31s-.23,0-.28.08,0,.11,0,.19-.12.06-.16.15.61.39-.09.17a10.66,10.66,0,0,1-1.19-.55c-.62-.39-.12-.16-.08-.26s.26,0,.3-.08-.06-.14,0-.23.1-.07.15-.16,0-.1.07-.19.07-.09.12-.18-.07-.16,0-.25.16,0,.21-.13l.11-.18c.05-.09-.06-.16,0-.25s.24,0,.3-.07,0-.12.08-.21-.09-.19,0-.28.06-.1.13-.19.13,0,.21-.12,0-.11.12-.2.18,0,.26-.06.11,0,.19-.13,0-.13.12-.21.07-.09.16-.17.07-.11.17-.18.18,0,.28,0l.21-.11c.1,0,0-.16.16-.21s.06-.16.18-.21.13,0,.24,0,.17.13.28.1.1-.1.22-.12.09-.22.22-.24.13.07.26.06.13.22.25.22.13-.24.26-.23.11.15.24.17l.25.05c.12,0,.14-.06.27,0s.15,0,.28,0a1.83,1.83,0,0,1,.24.13,1.4,1.4,0,0,1,.24.15c.12.08,0,.28.07.36s.13,0,.23.13.18,0,.27.11,0,.15.1.25.09.1.16.21,0,.16,0,.27.19,0,.24.17.11.1.15.22a2.17,2.17,0,0,1,.07.24,2.21,2.21,0,0,1,.05.25c0,.12-.16.14-.14.26s-.07.12-.07.23l0,.23c0,.11.31.1.31.22s-.18.11-.18.22-.15.11-.16.21.29.14.28.25-.08.1-.09.21.48.18-.07.21C168,49.61,166.88,49.44,166.71,49.4Z"/><path class="cls-2" d="M187.19,121.67c-.92,0-.44-.39-.88-.84s-.35-.54-.87-.91a12.21,12.21,0,0,0-1.12-.66c-.58-.31-.63-.21-1.23-.5s-.64-.23-1.25-.52-.68-.17-1.31-.48-.49-.6-1.1-1-.75-.17-1.34-.61a6.64,6.64,0,0,1-1.06-1.06,6.53,6.53,0,0,1-.9-1.19,6.11,6.11,0,0,1-.64-1.34,6.2,6.2,0,0,1-.54-1.37,7.12,7.12,0,0,1-.36-1.41,9.89,9.89,0,0,1,0-1.44c-.05-.71,0-.7,0-1.4s-.19-.69-.18-1.39,0-.67,0-1.35.3-.67.31-1.34-.2-.65-.24-1.3.14-.67,0-1.29a5.71,5.71,0,0,0-.43-1.18,1.57,1.57,0,0,0-.32-.53,1.62,1.62,0,0,1-.4-.46,4,4,0,0,0-.71-.93,3,3,0,0,1-.36-.55,2,2,0,0,0-.42-.57c-.49-.5-.63-.37-1.11-.9s-.31-.67-.73-1.25-.55-.5-.9-1.15a7.28,7.28,0,0,1-.72-1.32,1.45,1.45,0,0,1-.08-.76,2.36,2.36,0,0,0,0-.75,8.07,8.07,0,0,1-.09-1.47c0-.72-.26-.74-.18-1.49s.3-.69.49-1.38a12.23,12.23,0,0,1,.46-1.37c.28-.65.4-.6.69-1.22s.17-.68.44-1.28.16-.65.36-1.24a5.71,5.71,0,0,0,.33-1.15,3.63,3.63,0,0,0-.15-1.11,2.11,2.11,0,0,1-.05-.57,1.11,1.11,0,0,0-.13-.6c-.3-.55-.46-.45-.81-1s-.22-.64-.64-1.16-.46-.49-.91-1-.51-.47-1-1a12.88,12.88,0,0,1-.81-1.18,7.72,7.72,0,0,1-.77-1.26,9.8,9.8,0,0,1-.48-1.38,11.4,11.4,0,0,1-.25-1.42c-.09-.71-.18-.7-.23-1.42a13.55,13.55,0,0,1-.08-1.43,13.71,13.71,0,0,1,.21-1.41c.09-.69.13-.69.25-1.38s.12-.69.28-1.37-.15-.75,0-1.43.4-.61.6-1.27.17-.68.4-1.33.3-.62.54-1.27-.44-.91.48-1.28a1.77,1.77,0,0,1,1.22.46c.45.87-.07.7-.3,1.33s-.45.55-.68,1.19-.09.68-.3,1.32-.26.62-.44,1.26-.16.65-.31,1.3-.16.65-.28,1.3,0,.67-.05,1.32-.19.64-.2,1.29,0,.65,0,1.3.2.63.27,1.26-.11.68.09,1.3a9.54,9.54,0,0,0,.48,1.19c.26.59.43.48.74,1s.37.52.77,1,.35.56.79,1.07.48.49.93,1,.33.63.75,1.21a8.63,8.63,0,0,1,.73,1.26l.33.67a2.72,2.72,0,0,1,.26.74,4.85,4.85,0,0,1,.1,1.56A6.65,6.65,0,0,1,172,81a12.9,12.9,0,0,1-.64,1.29l-.58,1.25c-.28.61-.17.66-.43,1.26A9.4,9.4,0,0,0,170,86a10.47,10.47,0,0,0-.33,1.22c-.06.62-.26.61-.27,1.24a6.39,6.39,0,0,0,.17,1.24c.11.61.3.56.49,1.13a6.15,6.15,0,0,0,.43,1.15c.29.55.12.66.48,1.2s.58.37,1,.87.32.58.79,1,.46.41,1,1,.62.46,1,1.13a4.82,4.82,0,0,1,.74,1.33,7.18,7.18,0,0,1,.41,1.44,14.24,14.24,0,0,1,.2,1.44c0,.72-.22.73-.19,1.43s.06.69,0,1.38.11.69.09,1.37-.1.68-.1,1.35,0,.67.05,1.32a11.41,11.41,0,0,0,0,1.31,7,7,0,0,0,.4,1.22,5,5,0,0,0,.47,1.14,4.64,4.64,0,0,0,.59,1.07,4.9,4.9,0,0,0,.75,1c.4.46.3.57.78,1a11.52,11.52,0,0,0,1,.79c.57.32.56.33,1.16.63s.73,0,1.34.3.55.44,1.17.74.57.43,1.19.75.76.09,1.38.48a9.65,9.65,0,0,1,1.13,1c.52.53.94.24,1,1.18C188.38,121.09,187.43,121.67,187.19,121.67Z"/><path class="cls-2" d="M158.29,41.13c-.45.72-.46.11-.92.1s-.46-.17-.92-.19-.47,0-.93,0-.48.07-1,0-.47,0-.94-.05-.49.05-1,0-.4-.39-.86-.52-.53.1-1-.06-.44-.23-.9-.42-.43-.25-.86-.5a8,8,0,0,1-.78-.63,5.9,5.9,0,0,1-.79-.63,8.27,8.27,0,0,1-.73-.72c-.3-.42-.18-.5-.43-.92s-.23-.42-.44-.83-.39-.31-.6-.7a7,7,0,0,0-.43-.71c-.22-.32,0-.49-.26-.82s-.4-.19-.7-.45-.19-.42-.53-.66-.41-.15-.76-.37-.46,0-.84-.18-.38-.17-.78-.3-.34-.34-.76-.46-.46.1-.88,0-.4-.27-.83-.31-.45.11-.89.08-.43.1-.87.09-.44-.29-.88-.27-.44,0-.89,0-.42.33-.86.38-.47-.12-.91-.06l-.9.12c-.45.06-.47-.07-.92,0s-.44.19-.9.25-.44.17-.9.22-.47,0-.94,0-.46.14-.93.17-.48-.21-.95-.2-.47.18-1,.17-.47-.23-.94-.28-.48,0-1-.1-.48,0-1-.12-.45-.18-.91-.32-.48-.08-.94-.25l-.87-.43c-.42-.23-.39-.29-.8-.53s-.44-.2-.84-.48-.43-.22-.8-.53-.3-.39-.65-.72-.31-.37-.64-.72-.32-.35-.62-.72-.55-.18-.83-.58-.09-.53-.35-.93-.27-.41-.5-.83-.12-.48-.32-.91-.85-.23-.33-.91a2.75,2.75,0,0,1,1.25-.4c.83.16.3.34.46.74s-.06.49.14.88.29.33.52.69a7,7,0,0,0,.42.76,6.9,6.9,0,0,0,.53.68c.27.34.26.35.55.67s.4.22.71.51.24.37.57.65.34.27.69.53.43.13.79.36.27.39.65.61.41.14.81.32.47,0,.86.13l.82.23c.42.08.39.18.82.26s.43,0,.86.07.42.19.85.21.44.06.88.06.44-.08.89-.1.44-.05.88-.09.44-.09.89-.13.46.08.91,0l.9-.12c.45-.06.43-.18.89-.24s.43-.18.89-.24.46,0,.92-.07.48.12,1,.08.46-.1.93-.13.47-.21.94-.22.48.07,1,.1.46.25.93.3.5-.17,1-.11.45.23.91.34a7.55,7.55,0,0,1,.93.26,8.32,8.32,0,0,1,.95.25c.46.18.48.15.93.36s.43.25.84.54a5.41,5.41,0,0,1,.8.63c.39.33.18.54.52.89a7.77,7.77,0,0,1,.65.75c.27.41.38.35.61.77s.15.45.36.86.22.39.44.76a6,6,0,0,0,.37.76c.27.31.37.23.66.51a3.39,3.39,0,0,0,.64.49,4.36,4.36,0,0,0,.67.45c.35.21.35.2.72.39s.3.34.71.48a7.11,7.11,0,0,0,.8.34,8.08,8.08,0,0,0,.85.2c.43.09.49-.22.91-.15s.41.24.85.28.43.2.87.22.47-.27.91-.25.44.08.89.09.46-.5.9,0A3,3,0,0,1,158.29,41.13Z"/><path class="cls-2" d="M201.94,115.12c-.05,1-.45.51-1,.87s-.65.2-1.23.49a10.41,10.41,0,0,1-1.2.49,9.14,9.14,0,0,1-1.24.44,11.41,11.41,0,0,1-1.3.23,9.83,9.83,0,0,1-1.33.14c-.68,0-.64-.37-1.28-.47s-.69.1-1.34-.09a8.69,8.69,0,0,1-1.21-.53,9.33,9.33,0,0,1-1.15-.67,9.19,9.19,0,0,1-1-.85,8.38,8.38,0,0,1-1-.89,7.31,7.31,0,0,1-.85-1.06,6.5,6.5,0,0,1-.48-1.27,5.85,5.85,0,0,1-.37-1.3c-.13-.67-.3-.66-.34-1.34s0-.67.05-1.32.36-.61.45-1.22-.09-.63,0-1.23.27-.57.32-1.16a7.2,7.2,0,0,0-.07-1.14c0-.55-.25-.52-.35-1a3.77,3.77,0,0,0-.34-.94,1.35,1.35,0,0,1-.18-.49.72.72,0,0,0-.24-.49c-.36-.41-.52-.24-.92-.59s-.33-.49-.84-.78-.59-.15-1.12-.42-.59-.16-1.14-.42-.43-.52-1-.79l-1.1-.6c-.55-.3-.7-.06-1.26-.42s-.44-.53-1-1a5.4,5.4,0,0,1-.92-1c-.42-.56-.24-.67-.54-1.29a5,5,0,0,0-.24-.65,1.62,1.62,0,0,1-.17-.68,5.42,5.42,0,0,1-.06-1.39,6.4,6.4,0,0,1,.36-1.33,9.76,9.76,0,0,1,.4-1.26c.27-.57.48-.47.74-1s.07-.6.26-1.13.38-.48.51-1a8.9,8.9,0,0,0,.15-1.14,7.33,7.33,0,0,0,0-1.15,6.6,6.6,0,0,0,0-1.1,2.82,2.82,0,0,0-.42-.91,5.71,5.71,0,0,0-.62-.85,8.42,8.42,0,0,0-.77-.83c-.45-.38-.49-.32-1-.7s-.53-.33-1-.77a7,7,0,0,1-.83-1.09,5.72,5.72,0,0,1-.63-1.23,6.31,6.31,0,0,1-.33-1.33c-.08-.67-.39-.66-.36-1.37s.29-.67.46-1.33a6.72,6.72,0,0,1,.45-1.28,6.24,6.24,0,0,1,.81-1.1c.42-.5,0-1.07.95-1,.25,0,.81.79.83,1,.1.88-.25.47-.61.89s-.51.29-.78.77a4.44,4.44,0,0,0-.28,1.07,4.75,4.75,0,0,0-.26,1.05,4.86,4.86,0,0,0,0,1.08,4.51,4.51,0,0,0,.25,1c.21.48.33.41.62.83s.23.49.64.88.43.37.9.75.56.26,1.06.67.36.58.81,1a7,7,0,0,1,.86,1.06c.33.65.49.61.66,1.31a7.17,7.17,0,0,1,.15,1.36,11.4,11.4,0,0,1-.14,1.31,11.71,11.71,0,0,1-.16,1.31,13,13,0,0,1-.5,1.22,10.4,10.4,0,0,1-.53,1.17c-.27.57-.2.6-.46,1.14a9.38,9.38,0,0,0-.41,1.07,5.31,5.31,0,0,0-.17,1.07,4.44,4.44,0,0,0-.18,1.08,5.31,5.31,0,0,0,.2,1,4,4,0,0,0,.6.86c.29.44.43.33.79.71a7.32,7.32,0,0,0,.84.71c.48.3.38.46.91.74s.55.22,1.09.49.63.08,1.17.35.53.32,1.09.61.46.48,1,.79.68.14,1.24.51a6,6,0,0,1,.91,1,2.52,2.52,0,0,1,.43.53c.1.15.21.29.38.59a5.43,5.43,0,0,1,.59,1.27,6.55,6.55,0,0,1,.27,1.36,11.7,11.7,0,0,1,0,1.33c-.06.65-.06.64-.15,1.27s-.34.58-.43,1.18,0,.61-.09,1.2a10.76,10.76,0,0,0,.07,1.15,6.68,6.68,0,0,0,0,1.1,5.07,5.07,0,0,0,.32,1.05,5.67,5.67,0,0,0,.41,1c.29.48.44.38.78.81a7.12,7.12,0,0,0,.82.73c.43.35.44.33.89.65a9.27,9.27,0,0,0,1,.53c.51.22.45.39,1,.58a9.28,9.28,0,0,0,1.09.36,10.43,10.43,0,0,0,1.14.15c.57,0,.57-.29,1.12-.32s.58.12,1.14,0a8.9,8.9,0,0,0,1.14-.15c.55-.19.44-.47.95-.7a9.33,9.33,0,0,0,1-.48c.48-.32.17-.71.93-.63A2.26,2.26,0,0,1,201.94,115.12Z"/><path class="cls-2" d="M168.25,33.91c-.14.74-.21.13-.43.14s-.24-.15-.46-.13l-.44,0c-.23,0-.22.13-.44.13s-.23.06-.45.06-.22.13-.45.13-.22-.31-.44-.31-.23.23-.45.22-.22-.07-.45-.08-.22,0-.44-.06-.22-.09-.44-.12-.23,0-.45,0-.23.05-.45,0-.2-.16-.42-.19l-.44-.08c-.22,0-.26.16-.48.12l-.44-.07c-.22-.05-.16-.32-.37-.38s-.26.12-.47.06-.17-.24-.39-.3-.23,0-.45,0-.27.13-.48.06L158.1,33c-.22-.07-.14-.29-.35-.36s-.28.11-.49,0-.13-.27-.34-.36-.26.07-.47,0-.25,0-.46-.06-.09-.35-.29-.45l-.39-.2c-.2-.1-.33.17-.53.07s-.12-.25-.32-.35l-.4-.21c-.19-.11-.13-.22-.32-.33s-.26,0-.46-.1-.25,0-.44-.13-.14-.19-.33-.31-.24,0-.43-.15-.06-.31-.25-.43-.28,0-.47-.11-.05-.3-.23-.43-.2-.11-.38-.24-.23-.07-.4-.21-.14-.18-.31-.32-.23-.08-.4-.22l-.33-.3c-.17-.14-.11-.21-.27-.36s-.2-.11-.36-.27-.21-.11-.37-.26-.07-.24-.23-.4-.11-.2-.26-.37-.15-.16-.29-.33-.39.05-.54-.12,0-.31-.12-.48-.17-.15-.31-.33-.07-.22-.21-.4-.72.25-.27-.35a5.4,5.4,0,0,1,1-.78c.71-.27.28.06.41.22s-.06.31.07.48.22.08.35.25.08.2.22.36l.3.3.26.32c.14.16.24.06.38.22s.07.23.22.37l.3.3c.15.14.24,0,.39.19s0,.31.16.44.19.1.35.24.28,0,.44.13l.33.26c.16.13.11.19.28.32s.19.09.36.21.08.25.25.37.14.17.32.28.22.05.4.17.19.08.36.2.21.07.38.18.11.23.29.33l.37.21c.18.11.24,0,.43.1s.24,0,.42.09.17.13.36.22.11.25.3.34.22,0,.41.11.27-.08.46,0,.16.15.36.23.11.29.3.37.28-.15.48-.07.15.2.34.27l.4.14c.2.06.23,0,.43,0s.21,0,.42.06l.4.11.4.11c.2.05.14.31.35.36s.21,0,.42,0,.23-.09.44,0,.19.11.4.15.2,0,.41.06.2.11.41.14.23-.13.43-.11.22,0,.42,0a3,3,0,0,0,.42,0l.41,0c.21,0,.2.19.41.2s.21.1.42.11h.42c.21,0,.21-.31.42-.31s.21.18.42.17.21.15.42.13.19-.32.4-.33.21,0,.42,0,.16-.52.42,0A6.76,6.76,0,0,1,168.25,33.91Z"/><path class="cls-2" d="M194.23,110.12c-.57-.59,0-.37.13-.73s.28-.3.35-.66.08-.37.14-.73,0-.38,0-.75,0-.37,0-.73-.12-.37-.13-.74.29-.38.27-.75-.28-.34-.32-.71,0-.37-.08-.73,0-.37-.14-.73,0-.38-.14-.73-.17-.33-.31-.68-.2-.31-.36-.65,0-.39-.2-.72-.18-.33-.37-.65-.37-.21-.57-.52-.22-.29-.43-.59,0-.47-.23-.77-.38-.17-.63-.45-.11-.41-.38-.68-.32-.2-.6-.45-.41-.11-.7-.35-.27-.25-.57-.48-.15-.42-.46-.64-.42,0-.73-.26-.21-.37-.54-.57-.4,0-.73-.24-.39-.07-.72-.24-.21-.43-.56-.59l-.7-.34c-.37-.17-.49.1-.87-.09s-.3-.35-.67-.58a4.58,4.58,0,0,1-.72-.55c-.33-.33-.24-.41-.51-.79s-.37-.34-.54-.79-.25-.43-.32-.9a5.45,5.45,0,0,1,0-.91,6.78,6.78,0,0,1,0-.9c.08-.43.3-.38.41-.78s-.06-.46.08-.86.34-.31.49-.68.11-.38.26-.74.07-.38.2-.73.17-.34.27-.69,0-.37.07-.71a3.94,3.94,0,0,0,.08-.67,3.16,3.16,0,0,0,.05-.69,5,5,0,0,0-.18-.66,4.59,4.59,0,0,0-.28-.64c-.13-.32,0-.37-.19-.69s-.12-.34-.32-.65-.21-.3-.43-.6-.47-.08-.71-.35-.09-.42-.36-.68-.3-.22-.57-.48-.23-.31-.52-.54-.74.34-.6-.47a3.07,3.07,0,0,1,.77-1c.75-.35.44.09.76.35s.16.44.47.71.39.17.69.46.24.34.52.64a8.11,8.11,0,0,1,.55.62c.25.34.25.34.48.69s.34.29.55.66.1.44.26.84a5.62,5.62,0,0,1,.27.82c.1.42.23.4.29.84s-.16.46-.17.9a5.07,5.07,0,0,1,0,.87c-.07.42.1.46,0,.88s-.11.41-.25.8-.22.35-.36.73-.11.38-.26.74-.28.3-.41.66-.16.33-.27.68,0,.38-.08.72a5.62,5.62,0,0,0,0,.7,4.58,4.58,0,0,0,.08.66c.05.31-.09.34,0,.65a2.3,2.3,0,0,0,.27.57c.19.26.28.17.5.4s.32.11.59.29.27.22.58.39.26.31.6.47.38.09.75.26.45,0,.82.17.33.25.69.44.24.39.59.6.47,0,.81.23.27.34.6.58.33.23.65.48.38.18.69.44.35.22.66.49.29.29.59.58l.56.59c.27.31.08.48.34.79s.3.28.55.6.35.25.58.6.17.38.37.73.23.34.42.71a7.08,7.08,0,0,1,.28.77c.18.37.32.31.47.7s.21.36.35.75.13.4.24.8l.2.81c.07.41-.1.44,0,.84s0,.42,0,.83,0,.41.05.82.32.41.3.83-.18.41-.23.82-.18.4-.25.8.23.46.14.88-.18.39-.29.79.33.58-.31.78A3.51,3.51,0,0,1,194.23,110.12Z"/><path class="cls-2" d="M187.88,80.24c-.74-.2-.13-.25-.15-.5s.16-.27.13-.52,0-.25-.06-.5-.13-.24-.16-.49-.09-.23-.14-.47-.16-.22-.21-.46.25-.3.19-.54-.3-.16-.36-.39,0-.24-.11-.46,0-.23-.15-.43,0-.24-.15-.45-.18-.16-.3-.35-.19-.14-.34-.31,0-.26-.2-.43l-.34-.32c-.18-.15-.31,0-.49-.14l-.39-.27c-.2-.14,0-.38-.25-.52s-.31,0-.52-.11-.11-.3-.34-.43-.26-.06-.48-.19-.33,0-.56-.1l-.45-.29c-.22-.15-.09-.35-.31-.5s-.34,0-.56-.14-.1-.32-.31-.48-.31,0-.53-.19-.28-.08-.49-.25,0-.4-.23-.57-.19-.19-.38-.37-.4,0-.6-.14-.08-.31-.27-.5l-.38-.37c-.19-.19-.1-.28-.28-.48s-.27-.1-.45-.3-.27-.13-.44-.33-.11-.27-.28-.47-.26-.14-.42-.35,0-.36-.14-.57-.31-.1-.47-.32,0-.34-.12-.56-.18-.21-.33-.43-.2-.18-.34-.41-.1-.26-.24-.49-.21-.18-.34-.42l-.24-.48c-.13-.23-.05-.27-.16-.51s-.18-.22-.29-.46-.18-.21-.28-.46,0-.3-.09-.54a5.08,5.08,0,0,1-.15-.52l-.18-.5c-.09-.25-.39-.15-.48-.4s.13-.33,0-.58-.12-.25-.19-.51,0-.28,0-.54-.77-.1-.13-.51a4.28,4.28,0,0,1,1.27-.3c.77.07.24.2.31.44s-.18.31-.11.55.19.21.26.45,0,.26.09.5.1.23.18.47l.16.48c.08.23.21.18.31.41s0,.28.09.51a3.76,3.76,0,0,0,.2.46c.11.23.22.17.33.4s-.08.32,0,.54.16.2.28.43.28.13.41.34L176,63c.13.21.06.26.19.47s.18.19.32.39,0,.3.16.5.11.23.26.44.22.15.37.35.18.18.34.38.19.16.35.35.06.29.23.47l.34.38c.17.19.25.11.43.28s.27.09.45.27.14.21.33.37.07.3.25.47.23.12.43.28.32,0,.51.16.14.22.34.38.06.33.26.48.35,0,.55.1.12.26.33.4l.42.28c.21.14.26.06.48.19s.25.08.47.21l.44.27.46.28c.22.14.09.36.31.5s.26.1.48.26.3,0,.53.22.17.23.38.41.23.18.43.38.14.26.32.48.3.13.48.37.22.2.37.46a5.05,5.05,0,0,1,.28.51,3.54,3.54,0,0,1,.23.53c.11.27-.06.33,0,.6s0,.29.07.55.07.27.12.54.36.2.41.48-.13.3-.09.56-.11.29-.08.55.33.24.35.51-.05.27,0,.53.52.24,0,.53A5.25,5.25,0,0,1,187.88,80.24Z"/><path class="cls-2" d="M189.81,89c-.57-.47,0-.17,0-.3s.22,0,.28-.17l.12-.25c.06-.13,0-.17,0-.3s0-.16.06-.28-.06-.18,0-.31.34,0,.4-.14-.18-.22-.14-.35.1-.11.15-.24.08-.12.13-.25.12-.11.16-.25,0-.15,0-.28,0-.16,0-.29.17-.1.21-.24a2.13,2.13,0,0,0,.07-.27c0-.14-.17-.19-.14-.32l.05-.27c0-.14.32-.08.34-.22s-.15-.17-.13-.31.21-.11.23-.25-.06-.15,0-.29-.18-.17-.17-.3l0-.28c0-.14.26-.12.27-.26s-.18-.15-.17-.29.21-.13.22-.27-.15-.15-.15-.29-.11-.14-.1-.28.3-.14.29-.28,0-.14,0-.28-.3-.14-.3-.28.17-.14.16-.28l0-.28c0-.14.11-.15.1-.29s-.14-.13-.15-.27-.12-.13-.14-.27.06-.15,0-.29-.13-.12-.15-.26.21-.17.19-.31-.21-.11-.23-.25.17-.17.14-.31-.06-.14-.09-.27-.09-.13-.13-.26,0-.15,0-.29-.12-.11-.16-.24,0-.14-.06-.28,0-.16,0-.29-.11-.11-.15-.25-.11-.11-.15-.24.07-.18,0-.31,0-.15,0-.28l-.11-.26c0-.13-.34,0-.4-.14s.15-.22.09-.34-.1-.11-.16-.23,0-.17,0-.29-.7.2-.12-.26a7.94,7.94,0,0,1,1.15-.62c.71-.2.23.06.3.19s-.15.25-.08.39.18.08.25.22,0,.16.07.3l.13.28c.06.14,0,.15.1.29s.18.09.24.23-.06.19,0,.33l.1.29c0,.15.17.11.22.25s-.15.21-.11.36.08.13.12.28.22.1.26.25l.09.29c0,.15,0,.17,0,.32s.07.14.11.29-.12.18-.09.33,0,.16,0,.31.1.13.12.28,0,.15.07.3.07.15.09.3-.12.17-.1.32l0,.3c0,.15.13.14.14.29s.14.15.15.3,0,.16,0,.31-.17.16-.17.31.07.15.08.31.2.15.19.31-.08.15-.09.3-.23.15-.24.3.24.16.23.32-.16.14-.17.29l0,.3c0,.16.08.17.07.32s.05.16,0,.31l-.05.3,0,.31c0,.15-.28.11-.31.25s0,.16,0,.31.09.18.06.33-.11.13-.14.28,0,.16,0,.3-.13.13-.17.27.11.19.07.34,0,.17,0,.32,0,.15-.09.29l-.1.29c-.06.15-.22.09-.28.23s-.13.11-.18.26l-.12.28c-.06.14.22.26.16.4s-.23.07-.29.21-.19.08-.26.21.2.27.13.41-.13.11-.2.24.36.38-.18.26A10.11,10.11,0,0,1,189.81,89Z"/><path class="cls-2" d="M162.05,29.27c-.67.37-.23-.07-.38-.21s0-.27-.18-.42l-.31-.28c-.15-.14-.22-.06-.38-.2s-.2-.09-.36-.22-.24,0-.4-.18,0-.37-.12-.51-.32.06-.48-.06-.14-.17-.3-.3-.15-.15-.32-.28-.12-.19-.29-.31-.21-.06-.39-.18-.22-.06-.39-.18-.1-.23-.27-.35l-.36-.23c-.18-.11-.29.06-.47-.05l-.36-.21c-.18-.11,0-.37-.21-.47s-.27,0-.46-.06-.08-.28-.26-.39-.23,0-.41-.14-.29.07-.48,0l-.36-.22c-.19-.1-.07-.31-.26-.42s-.27.07-.46,0-.09-.28-.28-.38-.27,0-.45-.06-.25,0-.43-.11-.06-.36-.25-.46l-.37-.22c-.19-.1-.32.16-.51.06s-.11-.25-.3-.35l-.39-.2c-.19-.1-.13-.22-.32-.32s-.25,0-.44-.08-.24,0-.43-.11-.15-.18-.34-.28-.25,0-.44-.11-.08-.31-.27-.41-.28.06-.47-.05-.08-.29-.27-.4-.21-.07-.4-.18-.22,0-.41-.15-.16-.16-.35-.27-.23,0-.42-.14l-.37-.24c-.19-.11-.14-.19-.33-.3s-.21-.07-.4-.19-.21-.06-.4-.18-.12-.22-.3-.34-.15-.17-.33-.3l-.35-.26c-.18-.12-.37.14-.55,0s0-.3-.22-.44-.2-.1-.38-.24-.12-.2-.29-.33-.64.42-.35-.28a5.72,5.72,0,0,1,.83-1c.62-.44.28,0,.45.11s0,.32.18.45.24,0,.41.16.12.18.3.3l.35.23.34.26c.17.12.25,0,.42.13s.11.21.29.33l.35.23c.18.11.25,0,.43.12s.06.3.24.4.21.07.39.18.28-.05.46.06l.37.21c.18.11.14.18.33.29s.2.07.39.17.11.23.3.34.16.14.35.25.23,0,.41.13.21.08.39.18.22.06.4.16.13.22.32.33l.37.2c.19.1.25,0,.44.1s.25,0,.44.09.17.14.36.24.11.25.3.35.22,0,.41.14.29-.07.48,0,.15.17.34.28.08.3.27.4.31-.11.5,0,.12.23.31.34l.38.21c.18.11.23,0,.42.13s.22.05.41.16l.37.23.38.22c.19.11,0,.34.24.45s.22.06.4.17.26,0,.44.13.15.18.33.29.2.1.38.22.13.2.31.32.28,0,.46.12.22.07.4.19.19.12.36.26l.36.26c.17.14.06.28.24.41s.12.2.3.34l.33.28c.17.14.37-.09.54.05s0,.28.22.43.07.24.23.4.36-.07.53.09.11.2.27.36.52-.19.29.34A6.66,6.66,0,0,1,162.05,29.27Z"/><path class="cls-2" d="M167.38,30.22c-.78,0-.2-.2-.3-.44s.06-.31,0-.56a4.16,4.16,0,0,0-.22-.48c-.11-.24-.2-.2-.31-.44s-.16-.22-.27-.45-.23-.19-.35-.42.15-.37,0-.61-.32-.13-.46-.35-.08-.26-.21-.49-.1-.25-.23-.47-.06-.27-.21-.5-.2-.19-.34-.41-.21-.18-.35-.4,0-.3-.18-.52l-.3-.43c-.16-.22-.32-.1-.47-.31s-.16-.21-.32-.42.07-.39-.1-.6-.3-.09-.47-.3,0-.33-.18-.54-.24-.14-.41-.34-.33-.07-.5-.27l-.34-.4c-.17-.2,0-.37-.18-.56s-.33-.05-.51-.24,0-.33-.23-.52-.3-.08-.48-.27-.27-.1-.47-.28,0-.39-.19-.57l-.38-.37c-.19-.18-.39,0-.58-.14s-.1-.3-.3-.47l-.42-.33c-.2-.17-.12-.27-.33-.44s-.28-.07-.49-.23-.28-.07-.5-.22-.16-.22-.38-.38-.27-.07-.49-.22-.08-.35-.3-.5-.32,0-.55-.14-.11-.32-.33-.46-.24-.12-.46-.26-.27-.08-.49-.23-.21-.17-.44-.31-.27,0-.51-.18l-.45-.28c-.23-.13-.19-.2-.42-.33a3.47,3.47,0,0,0-.5-.2c-.24-.12-.27-.07-.51-.19s-.18-.22-.42-.34-.21-.17-.45-.29l-.48-.24c-.24-.12-.37.18-.62.07s-.15-.3-.4-.41-.26-.07-.5-.17-.22-.19-.46-.29-.52.56-.49-.22a4.39,4.39,0,0,1,.49-1.21c.51-.57.32-.06.57,0s.16.33.41.44.3,0,.55.11.23.16.48.27.26.09.51.21l.48.26c.25.12.31,0,.55.12s.2.23.44.35l.49.25c.25.12.31,0,.55.15s.14.32.37.46.27.09.5.23.34,0,.58.11.24.13.48.27.18.22.42.37.25.12.48.27.15.27.38.42.21.18.44.33.27.1.49.26.24.14.46.3.25.12.48.29.14.27.36.43l.43.35c.21.17.28.08.5.25s.29.08.5.26.19.2.4.38.1.31.3.5.25.13.45.32.34,0,.55.23.15.24.35.43,0,.36.22.56.37,0,.56.23.09.3.28.49.19.2.37.41.25.15.44.35.23.17.41.38l.36.42.34.44c.17.22,0,.38.14.59s.21.18.38.4.27.15.43.37.1.27.26.49l.34.44c.16.23.08.28.23.51s.28.15.43.38.21.2.35.44a4.66,4.66,0,0,1,.3.47l.27.48c.14.24,0,.33.12.57s.05.28.18.53l.25.49c.13.24.4.11.53.36s-.05.33.07.58,0,.31.09.56.4.13.5.39,0,.29.14.55.57.08.16.53A5,5,0,0,1,167.38,30.22Z"/><path class="cls-2" d="M164.78,79.81c-.63.39-.2,0-.33-.18s0-.25-.12-.38l-.24-.26c-.12-.14-.2-.07-.31-.21s-.16-.11-.27-.25-.2-.07-.31-.22.15-.33.05-.47-.3,0-.4-.17,0-.18-.15-.33a3.27,3.27,0,0,0-.14-.33c-.09-.16,0-.19-.11-.35s-.14-.13-.22-.29-.15-.12-.23-.28.05-.22,0-.38l-.14-.33c-.07-.16-.26-.09-.33-.25l-.14-.33c-.06-.17.21-.27.16-.44s-.23-.11-.28-.27.12-.23.08-.4-.14-.14-.18-.31-.25-.12-.29-.29l-.07-.35c0-.17.19-.23.15-.4s-.23-.13-.26-.3.17-.21.13-.39-.18-.14-.21-.32-.14-.15-.17-.33.27-.21.24-.39,0-.17,0-.34-.31-.14-.33-.32.16-.19.14-.36l0-.35c0-.18.12-.18.11-.36s-.14-.16-.15-.34-.12-.17-.12-.34.07-.18.07-.35-.11-.17-.12-.35.23-.17.23-.34-.18-.18-.18-.35.21-.17.21-.34,0-.18,0-.35-.07-.17-.06-.35,0-.17.06-.34-.08-.17-.07-.35l0-.34c0-.17.1-.17.11-.34s-.05-.17,0-.34-.05-.18,0-.35.13-.16.14-.33.07-.17.09-.34l0-.34c0-.17-.29-.2-.28-.37s.24-.14.25-.31,0-.18,0-.35.1-.16.11-.33-.69-.25,0-.33a6.37,6.37,0,0,1,1.3.13c.7.24.16.19.14.36s-.25.14-.27.31.1.18.09.34-.08.17-.1.33v.34c0,.17,0,.17-.05.33s.12.18.1.35-.13.16-.14.32l0,.34c0,.16.12.17.11.34s-.23.15-.24.32,0,.17,0,.34.17.17.17.34v.33c0,.17-.09.16-.1.33s0,.17,0,.33-.15.16-.16.33,0,.17,0,.33.08.17.08.33,0,.17,0,.34.05.16.06.32-.13.17-.13.34l0,.33c0,.17.13.16.14.32s.13.16.15.32,0,.17,0,.33-.15.18-.13.34.09.16.11.32.21.14.24.3,0,.17,0,.33-.2.2-.17.36.27.12.3.27-.11.19-.08.35l.07.32c0,.16.13.14.17.29s.1.15.14.3l.08.31.1.31c.05.15-.2.23-.15.39s.12.13.17.29.18.1.24.25,0,.18.05.33.08.14.15.29,0,.18,0,.33.21.08.28.22.14.11.21.25a2.54,2.54,0,0,0,.16.28l.16.27c.08.14-.07.23,0,.36s0,.19.1.32l.18.27c.1.13.34-.05.44.07s-.05.24,0,.36,0,.22.09.34.34-.08.44,0,.05.16.16.28.47-.24.19.26A8.26,8.26,0,0,1,164.78,79.81Z"/><path class="cls-2" d="M163.05,94.72c-.62-.41-.05-.16,0-.29s.21-.06.26-.19l.09-.25c.05-.13,0-.16,0-.29s0-.14,0-.27-.08-.16,0-.29.33,0,.37-.17-.21-.19-.18-.32.08-.12.11-.25.06-.12.09-.25.1-.12.12-.25-.05-.14,0-.28-.06-.14,0-.27.15-.12.17-.25l0-.27c0-.13-.2-.14-.2-.28v-.26c0-.13.31-.13.3-.26s-.18-.14-.18-.27.18-.14.18-.27-.09-.14-.09-.27-.21-.12-.23-.25V88.7c0-.13.23-.15.21-.29s-.2-.11-.22-.24.18-.16.15-.29-.17-.11-.2-.24-.13-.11-.15-.24.26-.19.22-.33,0-.13,0-.26-.32-.06-.35-.19.13-.18.1-.31l-.09-.25c0-.13.08-.17,0-.3s-.17-.08-.22-.21-.13-.09-.19-.21,0-.15,0-.28-.16-.08-.21-.2.16-.22.11-.34-.23,0-.29-.16.13-.22.07-.34-.09-.1-.16-.22-.12-.09-.19-.2,0-.14-.1-.26-.14-.06-.21-.18-.06-.12-.13-.23,0-.16-.08-.27-.13-.07-.21-.18-.13-.07-.21-.18,0-.18-.06-.29,0-.14-.13-.24l-.18-.21c-.08-.1-.32.11-.4,0s.07-.25,0-.34-.12-.06-.22-.15,0-.16-.13-.25-.58.44-.19-.19a8.2,8.2,0,0,1,.88-1c.59-.43.23,0,.34.08s-.06.28.05.38.19,0,.3.13.06.14.16.26l.2.21c.1.11.09.13.19.24s.2,0,.3.14,0,.2.08.32l.18.24c.08.12.19,0,.28.17s-.09.24,0,.36.12.11.19.23.24,0,.32.16l.16.25c.08.13,0,.18.07.31s.11.11.17.25-.06.2,0,.33,0,.15.09.28.13.11.19.25.08.12.14.26.1.12.16.26-.08.18,0,.32l.09.29c.05.14.16.1.21.24s.17.11.21.25,0,.16,0,.3-.13.19-.1.33.11.13.15.28.23.1.25.25-.05.16,0,.31-.2.19-.17.33.26.11.28.26-.12.17-.11.32l0,.29c0,.15.11.14.12.29s.09.15.09.3v.6c0,.15-.26.15-.26.3s.06.15.06.3.12.15.11.3-.08.15-.09.29,0,.16,0,.3-.11.14-.13.29.14.17.12.32.05.16,0,.31,0,.15,0,.3l-.06.29c0,.15-.21.11-.24.26s-.11.13-.15.27l-.08.29c0,.14.25.22.21.37s-.21.09-.26.24-.17.1-.23.23.23.24.18.39-.13.11-.18.26.4.34-.15.26A9.58,9.58,0,0,1,163.05,94.72Z"/><path class="cls-2" d="M170.21,111.15c-.39.62-.17,0-.3,0s-.07-.21-.2-.27l-.27-.11c-.13,0-.18,0-.31,0s-.15,0-.28-.09-.19,0-.32,0,0-.34-.09-.41-.25.12-.37,0-.09-.13-.21-.21-.1-.11-.22-.19-.08-.14-.19-.24-.15,0-.26-.13-.16,0-.27-.13,0-.19-.13-.29a2,2,0,0,1-.21-.2c-.1-.1-.25,0-.35-.06l-.22-.19c-.1-.11.11-.3,0-.41s-.23,0-.32-.1,0-.24,0-.35-.16,0-.25-.16-.25,0-.34-.11l-.16-.24c-.08-.12.11-.26,0-.38s-.24,0-.33-.12.1-.24,0-.36-.21,0-.28-.17-.18-.06-.25-.19.18-.27.12-.39-.05-.14-.11-.27-.33,0-.39-.13.09-.2,0-.33l-.11-.27c0-.13.07-.18,0-.31s-.17-.09-.22-.22-.16-.1-.2-.24,0-.16,0-.3-.15-.11-.19-.25.18-.2.14-.33-.21-.1-.24-.24.17-.19.14-.33-.06-.13-.09-.27-.11-.13-.13-.27,0-.15,0-.29-.11-.14-.13-.28,0-.14,0-.29.07-.15.07-.29-.07-.14-.07-.29-.07-.14-.07-.29.11-.14.11-.29.07-.14.08-.28l0-.29c0-.14-.31-.17-.3-.32s.23-.12.25-.26,0-.15,0-.3.11-.13.13-.27-.68-.29.05-.28a7.87,7.87,0,0,1,1.28.27c.69.26.16.15.14.28s-.26.08-.28.21.1.14.08.26-.08.12-.09.25a2.09,2.09,0,0,1,0,.25,1.9,1.9,0,0,1,0,.25c0,.13.13.13.12.26s-.12.12-.11.25v.25c0,.13.13.12.14.25s-.22.14-.2.27.06.12.07.25.2.1.22.23l0,.24c0,.13-.06.14,0,.26s.07.12.09.24-.11.16-.09.28,0,.14,0,.27.11.1.15.22.06.11.1.24.08.1.12.22-.09.17-.05.29l.09.24c.05.12.16.08.21.19s.16.07.2.19,0,.13.08.24-.1.19,0,.31.11.08.17.2.23,0,.29.12,0,.15.06.26-.13.23-.06.34.27,0,.33.09-.05.18,0,.29l.14.21c.08.1.15,0,.22.15s.12.06.21.16l.15.2.16.19c.08.1-.11.27,0,.37s.14,0,.22.14.19,0,.28.09,0,.14.13.23.1.08.19.16,0,.15.14.24.2,0,.3,0,.13,0,.23.1a1.13,1.13,0,0,0,.21.15l.2.14c.1.07,0,.21.11.29s.05.15.16.22l.22.12c.11.06.27-.2.37-.14s0,.22.14.28,0,.19.16.24.24-.22.36-.17.08.11.2.16.29-.41.21.15A11.41,11.41,0,0,1,170.21,111.15Z"/><path class="cls-2" d="M171.91,106c-.51.52-.15,0-.24,0s0-.21-.06-.27l-.18-.12c-.08-.07-.15,0-.23-.06s-.12,0-.2-.1-.16,0-.24,0,.12-.3,0-.37-.24.1-.32,0,0-.12-.11-.19-.06-.1-.13-.18,0-.13-.1-.21-.12,0-.19-.11-.13,0-.2-.11,0-.17-.05-.25l-.13-.16c-.07-.09-.23,0-.3,0l-.14-.16c-.07-.09.16-.26.1-.35s-.21,0-.27-.07.09-.2,0-.28-.14,0-.2-.13-.23,0-.29-.06l-.1-.19c-.06-.09.14-.22.08-.31s-.22,0-.28-.08.13-.2.07-.29-.18,0-.24-.11-.15,0-.2-.13.2-.23.15-.33,0-.1-.07-.2-.32,0-.36-.06.11-.17.06-.27l-.09-.19c-.05-.1.07-.15,0-.25s-.16,0-.21-.15-.14,0-.18-.15,0-.14,0-.24-.14-.06-.18-.16.18-.18.14-.28-.21,0-.24-.15.17-.16.14-.26-.07-.1-.1-.2-.1-.08-.13-.18,0-.12,0-.22-.12-.08-.14-.19,0-.11,0-.21.06-.12,0-.23-.08-.09-.1-.2-.08-.09-.1-.2.1-.12.08-.23,0-.11,0-.22l0-.21c0-.11-.33-.07-.34-.18s.2-.13.19-.24-.05-.1-.06-.21.08-.11.07-.22-.72-.07,0-.21a11.3,11.3,0,0,1,1.3-.05c.74.06.19.08.2.18s-.24.11-.23.2.13.09.14.18-.06.11,0,.2a1.62,1.62,0,0,1,0,.19,1.28,1.28,0,0,1,0,.19c0,.1.14.08.16.17s-.1.12-.08.21l0,.19c0,.1.14.07.16.16s-.2.14-.17.24.07.08.09.18.2,0,.23.14l0,.18c0,.09-.06.11,0,.21s.07.08.1.17-.11.13-.09.23,0,.1,0,.19.11.07.14.16.06.08.1.17.07.07.11.16-.1.14-.06.23l.07.18c0,.09.15,0,.19.13s.15,0,.19.13,0,.1.05.19-.11.16-.07.24.1.06.15.14.21,0,.26.08,0,.12,0,.2-.16.2-.11.29.26,0,.3,0-.07.16,0,.24l.1.16c.05.08.13,0,.18.11s.11,0,.16.13l.11.16.11.15c.05.08-.16.23-.1.31s.11,0,.17.12.16,0,.22.07,0,.12.06.2a1.79,1.79,0,0,1,.14.13c.07.07,0,.13.06.2s.19,0,.25,0,.12,0,.18.09a1.79,1.79,0,0,0,.14.13l.14.13c.06.07-.06.2,0,.27s0,.13.07.2l.15.12c.07.07.28-.16.35-.1s-.05.2,0,.26,0,.18.06.23.27-.17.34-.11,0,.11.11.17.37-.34.12.15A13,13,0,0,1,171.91,106Z"/><path class="cls-2" d="M79.92,98.76c.34-.91.56-.3,1.15-.6a9.84,9.84,0,0,0,1.23-.49c.53-.39.54-.38,1-.81a9.34,9.34,0,0,0,.9-1c.47-.46.4-.53.84-1s.3-.6.67-1.14.63-.39.93-1,.07-.7.32-1.3a11.27,11.27,0,0,0,.46-1.22,8,8,0,0,0,.28-1.27,7,7,0,0,0,.16-1.28,7.36,7.36,0,0,0-.19-1.26,6.11,6.11,0,0,0-.41-1.18c-.26-.58-.11-.65-.44-1.23s-.33-.57-.7-1.15-.55-.45-1-1-.41-.56-.81-1.17-.15-.76-.51-1.4A10.25,10.25,0,0,1,83.1,78a7.56,7.56,0,0,1-.19-1.56c-.07-.38-.06-.57-.1-.77a2.46,2.46,0,0,1,0-.78,7.82,7.82,0,0,1,.11-1.54,10.28,10.28,0,0,1,.5-1.41c.28-.7.53-.58.83-1.24s.19-.72.56-1.35.56-.5,1-1.09.28-.67.69-1.25.32-.64.74-1.2.65-.39,1-1,.42-.55.79-1.13.13-.73.46-1.3.47-.51.77-1.1a11.66,11.66,0,0,0,.49-1.23c.21-.62.29-.59.47-1.23s0-.67,0-1.32-.1-.64-.13-1.28A9.65,9.65,0,0,0,91,54.93c-.15-.65-.24-.62-.43-1.26s0-.72-.2-1.38-.4-.6-.62-1.28,0-.75-.19-1.45a10.31,10.31,0,0,1-.28-1.47,7.08,7.08,0,0,1-.06-1.53,3.21,3.21,0,0,1,.16-.76,7.49,7.49,0,0,1,.23-.73,8,8,0,0,1,.53-1.44A8.5,8.5,0,0,1,91,42.38a9.66,9.66,0,0,1,1.1-1,14.25,14.25,0,0,1,1.09-1c.57-.44.54-.48,1.11-.89s.64-.31,1.19-.72.58-.37,1.09-.8a10.2,10.2,0,0,0,.93-.93c.42-.5.15-.69.47-1.2s.5-.43.65-1a3.18,3.18,0,0,0,0-1.15,2.9,2.9,0,0,0-.25-1.1.56.56,0,0,0-.52-.24c-.15,0-.19-.08-.2-.52,0-.22.38-1.08.67-1.12.56-.08.81.09.94.29s.18.48.41.86c.38.8.15.88.28,1.67a4.63,4.63,0,0,1,0,1.62,5,5,0,0,1-.67,1.45,7.25,7.25,0,0,1-.87,1.26,9.46,9.46,0,0,1-1.06,1c-.56.47-.48.58-1,1s-.65.33-1.22.74-.57.4-1.11.81-.45.51-1,1-.62.29-1.06.78a8.32,8.32,0,0,0-.69,1.09c-.28.58-.14.65-.34,1.23a2.4,2.4,0,0,0-.16.59,3.46,3.46,0,0,0-.1.6,5.11,5.11,0,0,0-.1,1.24,8,8,0,0,0,.25,1.26c.16.64,0,.68.22,1.34s.17.66.4,1.33.3.64.5,1.33a12.71,12.71,0,0,1,.39,1.41,13.46,13.46,0,0,1,.27,1.46c0,.75-.12.75-.11,1.49s-.08.74-.19,1.47,0,.76-.27,1.47a13.73,13.73,0,0,1-.44,1.42A14.69,14.69,0,0,1,91,63.23c-.36.63-.5.54-.9,1.14s-.34.63-.74,1.21-.26.69-.67,1.26-.48.52-.89,1.08-.59.43-1,1-.17.7-.55,1.27-.47.5-.79,1.1-.32.59-.57,1.2a9.67,9.67,0,0,0-.34,1.28A5.58,5.58,0,0,0,84.35,75a2.92,2.92,0,0,0,0,.6,3.89,3.89,0,0,0,0,.6,6.31,6.31,0,0,0,.28,1.18c.25.57,0,.69.32,1.28s.38.55.75,1.12.49.49.89,1.06.34.62.74,1.22.41.59.77,1.23a12.73,12.73,0,0,1,.57,1.37c.23.72.42.66.57,1.43a11.36,11.36,0,0,1,.22,1.52,9.62,9.62,0,0,1-.09,1.52,10.2,10.2,0,0,1-.29,1.48A12.93,12.93,0,0,1,88.45,92a12.41,12.41,0,0,1-.69,1.3A12.13,12.13,0,0,1,87,94.54c-.4.6-.16.78-.61,1.37a13.2,13.2,0,0,1-1.12,1c-.51.53-.62.42-1.17.89s-.39.69-1,1.13a11.23,11.23,0,0,1-1.34.68c-.66.34-.54.78-1.42.53C80.12,100.06,79.83,99,79.92,98.76Z"/><path class="cls-2" d="M105.36,110c-.8-.17-.27-.38-.33-.79s.1-.45.08-.86a7.68,7.68,0,0,1,0-.83c.08-.39,0-.42.07-.81a7,7,0,0,1,.19-.79c.14-.37,0-.41.2-.78s.45-.21.63-.55,0-.45.16-.78.25-.29.45-.61.23-.29.43-.6.27-.26.47-.57.15-.34.35-.64.13-.34.32-.64.29-.22.47-.53a5,5,0,0,0,.33-.6c.15-.32,0-.4.12-.71s.11-.32.24-.63.4-.21.49-.54-.08-.38,0-.7.24-.29.3-.63-.05-.35,0-.68-.18-.34-.19-.67a3.64,3.64,0,0,0,0-.66c0-.33.21-.36.16-.7s-.26-.3-.33-.63.11-.38,0-.72-.25-.28-.36-.61-.21-.29-.34-.62.14-.43,0-.76-.14-.33-.27-.66-.42-.21-.57-.53,0-.4-.15-.72-.16-.33-.33-.65,0-.38-.2-.71-.28-.26-.45-.59-.26-.28-.42-.61-.09-.37-.25-.72-.26-.3-.4-.65.07-.44-.06-.8-.29-.32-.4-.7.11-.43,0-.82-.09-.38-.12-.78a7.2,7.2,0,0,1-.07-.8,5,5,0,0,1,.12-.79,7,7,0,0,1,.06-.79c.09-.38.11-.37.21-.74s.19-.34.31-.7.07-.38.19-.73.08-.36.21-.71.25-.29.37-.63.19-.32.3-.65.13-.34.23-.67-.19-.42-.11-.75.29-.27.35-.6a5,5,0,0,0,0-.66c0-.33.09-.32.1-.65s-.75-.23-.07-.64a3.4,3.4,0,0,1,1.29-.22c.77.29.25.39.27.8s-.21.41-.25.8.09.42,0,.8a6.1,6.1,0,0,1-.23.76c-.09.37-.08.37-.19.74s-.13.35-.26.71,0,.39-.13.74-.24.3-.37.64l-.26.68c-.12.33,0,.37-.12.71s-.31.26-.42.6,0,.34-.13.68.11.37.06.69a4.72,4.72,0,0,0,0,.64c0,.32-.11.32-.09.65s.07.31.12.63-.09.36,0,.69,0,.34.16.66.19.3.32.62.16.31.3.64.19.3.35.62,0,.38.19.7l.33.66c.16.32.27.27.43.6s.27.27.44.6.12.35.28.69,0,.4.15.74.21.32.36.66.33.27.47.62.06.39.18.75-.08.42,0,.79.33.3.43.68-.07.41,0,.79,0,.39.09.77a7.09,7.09,0,0,1,.14.78,4.23,4.23,0,0,1,0,.79,6.82,6.82,0,0,1-.08.79l-.14.79c-.1.38-.35.31-.46.68a4.58,4.58,0,0,1-.19.75c-.14.36,0,.41-.16.76s-.24.32-.41.66a7.18,7.18,0,0,1-.34.68c-.2.33-.27.28-.46.61s-.07.4-.27.71-.15.34-.36.65l-.39.6-.39.6c-.19.3-.34.21-.52.51s-.26.26-.43.57-.17.3-.32.62.13.43,0,.73-.27.25-.37.56-.2.29-.27.61.25.34.27.63-.07.3,0,.59.55.13.11.59A3.89,3.89,0,0,1,105.36,110Z"/><path class="cls-2" d="M100.24,43c0,.85-.33.32-.72.61s-.48.17-.83.5a7.55,7.55,0,0,0-.64.74,8.92,8.92,0,0,0-.47.86,7,7,0,0,0-.41.88c-.2.44-.09.49-.26.93s-.45.37-.58.85.12.53,0,1a9.23,9.23,0,0,0-.14.94c0,.49,0,.49,0,1s0,.5,0,1,.14.49.23,1,.17.49.27,1,0,.54.08,1.06l.2,1c.09.53.28.51.36,1.06s.08.55.1,1.12-.29.57-.31,1.13.12.59,0,1.15-.31.51-.46,1-.09.55-.29,1.07,0,.58-.24,1.09-.25.48-.49,1-.46.37-.72.83-.09.56-.36,1-.44.35-.71.81-.13.53-.4,1-.17.51-.42,1-.51.3-.76.76-.26.44-.48.9.05.58-.13,1-.34.4-.49.87a7.88,7.88,0,0,0-.2.94c-.06.46-.19.45-.2.93a5.59,5.59,0,0,0,.21.92c.1.45.2.42.35.85a4.76,4.76,0,0,0,.31.87c.24.42.34.36.62.75s.11.54.43,1,.47.28.8.7.17.55.5,1,.34.43.64.91a9.37,9.37,0,0,1,.59.95,10,10,0,0,1,.38,1,9.32,9.32,0,0,1,.43,1,10.08,10.08,0,0,1,.24,1.09,10.36,10.36,0,0,1,.08,1.11c.06.55.1.55.13,1.11a10.46,10.46,0,0,1,0,1.12,8.4,8.4,0,0,1-.27,1.1A10.27,10.27,0,0,1,96,91.67a8.44,8.44,0,0,1-.41,1c-.23.51,0,.66-.27,1.17s-.5.37-.88.81a5.63,5.63,0,0,1-.85.84,4.53,4.53,0,0,1-1.11.53c-.55.19-.51.92-1.23.26a2.22,2.22,0,0,1-.07-1.3c.3-.76.33-.21.74-.35s.49,0,.87-.21.27-.39.59-.72A4.65,4.65,0,0,0,94,93a5.26,5.26,0,0,0,.44-.85,6.9,6.9,0,0,0,.36-.89,7.93,7.93,0,0,0,.1-1,7.36,7.36,0,0,0,.25-.95,8,8,0,0,0,0-1c0-.5-.13-.49-.18-1s.15-.51.07-1-.14-.48-.27-1-.32-.42-.49-.88-.18-.46-.38-.91a8.81,8.81,0,0,0-.38-.89A9,9,0,0,0,93,82c-.3-.4-.19-.49-.51-.89s-.29-.44-.62-.85-.4-.37-.73-.82a9.43,9.43,0,0,1-.63-.93,6.69,6.69,0,0,1-.54-1c-.19-.56-.05-.6-.17-1.17a6.3,6.3,0,0,1-.1-1.15,7.46,7.46,0,0,1,0-1.16,11.24,11.24,0,0,1,.13-1.15c.17-.54.21-.53.41-1s.37-.45.6-.94.18-.52.43-1,.08-.57.35-1,.33-.43.6-.88.46-.34.73-.79.06-.58.32-1,.39-.37.64-.82l.49-.91c.23-.46.15-.5.37-1s.15-.48.33-.95.18-.46.34-.93a9.23,9.23,0,0,0,.24-.94c.08-.46.34-.42.39-.91a8.1,8.1,0,0,0,0-1c0-.5-.16-.49-.2-1s0-.51-.07-1-.11-.51-.21-1,0-.53-.12-1-.27-.49-.37-1-.15-.52-.24-1.06-.08-.54-.12-1.1,0-.57,0-1.13.2-.56.28-1.12a8,8,0,0,1,.3-1.09,10.68,10.68,0,0,1,.32-1.06c.2-.51-.08-.63.15-1.15s.42-.43.7-.91.43-.4.76-.85.13-.63.53-1a9,9,0,0,1,.92-.71c.46-.34.22-.78,1-.6A2.57,2.57,0,0,1,100.24,43Z"/><path class="cls-2" d="M91.55,100.29c0-.81.25-.23.55-.37s.37,0,.67-.11a3.92,3.92,0,0,0,.56-.33c.28-.17.22-.26.49-.43a2.8,2.8,0,0,0,.5-.41c.25-.2.17-.3.42-.5s.47.06.69-.19,0-.4.27-.63.27-.18.47-.44.22-.23.41-.49.27-.2.44-.48.11-.32.28-.59.11-.31.24-.6.26-.24.4-.53a6.39,6.39,0,0,0,.26-.6c.11-.31-.08-.38,0-.69a3.19,3.19,0,0,0,.19-.62c.08-.31.36-.23.45-.55s-.1-.36,0-.68.25-.29.31-.62,0-.34,0-.67-.15-.35-.13-.67,0-.33,0-.65.26-.32.26-.65-.19-.33-.2-.66.18-.33.16-.66-.19-.31-.22-.63-.16-.3-.22-.6.22-.37.14-.7-.07-.32-.16-.65-.38-.23-.48-.55.06-.37,0-.69-.11-.32-.23-.64,0-.36-.11-.69-.24-.27-.36-.59-.23-.29-.35-.61,0-.36-.16-.68-.22-.29-.33-.62.1-.41,0-.74-.28-.28-.39-.62.11-.4,0-.74-.12-.33-.21-.68-.15-.32-.22-.68,0-.37-.06-.73-.15-.34-.17-.71,0-.36,0-.73a5.87,5.87,0,0,1,.08-.72c0-.37,0-.37,0-.74s0-.37,0-.73.19-.35.26-.71.14-.34.24-.69.12-.35.26-.69-.15-.48,0-.82.36-.24.58-.55a4.41,4.41,0,0,1,.42-.64c.24-.31.32-.23.58-.51s-.16-.81.58-.49a3.34,3.34,0,0,1,.79,1c.24.76-.11.32-.33.53s-.4,0-.59.28-.1.31-.26.57a3.08,3.08,0,0,0-.37.5,4.11,4.11,0,0,0-.25.57c-.12.29-.13.29-.24.59s0,.34,0,.64-.18.29-.23.6-.06.32-.09.64.1.33.09.65-.23.32-.22.65.06.32.08.65.22.3.26.62a6.37,6.37,0,0,0,.11.63c.06.32,0,.34,0,.66s.12.31.2.63,0,.36,0,.69.06.33.16.65.18.3.29.62.14.31.26.63.16.3.28.62,0,.37.11.69l.23.65c.12.33.23.29.35.61s.24.29.35.62.08.35.19.68-.06.39,0,.72.17.32.26.67.28.28.36.66,0,.39,0,.75-.18.39-.15.75.26.34.28.71-.14.36-.14.72,0,.35,0,.71.07.36,0,.72,0,.36,0,.72-.06.36-.11.72l-.13.7c-.08.36-.31.3-.41.65s0,.36-.13.7,0,.38-.09.72-.19.32-.32.66a4.22,4.22,0,0,1-.26.67c-.15.33-.23.29-.39.61s0,.39-.21.71-.13.35-.31.67-.21.3-.42.6l-.45.59c-.22.29-.38.16-.62.42s-.32.2-.57.46a4.88,4.88,0,0,1-.54.48c-.28.23-.09.47-.38.7s-.4.08-.71.27-.38.07-.69.26-.15.48-.49.62-.37.09-.7.24-.16.61-.69.25A4.2,4.2,0,0,1,91.55,100.29Z"/><path class="cls-2" d="M94.64,103.56c-.1-.74.09-.16.22-.2s.18.11.31.06l.26-.1c.13,0,.08-.15.21-.2s.1-.12.22-.17.07-.17.19-.23.26.22.38.16,0-.28.13-.35.14,0,.26-.09.13,0,.25-.1.16,0,.27-.09.08-.13.19-.21.06-.14.18-.22.19,0,.3,0l.21-.18c.11-.08,0-.24.08-.33l.2-.18c.11-.09.31.14.4,0s0-.23.08-.33.23,0,.33,0,0-.16.14-.25-.06-.24,0-.34l.19-.2c.09-.1.27.06.37,0s-.06-.23,0-.33.24,0,.32-.1,0-.2,0-.31,0-.18.07-.29.32.06.4-.06.09-.1.16-.22-.17-.27-.1-.39.22,0,.3-.14l.12-.24c.07-.13.18-.06.25-.19s-.06-.18,0-.3,0-.17,0-.29.13-.09.19-.22,0-.17,0-.29.26,0,.32-.17-.13-.19-.08-.32.24-.06.29-.19,0-.14,0-.27,0-.15,0-.29.08-.11.11-.25,0-.15,0-.29,0-.13.09-.26.11-.11.13-.25,0-.15,0-.28,0-.15,0-.28.14-.12.16-.25.07-.13.08-.27l0-.28c0-.13-.31-.15-.3-.29s.23-.12.23-.26,0-.14,0-.27.09-.14.09-.28-.73-.1,0-.27a8.16,8.16,0,0,1,1.31-.07c.72.11.18.15.18.3s-.24.16-.23.31.12.16.12.31-.06.15-.07.31V93c0,.16,0,.15,0,.31s.12.17.11.32-.14.14-.17.29l-.05.3c0,.15.1.17.07.33s-.23.11-.27.26,0,.15,0,.3.15.19.11.34l-.07.31c0,.15-.13.12-.18.27s0,.15-.06.3-.19.1-.24.24-.08.13-.14.27,0,.17,0,.31,0,.15-.1.29,0,.16-.07.3-.19.08-.26.21l-.15.27c-.07.13,0,.19,0,.33s0,.19,0,.33-.12.11-.2.24-.23,0-.31.17,0,.16-.1.29.08.24,0,.37-.15.08-.24.2-.28,0-.37.11.1.26,0,.39-.21,0-.31.14l-.2.23c-.1.11,0,.17-.13.29s-.06.16-.17.27l-.23.21-.22.21c-.11.11-.29-.08-.39,0s-.08.14-.19.24,0,.2-.16.29-.16,0-.28.14-.1.12-.23.21-.17,0-.3.1,0,.22-.16.31-.09.14-.21.23-.13.1-.26.18l-.27.15c-.14.08-.22-.07-.36,0s-.17,0-.3.08l-.28.13c-.14.06,0,.34-.15.41s-.21-.1-.35,0-.19-.07-.34,0,0,.34-.18.39-.17,0-.32,0,0,.53-.3.06A9.15,9.15,0,0,1,94.64,103.56Z"/><path class="cls-2" d="M98,74c-.39-.66.06-.24.21-.41s.27-.07.42-.25.12-.19.25-.37,0-.25.16-.44.07-.23.17-.43,0-.25.09-.45.38-.08.47-.3-.14-.3-.06-.51.13-.2.2-.42.1-.21.17-.43.13-.2.18-.43,0-.24,0-.47,0-.25,0-.47.17-.21.2-.45l0-.46c0-.24-.18-.26-.16-.49s0-.23,0-.47.3-.22.3-.46-.18-.24-.18-.47.19-.24.19-.48-.1-.24-.11-.48-.21-.23-.23-.46,0-.24,0-.48.22-.26.19-.5-.21-.23-.24-.46.17-.27.15-.51-.19-.22-.22-.46-.14-.23-.18-.47.26-.28.23-.53l0-.49c0-.24-.33-.2-.36-.44s.14-.27.1-.52L99.92,59c0-.24.1-.26.06-.5s-.16-.23-.19-.48-.14-.24-.17-.48.06-.26,0-.51-.13-.24-.16-.49.21-.27.19-.52-.2-.24-.21-.5.19-.26.19-.51,0-.25,0-.51-.08-.25-.08-.5.06-.26.06-.51-.08-.26-.06-.52,0-.25,0-.51.1-.25.13-.5,0-.26,0-.52,0-.26,0-.52.18-.23.23-.48.11-.24.17-.49.08-.25.15-.5-.22-.34-.14-.59.29-.18.39-.42.06-.26.17-.5.19-.2.31-.44-.5-.59.26-.45a4.45,4.45,0,0,1,1.13.66c.52.55,0,.28-.06.48s-.32.1-.42.31,0,.26-.07.47-.14.19-.22.41-.06.22-.13.44-.09.22-.15.45.08.25,0,.48-.16.2-.21.43l-.08.46c0,.24.09.25.07.49s-.25.21-.27.44,0,.24,0,.48.17.25.16.48V54c0,.23-.09.23-.09.47s.05.24.06.48-.14.24-.13.48,0,.24,0,.48.09.24.11.48,0,.24.08.48.07.23.1.47-.11.26-.08.5l0,.49c0,.24.15.22.19.46s.15.23.19.47,0,.25,0,.49-.13.27-.1.52.11.23.14.48.23.21.26.46,0,.26,0,.5-.2.28-.17.53.27.22.3.47-.12.26-.09.51l0,.5c0,.25.11.24.13.5s.08.24.09.5l0,.51v.51c0,.25-.27.25-.27.51s.06.25,0,.51.12.26.1.52-.09.25-.12.5,0,.26,0,.51-.13.25-.16.5.11.28.06.54,0,.26,0,.52,0,.26-.12.51-.07.25-.15.5-.25.2-.34.44-.18.21-.27.46-.11.23-.21.47.15.37,0,.61-.28.15-.42.38-.25.15-.4.36.1.4-.06.61-.23.17-.4.38.18.55-.39.37A5.45,5.45,0,0,1,98,74Z"/><path class="cls-2" d="M101.58,77.91c-.5-.55,0-.18.08-.29s.22,0,.3-.13l.15-.23c.08-.11,0-.17.07-.29s0-.15.1-.27,0-.18,0-.29.34,0,.41-.08-.14-.24-.07-.36.11-.1.18-.22.1-.1.16-.22.14-.09.2-.21,0-.16.06-.28,0-.16,0-.28.19-.07.25-.2l.11-.25c0-.13-.14-.21-.09-.34l.1-.26c0-.12.32,0,.37-.15s-.12-.19-.07-.32.22-.07.27-.2,0-.16,0-.29-.15-.2-.11-.33l.09-.26c0-.13.27-.07.31-.2s-.15-.19-.11-.32.22-.08.26-.22-.13-.17-.09-.31-.08-.16,0-.29.32-.08.34-.21a2.86,2.86,0,0,1,.07-.28c0-.14-.27-.18-.25-.32s.2-.11.22-.25l0-.27c0-.14.15-.13.16-.27s-.11-.15-.1-.29-.08-.14-.08-.28.09-.13.1-.27-.1-.15-.09-.29.24-.12.25-.26-.18-.15-.18-.29.21-.13.21-.27,0-.14,0-.28-.07-.14-.08-.28,0-.14,0-.28-.09-.13-.1-.27,0-.14,0-.28.07-.15.06-.28-.08-.14-.09-.27-.08-.14-.09-.27.11-.16.09-.3,0-.14,0-.28L105,64.2c0-.13-.33-.08-.35-.21s.19-.18.16-.32-.07-.12-.1-.26,0-.15,0-.29-.73,0-.06-.27a7.9,7.9,0,0,1,1.27-.33c.73,0,.21.1.24.25s-.2.2-.17.35.16.12.19.26,0,.16,0,.31l.06.3a2.85,2.85,0,0,1,0,.29c0,.15.16.13.19.28s-.1.17-.08.32l0,.3c0,.15.15.13.16.28s-.19.17-.18.32,0,.15.06.3.19.14.2.29l0,.3c0,.15-.08.15-.08.3s0,.15,0,.3-.15.15-.15.3,0,.15,0,.3.07.15.06.3,0,.15,0,.3,0,.16,0,.31-.15.13-.17.28l0,.3c0,.15.1.16.08.31s.11.17.09.32-.07.14-.1.29-.19.12-.22.27,0,.16,0,.3.17.19.13.34-.11.13-.14.28-.26.09-.29.24.2.2.16.35-.18.11-.22.25l-.09.29c0,.14,0,.17,0,.31s0,.17,0,.31l-.11.28-.1.29c0,.14-.29,0-.34.19s0,.16-.06.3.06.19,0,.33-.13.11-.19.25,0,.15-.1.28-.14.1-.21.23.08.21,0,.34,0,.17-.08.31-.06.14-.13.27l-.14.27c-.08.13-.23,0-.31.17s-.14.09-.22.22l-.16.25c-.08.13.18.29.1.42s-.23,0-.31.16-.2,0-.29.17.16.29.07.41-.14.09-.23.21.3.43-.22.22A10,10,0,0,1,101.58,77.91Z"/><path class="cls-2" d="M113.23,89.44c-.57.46-.16,0-.24-.08s0-.2,0-.28l-.16-.15c-.09-.08-.16,0-.24-.1s-.11,0-.19-.14-.17,0-.24-.1.16-.28.09-.36-.26,0-.32,0,0-.12-.09-.21,0-.12-.11-.21,0-.14-.06-.23-.11-.07-.17-.17-.12-.06-.18-.16.06-.16,0-.26l-.1-.2c0-.1-.23,0-.28-.12l-.11-.2c0-.11.21-.22.17-.33s-.2,0-.24-.14.13-.18.09-.28-.12-.08-.16-.18-.23,0-.26-.15l0-.23c0-.11.2-.18.17-.28s-.22-.06-.25-.17.17-.16.15-.27-.18-.08-.2-.19-.14-.09-.16-.2.26-.17.25-.28a1.62,1.62,0,0,1,0-.22c0-.11-.31-.07-.32-.19s.15-.13.14-.24l0-.23c0-.11.12-.12.12-.23s-.14-.11-.15-.22-.11-.11-.11-.23.09-.11.09-.22-.11-.12-.11-.24.24-.1.24-.21-.17-.13-.16-.24.22-.1.23-.21,0-.11,0-.22-.07-.13,0-.24.07-.1.09-.21-.07-.13,0-.24a2,2,0,0,1,.06-.23c0-.11.1-.09.13-.2s0-.12,0-.23,0-.13,0-.24.15-.07.18-.18.1-.09.13-.2l.09-.21c0-.1-.25-.22-.21-.33s.24,0,.29-.12,0-.12.06-.23.13-.06.18-.17-.59-.44.1-.2a12.74,12.74,0,0,1,1.15.62c.6.43.12.17.08.26s-.26,0-.3.07.07.14,0,.22-.1.06-.14.15a1.05,1.05,0,0,1,0,.19,1.51,1.51,0,0,1-.09.18c0,.09.1.13.06.22s-.13.06-.16.15l-.06.19c0,.09.1.12.08.22s-.24,0-.26.13,0,.11,0,.21.16.13.15.22l0,.19c0,.09-.1.08-.11.18s0,.1,0,.2-.15.08-.16.18-.06.09-.07.19.08.1.08.2,0,.1,0,.2,0,.09,0,.19-.13.1-.13.2v.2c0,.09.12.09.13.18s.12.09.13.19,0,.1,0,.19-.16.12-.15.22.08.09.09.18.21.07.23.16,0,.11,0,.2-.21.14-.19.24.26,0,.28.14-.12.13-.09.22l0,.19c0,.09.12.07.14.16s.09.07.12.16l.06.18.07.18c0,.09-.21.19-.17.28s.09.07.13.16.17,0,.21.12,0,.12,0,.21.06.08.11.16,0,.13,0,.22.19,0,.23.08.11.05.16.14.06.07.11.15l.11.15c0,.08-.09.19,0,.27s0,.13,0,.21l.12.15c.07.07.3-.12.36,0s-.07.19,0,.26,0,.17,0,.24.28-.14.35-.07,0,.11.09.18.4-.3.1.17A13.59,13.59,0,0,1,113.23,89.44Z"/><path class="cls-2" d="M115.71,87.49c-.6.42-.12,0-.16,0s.1-.15.06-.19,0,0-.08-.09-.12,0-.15,0-.08,0-.11-.06-.14,0-.17,0,.22-.22.19-.27-.24.08-.27,0,0-.08,0-.13,0-.06,0-.11,0-.09,0-.14-.09,0-.11-.07-.1,0-.13-.07.1-.12.07-.17l0-.1c0-.05-.21,0-.24,0a.53.53,0,0,0-.06-.1c0-.06.24-.17.22-.23s-.19,0-.21,0,.16-.13.13-.18-.1,0-.12-.08-.21,0-.23,0,0-.06,0-.12.2-.13.19-.18-.21,0-.23-.06.18-.11.17-.17-.17,0-.19-.07-.12,0-.14-.08.27-.13.26-.18,0-.07,0-.12-.3,0-.31,0,.15-.09.14-.15l0-.11c0-.06.11-.08.1-.14s-.14,0-.15-.09-.11,0-.12-.1.07-.07.07-.13-.12,0-.13-.1.22-.09.22-.14-.19,0-.19-.1.2-.08.2-.13,0-.06,0-.12-.08,0-.08-.11,0-.06,0-.12-.1-.05-.1-.11,0-.06,0-.12.08-.06.08-.11,0-.06,0-.12-.06-.06-.06-.12.13,0,.13-.11.06,0,.07-.11v-.12c0-.05-.3-.09-.3-.15s.22,0,.23-.09,0-.06,0-.12.09,0,.1-.1-.7-.19,0-.11c.18,0,1.1.2,1.28.24.71.18.18.08.17.13s-.25,0-.25,0,.11.06.1.11-.07,0-.07.09,0,0,0,.09,0,0,0,.09.12.06.12.11-.12,0-.12.08v.1s.13,0,.12.1-.21,0-.21.09,0,0,0,.09.19,0,.19.1v.09s-.08,0-.08.1,0,0,0,.09-.15,0-.14.1,0,0,0,.1.08,0,.09.09,0,0,0,.09,0,0,.06.09-.13.06-.13.11l0,.1s.12,0,.13.07.13,0,.14.07,0,0,0,.1-.16.08-.15.13.08,0,.09.07.2,0,.21,0-.06.06,0,.11-.21.1-.2.15.24,0,.26,0-.13.09-.11.14l0,.09s.1,0,.12,0,.07,0,.09.07,0,.05,0,.09l0,.09s-.23.14-.21.19.08,0,.1.06.13,0,.15,0,0,.08,0,.12,0,0,.06.07-.06.09,0,.13.17,0,.19,0,.08,0,.1,0,0,0,.06.07l.05.08s-.13.13-.11.17,0,.09,0,.13l0,.08s.28-.13.31-.1-.12.14-.09.18-.09.13-.06.16.27-.14.29-.1,0,.08,0,.11.41-.28,0,.11C116.72,86.68,115.86,87.39,115.71,87.49Z"/><path class="cls-2" d="M171.09,44.11c-.75,0-.15-.15-.19-.33s.13-.23.06-.4l-.14-.35c-.06-.18-.16-.13-.24-.3s-.14-.14-.22-.3-.2-.09-.3-.25.17-.33.06-.48-.31,0-.42-.15-.07-.18-.2-.32-.1-.16-.23-.3-.09-.18-.23-.32-.18-.08-.32-.21-.2-.06-.35-.17-.07-.24-.22-.35l-.33-.22c-.16-.11-.27.06-.43,0l-.34-.19c-.16-.1,0-.35-.2-.44s-.26.07-.43,0-.09-.26-.27-.35-.22,0-.4-.08-.26.11-.44,0l-.36-.16c-.19-.06-.11-.29-.3-.35s-.25.11-.43,0-.13-.25-.33-.3-.23.08-.42,0-.22.06-.41,0-.13-.33-.33-.38-.19-.06-.39-.11-.26.25-.46.21-.16-.21-.36-.25l-.41-.07c-.2,0-.18-.17-.38-.2s-.23.09-.43.06-.22.07-.43,0-.19-.12-.39-.15-.22.07-.43,0-.17-.26-.37-.3-.24.14-.45.1-.16-.24-.37-.28-.21,0-.42,0-.22,0-.43,0-.2-.1-.4-.14-.23.05-.44,0l-.41-.11c-.2,0-.18-.13-.39-.19s-.22,0-.43-.06-.22,0-.43-.06-.17-.18-.37-.25-.19-.12-.39-.2l-.4-.15c-.2-.09-.32.2-.53.12s-.11-.28-.31-.38-.21-.06-.41-.16-.16-.17-.35-.28-.56.51-.38-.22a5.58,5.58,0,0,1,.68-1.12c.53-.53.25-.06.42,0s.06.31.24.4.23,0,.4.06.15.14.34.22l.37.14c.18.07.18.09.36.16s.23-.06.42,0,.15.18.34.24l.38.12c.2,0,.23-.07.43,0s.13.26.33.31.21,0,.41,0,.24-.14.43-.09l.4.07c.2,0,.18.13.38.17s.21,0,.41,0,.18.18.38.21.19.09.4.12.22,0,.42,0,.21,0,.41,0,.22,0,.42,0,.18.17.39.21l.41.07c.2,0,.22-.08.43,0s.23-.08.44,0,.2.08.4.12.18.21.38.25.22,0,.43,0,.25-.15.46-.09.2.12.41.18.14.28.35.34.28-.17.48-.11.16.21.37.28l.4.15c.21.08.24,0,.44.07s.23,0,.43.11l.39.19a3.62,3.62,0,0,1,.4.19c.19.1.08.33.27.43s.22,0,.4.16.26,0,.45.11.14.18.32.3.2.11.38.23.12.21.3.35.27,0,.44.15.21.1.38.25.18.14.34.31l.31.33c.16.17,0,.29.15.47s.07.23.21.41.12.18.25.37.38,0,.5.24,0,.29.05.49,0,.27,0,.48.36.11.44.33,0,.25.06.47.54.13.06.47A6.38,6.38,0,0,1,171.09,44.11Z"/><path class="cls-2" d="M123.58,7.9c.08.75-.12.16-.28.22s-.21-.1-.36,0l-.31.12c-.16.06-.12.16-.27.22s-.12.12-.28.19-.1.18-.25.24-.27-.22-.43-.15,0,.29-.19.37-.17,0-.31.09-.17,0-.31.12-.19,0-.33.09-.11.14-.25.22-.1.15-.25.23-.21,0-.35,0l-.28.18c-.14.09,0,.26-.16.35l-.27.19c-.13.09-.3-.15-.44-.05s0,.24-.16.34-.24-.06-.38,0-.08.17-.21.27,0,.26-.13.36l-.26.2c-.12.11-.28-.08-.41,0s0,.25-.12.36-.26,0-.38.07,0,.23-.13.34,0,.2-.16.31-.33-.1-.44,0l-.25.23c-.11.12.1.32,0,.44s-.24,0-.36.12l-.21.25c-.1.13-.2.05-.31.17s0,.21-.11.34,0,.19-.13.32-.16.08-.26.21,0,.2-.11.33-.29,0-.39.13.06.24,0,.37-.26,0-.35.16-.07.16-.16.29,0,.18-.12.32-.13.11-.21.26,0,.19-.09.33l-.18.27c-.09.14-.15.11-.23.25s0,.18-.1.32,0,.18-.09.33-.19.09-.26.23-.12.13-.19.28l-.14.3c-.06.16.23.28.16.43s-.27.07-.33.22,0,.17-.07.32-.14.13-.2.28.63.4-.12.31a7,7,0,0,1-1.24-.42c-.62-.4-.11-.22,0-.39s.28-.08.34-.25-.05-.21,0-.37.12-.15.19-.31l.13-.33c.07-.16.09-.15.16-.31s0-.22,0-.38.19-.11.27-.26l.16-.31c.09-.16,0-.22,0-.38s.27-.06.36-.21,0-.17.14-.32-.07-.25,0-.4l.17-.31c.09-.15.17-.1.27-.25s.06-.17.16-.32.22-.06.32-.2.13-.13.24-.27,0-.18.14-.32.09-.16.19-.3.07-.17.18-.31.22,0,.33-.19l.23-.26c.12-.14,0-.21.14-.35s0-.22.14-.35.15-.1.27-.23.25,0,.37-.13.07-.18.19-.31,0-.27.12-.39.18-.06.31-.18.29,0,.41-.08,0-.29.1-.42.23,0,.37-.11l.27-.23c.13-.11.07-.18.21-.3s.09-.16.24-.27l.29-.2.28-.21c.15-.11.3.1.44,0s.11-.15.25-.25.08-.2.23-.3.18,0,.33-.13.14-.12.29-.21.2,0,.35-.1.07-.23.22-.31.12-.15.28-.24a3.14,3.14,0,0,1,.31-.18l.31-.16c.16-.08.24.08.4,0s.19,0,.35-.07l.32-.14c.17-.07,0-.35.21-.42s.23.09.39,0,.22.06.38,0,.06-.34.23-.4.19,0,.36,0,0-.54.35-.08A8.46,8.46,0,0,1,123.58,7.9Z"/><path class="cls-2" d="M136.07,27c-.31.68-.21.08-.41,0s-.18-.2-.38-.23l-.4-.05c-.2,0-.22.07-.42,0s-.21,0-.41,0-.22.08-.43.05-.14-.34-.35-.38-.24.21-.44.17-.19-.09-.4-.13-.19-.07-.39-.11-.19-.11-.39-.16-.22,0-.42,0-.21,0-.42,0-.17-.18-.37-.23l-.4-.1c-.2-.05-.25.15-.45.1l-.41-.1c-.2-.06-.12-.34-.32-.39s-.25.11-.45.05-.14-.24-.34-.31-.22,0-.42-.05-.26.12-.46.05l-.39-.16c-.2-.07-.11-.3-.3-.38s-.27.1-.47,0-.11-.27-.3-.35-.26.06-.45,0-.23,0-.43-.08,0-.35-.24-.46l-.36-.22c-.18-.09-.33.15-.51,0s-.09-.26-.27-.37l-.36-.23c-.18-.12-.1-.22-.27-.34s-.25,0-.42-.15-.24,0-.41-.17-.11-.2-.27-.34-.24-.05-.4-.2,0-.31-.16-.45-.28,0-.43-.17,0-.3-.15-.45-.16-.14-.3-.3-.2-.11-.34-.27-.1-.2-.23-.37-.21-.11-.33-.28l-.23-.37c-.12-.18,0-.22-.16-.41s-.17-.15-.28-.33-.15-.16-.25-.36,0-.25-.09-.44,0-.22-.12-.42a3.7,3.7,0,0,1-.16-.4c-.07-.2-.37-.09-.44-.31s.13-.27.08-.48-.09-.2-.15-.41,0-.23,0-.45-.75-.11-.07-.42a6.27,6.27,0,0,1,1.3-.19c.75.08.21.15.24.34s-.21.23-.16.41.16.16.21.34,0,.2,0,.37l.14.36c.06.17,0,.18.12.35s.2.12.27.29,0,.22.07.39.08.17.17.34.21.09.31.25-.09.28,0,.44.15.13.26.29.26,0,.38.19l.24.3c.12.14.06.19.18.34s.16.12.29.26,0,.23.16.37.1.17.24.3.2.08.34.21a3.55,3.55,0,0,0,.31.23c.15.12.18.08.33.21s.07.22.22.34l.31.24c.16.11.23,0,.39.12s.23,0,.39.11.14.13.3.23.08.26.25.35.2,0,.37.12.26-.08.43,0,.14.15.32.24.08.29.26.37.27-.14.45-.06.12.21.31.28l.36.15c.18.07.22,0,.4,0s.2,0,.39.08l.37.13.37.12c.19.06.12.3.31.36s.2,0,.39.05.23-.07.42,0,.17.12.37.17.19,0,.39.08.17.13.36.17.23-.11.43-.07.21,0,.4,0l.39.07.39.08c.2,0,.17.21.37.25s.18.12.37.16l.4.07c.2,0,.25-.27.45-.24s.17.21.37.24.17.18.37.21.25-.27.45-.23.19.1.39.13.28-.46.39.11A6.65,6.65,0,0,1,136.07,27Z"/><path class="cls-2" d="M138.9,22.68c-.11.73-.17.12-.34.13s-.19-.16-.37-.15l-.34,0c-.18,0-.18.11-.35.11s-.18.06-.36.06-.17.12-.35.12-.17-.32-.34-.32-.19.23-.37.22-.17-.07-.34-.08-.18,0-.35-.07-.17-.08-.34-.11-.19,0-.36,0-.19.05-.36,0-.15-.16-.33-.19a2.05,2.05,0,0,1-.34-.07c-.17,0-.21.17-.38.13l-.35-.06c-.18,0-.11-.32-.28-.37s-.21.13-.38.08-.12-.23-.28-.28-.2,0-.36,0-.23.13-.4.08l-.33-.14c-.16-.06-.08-.28-.25-.34s-.23.12-.4.06-.08-.26-.24-.33-.22.08-.38,0-.21,0-.38,0,0-.33-.19-.41-.14-.1-.3-.18-.29.19-.45.11-.07-.24-.23-.32l-.3-.17c-.15-.09-.09-.2-.24-.29s-.22,0-.37-.07-.21,0-.35-.09-.1-.17-.25-.27-.2,0-.35-.11,0-.28-.16-.38-.24,0-.39-.07,0-.27-.14-.38-.16-.08-.3-.19-.19-.05-.32-.16-.1-.16-.23-.27-.19-.05-.32-.17l-.25-.25c-.13-.11-.07-.18-.19-.3s-.17-.08-.29-.21-.17-.08-.29-.21,0-.21-.15-.33-.08-.17-.19-.31l-.22-.27c-.11-.13-.36.07-.47-.07s0-.27,0-.41-.14-.12-.24-.26,0-.19-.14-.33-.7.26-.2-.29a7.3,7.3,0,0,1,1.08-.73c.69-.29.24,0,.34.15s-.1.27,0,.4.19.06.28.19.05.17.16.29l.22.24c.1.13.09.14.19.26s.21,0,.31.16,0,.19.14.31l.22.24c.12.11.21,0,.32.14s0,.27.08.38.16.07.28.18.24,0,.36.08l.25.21c.12.1.07.17.19.27s.16.06.28.16,0,.22.17.32.1.14.23.23.18,0,.32.12.15.07.28.16.16.06.29.15.07.2.21.29l.27.17c.15.08.21,0,.35.06s.19,0,.33.06.13.11.27.18.07.22.21.3.18,0,.32.08.23-.1.38,0,.11.14.26.2.06.28.21.34.24-.16.39-.09.1.19.25.25l.31.11c.15.05.18,0,.33,0s.17,0,.33,0l.3.1.31.09c.16,0,.09.29.25.34s.17,0,.33,0,.19-.1.35-.06.14.11.3.14l.32,0c.16,0,.15.12.31.14s.18-.13.34-.11.17,0,.33,0a1.72,1.72,0,0,0,.32,0l.32,0c.16,0,.15.19.31.2s.16.1.32.12h.32c.17,0,.17-.31.33-.3s.16.17.32.18.17.14.33.13.15-.31.31-.32.17.06.33.05.12-.5.32,0A8.37,8.37,0,0,1,138.9,22.68Z"/><path class="cls-2" d="M140.25,19.74c-.46.58-.16,0-.27,0s0-.21-.15-.27l-.23-.11c-.11-.06-.16,0-.28,0s-.14,0-.25-.06-.17.05-.28,0,0-.33-.09-.39-.23.16-.34.11-.09-.11-.21-.16-.1-.09-.21-.14-.09-.13-.2-.18-.15,0-.26-.05-.15,0-.27,0-.06-.18-.18-.23l-.23-.1c-.12-.05-.2.14-.32.09l-.24-.09c-.12-.05,0-.32-.12-.37s-.19.12-.31.08-.05-.23-.17-.28-.15,0-.27,0-.19.14-.31.1l-.23-.1c-.12,0,0-.27-.16-.32s-.18.14-.3.1-.06-.24-.18-.28-.17.11-.29.07-.16.06-.28,0,0-.32-.15-.35-.12-.06-.24-.1-.21.24-.33.2-.07-.2-.2-.24l-.24-.07c-.13,0-.09-.16-.21-.19s-.16.09-.29.05-.15.07-.27,0-.1-.11-.23-.15-.15.08-.27,0-.07-.25-.19-.28-.17.14-.3.11-.07-.23-.2-.26-.13,0-.25,0-.15,0-.27,0-.12-.08-.24-.1-.15.06-.27,0l-.25-.07c-.12,0-.11-.1-.23-.13s-.14,0-.27,0-.13,0-.26,0-.1-.15-.23-.17-.12-.08-.24-.1l-.26,0c-.12,0-.17.29-.3.27s-.09-.24-.22-.26-.13,0-.26,0-.11-.1-.24-.12-.22.69-.25,0a8.12,8.12,0,0,1,.17-1.3c.22-.7.15-.16.28-.15s.1.26.23.28.15-.1.28-.09.12.09.25.11.14,0,.27,0a2.5,2.5,0,0,0,.26.07c.13,0,.15-.11.28-.09s.11.14.24.16l.26.05c.13,0,.16-.1.29-.07s.09.23.22.26.14,0,.27,0,.16-.15.29-.13l.27,0c.13,0,.11.12.24.15s.13,0,.26,0,.1.17.23.2.12.07.24.11.15,0,.28,0,.14,0,.26,0,.15,0,.27,0,.1.17.22.2l.26.08c.12,0,.16-.08.28,0s.17-.08.3,0,.11.08.24.12.07.2.2.24.15,0,.27,0,.19-.14.32-.1.1.12.23.16.05.26.17.3.21-.18.33-.14.08.19.2.23l.25.1c.13,0,.16-.05.28,0s.15,0,.28,0l.24.11.25.1c.12.05,0,.29.15.34s.14,0,.26.05.18-.07.3,0,.09.12.21.17a2,2,0,0,1,.26.09c.12.05.08.13.2.19s.19-.09.31,0,.15,0,.27,0l.25.1.24.12c.12.05,0,.21.16.27s.08.14.2.2l.24.12c.11.06.25-.22.37-.16s0,.22.16.28.05.19.17.25.25-.2.37-.14.09.13.2.19.36-.37.22.17A10.59,10.59,0,0,1,140.25,19.74Z"/><path class="cls-2" d="M151.09,17.79c-.67.37-.24-.07-.4-.22s0-.27-.2-.42l-.32-.29c-.16-.15-.23-.07-.4-.21s-.2-.09-.37-.23-.24,0-.41-.18,0-.38-.14-.52-.32.06-.5-.07-.14-.17-.31-.29-.16-.16-.33-.29-.13-.19-.32-.31-.22-.06-.4-.18-.22-.05-.41-.17-.1-.23-.29-.35-.19-.11-.37-.22-.3.07-.48,0l-.39-.2c-.18-.1,0-.37-.24-.46s-.28.06-.47,0-.11-.26-.31-.36-.23,0-.43-.12-.28.1-.48,0l-.39-.18c-.2-.08-.11-.31-.31-.39s-.27.09-.47,0-.13-.26-.34-.33-.26.07-.46,0-.24,0-.45,0-.11-.35-.32-.41l-.41-.15c-.21-.06-.29.23-.5.17s-.16-.23-.37-.29l-.43-.1c-.21-.05-.18-.17-.39-.22s-.24.08-.46,0-.23,0-.44,0-.2-.12-.42-.15-.23.07-.44,0-.18-.26-.4-.3-.24.15-.45.13-.19-.23-.41-.26-.22,0-.44,0-.22,0-.44,0-.21-.07-.43-.08-.22.08-.44.07l-.43,0c-.22,0-.22-.09-.43-.09s-.22.06-.44.06-.22.07-.43.07-.22-.12-.44-.12-.22,0-.44,0l-.44,0c-.21,0-.19.33-.4.34s-.24-.2-.46-.17-.21.07-.42.09-.23-.05-.45,0-.11.75-.43,0a5.1,5.1,0,0,1-.2-1.29c.11-.74.2-.21.42-.24s.27.21.49.18.21-.15.44-.18.24,0,.47,0l.45,0h.46c.23,0,.22-.15.45-.16s.24.11.46.11h.46c.23,0,.23-.13.46-.13s.23.21.46.22.23,0,.45,0,.24-.17.47-.16l.46,0c.23,0,.22.11.45.13s.23,0,.46,0,.21.17.44.2a3.63,3.63,0,0,1,.45.1c.22,0,.24,0,.46,0s.23,0,.46.05.23,0,.46,0,.2.18.42.23l.44.1c.22.06.25-.06.48,0s.25-.07.47,0,.21.1.43.17.18.23.4.29.24,0,.46.06.28-.12.49,0,.2.15.41.22.14.3.36.37.3-.14.51-.07.16.23.37.32l.42.18c.21.09.25,0,.46.09s.24,0,.45.13l.41.21.41.21c.21.1.09.33.29.43s.23.06.43.17.26,0,.46.11.17.18.37.29.21.09.4.21.15.2.34.33.28,0,.47.11.23.07.43.19l.38.26L149,14c.19.14.08.28.27.42s.13.2.31.34l.35.29c.18.15.37-.09.55.06s.06.28.24.43.08.25.25.41.37-.07.54.09.12.21.29.37.52-.19.3.35A6.15,6.15,0,0,1,151.09,17.79Z"/><path class="cls-2" d="M140.26,7.32c-.28.68-.14.08-.27.06s-.08-.2-.2-.22l-.25,0c-.12,0-.14.07-.27,0s-.13,0-.25,0-.14.1-.27.07-.07-.32-.19-.35-.16.23-.28.21-.12-.07-.24-.09-.12,0-.24-.07-.11-.1-.24-.11-.13.05-.25,0-.14.06-.26,0-.11-.15-.23-.16l-.25,0c-.12,0-.14.19-.27.18h-.24c-.13,0-.11-.3-.23-.31s-.14.17-.26.17-.11-.2-.24-.21-.13.08-.25.07-.14.2-.26.2l-.25,0c-.12,0-.11-.24-.24-.24s-.13.19-.25.19-.12-.21-.25-.2-.12.15-.25.15-.12.12-.24.12-.13-.29-.26-.29-.12,0-.25,0-.11.3-.24.3-.13-.17-.25-.16l-.25,0c-.13,0-.13-.12-.26-.11s-.12.14-.24.15-.12.11-.24.12-.13-.07-.25-.06-.12.12-.24.14-.15-.22-.27-.21-.11.2-.23.21-.15-.19-.27-.17-.12,0-.25.06-.11.09-.23.11-.13,0-.26,0-.1.11-.23.13-.12,0-.25,0-.13-.06-.26,0-.11.08-.23.1-.11.09-.23.11-.15-.1-.27-.07-.14,0-.26,0l-.24.05c-.12,0,0,.33-.17.36s-.18-.18-.3-.15-.11.07-.23.1-.14,0-.26,0,.06.73-.24.05a9,9,0,0,1-.35-1.26c-.06-.73.08-.21.21-.24s.19.2.31.17.1-.15.22-.18.15,0,.27,0,.13,0,.25-.08.14,0,.26,0,.1-.16.23-.18.15.09.28.06l.26,0c.13,0,.1-.16.23-.18s.17.18.3.16.12-.06.25-.08.1-.21.23-.23l.25,0c.13,0,.15.07.27,0s.13,0,.26-.07.15.13.28.11.13,0,.26,0,.12-.09.25-.1.13,0,.26-.05.12-.06.25-.08.15.13.28.12h.26c.13,0,.12-.13.25-.14s.12-.13.25-.14.14,0,.27,0,.14.17.27.17.12-.08.25-.08.13-.2.26-.21.14.08.27.08.13.23.26.23.13-.24.26-.24.13.15.26.15h.26c.13,0,.14-.09.27-.09s.13-.06.26-.05l.26,0,.26,0c.14,0,.12.26.25.27s.13,0,.26,0,.14-.12.27-.11.13.09.26.1.13,0,.26,0,.12.11.25.13.15-.15.28-.13.14-.06.27,0l.26,0,.26,0c.13,0,.1.2.23.22s.12.1.25.12l.25,0c.13,0,.18-.28.31-.26s.1.2.23.23.1.16.23.19.19-.27.31-.24.12.09.25.12.24-.46.24.1A10.92,10.92,0,0,1,140.26,7.32Z"/></g></g></svg>