<svg xmlns="http://www.w3.org/2000/svg" viewBox="0 0 43.89 47.09"><defs><style>.cls-1{fill:#ededed;}</style></defs><g id="Layer_2" data-name="Layer 2"><g id="Artwork"><path class="cls-1" d="M43.89,24.82V18a166.15,166.15,0,0,0-22-1.87A159.85,159.85,0,0,0,0,18v6.82Z"/><path class="cls-1" d="M39.54,32.33a10.73,10.73,0,0,0-4.34-.8,10.76,10.76,0,0,0-4.34.8,11.27,11.27,0,0,1-4.57.85,11.27,11.27,0,0,1-4.57-.85,10.76,10.76,0,0,0-4.34-.8,10.76,10.76,0,0,0-4.34.8,11.27,11.27,0,0,1-4.57.85,11.35,11.35,0,0,1-4.57-.85A10.64,10.64,0,0,0,0,31.54V47.09H43.89V33.17A11.48,11.48,0,0,1,39.54,32.33Z"/><path class="cls-1" d="M4.13,31.71a10.57,10.57,0,0,0,4.34.81,10.53,10.53,0,0,0,4.34-.81,11.38,11.38,0,0,1,4.57-.84,11.3,11.3,0,0,1,4.57.84,10.57,10.57,0,0,0,4.34.81,10.57,10.57,0,0,0,4.34-.81,11.34,11.34,0,0,1,4.57-.84,11.3,11.3,0,0,1,4.57.84,10.72,10.72,0,0,0,4.12.8v-7H0v5.4A11.15,11.15,0,0,1,4.13,31.71Z"/><rect class="cls-1" x="21.61" y="2.32" width="0.66" height="7.42"/><rect class="cls-1" x="18.23" y="5.7" width="7.43" height="0.66"/><path class="cls-1" d="M21.94,12.07a6,6,0,1,1,6-6A6,6,0,0,1,21.94,12.07Zm0-11.41A5.38,5.38,0,1,0,27.32,6,5.38,5.38,0,0,0,21.94.66Z"/></g></g></svg>