<svg xmlns="http://www.w3.org/2000/svg" viewBox="0 0 322.19 252.66"><defs><style>.cls-1{fill:#b5b5aa;}</style></defs><g id="Layer_2" data-name="Layer 2"><g id="Artwork"><path class="cls-1" d="M39.34,73.76a9.48,9.48,0,0,1,2,1.82,11.08,11.08,0,0,0,1.81,2c1,.88,1.56,1.29,2.09,1.71a15.23,15.23,0,0,0,2.27,1.49A21.21,21.21,0,0,0,49.93,82c.63.26,1.27.49,2.57.89s2,.45,2.69.58a12.12,12.12,0,0,1,2.81.81,6.56,6.56,0,0,1,2.5,1.88,7.91,7.91,0,0,1,1.39,2.71c.42,1.4.56,2.1.75,2.77S63,93,63.3,94.31c.6,2.72.3,2.78.9,5.5s.84,2.67,1.44,5.4l1.14,5.45c.59,2.72.59,2.73,1.17,5.45s.56,2.73,1.13,5.46L70.34,127c.6,2.72.68,2.7,1.28,5.42s.46,2.76,1.06,5.48l1.2,5.44c.6,2.72.8,2.68,1.4,5.4s.6,2.72,1.21,5.44.31,2.79.91,5.51.77,2.69,1.37,5.41.41,2.76,1,5.49.68,2.71,1.16,5.49c.22,1.39.35,2.09.48,2.79a18.1,18.1,0,0,1,.29,2.84c0,.71,0,1.25,0,1.7a10.08,10.08,0,0,1-.07,1.17c0,.37-.07.73-.11,1.18s-.15,1-.3,1.7a12.27,12.27,0,0,1-.94,2.77c-.36.64-.66,1.3-1.43,2.54a22.78,22.78,0,0,1-1.71,2.36,6.17,6.17,0,0,1-.79.89,10.88,10.88,0,0,1-1.29,1.14,25.8,25.8,0,0,1-5,2.85l-2.55,1.26A20.43,20.43,0,0,1,65,202.36c-2.67.91-2.64,1-5.37,1.76s-2.8.38-5.56.91-2.77.46-5.56.8-2.78.58-5.61.67a36.16,36.16,0,0,1-5.68-.46,22.89,22.89,0,0,1-2.82-.55,16.09,16.09,0,0,1-2.74-1,10.15,10.15,0,0,1-2.5-1.58,11.57,11.57,0,0,1-2-2.22,21.49,21.49,0,0,1-1.42-2.53,17.25,17.25,0,0,1-1.06-2.65c-.8-2.72-.87-2.7-1.53-5.43s-.54-2.7-1.23-5.41-.8-2.67-1.49-5.38-.47-2.76-1.16-5.46-.87-2.66-1.56-5.36-.49-2.75-1.17-5.46-.66-2.71-1.31-5.42-.71-2.7-1.32-5.43-.58-2.73-1.17-5.46-.68-2.7-1.26-5.43-.55-2.74-1.11-5.47-.48-2.75-1-5.49-.6-2.73-1.12-5.47-.58-2.73-1.08-5.48-.4-2.77-.78-5.56c-.16-1.41-.18-2.12-.2-2.84s0-1.42.09-2.86a17.08,17.08,0,0,1,.46-2.84,8.11,8.11,0,0,1,.34-1.12c.16-.42.29-1,.59-1.61s.51-1.15.69-1.56.35-.73.49-1.06a12.76,12.76,0,0,1,1.45-2.48,19.81,19.81,0,0,1,1.83-2.17c.48-.52,1-1,1.88-2.08,1.8-2.13,1.81-2.13,3.51-4.29.82-1.1,1.24-1.64,1.62-2.2a17.49,17.49,0,0,0,1.37-2.33A6.25,6.25,0,0,0,21,82.9a5.92,5.92,0,0,0,.18-1.08,4.34,4.34,0,0,1,.22-1c.14-.38.23-.84.5-1.46a.68.68,0,0,1,1.31.09,7.08,7.08,0,0,1,.11,1.75,6.22,6.22,0,0,1-.27,1.18,6.38,6.38,0,0,1-.48,1.12c-.22.41-.4,1-.75,1.58A12.57,12.57,0,0,1,20.3,87.5c-.43.57-.9,1.11-1.74,2.24C16.82,92,16.88,92,15.08,94.14l-1.81,2.1c-.45.52-.89,1.05-1.71,2.15a24.33,24.33,0,0,0-1.5,2.28l-.55,1c-.19.38-.39.84-.68,1.45s-.4,1.09-.56,1.48a8,8,0,0,0-.32,1,15.09,15.09,0,0,0-.44,2.64,15.4,15.4,0,0,0,0,2.7l.28,2.71c.36,2.72.28,2.74.77,5.48l1,5.47c.52,2.74.65,2.71,1.19,5.45s.33,2.77.88,5.5L12.83,141c.57,2.72.76,2.68,1.35,5.4s.6,2.72,1.21,5.44.53,2.73,1.16,5.45l1.32,5.4c.68,2.71.55,2.74,1.23,5.44l1.34,5.41c.69,2.69.76,2.68,1.45,5.37s.71,2.7,1.41,5.39.76,2.73,1.38,5.43.48,2.74,1.25,5.38c.43,1.3.67,1.94.94,2.56A14.46,14.46,0,0,0,28.12,200a7.28,7.28,0,0,0,1,1.2l.81.67a8.12,8.12,0,0,0,.89.58,11.6,11.6,0,0,0,1.37.72,11,11,0,0,0,2.52.82c.65.16,1.32.26,2.65.47s2,.21,2.7.26,1.36.09,2.73.06a53.2,53.2,0,0,0,5.5-.19c2.75-.34,2.74-.41,5.47-.87s2.67-.7,5.34-1.36,2.68-.65,5.29-1.53c1.29-.46,1.94-.67,2.6-.88a15.48,15.48,0,0,0,2.54-1A25.48,25.48,0,0,0,74,195.88c.55-.4.9-.75,1.22-1a7.41,7.41,0,0,0,.8-.73,9.92,9.92,0,0,0,1.69-2,16.62,16.62,0,0,0,1.21-2.36,19.28,19.28,0,0,0,.77-2.56,13.68,13.68,0,0,0,.33-2.67c0-.33,0-.67,0-1.1s0-.93,0-1.61a21.35,21.35,0,0,0-.21-2.71c-.08-.68-.17-1.36-.39-2.72-.46-2.71-.47-2.71-1-5.42l-1.19-5.45c-.6-2.72-.35-2.78-.94-5.5L75,154.57c-.6-2.73-.72-2.7-1.32-5.42l-1.12-5.46-1.22-5.44c-.61-2.73-.52-2.75-1.12-5.47s-.75-2.69-1.35-5.41l-1.27-5.43c-.61-2.72-.61-2.72-1.21-5.45l-1.2-5.44c-.6-2.73-.43-2.76-1-5.49s-.51-2.74-1.11-5.46l-1.2-5.45A22.64,22.64,0,0,0,61.08,92c-.24-.67-.43-1.33-.8-2.59a9,9,0,0,0-1-2.26,4,4,0,0,0-1.84-1.53,20.11,20.11,0,0,0-2.51-.84L52.19,84l-2.75-.79a12.44,12.44,0,0,1-2.67-1.09,21,21,0,0,1-2.44-1.53c-.58-.43-1.17-.84-2.26-1.78L39.84,77a7.08,7.08,0,0,1-1.67-2.35C37.82,73.9,38.8,73.35,39.34,73.76Z"/><path class="cls-1" d="M32,65.07c-.86-.59-.26-.73-.41-1.48s0-.79-.14-1.55-.15-.75-.31-1.5-.25-.74-.41-1.49-.21-.75-.36-1.5-.27-.73-.42-1.49.15-.81,0-1.57-.39-.7-.54-1.46-.1-.76-.25-1.52-.13-.76-.27-1.52-.08-.77-.23-1.52a7,7,0,0,0-.41-1.35,1.32,1.32,0,0,0-.63-.75c-.38-.16-.38-.3-1-.28a8.22,8.22,0,0,0-1.4.3c-.74.19-.69.39-1.43.59l-1.49.4c-.74.2-.82-.08-1.56.11s-.7.38-1.45.57-.79,0-1.53.21-.73.28-1.47.47-.69.4-1.44.59l-1.49.38c-.75.2-.81,0-1.55.16s-.7.39-1.44.58-.8,0-1.54.2-.71.35-1.45.54-.72.31-1.46.51-.82-.09-1.57.11l-1.49.37a2,2,0,0,0-.71.34c-.11.07-.09.1-.11.13a.05.05,0,0,1,0,.06H2l-.08.07c0,.07-.07,0,0,.37l.3,1.51c.15.75,0,.78.17,1.53s.28.73.43,1.49l0,.2,0,0a.09.09,0,0,0,0,.06l.07.08.07,0c.09,0,.07,0,.2,0A5,5,0,0,0,4,58c.76-.14.74-.25,1.49-.39s.8.09,1.56,0,.73-.32,1.48-.46.8.07,1.56-.07l1.51-.3c.75-.14.74-.21,1.5-.35s.76-.09,1.52-.23.72-.23,1.54-.35a4.27,4.27,0,0,1,.88-.05,4,4,0,0,1,.95.13,2.42,2.42,0,0,1,.9.48,4.25,4.25,0,0,1,.66.73,5.7,5.7,0,0,1,.46.8,3.81,3.81,0,0,1,.3.81c.2.8.24.79.39,1.55s0,.77.16,1.53.09.77.24,1.53l.28,1.51c.14.76.45.7.59,1.46S21.9,67,22,67.8s.19.75.33,1.51.06.77.2,1.53.86.64.28,1.51a1.57,1.57,0,0,1-1.28.24c-.86-.6-.32-.72-.47-1.47s.1-.8-.05-1.56-.26-.73-.4-1.49-.08-.77-.23-1.53L20.12,65l-.26-1.51c-.15-.76-.28-.73-.42-1.49s0-.78-.17-1.53-.13-.77-.3-1.47a3.5,3.5,0,0,0-.61-1.12c-.33-.38-.18-.56-.72-.77a3.28,3.28,0,0,0-1.29,0c-.71.11-.7.31-1.45.44l-1.51.29c-.76.13-.78.05-1.53.18s-.75.18-1.51.32-.79,0-1.54.13-.77.09-1.53.23-.74.21-1.5.35l-1.51.3c-.38.07-.57.12-.75.16s-.62.14-1.25.26l-.54.08c-.07-.42-.09-.7-.12-1s0-.28-.05-.45-.05-.29-.08-.49l-.3-1.51C1,55.68.92,55.71.77,55S.5,54.22.35,53.47c-.17-1-.21-1.18-.35-2l.5-.13a8.18,8.18,0,0,1,1.28-.25A2.62,2.62,0,0,0,2.55,51c.74-.2.73-.26,1.47-.46s.7-.39,1.44-.58.76-.13,1.51-.32.8,0,1.55-.17S9.2,49,10,48.83s.78,0,1.52-.25L13,48.19c.75-.2.72-.29,1.47-.48s.73-.26,1.47-.46l1.49-.38,1.49-.39c.75-.2.81.05,1.56-.14s.73-.26,1.47-.45.71-.33,1.46-.52.76-.13,1.51-.32a8.7,8.7,0,0,1,1.61-.36,2.82,2.82,0,0,1,.93.05,3.93,3.93,0,0,1,.94.37,4.27,4.27,0,0,1,.82.63,2.13,2.13,0,0,1,.53.81,9,9,0,0,1,.48,1.61c.16.75.16.75.31,1.5s.16.76.31,1.51,0,.79.13,1.55.06.77.21,1.53l.3,1.51c.16.75.46.69.61,1.45s0,.79.13,1.54,0,.79.16,1.54.45.7.6,1.45.08.77.23,1.53.64.67.26,1.52A1.8,1.8,0,0,1,32,65.07Z"/><path class="cls-1" d="M97.61,206c.6,1.39-.11,1.33,0,2.69a10.42,10.42,0,0,0,.13,1.31,3,3,0,0,0,.33,1.29,4.55,4.55,0,0,0,.63,1.17,7.23,7.23,0,0,0,1.81,2c.29.18.58.36,1.12.76a11.77,11.77,0,0,0,1.2.67l.5.25.76.31a19.92,19.92,0,0,0,2.65.84c1.34.36,1.26.69,2.65,1s1.43.05,2.83.24,1.4.24,2.82.38,1.42.14,2.84.24,1.42.13,2.85.18,1.43,0,2.86-.06,1.43-.09,2.86-.14,1.44.1,2.87,0,1.43-.07,2.86-.18,1.42-.31,2.85-.44,1.42-.15,2.85-.29,1.46.13,2.88,0,1.41-.35,2.83-.54,1.45,0,2.87-.21,1.41-.29,2.83-.52,1.39-.42,2.81-.65,1.43-.21,2.82-.48a20.89,20.89,0,0,0,2.76-.44,13.68,13.68,0,0,0,2.44-1.25,14.35,14.35,0,0,0,2.32-1.43A2.48,2.48,0,0,0,163,212l.34-.44a12,12,0,0,0,.79-1.08,8.59,8.59,0,0,0,1.1-2.36,4.57,4.57,0,0,1,.43-1.23,5.76,5.76,0,0,0,.19-1.31,8.9,8.9,0,0,0-.52-2.64,3.92,3.92,0,0,0-.68-1.18c-.19-.28-.46-.52-.81-1.08s-.57-.84-.74-1.14a4.67,4.67,0,0,0-.86-1.07,15.56,15.56,0,0,0-2.1-1.78,17.16,17.16,0,0,0-2.32-1.52,5.49,5.49,0,0,0-1.3-.5c-.34-.08-.65-.22-1.32-.41a21.09,21.09,0,0,0-2.74-.55c-1.38-.23-1.37-.32-2.78-.46s-1.42,0-2.84-.07-1.42-.27-2.86-.3-1.44.16-2.89.12-1.43-.25-2.88-.29l-2.87-.05c-1.44,0-1.44,0-2.88,0s-1.43-.06-2.86,0-1.43.11-2.86.17-1.42.05-2.84.18-1.43.05-2.84.24-1.41.27-2.82.5-1.41.3-2.81.57-1.42.17-2.81.49-1.4.29-2.77.69-1.36.41-2.69.9-1.22.8-2.48,1.37a16.71,16.71,0,0,0-2.49,1.19,11.68,11.68,0,0,0-2,1.81c-.46.5-.68.75-.89,1a6.24,6.24,0,0,0-.74,1.13c-.59,1.25.11,1.45-.9,2.52-.25.28-1.19.15-1.28-.26-.35-1.63.2-1.58.85-2.95a4.92,4.92,0,0,1,.91-1.26c.27-.28.55-.55,1.06-1.11s.78-.82,1-1.09a7.26,7.26,0,0,1,1.16-1,16.34,16.34,0,0,1,2.62-1.44c1.35-.62,1.34-.62,2.71-1.15s1.38-.48,2.78-.92,1.36-.54,2.78-.89,1.45-.22,2.87-.51,1.43-.27,2.86-.51,1.4-.36,2.84-.57,1.48,0,2.93-.12,1.44-.17,2.89-.25,1.45-.24,2.9-.27,1.45,0,2.9,0,1.45.1,2.89.14l2.89,0c1.44.05,1.44.2,2.87.23s1.44.08,2.88.11,1.45,0,2.9,0,1.45,0,2.91.15,1.47.1,2.93.34a23.63,23.63,0,0,1,2.84.83,14.89,14.89,0,0,1,1.4.51,10.63,10.63,0,0,1,1.36.6A18.62,18.62,0,0,1,161,195.5a17.56,17.56,0,0,1,2.37,1.85,8,8,0,0,1,1,1.14,10.79,10.79,0,0,1,2.14,4c.22.74.38,1.09.46,1.47a14.79,14.79,0,0,1,.24,1.53,11.43,11.43,0,0,0,0,1.57,9.21,9.21,0,0,1-.25,1.57,10,10,0,0,1-1.5,2.77,3.9,3.9,0,0,1-1.06,1.11c-.32.22-.57.52-1.16,1-1.18.91-1,1.18-2.32,2a15,15,0,0,1-2.84,1.06,22.73,22.73,0,0,1-2.87.72c-1.44.28-1.43.35-2.85.59s-1.41.3-2.84.53l-2.86.42-2.87.4c-1.43.19-1.46-.07-2.9.11s-1.42.22-2.86.38-1.43.29-2.87.41-1.45.06-2.89.16-1.44.13-2.89.21-1.45,0-2.89,0-1.45.19-2.9.22-1.45.07-2.91.06-1.45,0-2.9-.09-1.46-.07-2.91-.21-1.44-.3-2.89-.52-1.42-.31-2.86-.58-1.43-.33-2.85-.71-1.51-.12-2.89-.73a5.41,5.41,0,0,1-1.32-.73c-.3-.24-.63-.43-1.26-.84a11.08,11.08,0,0,1-1.18-1c-.27-.27-.5-.58-1-1.11s-.75-.87-1-1.14a3.31,3.31,0,0,1-.87-1.31,4.77,4.77,0,0,1-.46-1.51,7.59,7.59,0,0,1-.22-1.55c-.12-1.54-.51-1.63.18-3.07C96.38,205.32,97.47,205.6,97.61,206Z"/><path class="cls-1" d="M166.85,216.93c.78,1,.17,1.09.22,2.2s-.11,1.11-.06,2.22l.12,2.2c.05,1.11.16,1.1.21,2.2s.12,1.1.17,2.21.18,1.09.23,2.2-.26,1.12-.2,2.22.3,1.09.35,2.19,0,1.11.05,2.21L168,239c0,1.11,0,1.11,0,2.22s.12,1.1.18,2.2c0,.55.06.88.06,1.21a2.65,2.65,0,0,1-.41,1.45,2.36,2.36,0,0,1-1.22.92c-.32.11-.62.18-1.15.35-1.06.34-1,.36-2.12.68s-1,.53-2.09.81-1.07.32-2.16.57-1.15,0-2.24.22-1.05.42-2.14.63-1.13,0-2.23.21-1.08.27-2.18.44-1.07.35-2.18.51-1.1.12-2.21.25-1.13-.12-2.23,0-1.09.29-2.2.38-1.12-.12-2.23,0-1.1.22-2.21.28-1.1.18-2.21.22-1.12-.25-2.23-.21l-2.21,0c-1.11,0-1.1.32-2.21.34s-1.11-.16-2.22-.15h-2.22c-1.11,0-1.11-.15-2.22-.17s-1.12.1-2.23.06-1.11,0-2.23,0-1.1-.16-2.21-.24-1.12,0-2.23-.11-1.09-.35-2.19-.5-1.13,0-2.23-.16-1.07-.38-2.16-.6-1.1-.18-2.19-.43-1.1-.19-2.18-.46c-.55-.15-.78-.21-1.11-.33a2.3,2.3,0,0,1-.58-.3,1.89,1.89,0,0,1-.6-.82c-.24-.69-.25-.89-.34-1.18s-.15-.55-.25-1.1c-.16-1.11-.17-1.11-.3-2.22s-.05-1.12-.16-2.23-.15-1.11-.24-2.22-.14-1.1-.21-2.21.06-1.11,0-2.22,0-1.11,0-2.21-.05-1.11-.09-2.21-.37-1.09-.42-2.2.17-1.11.11-2.21-.11-1.09-.18-2.19,0-1.11-.1-2.2-.83-1-.24-2.16a1.14,1.14,0,0,1,1.29-.18c.86,1,.33,1.09.44,2.2s-.14,1.13,0,2.24.19,1.1.26,2.2,0,1.12,0,2.22.06,1.11.11,2.21l.08,2.21c0,1.1.18,1.1.23,2.2s-.06,1.1,0,2.2l.14,2.2c.09,1.09.2,1.09.3,2.18s-.11,1.11,0,2.2.2,1.07.36,2.15a4.56,4.56,0,0,0,.29,1.05c.09.23.19.59.3.92a.41.41,0,0,0,.11.17.72.72,0,0,0,.18.07c.17.06.49.13,1,.27,1.06.27,1,.36,2.1.6s1.08.21,2.15.42,1,.35,2.13.53,1.07.22,2.16.38,1.1.06,2.18.19,1.1.08,2.19.19,1.1,0,2.19.11,1.09.21,2.19.25l2.2.08c1.1,0,1.1-.09,2.2-.08s1.1-.12,2.2-.12,1.1,0,2.2,0,1.1.15,2.21.12,1.1-.1,2.2-.13,1.09-.23,2.19-.27,1.11,0,2.21,0,1.11.17,2.21.11,1.08-.32,2.17-.4,1.11.06,2.21,0l2.19-.23c1.09-.13,1.08-.21,2.17-.35s1.08-.2,2.16-.37,1.09-.14,2.17-.34,1.08-.17,2.15-.39,1.13.05,2.21-.19,1.05-.29,2.12-.55,1-.39,2.09-.67,1.07-.23,2.13-.54,1-.35,2.08-.68l1-.31a1.23,1.23,0,0,0,.62-.42,1.09,1.09,0,0,0,.14-.75c0-.24-.07-.45-.1-1-.06-1.1-.12-1.1-.18-2.2s-.06-1.1-.11-2.21l-.11-2.21c-.06-1.1.12-1.11.07-2.22s0-1.11,0-2.21l-.11-2.21c-.06-1.1-.36-1.08-.42-2.19s.13-1.11.07-2.22.09-1.11,0-2.22-.36-1.08-.41-2.19,0-1.1,0-2.21-.55-1.09-.06-2.21C165.54,216.71,166.66,216.68,166.85,216.93Z"/><path class="cls-1" d="M303.93,61.29c-.94-.87-.35-1-.58-2.07s-.08-1.09-.31-2.14-.25-1-.49-2.1-.34-1-.58-2.08-.29-1-.53-2.09-.36-1-.6-2.07.07-1.12-.17-2.17-.47-1-.71-2-.19-1.07-.42-2.12l-.44-2.11c-.24-1-.17-1.07-.41-2.12s-.3-1-.54-2.08-.31-1-.55-2.09-.1-1.08-.34-2.14-.24-1.07-.45-2.13-.41-1-.61-2.1l-.38-2.12c-.19-1.07.1-1.12-.08-2.18s-.37-1-.55-2.09,0-1.09-.2-2.15-.29-1-.5-2.09-.42-1-.65-2.05-.24-1-.49-2.07,0-1.1-.34-2.12-.48-1-.85-1.94a19.58,19.58,0,0,0-.6-2,14.71,14.71,0,0,0-1.11-1.74,4.13,4.13,0,0,0-.63-.76l-.27-.3c-.11-.09-.24-.22-.41-.39a6,6,0,0,1-.64-.73,1.79,1.79,0,0,0-.75-.65,6.53,6.53,0,0,0-1.85-.69c-1-.15-1,.15-2,.16a12.52,12.52,0,0,0-2,.09,20.4,20.4,0,0,0-2,.57c-1,.37-1,.24-2,.66s-.9.56-1.84,1.05-.88.6-1.8,1.13-.95.47-1.85,1-.84.67-1.72,1.27-1,.42-1.89,1-.77.77-1.63,1.41-1,.47-1.85,1.11l-1.7,1.33c-.86.65-.82.71-1.68,1.36s-.9.61-1.78,1.24-.84.71-1.76,1.32l-1.82,1.15c-.91.59-.95.52-1.86,1.11s-.87.63-1.78,1.22-.87.64-1.78,1.22-1,.49-1.87,1.07-.94.54-1.85,1.13l-1.81,1.16c-.91.59-.74.86-1.64,1.44s-1,.4-1.93,1L240.27,28c-.91.58-1,.51-1.86,1.1s-.53,1.2-1.81,1.16c-.32,0-.84-.8-.71-1.1.48-1.17.8-.73,1.7-1.32s1-.38,1.94-1,.84-.68,1.75-1.27.94-.53,1.84-1.12l1.81-1.18,1.82-1.16c.9-.58.83-.7,1.74-1.28s1-.49,1.87-1.07l1.81-1.17c.91-.59.84-.7,1.75-1.28s1-.41,1.92-1l1.79-1.21c.89-.59.78-.74,1.65-1.35L261,12.53c.86-.64.91-.57,1.77-1.22l1.7-1.34c.86-.65.95-.53,1.82-1.17s.9-.61,1.78-1.24.84-.69,1.74-1.3.88-.63,1.79-1.23.9-.63,1.84-1.19,1-.43,2-.94,1-.5,2-1,1-.55,2-.94a19.24,19.24,0,0,1,2.14-.73A13.16,13.16,0,0,1,283.82,0a10,10,0,0,1,2.3.33,7.76,7.76,0,0,1,2.23.72c.52.29.8.39,1.06.55a3.4,3.4,0,0,1,1,.69,4.47,4.47,0,0,1,.77.91l.66,1a17,17,0,0,1,.86,2.09,19.57,19.57,0,0,1,1.06,2c.39,1,.21,1.09.56,2.14s.29,1.05.58,2.1.35,1,.61,2.1.29,1,.52,2.11.2,1.07.41,2.13.19,1.07.39,2.13-.07,1.11.12,2.18.24,1.05.42,2.11.31,1,.51,2.1.11,1.07.32,2.12.23,1,.46,2.08.15,1.07.39,2.12.39,1,.63,2.07.3,1,.54,2.09.24,1.06.49,2.11.24,1.05.47,2.1.07,1.1.31,2.15.15,1.07.39,2.13.23,1.05.47,2.1.54,1,.78,2,.06,1.09.3,2.15.1,1.08.34,2.13.53,1,.77,2,.17,1.07.4,2.12.73,1,.43,2.12C305.26,61.32,304.17,61.51,303.93,61.29Z"/><path class="cls-1" d="M315.29,53.84c.52.57,0,.29-.16.54s-.28.17-.41.42l-.25.49c-.12.25,0,.3-.16.55s-.07.27-.2.52,0,.3-.15.55-.4.1-.53.35.08.36,0,.61-.18.22-.31.47-.16.23-.29.47-.19.22-.32.46-.07.28-.2.53-.06.28-.19.53-.25.18-.38.43-.12.25-.25.49.05.34-.08.59l-.24.5c-.13.25-.39.11-.52.36s0,.33-.1.58-.3.16-.43.4-.05.29-.18.54.06.34-.07.58l-.27.49c-.13.25-.34.14-.47.39s0,.33-.09.58-.31.15-.44.4,0,.32-.11.57,0,.3-.16.54-.39.11-.52.36-.14.24-.29.5.1.43-.12.72-.37.19-.71.44a1.77,1.77,0,0,1-.85.3c-.45,0-.43-.13-.78-.21s-.37,0-.65-.11-.3,0-.55-.14-.22-.19-.48-.3-.3,0-.55-.13-.16-.33-.41-.44-.33,0-.59-.07-.16-.3-.42-.42-.26-.08-.52-.2-.28,0-.53-.16-.24-.16-.49-.28-.29,0-.55-.14l-.5-.25c-.25-.11-.22-.19-.47-.3s-.28-.06-.53-.18-.28-.06-.53-.17-.21-.23-.46-.35-.23-.16-.49-.28l-.5-.23c-.25-.12-.38.17-.64,0s-.16-.31-.42-.42-.27-.08-.52-.2-.22-.19-.47-.31-.56.54-.51-.23a4.3,4.3,0,0,1,.55-1.19c.54-.55.32,0,.58.06s.15.34.4.45.31,0,.56.12.23.17.48.29l.52.21.49.25c.26.12.31,0,.57.11s.2.22.46.34l.5.23c.25.12.31,0,.56.11s.17.31.42.43.27.07.53.19.33-.06.58.06l.51.22c.25.12.22.2.47.31s.27.08.53.19.19.25.44.37.24.15.49.27.29,0,.54.16.27.09.52.2.27.07.53.19.19.24.44.35a3.42,3.42,0,0,0,.44.18c.19,0,.22-.07.32-.07s.05-.14.11-.17.12,0,.24-.17.26-.07.39-.28.06-.26.19-.5-.05-.34.08-.59.19-.21.32-.46.34-.14.46-.39-.08-.35.05-.6.26-.18.39-.43l.26-.49c.12-.25,0-.29.17-.54s.07-.27.2-.52.13-.25.27-.49l.25-.49c.13-.25.36-.13.49-.38s.08-.27.21-.52,0-.31.14-.55.19-.22.32-.46l.24-.51c.13-.25.21-.2.34-.45s0-.32.11-.57.07-.28.2-.52l.25-.5.25-.5c.13-.25.29-.16.42-.41s.21-.21.33-.45l.26-.5c.13-.24-.14-.39,0-.63s.28-.17.41-.42.26-.18.39-.42-.14-.39,0-.64.19-.21.32-.46-.31-.48.3-.47A4.92,4.92,0,0,1,315.29,53.84Z"/><path class="cls-1" d="M268.37,143.92c1.38-.17,1.15.4,2.26.9s1.05.65,2.16,1.15l2.24,1c1.12.49,1.16.39,2.28.88s1.14.43,2.27.91,1.17.37,2.29.85,1,.76,2.12,1.24,1.22.25,2.35.72,1.11.52,2.23,1l2.25,1c1.13.46,1.1.53,2.23,1s1.16.39,2.3.84,1.15.36,2.32.87,1.07.66,2.17,1.21l2.18,1.09c1.09.54,1.18.36,2.27.88s1.1.5,2.21,1,1,.72,2.13,1.12A20.81,20.81,0,0,0,311,162c.57.13.85.23,1.13.31a3.43,3.43,0,0,0,1.14.23,8,8,0,0,0,2.25-.21,4.84,4.84,0,0,0,1.88-1,4.69,4.69,0,0,0,1.47-1.47,5,5,0,0,1,.38-.53c.09-.15.18-.26.26-.37a2.69,2.69,0,0,0,.53-1,3.46,3.46,0,0,0,.23-1.14c0-.3,0-.58.13-1.16a15.05,15.05,0,0,0,.43-2.32,20.54,20.54,0,0,0-.23-2.35c-.11-1.19-.23-1.17-.41-2.35s.09-1.24-.14-2.43-.22-1.21-.45-2.41-.52-1.14-.76-2.34-.05-1.24-.28-2.44l-.46-2.4c-.22-1.21-.1-1.23-.32-2.43s-.35-1.18-.57-2.39-.33-1.18-.54-2.38-.14-1.22-.35-2.43-.33-1.18-.54-2.39,0-1.24-.19-2.45-.4-1.17-.6-2.37,0-1.24-.21-2.45-.23-1.2-.45-2.4-.28-1.2-.49-2.4-.15-1.22-.35-2.42-.3-1.19-.5-2.4l-.38-2.41c-.2-1.21-.12-1.22-.32-2.43s-.26-1.2-.46-2.41-.26-1.19-.46-2.4-.07-1.23-.27-2.43-.14-1.22-.33-2.43l-.38-2.41c-.2-1.21-.51-1.16-.7-2.37s0-1.24-.17-2.45l-.41-2.41c-.19-1.21-.11-1.22-.29-2.43s-.91-1.13-.37-2.41a1.07,1.07,0,0,1,1.29-.21c.9,1.07.37,1.18.55,2.38s-.05,1.25.14,2.46.31,1.18.5,2.39.13,1.22.32,2.42l.4,2.41.36,2.42c.2,1.21.33,1.18.53,2.39s.07,1.22.27,2.43.2,1.21.39,2.41.33,1.19.52,2.39,0,1.24.19,2.45.23,1.2.45,2.4.38,1.18.59,2.38.21,1.21.41,2.41.12,1.22.33,2.42.23,1.2.45,2.4.07,1.23.27,2.44.17,1.21.38,2.41.29,1.19.5,2.39.23,1.21.45,2.41l.48,2.39c.22,1.2.08,1.23.3,2.43l.44,2.41c.22,1.2.34,1.18.56,2.38s.34,1.17.57,2.37l.42,2.41c.23,1.2.06,1.23.3,2.43s.3,1.18.54,2.39.43,1.17.63,2.4.11,1.24.24,2.49a23.54,23.54,0,0,1-.15,2.53,16.7,16.7,0,0,1,0,2.55,4.76,4.76,0,0,1-.32,1.24c-.12.3-.19.61-.42,1.22a6.78,6.78,0,0,1-.48,1.21,6.33,6.33,0,0,1-.64,1.15,6.7,6.7,0,0,1-4.34,3.12,9.55,9.55,0,0,1-2.66.15c-.65-.05-1-.09-1.28-.14s-.64-.1-1.26-.25a22.13,22.13,0,0,1-2.35-.94c-1.17-.42-1.19-.37-2.34-.83s-1.19-.37-2.32-.89-1.08-.6-2.18-1.14l-2.19-1.08c-1.09-.54-1.05-.63-2.14-1.14s-1.16-.31-2.3-.77-1.16-.39-2.29-.84l-2.28-.92-2.26-.92c-1.14-.47-1.07-.64-2.2-1.11s-1.09-.55-2.22-1l-2.25-1c-1.13-.48-1.25-.2-2.38-.68s-1.05-.65-2.17-1.14-1.07-.62-2.19-1.11-1.24-.22-2.36-.71-1.09-.56-2.21-1.07-1.34-.06-2.21-1.05C267.52,145,268,144,268.37,143.92Z"/><path class="cls-1" d="M263.53,158.56c-.77-.13-.18-.28-.25-.58s.1-.34,0-.64-.08-.3-.15-.6-.17-.27-.24-.58-.13-.28-.2-.58-.19-.28-.26-.58.23-.37.16-.67-.3-.25-.37-.55,0-.31-.09-.61,0-.31-.11-.61,0-.32-.07-.62-.13-.29-.2-.59-.14-.28-.21-.59.06-.33,0-.63l-.14-.6c-.07-.3-.27-.26-.34-.56s-.08-.3-.15-.6.21-.37.14-.67-.24-.26-.31-.56.11-.34.05-.64-.16-.29-.23-.59-.27-.25-.34-.55l-.12-.61c-.07-.3.16-.36.09-.66s-.26-.25-.33-.56.13-.34.06-.64-.22-.27-.29-.57-.19-.29-.25-.65.25-.4.25-.78a2.43,2.43,0,0,1,.17-.78c.15-.37-.11-.52.15-.88s.4-.2.67-.45a6.2,6.2,0,0,1,.55-.42c.26-.18.33-.07.59-.24s.18-.29.43-.46.2-.26.46-.44.3-.1.55-.28.2-.26.45-.43.39,0,.64-.16.16-.33.41-.5.38,0,.63-.18.24-.2.5-.37.21-.24.47-.41.28-.13.54-.31.2-.25.46-.42l.52-.33c.25-.18.3-.11.56-.28s.22-.23.47-.4.22-.23.48-.4.32-.07.58-.25.29-.12.54-.3l.52-.34c.25-.18.08-.44.33-.61s.38,0,.64-.17.23-.21.49-.38.3-.1.56-.28-.15-.77.51-.34a4,4,0,0,1,.73,1.08c.16.77-.15.33-.4.5s-.39,0-.65.15-.19.27-.44.45-.29.12-.55.29l-.5.36-.52.34c-.26.17-.18.28-.44.45s-.32.08-.58.25l-.51.35c-.26.17-.18.28-.44.45s-.38,0-.63.17-.23.21-.49.39-.15.33-.41.5l-.5.35c-.26.18-.31.11-.56.28s-.24.21-.49.38-.34.05-.6.23-.28.14-.53.31-.21.24-.47.41-.24.2-.49.37-.23.22-.49.39-.33.06-.59.23l-.51.35c-.26.17-.19.27-.44.44s-.17.27-.36.42-.21.13-.34.29-.26.07-.34.26,0,.21,0,.42.2.22.23.45,0,.27,0,.56-.15.35-.08.65.3.25.37.55-.07.33,0,.63.06.31.13.61.17.28.23.58.14.29.21.59.06.3.13.6.07.3.13.61-.18.36-.11.66.13.28.2.59.2.27.27.57,0,.32.06.62l.16.6c.07.3,0,.32.05.62s.23.26.3.57.14.28.21.58.07.3.15.6l.14.61c.07.3-.11.34,0,.64s0,.32.06.62l.14.6c.07.31.36.24.43.54s-.1.34,0,.64-.07.33,0,.64.36.23.43.53,0,.32.08.62.55.19.09.61A4.34,4.34,0,0,1,263.53,158.56Z"/><path class="cls-1" d="M226.4,37.41c-.8,1.55-1.2,1.08-2.47,2.07s-1.38.86-2.65,1.85l-2.54,2c-1.27,1-1.2,1.08-2.48,2.07s-1.23,1-2.5,2-1.2,1.09-2.47,2.08-1.47.75-2.74,1.74-1.12,1.19-2.39,2.18l-2.58,2-2.57,2c-1.27,1-1.32.94-2.59,1.93s-1.23,1-2.5,2-1.23,1-2.5,2-1.36.88-2.63,1.88l-2.55,2c-1.27,1-1.14,1.15-2.41,2.14l-2.54,2c-1.28,1-1.48.8-2.79,1.74s-1.23,1.08-2.55,2-1.43.77-2.74,1.7-1.24,1-2.5,2S171.58,80,170.39,81a31.2,31.2,0,0,0-2.27,2.18A12.93,12.93,0,0,1,167,84.3a5.94,5.94,0,0,0-1,1.17,5.78,5.78,0,0,0-.71,1.37c-.14.36-.27.71-.54,1.4l-.47,1.4a2.24,2.24,0,0,0-.14.58,2.86,2.86,0,0,0-.05.87,3.47,3.47,0,0,0,.13.86,2.44,2.44,0,0,0,.19.56c.14.34.28.67.62,1.33a6.11,6.11,0,0,0,.84,1.21c.27.26.49.57,1,1.08s.78.79,1,1.08a4.51,4.51,0,0,0,1.22,1A23.91,23.91,0,0,0,172,99.54c1.49.61,1.61.34,3.1,1s1.43.79,2.92,1.43l3,1.28c1.48.65,1.43.77,2.91,1.42s1.53.53,3,1.19,1.53.56,3,1.22,1.44.74,2.92,1.4,1.52.56,3,1.23,1.38.88,2.85,1.55,1.55.5,3,1.17,1.38.86,2.85,1.53l3,1.31c1.47.68,1.5.61,3,1.28l2.92,1.4c1.47.67,1.51.59,3,1.27l2.93,1.37c1.47.68,1.43.75,2.9,1.43s1.49.62,3,1.3,1.49.63,3,1.31,1.41.79,2.88,1.48l2.9,1.42,2.93,1.37c1.46.69,1.6.4,3.06,1.09s1.37.89,2.83,1.58l2.94,1.34c1.46.7,1.43.78,2.89,1.47s1.8.07,2.9,1.4c.28.34-.13,1.19-.57,1.18-1.72,0-1.52-.53-3-1.23s-1.36-.91-2.81-1.6-1.52-.58-3-1.27-1.43-.75-2.89-1.44L236.22,130l-2.92-1.39c-1.46-.69-1.52-.56-3-1.25s-1.41-.79-2.88-1.47l-2.93-1.36c-1.46-.68-1.52-.57-3-1.24s-1.38-.88-2.84-1.56l-3-1.31c-1.46-.67-1.54-.51-3-1.18l-2.94-1.34c-1.46-.68-1.43-.75-2.9-1.43l-2.95-1.3c-1.47-.67-1.41-.81-2.88-1.48l-2.92-1.37c-1.47-.67-1.5-.6-3-1.27l-3-1.3-3-1.28c-1.47-.66-1.42-.79-2.89-1.44l-3-1.32c-1.48-.65-1.53-.54-3-1.19s-1.53-.53-3-1.17-1.47-.68-2.95-1.3-1.41-.78-2.92-1.4a26.94,26.94,0,0,1-3-1.36L167,98.5a6.34,6.34,0,0,1-1.4-1,9,9,0,0,1-1.12-1.34,16.68,16.68,0,0,1-.92-1.49,8.8,8.8,0,0,1-.41-1c-.06-.27-.11-.49-.15-.71a4.65,4.65,0,0,1-.08-.71,8,8,0,0,1-.1-1,10.14,10.14,0,0,1,0-1c0-.27,0-.5,0-.72a5.52,5.52,0,0,1,.33-1.73,7,7,0,0,1,.78-1.54l.93-1.42c.49-.68.75-1,1-1.33s.53-.64,1.09-1.25a32.16,32.16,0,0,1,2.3-2.37c1.23-1.08,1.2-1.13,2.47-2.15s1.3-1,2.62-2L177,73.8c1.33-.93,1.48-.71,2.8-1.64s1.24-1,2.51-2,1.19-1.1,2.47-2.09,1.32-.94,2.59-1.93l2.54-2c1.27-1,1.33-.92,2.6-1.92s1.17-1.12,2.45-2.11,1.23-1.05,2.51-2.05l2.54-2,2.55-2c1.27-1,1.38-.85,2.66-1.85s1.32-.92,2.6-1.92l2.55-2c1.27-1,1.08-1.24,2.36-2.23s1.38-.86,2.65-1.85,1.37-.88,2.64-1.88,1.09-1.23,2.37-2.23,1.32-.94,2.59-1.94,1-1.41,2.58-2C226,36.1,226.6,37,226.4,37.41Z"/><path class="cls-1" d="M214.21,26.28c.51-.58.31,0,.59.1s.23.26.51.36l.57.19c.28.1.32,0,.6.1s.3,0,.58.14.32,0,.61.08.17.4.45.5.37-.13.65,0,.26.15.54.25.27.13.56.23.25.17.53.27.31,0,.59.14.31,0,.59.12.24.23.52.33l.56.2c.28.1.35-.09.63,0l.57.19c.28.1.18.37.47.47s.34-.07.62,0,.22.28.5.38.31,0,.59.12.35-.09.63,0l.56.22c.28.09.2.32.48.42s.35-.08.63,0,.22.29.5.39.33-.05.61.05.32,0,.61.09.17.37.5.5a2.32,2.32,0,0,1,.67.45c.29.32.57.2.75.69s-.08.48-.08.86a4.73,4.73,0,0,1-.07.69c-.05.32-.18.29-.24.59s.07.32,0,.61,0,.31,0,.61-.14.27-.2.57,0,.31,0,.61-.28.24-.34.54.12.33.06.62-.26.25-.32.55,0,.3-.08.59,0,.31-.05.6-.1.28-.16.58,0,.31,0,.6-.06.29-.13.58-.14.28-.19.58,0,.3-.06.59,0,.31-.06.6-.18.27-.23.57-.12.28-.17.57l-.12.59c-.06.29.25.35.19.65s-.27.25-.33.54,0,.3-.08.59-.14.28-.2.58.65.44-.12.58a4.34,4.34,0,0,1-1.28-.25c-.66-.43-.12-.33-.06-.62s.29-.25.35-.54-.06-.32,0-.61.12-.28.18-.58l.1-.59.14-.58c.05-.29-.08-.32,0-.61s.17-.27.23-.57l.12-.58c.06-.3-.07-.32,0-.61s.27-.26.33-.55,0-.3.07-.59S229,41.33,229,41s.06-.29.11-.58.14-.28.2-.57,0-.31.08-.6.2-.26.26-.56.1-.28.15-.57,0-.31,0-.61,0-.3.09-.59,0-.3.07-.59.19-.27.25-.56l.12-.59c.06-.29,0-.32,0-.59s-.08-.28-.06-.5,0-.21,0-.34.12-.17,0-.27-.15,0-.34-.13-.31.1-.59,0-.25-.18-.53-.28-.21-.31-.49-.41-.36.12-.64,0-.24-.24-.52-.34l-.56-.2c-.28-.1-.31,0-.6-.11s-.3,0-.58-.14l-.56-.21-.56-.2c-.29-.1-.2-.34-.48-.44s-.3-.05-.58-.15-.33,0-.61-.07-.26-.18-.54-.28l-.57-.17c-.28-.1-.25-.19-.53-.29s-.34.05-.62-.05-.31,0-.59-.14l-.56-.19-.57-.19c-.28-.1-.22-.27-.5-.37s-.25-.19-.54-.29l-.56-.2c-.28-.1-.39.19-.67.09s-.22-.26-.5-.36-.23-.24-.52-.34-.38.18-.66.08-.26-.16-.54-.26-.46.37-.55-.25A4.55,4.55,0,0,1,214.21,26.28Z"/></g></g></svg>