<svg xmlns="http://www.w3.org/2000/svg" viewBox="0 0 201.82 301.6"><defs><style>.cls-1{fill:#b5b5aa;}</style></defs><g id="Layer_2" data-name="Layer 2"><g id="Artwork"><path class="cls-1" d="M146.45,245.77c-.68-2.85-.06-2.91,0-5.84s.22-2.92.28-5.85,0-2.92.09-5.85-.05-2.92,0-5.85,0-2.93.05-5.85-.07-2.93,0-5.86.36-2.92.41-5.85-.19-2.93-.13-5.85l.16-5.85.14-5.85.18-5.86,0-5.85,0-5.85c.06-2.93.19-2.93.25-5.85L148,158c.05-2.92-.15-2.93-.1-5.85l.1-5.86c.05-2.92.34-2.92.39-5.84s-.12-2.93-.07-5.86.24-2.92.3-5.85,0-2.93,0-5.85-.15-2.93-.1-5.86l.12-5.85c.05-2.93.29-2.93.34-5.85s-.14-2.93-.08-5.86.25-2.92.3-5.85-.1-2.93,0-5.86-.06-2.92,0-5.85.34-2.92.39-5.85.07-2.93.13-5.85-.24-2.94-.19-5.86.23-2.93.28-5.85c0-1.64,0-2.15.06-3.29l-1.06,0c-2.93.09-2.93,0-5.86,0s-2.92.22-5.85.31-2.92.2-5.85.29-2.92,0-5.85.1-2.92.2-5.85.29-2.93-.14-5.86,0-2.92.27-5.84.37-2.94-.12-5.86,0l-5.85.21-5.85.26-5.86.13c-2.92.09-2.92.18-5.85.27l-5.85.16c-2.93.09-2.93,0-5.85.1L61,58l-5.85.25c-2.92.09-2.93,0-5.86.06l-5.85.12-5.85.18c-2.93.09-2.92.4-5.85.49s-2.93-.12-5.86,0L20,59.24c-2.93.09-2.93,0-5.86.1s-3,.81-5.83.17a.67.67,0,0,1-.05-1.31c2.82-.81,2.9-.27,5.83-.36s2.93.15,5.86.06,2.92-.21,5.84-.3l5.85-.12,5.85-.2,5.85-.16c2.93-.09,2.92-.23,5.85-.32s2.93,0,5.85-.06l5.85-.18c2.93-.09,2.93-.22,5.85-.31s2.93.13,5.86,0l5.85-.23c2.92-.09,2.92-.27,5.84-.37l5.85-.18c2.93-.1,2.93,0,5.86-.1l5.85-.22c2.92-.09,2.93.05,5.85,0l5.85-.13,5.85-.26,5.85-.21,5.85-.23c2.93-.09,2.93,0,5.86,0l5.85-.18c2.92-.09,2.92-.21,5.85-.3l2.66-.11c0,1,0,1.71,0,2.54,0,.58,0,1.24,0,2.23-.07,2.93-.07,2.93-.15,5.86s-.22,2.92-.27,5.85l0,5.85c-.05,2.93.14,2.93.09,5.86l-.18,5.85c-.05,2.93-.28,2.93-.34,5.85s.19,2.93.14,5.86-.2,2.92-.26,5.85l-.1,5.86c-.06,2.92,0,2.92,0,5.85s0,2.93-.05,5.86l-.11,5.85c-.06,2.93-.06,2.93-.11,5.86s-.31,2.92-.37,5.85l0,5.85c-.05,2.93.08,2.93,0,5.86L149.4,158l-.08,5.85c0,2.93-.14,2.93-.2,5.85s.11,2.93.06,5.86l0,5.86-.1,5.85-.1,5.86c-.05,2.93-.23,2.92-.28,5.85s-.15,2.93-.2,5.85l-.1,5.86c-.06,2.93.25,2.93.2,5.86s-.23,2.92-.29,5.85-.19,2.93-.25,5.85.25,2.94.2,5.87L148,240c0,2.93.45,3-.15,5.87A.74.74,0,0,1,146.45,245.77Z"/><path class="cls-1" d="M4.89,59.58c.67,2.82.06,2.88,0,5.77s-.22,2.89-.27,5.78l-.09,5.78c-.06,2.89,0,2.89,0,5.78s0,2.89,0,5.79.07,2.89,0,5.78-.36,2.89-.41,5.78.19,2.89.14,5.78l-.16,5.78-.14,5.79-.18,5.78,0,5.78,0,5.78c-.06,2.9-.19,2.89-.25,5.79l-.1,5.78c0,2.89.15,2.89.1,5.78s0,2.9-.09,5.79S3,160.75,3,163.65s.13,2.89.08,5.78-.25,2.89-.3,5.78,0,2.9,0,5.79.15,2.89.1,5.78l-.12,5.79c0,2.89-.29,2.88-.34,5.78s.14,2.89.09,5.78-.26,2.89-.31,5.78.1,2.9.05,5.79.06,2.89,0,5.79-.34,2.88-.39,5.77l-.13,5.79c0,2.89.24,2.9.19,5.79s-.23,2.89-.28,5.78c0,2.68,0,2.68-.09,5.37v.16h1.8c.69,0,1.41,0,2.73,0,2.89-.08,2.89-.21,5.78-.3s2.89-.19,5.78-.27,2.89,0,5.78-.09,2.89-.19,5.78-.27,2.9.14,5.79.06,2.89-.27,5.78-.35,2.89.12,5.79,0l5.78-.2,5.78-.24,5.78-.12c2.89-.09,2.89-.18,5.78-.26l5.79-.15c2.89-.08,2.89,0,5.78-.09l5.78-.22,5.79-.23c2.89-.09,2.89,0,5.78,0l5.79-.11,5.78-.16c2.89-.09,2.88-.4,5.78-.49s2.9.14,5.79.05l5.78-.2c2.9-.09,2.9,0,5.79-.09s2.93-.8,5.76-.16a.67.67,0,0,1,.05,1.31c-2.78.81-2.87.27-5.76.35s-2.9-.16-5.79-.07-2.88.2-5.77.29l-5.78.1-5.78.18-5.79.15c-2.89.09-2.88.22-5.77.3s-2.9,0-5.79.05l-5.78.17c-2.89.08-2.88.21-5.77.29s-2.9-.13-5.79,0l-5.78.21c-2.89.08-2.89.27-5.78.35l-5.78.18c-2.89.08-2.89,0-5.78.08l-5.78.21c-2.89.08-2.9-.07-5.79,0l-5.78.12-5.78.25-5.78.19-5.78.22c-2.89.08-2.9-.06-5.79,0l-5.78.16c-1.33,0-2.05.09-2.74.13s-1,.09-3.36.17c0,0,0-.38,0-.75,0-.53,0-1,0-1.41v-.76c0-.45,0-.82,0-1.18,0-.72,0-1.44,0-2.89.08-2.89.08-2.89.15-5.78s.22-2.89.28-5.78,0-2.9,0-5.79-.14-2.89-.09-5.79l.18-5.78c0-2.89.28-2.89.33-5.78s-.18-2.9-.13-5.79.2-2.89.25-5.78.05-2.89.11-5.78-.05-2.9,0-5.79l0-5.79.11-5.78.11-5.78c.05-2.9.31-2.89.36-5.78s0-2.9.05-5.79-.08-2.89,0-5.78L2,146.33,2,140.54c.05-2.89.14-2.89.2-5.78s-.11-2.9-.06-5.79l0-5.79c0-2.89,0-2.89.09-5.78s.05-2.89.11-5.79.23-2.89.28-5.78.14-2.89.19-5.78.05-2.89.11-5.79-.26-2.9-.21-5.79.23-2.89.28-5.78.2-2.89.25-5.78-.25-2.9-.19-5.79.08-2.9.17-5.79-.44-3,.15-5.8A.75.75,0,0,1,4.89,59.58Z"/><path class="cls-1" d="M171.69,270.76c-.68-2.82-.06-2.88,0-5.77s.22-2.89.27-5.78l.1-5.78c0-2.89-.06-2.89,0-5.78l0-5.79c0-2.89-.07-2.89,0-5.78s.36-2.89.42-5.78-.19-2.89-.14-5.78.08-2.89.15-5.78l.14-5.79.18-5.78,0-5.78c0-2.89,0-2.89,0-5.79s.19-2.89.24-5.78l.1-5.78c.06-2.89-.15-2.89-.1-5.79l.09-5.78c.06-2.89.35-2.89.4-5.78s-.13-2.89-.08-5.78.25-2.89.3-5.78,0-2.9,0-5.79-.15-2.89-.1-5.78l.12-5.79c.05-2.89.29-2.89.34-5.78s-.14-2.89-.08-5.78.25-2.89.3-5.78-.1-2.9-.05-5.79-.06-2.89,0-5.79.35-2.88.4-5.77l.12-5.79c0-2.89-.24-2.9-.19-5.79s.23-2.89.28-5.78l.09-5.37v-.16l-1.81,0c-.69,0-1.4,0-2.72,0-2.9.08-2.89.21-5.78.3s-2.89.19-5.78.27-2.9,0-5.79.09-2.89.19-5.78.27-2.9-.14-5.79-.06-2.88.27-5.77.35-2.9-.12-5.79,0l-5.78.2-5.78.24-5.79.12c-2.89.08-2.89.18-5.78.26l-5.78.15c-2.89.08-2.9,0-5.79.09l-5.78.22-5.78.23c-2.89.09-2.9,0-5.79,0l-5.79.11-5.78.16c-2.89.09-2.88.4-5.77.48s-2.9-.13-5.79,0l-5.79.21c-2.89.09-2.89,0-5.79.09s-2.93.8-5.76.16a.67.67,0,0,1-.05-1.31c2.79-.81,2.87-.27,5.76-.35s2.9.16,5.79.07,2.88-.2,5.77-.29l5.79-.1,5.78-.18,5.78-.15c2.89-.09,2.89-.22,5.78-.3s2.89,0,5.78,0l5.78-.17c2.89-.08,2.89-.21,5.78-.29s2.89.13,5.79,0l5.77-.21c2.89-.08,2.89-.27,5.78-.35l5.78-.18c2.89-.08,2.9,0,5.79-.08L130,80c2.89-.08,2.89.06,5.78,0l5.78-.12,5.78-.25,5.78-.19,5.78-.22c2.9-.08,2.9.06,5.79,0l5.78-.16c1.34,0,2.06-.09,2.75-.13s1-.09,3.35-.17v.75c0,.53,0,1,0,1.41v.76c0,.45,0,.81,0,1.18,0,.72,0,1.44,0,2.89-.07,2.89-.07,2.89-.15,5.78s-.22,2.89-.27,5.78l0,5.79c0,2.89.15,2.89.1,5.79s-.1,2.89-.19,5.78-.28,2.89-.33,5.78.19,2.9.14,5.79-.2,2.89-.25,5.78l-.11,5.78c-.05,2.89,0,2.9,0,5.79l0,5.78-.12,5.79-.1,5.78c-.06,2.9-.32,2.89-.37,5.78l0,5.79c-.05,2.89.08,2.89,0,5.78l-.18,5.78-.08,5.79c0,2.89-.14,2.89-.19,5.78s.11,2.9.05,5.79,0,2.89,0,5.78l-.1,5.79-.1,5.79c0,2.89-.23,2.89-.28,5.78s-.14,2.89-.2,5.78l-.1,5.79c-.05,2.89.25,2.89.2,5.79s-.23,2.89-.28,5.78-.2,2.89-.25,5.78.25,2.9.2,5.79l-.18,5.79c-.05,2.9.45,3-.15,5.8A.74.74,0,0,1,171.69,270.76Z"/><path class="cls-1" d="M30.13,84.57c.67,2.81.06,2.87,0,5.76s-.22,2.89-.27,5.78-.05,2.89-.09,5.78.05,2.89,0,5.78,0,2.9-.05,5.79.07,2.89,0,5.78-.36,2.89-.41,5.78.19,2.89.14,5.78l-.16,5.79-.14,5.78L29,148.15l0,5.78,0,5.79c-.06,2.89-.19,2.89-.25,5.78l-.1,5.78c0,2.89.15,2.9.1,5.79s0,2.89-.09,5.78-.34,2.89-.4,5.78.13,2.89.08,5.78-.25,2.89-.3,5.78,0,2.9,0,5.79.15,2.89.1,5.79l-.12,5.78c-.05,2.89-.29,2.89-.34,5.78s.14,2.89.09,5.78-.26,2.89-.31,5.79.11,2.89.05,5.78.07,2.9,0,5.79-.34,2.88-.39,5.78-.07,2.89-.13,5.78.24,2.9.19,5.79-.22,2.89-.28,5.78L26.73,275v.16l1.8,0c.69,0,1.41,0,2.73,0,2.89-.08,2.89-.21,5.78-.3s2.89-.19,5.78-.27,2.89,0,5.78-.09,2.89-.19,5.78-.27,2.9.14,5.79.06,2.89-.27,5.78-.35,2.9.12,5.79,0l5.78-.2,5.78-.24,5.78-.12c2.89-.08,2.89-.17,5.78-.26l5.79-.15c2.89-.08,2.89,0,5.78-.08l5.78-.23,5.79-.23c2.89-.08,2.89,0,5.78-.05l5.79-.11,5.78-.16c2.89-.08,2.88-.4,5.78-.48s2.9.13,5.79.05l5.78-.21c2.9-.09,2.9,0,5.79-.08s2.93-.81,5.76-.17a.67.67,0,0,1,.05,1.31c-2.78.81-2.87.27-5.76.35s-2.89-.16-5.78-.07-2.89.2-5.78.29l-5.78.1-5.78.19-5.79.14c-2.89.09-2.88.22-5.77.31s-2.89,0-5.78.05l-5.79.16c-2.89.08-2.88.21-5.77.29s-2.9-.13-5.79,0l-5.78.21c-2.89.09-2.89.27-5.78.35l-5.78.18c-2.89.08-2.89,0-5.78.08l-5.78.21c-2.89.08-2.9-.06-5.79,0l-5.78.12-5.78.25-5.78.2-5.78.21c-2.89.08-2.9-.05-5.79,0l-5.78.16c-1.33,0-2.05.09-2.74.14s-1,.08-3.36.16v-.75q0-.8,0-1.41v-.76c0-.45,0-.81,0-1.18,0-.72,0-1.44,0-2.89.08-2.89.08-2.89.15-5.78s.22-2.89.28-5.78,0-2.9,0-5.79-.14-2.89-.09-5.78l.18-5.79c.05-2.89.28-2.89.33-5.78S26,232,26,229.14s.2-2.89.25-5.78l.11-5.78c.05-2.89-.05-2.9,0-5.79l0-5.78c.05-2.9.05-2.9.11-5.79l.11-5.78c.05-2.89.31-2.89.36-5.78s0-2.89.05-5.78-.08-2.9,0-5.79l.18-5.78.08-5.79c.05-2.89.15-2.89.2-5.78s-.11-2.9-.06-5.79l0-5.78.09-5.79c.05-2.89.05-2.89.11-5.78s.23-2.89.28-5.79.14-2.89.19-5.78.05-2.89.11-5.79-.26-2.89-.21-5.79.23-2.88.28-5.78.2-2.89.25-5.78-.25-2.9-.19-5.79.08-2.9.17-5.79-.44-3,.15-5.79A.75.75,0,0,1,30.13,84.57Z"/><path class="cls-1" d="M196.93,295.74c-.68-2.82-.06-2.88,0-5.78s.22-2.89.28-5.79,0-2.89.09-5.79-.06-2.89,0-5.79l0-5.79c0-2.9-.07-2.9,0-5.8s.37-2.89.42-5.78-.19-2.9-.14-5.8l.16-5.79.14-5.79.18-5.79c0-2.9,0-2.9,0-5.79s0-2.9,0-5.8.19-2.89.24-5.79,0-2.89.11-5.79-.16-2.9-.1-5.8l.09-5.79c.05-2.9.34-2.89.39-5.79s-.12-2.9-.07-5.79.24-2.89.3-5.79,0-2.9,0-5.8-.15-2.9-.09-5.79l.12-5.79c.05-2.9.29-2.9.34-5.79s-.14-2.9-.09-5.8.25-2.89.31-5.79-.11-2.9-.05-5.8-.07-2.89,0-5.79.34-2.89.39-5.79l.13-5.79c0-2.9-.24-2.9-.19-5.8s.22-2.89.28-5.79l.08-5.16v-.06h-2c-.71,0-1.44,0-2.84,0-2.89.09-2.89.22-5.79.31s-2.89.2-5.78.3-2.9,0-5.8.1-2.89.2-5.79.3-2.9-.14-5.8,0-2.89.28-5.78.37-2.9-.12-5.8,0l-5.79.22-5.79.26-5.79.13c-2.9.1-2.89.19-5.79.28l-5.79.17c-2.9.09-2.9,0-5.8.1l-5.79.25-5.79.25c-2.9.09-2.9,0-5.8.06l-5.79.13-5.79.18c-2.9.09-2.89.41-5.79.5s-2.9-.12-5.8,0l-5.79.23c-2.9.09-2.9,0-5.8.1s-2.93.81-5.77.18a.67.67,0,0,1,0-1.31c2.78-.82,2.87-.28,5.76-.37s2.9.15,5.8.06,2.89-.22,5.78-.31l5.79-.12,5.79-.21,5.79-.16c2.9-.1,2.89-.23,5.79-.32s2.9,0,5.79-.07l5.79-.18c2.9-.1,2.89-.22,5.79-.32s2.9.12,5.8,0l5.78-.23c2.9-.09,2.89-.28,5.79-.37l5.79-.2c2.89-.09,2.9,0,5.79-.1l5.79-.22c2.9-.09,2.9.05,5.79,0l5.8-.14,5.78-.27,5.79-.21,5.79-.23c2.9-.1,2.9,0,5.8,0l5.79-.18c1.42-.05,2.14-.1,2.85-.15l1.16-.08,2.41-.1v.22c0,.61,0,1.15,0,1.63v.76c0,.45,0,.82,0,1.18,0,.72,0,1.45,0,2.9-.08,2.89-.08,2.89-.15,5.79s-.22,2.89-.28,5.79,0,2.9,0,5.79.14,2.9.09,5.8l-.18,5.79c0,2.9-.28,2.9-.33,5.79s.18,2.9.13,5.8-.2,2.9-.25,5.79-.05,2.9-.11,5.8,0,2.89,0,5.79l0,5.8c-.06,2.89-.06,2.89-.11,5.79s-.06,2.9-.11,5.79-.31,2.9-.36,5.79,0,2.9,0,5.8.08,2.89,0,5.79l-.18,5.79c0,2.9,0,2.9-.09,5.8s-.14,2.89-.19,5.79.11,2.9.06,5.8l0,5.79-.1,5.8-.1,5.79c0,2.9-.23,2.9-.28,5.79s-.14,2.9-.2,5.8l-.1,5.79c-.05,2.9.25,2.9.2,5.8s-.23,2.89-.28,5.79-.2,2.9-.25,5.8.25,2.9.2,5.8l-.18,5.79c-.05,2.9.45,3-.15,5.81A.74.74,0,0,1,196.93,295.74Z"/><path class="cls-1" d="M55.37,109.55c.67,2.81.06,2.87,0,5.76s-.22,2.89-.27,5.78L55,126.87c0,2.89.05,2.89,0,5.79s0,2.89,0,5.78.08,2.89,0,5.78-.36,2.89-.41,5.78.19,2.9.14,5.79l-.16,5.78-.14,5.78-.18,5.78,0,5.78,0,5.79c-.06,2.89-.19,2.89-.24,5.78l-.11,5.78c0,2.89.15,2.9.1,5.79l-.09,5.78c0,2.89-.34,2.89-.4,5.78s.13,2.9.08,5.79-.24,2.88-.3,5.78,0,2.89,0,5.78.15,2.9.1,5.79l-.12,5.78c-.05,2.89-.29,2.89-.34,5.78s.14,2.9.09,5.79-.26,2.89-.31,5.78.11,2.89,0,5.78.07,2.9,0,5.79-.34,2.89-.39,5.78-.07,2.89-.13,5.78.24,2.9.19,5.79-.22,2.89-.28,5.78L52,300v.15l1.8,0c.69,0,1.41,0,2.73,0,2.89-.09,2.89-.22,5.78-.3s2.89-.2,5.78-.28,2.89,0,5.78-.08,2.89-.2,5.78-.28,2.9.14,5.79.06,2.89-.27,5.78-.35,2.9.13,5.79,0l5.78-.2,5.78-.24,5.78-.12c2.89-.08,2.89-.17,5.78-.26l5.79-.15c2.89-.08,2.89,0,5.78-.08l5.78-.23,5.79-.23c2.89-.08,2.89,0,5.78,0l5.79-.12,5.78-.16c2.89-.08,2.89-.4,5.78-.48s2.9.13,5.79.05l5.78-.21c2.9-.08,2.9,0,5.79-.08s2.93-.81,5.76-.16a.66.66,0,0,1,0,1.3c-2.78.81-2.87.27-5.76.35s-2.89-.15-5.78-.07-2.89.21-5.78.29l-5.78.1-5.78.19-5.78.15c-2.89.08-2.89.21-5.78.3s-2.89,0-5.78.05l-5.78.16c-2.9.08-2.89.21-5.78.3s-2.9-.13-5.79-.05l-5.78.21c-2.89.09-2.88.27-5.78.36l-5.78.17c-2.89.09-2.89,0-5.78.08l-5.78.21c-2.89.09-2.9-.06-5.79,0l-5.78.13-5.78.24-5.78.2-5.78.21c-2.89.09-2.89-.05-5.79,0l-5.78.16c-1.33,0-2.05.09-2.74.14s-1,.08-3.36.16l0-.75c0-.53,0-1,0-1.41v-.76c0-.45,0-.81,0-1.17,0-.73,0-1.45,0-2.9.08-2.89.08-2.89.15-5.78s.22-2.89.28-5.78,0-2.89,0-5.79-.14-2.89-.09-5.78l.18-5.79c.05-2.89.28-2.88.33-5.78s-.18-2.89-.13-5.78.2-2.89.25-5.79l.11-5.78c0-2.89-.05-2.89,0-5.79l0-5.78c.05-2.89.05-2.89.11-5.79s.05-2.89.11-5.78.31-2.89.36-5.78,0-2.89.05-5.78-.08-2.9,0-5.79l.18-5.78.08-5.79c.05-2.89.15-2.89.2-5.78s-.11-2.89-.06-5.79l0-5.78.09-5.79c0-2.89,0-2.89.11-5.78s.23-2.89.28-5.78.14-2.9.19-5.79,0-2.89.11-5.78-.26-2.9-.21-5.79.23-2.89.29-5.79.19-2.89.24-5.78-.25-2.9-.19-5.79.08-2.9.17-5.79-.44-3,.15-5.79A.75.75,0,0,1,55.37,109.55Z"/><path class="cls-1" d="M69.89,210.28c.06-1.05.49-.6,1.07-1.13s.69-.4,1.26-.93l1.14-1.06c.57-.52.5-.6,1.07-1.13s.54-.57,1.11-1.09.49-.62,1.06-1.15.78-.29,1.36-.82.41-.71,1-1.23.61-.49,1.18-1,.6-.5,1.17-1,.63-.47,1.2-1,.53-.57,1.1-1.1.52-.58,1.09-1.11.67-.42,1.24-1l1.15-1c.57-.53.43-.68,1-1.21l1.14-1.06c.57-.52.77-.31,1.34-.84s.45-.65,1-1.18.71-.39,1.28-.91.52-.59,1.09-1.12.44-.67,1-1.2.58-.51,1.16-1,.73-.35,1.3-.88.45-.67,1-1.19.71-.38,1.28-.9.47-.65,1-1.17.5-.61,1.07-1.14.78-.31,1.35-.84.59-.51,1.16-1,.37-.75,1-1.27.69-.4,1.26-.93l1.14-1.05c.58-.53.67-.43,1.24-1s.48-.62,1.06-1.15.5-.61,1.07-1.13.63-.47,1.2-1,.5-.61,1.07-1.14.73-.36,1.31-.88.45-.66,1-1.19.71-.37,1.29-.9.55-.55,1.12-1.07.52-.59,1.1-1.11.6-.49,1.18-1,.51-.59,1.08-1.12.59-.51,1.16-1,.63-.47,1.2-1,.54-.57,1.11-1.1.53-.57,1.1-1.1.66-.43,1.23-1,.61-.49,1.19-1l1.15-1c.57-.53.36-.76.93-1.29s.72-.36,1.3-.89.54-.56,1.11-1.08.64-.47,1.21-1,.1-1.07,1.15-1.05c.26,0,.9.7.88,1-.06,1.05-.44.66-1,1.19s-.73.35-1.31.87-.49.62-1.06,1.14-.61.48-1.19,1-.56.54-1.13,1.06-.59.52-1.16,1-.48.63-1.06,1.15-.65.44-1.22,1l-1.15,1c-.58.53-.49.62-1.06,1.15s-.72.37-1.29.89-.54.56-1.12,1.09-.45.66-1,1.19l-1.14,1.06c-.57.52-.63.46-1.2,1s-.55.56-1.12,1.09-.67.42-1.25.94-.6.5-1.17,1-.52.59-1.1,1.11-.55.55-1.12,1.08-.54.56-1.12,1.08-.67.43-1.24.95l-1.15,1.05c-.57.53-.49.62-1.06,1.14s-.49.62-1.07,1.15-.6.49-1.17,1-.69.4-1.26.93-.53.57-1.1,1.1-.44.67-1,1.2-.62.47-1.2,1-.72.36-1.3.89-.41.7-1,1.23-.67.41-1.25.94l-1.15,1.05c-.57.53-.51.6-1.08,1.12s-.53.58-1.1,1.1l-1.16,1L92.7,191.4c-.57.52-.74.33-1.32.86s-.53.57-1.1,1.1-.49.62-1.06,1.14-.63.47-1.2,1l-1.13,1.07c-.57.53-.64.46-1.21,1s-.46.64-1,1.17-.53.57-1.1,1.1l-1.14,1.06-1.15,1.05c-.57.53-.69.4-1.26.92s-.64.47-1.21,1l-1.15,1.05c-.57.53-.36.76-.94,1.28s-.69.4-1.26.93-.67.42-1.25.94-.37.75-.94,1.28-.62.47-1.2,1-.24.9-1.18,1C70.61,211.38,69.87,210.54,69.89,210.28Z"/><path class="cls-1" d="M97.86,206.65c-.21-.8.22-.36.52-.64s.42-.16.72-.44l.59-.58c.3-.28.22-.36.52-.64s.27-.32.57-.6.21-.37.52-.65.51,0,.81-.33.14-.46.44-.74.34-.24.64-.52.33-.25.63-.53.36-.22.66-.5.26-.32.56-.6.26-.33.56-.61.4-.18.7-.45l.62-.55c.3-.28.17-.43.47-.71L108,197c.3-.28.5-.06.81-.33s.18-.41.49-.68.44-.13.75-.41.25-.33.56-.61.17-.42.48-.69l.63-.53c.31-.27.47-.09.78-.36s.18-.42.49-.69.45-.12.76-.39.21-.38.52-.65.24-.36.55-.63.5,0,.81-.31l.64-.52c.32-.27.12-.49.44-.76s.42-.13.74-.4l.62-.53c.32-.27.4-.17.72-.43s.23-.37.54-.64.25-.34.56-.61.37-.2.69-.46.25-.35.56-.61.46-.09.78-.35.2-.4.52-.67.45-.09.77-.36.3-.28.61-.54.27-.32.59-.58.36-.22.68-.48.26-.33.58-.59l.65-.51c.32-.26.37-.19.69-.45s.28-.31.61-.56.28-.31.6-.57.4-.16.72-.41.36-.22.68-.47l.65-.51c.32-.25.13-.5.45-.76s.46-.08.78-.34.3-.28.62-.53.38-.19.71-.44-.12-.83.65-.5a2.79,2.79,0,0,1,.8,1c.13.82-.21.39-.53.65s-.48.06-.8.31-.25.35-.57.6-.36.2-.68.46l-.64.52-.65.5c-.33.25-.24.36-.56.61s-.4.16-.72.42l-.64.51c-.32.26-.24.36-.56.61s-.46.09-.77.35-.29.3-.61.55-.2.41-.52.66l-.63.53c-.32.26-.38.19-.69.45s-.29.29-.61.55-.41.15-.73.41-.35.23-.66.49-.27.32-.58.58l-.62.55c-.31.26-.28.3-.6.56s-.4.16-.71.42l-.63.53c-.32.26-.24.36-.55.62s-.24.36-.55.62-.34.24-.65.5-.43.14-.74.4-.27.32-.58.59-.18.42-.49.68-.36.21-.68.48-.46.1-.77.36-.15.45-.46.72-.41.16-.72.43l-.62.54c-.3.27-.24.34-.55.61s-.27.32-.58.59l-.62.54-.61.54c-.31.27-.48.08-.79.35s-.27.32-.57.59-.22.37-.53.64-.35.22-.66.5l-.59.56c-.31.28-.37.21-.67.48s-.2.4-.5.68-.26.32-.57.6l-.6.56-.6.55c-.3.28-.42.15-.72.43s-.37.21-.67.49l-.6.56c-.3.28-.09.5-.39.78s-.42.15-.72.43-.4.18-.7.46-.09.5-.39.78-.35.23-.65.51,0,.65-.63.53A3.33,3.33,0,0,1,97.86,206.65Z"/><path class="cls-1" d="M27.09,37.51c-.87-.48-.27-.65-.44-1.33s0-.72-.14-1.41L26.2,33.4c-.12-.69-.23-.67-.35-1.36s-.18-.69-.29-1.38-.23-.68-.33-1.38.22-.74.14-1.43S25,27.18,25,26.48s0-.71-.08-1.41,0-.7,0-1.41,0-.7,0-1.4-.1-.7-.12-1.41-.08-.7-.08-1.4.14-.71.15-1.41l0-1.4c0-.71-.17-.72-.13-1.42s0-.7.08-1.41.34-.67.41-1.37-.1-.72,0-1.42.27-.67.37-1.37,0-.71.11-1.4-.08-.73,0-1.42.14-.69.28-1.39.36-.63.52-1.34,0-.77.27-1.49.49-.64,1-1.29c.27-.32.42-.49.58-.65a1.73,1.73,0,0,1,.81-.49,4.91,4.91,0,0,1,1-.17,2.14,2.14,0,0,1,1,.15,1.52,1.52,0,0,1,.73.62,5.2,5.2,0,0,0,.48.72A5.81,5.81,0,0,1,33,2.87c.26.7.55.62.73,1.36a12.58,12.58,0,0,1,.07,1.46L34,7.08c.09.69,0,.71,0,1.4s.23.68.3,1.37.19.68.27,1.38,0,.7.06,1.4.19.68.25,1.38-.16.72-.1,1.41.24.68.29,1.38-.15.71-.1,1.41l.12,1.39c0,.7.12.69.15,1.39s0,.7,0,1.4.12.7.15,1.4,0,.69,0,1.39-.07.7,0,1.4.07.7.08,1.4.07.7.07,1.4-.12.7-.12,1.4-.06.69-.07,1.39,0,.7,0,1.4.3.71.28,1.41-.24.69-.27,1.39,0,.7,0,1.4-.11.69-.15,1.39.68.76-.09,1.39a1.72,1.72,0,0,1-1.3-.08c-.69-.72-.15-.7-.11-1.39s.28-.68.31-1.37S34,37,34,36.32s.09-.69.11-1.39l0-1.38,0-1.39c0-.69-.13-.69-.13-1.38s.13-.7.13-1.39,0-.69,0-1.38-.14-.7-.15-1.39.2-.7.18-1.39-.07-.69-.09-1.38-.21-.69-.24-1.38l-.08-1.38c0-.7,0-.7,0-1.39s-.08-.69-.13-1.38.1-.7.05-1.39,0-.7-.07-1.39-.14-.68-.2-1.37-.1-.69-.17-1.38-.11-.69-.19-1.37.06-.71,0-1.4-.09-.69-.17-1.37-.21-.68-.3-1.36-.22-.67-.31-1.36-.05-.7-.18-1.32,0-.67-.21-1.27a4.57,4.57,0,0,0-.63-1c-.36-.42-.51-.28-.85-.47s-.37-.19-.78-.11-.52,0-.9.37-.14.6-.39,1.14a7.69,7.69,0,0,0-.52,1.16l-.27,1.34c-.14.67-.06.69-.17,1.37s-.05.69-.17,1.37L27,9.84c-.1.68-.11.68-.18,1.36s-.34.66-.41,1.34,0,.69-.06,1.38.07.7,0,1.39-.11.68-.14,1.37,0,.69,0,1.38-.11.68-.1,1.38.16.68.17,1.37.08.69.11,1.38,0,.68.07,1.37l.09,1.37c.05.69-.12.7,0,1.39s0,.7,0,1.38l.17,1.37c.1.69.41.64.51,1.32s-.08.71.05,1.39,0,.7.1,1.38.44.62.58,1.29.07.69.24,1.36.65.56.28,1.35A2,2,0,0,1,27.09,37.51Z"/><path class="cls-1" d="M39.52,37.2c-.82-.56-.22-.68-.33-1.37s.07-.72,0-1.41-.09-.7-.19-1.4-.17-.68-.24-1.38-.12-.7-.17-1.4-.18-.69-.21-1.4.28-.72.25-1.42-.26-.69-.27-1.4,0-.7,0-1.41,0-.7.07-1.4.09-.7.12-1.4,0-.71,0-1.41,0-.71,0-1.41.2-.69.27-1.39.08-.7.15-1.39-.1-.73,0-1.43.09-.7.2-1.39.4-.65.53-1.34,0-.72.09-1.41.33-.65.49-1.34.06-.7.23-1.38,0-.73.15-1.42.2-.67.39-1.35.42-.6.64-1.29,0-.77.39-1.47.55-.6,1.09-1.21c.29-.29.45-.44.63-.6a1.75,1.75,0,0,1,.84-.41,4.66,4.66,0,0,1,1-.1,2.15,2.15,0,0,1,1,.24,1.59,1.59,0,0,1,.68.68,5,5,0,0,0,.41.76,5.49,5.49,0,0,1,.61,1.42c.2.72.49.66.61,1.42s-.1.77,0,1.46L49,7.45c0,.7-.1.7-.06,1.4s.16.69.18,1.39.13.7.15,1.4-.06.7-.05,1.4.12.69.13,1.39-.22.7-.22,1.4.19.7.18,1.4-.22.7-.22,1.4V20c0,.7.07.7,0,1.4s-.07.7-.1,1.4.06.7,0,1.4,0,.7-.09,1.39-.12.7-.17,1.4,0,.7,0,1.39,0,.71,0,1.4-.19.69-.25,1.39-.11.69-.18,1.38-.07.7-.15,1.39.24.73.16,1.43-.29.67-.38,1.36,0,.7-.14,1.39-.17.69-.27,1.38.62.81-.2,1.38A1.76,1.76,0,0,1,46,40.71c-.63-.77-.09-.71,0-1.4s.34-.65.42-1.34,0-.7.06-1.39.14-.68.22-1.37l.14-1.38L47,32.46c.07-.69-.07-.71,0-1.4s.18-.67.24-1.37l.11-1.38c0-.69-.08-.7,0-1.39s.25-.68.3-1.37,0-.69,0-1.39-.15-.7-.12-1.39l0-1.38c0-.7.1-.69.12-1.39s0-.69,0-1.38.15-.69.16-1.39.05-.69,0-1.38-.08-.7-.08-1.39,0-.69,0-1.38-.06-.7-.08-1.39.12-.7.1-1.39,0-.69,0-1.38-.15-.69-.19-1.38-.16-.69-.2-1.38,0-.7-.06-1.33.07-.66-.1-1.28a4.76,4.76,0,0,0-.55-1.08c-.32-.46-.48-.33-.8-.54s-.36-.23-.77-.18-.51-.08-.93.29-.19.59-.48,1.1A7.51,7.51,0,0,0,43,4.26l-.39,1.31c-.18.66-.11.69-.28,1.35s-.11.68-.28,1.35l-.32,1.34c-.15.67-.16.67-.29,1.34s-.39.63-.52,1.31-.06.69-.17,1.37,0,.7-.08,1.38-.17.67-.26,1.35-.06.69-.13,1.38-.18.67-.23,1.36.11.7.06,1.39,0,.69,0,1.38,0,.68,0,1.37l0,1.38c0,.68-.18.68-.17,1.37s-.09.7-.06,1.39l0,1.38c0,.69.35.67.4,1.35s-.14.7-.07,1.39-.08.7,0,1.39.38.65.47,1.33,0,.69.12,1.37.6.61.17,1.37A2,2,0,0,1,39.52,37.2Z"/><path class="cls-1" d="M80,51.31c-.78.26-.33-.17-.59-.42s-.13-.37-.38-.62l-.51-.49c-.25-.26-.33-.18-.6-.4s-.31-.19-.58-.42-.35-.13-.62-.36-.08-.47-.35-.7-.44,0-.73-.22-.25-.24-.54-.45-.27-.23-.56-.44-.24-.28-.55-.46-.34-.12-.65-.31-.34-.11-.64-.3-.24-.3-.55-.48-.31-.16-.63-.33-.41,0-.73-.13l-.64-.31c-.31-.15-.18-.43-.52-.57s-.4,0-.73-.11-.25-.31-.58-.44-.36-.06-.69-.2-.41.07-.74,0l-.67-.24c-.34-.11-.27-.33-.61-.45s-.39.08-.73,0-.29-.28-.64-.36-.38.06-.73,0-.37,0-.71-.06-.29-.38-.64-.44l-.7-.14c-.35-.06-.4.23-.75.17s-.32-.23-.68-.29l-.71-.07c-.35,0-.34-.16-.69-.2s-.37.1-.72.07-.37.06-.72.05-.35-.09-.71-.1-.36.1-.71.09-.35-.23-.71-.24-.36.19-.71.2-.36-.19-.72-.17-.35,0-.71.07-.35.08-.71.12-.35,0-.71,0-.34.14-.69.18l-.71.08a5.69,5.69,0,0,0-.72,0c-.35.07-.33.13-.68.21s-.34.13-.69.2-.37,0-.72,0-.36,0-.7.15l-.68.19c-.35.1-.25.41-.59.5s-.41-.11-.74,0-.32.16-.65.29-.36.05-.7.18,0,.79-.66.25a3.37,3.37,0,0,1-.52-1.2c0-.8.27-.3.62-.44s.44.09.78,0,.31-.25.65-.38a4.58,4.58,0,0,1,.73-.18l.7-.23.72-.19c.36-.1.32-.23.68-.34s.39,0,.76,0l.72-.15c.37-.07.34-.2.71-.28s.4.13.76.09.36-.1.73-.14.35-.23.72-.28l.73-.1c.37,0,.38.06.75,0s.37-.06.74-.08.38.13.75.11.37,0,.74,0,.37-.07.74-.06.37,0,.74,0,.38,0,.75,0,.36.16.73.19l.73.08c.37,0,.38-.09.75,0s.39-.09.76-.05.36.11.73.17.33.23.7.3.38,0,.74.05.41-.13.77,0,.35.17.71.26.3.31.66.4.42-.14.78,0,.32.25.67.36l.7.23c.36.12.39,0,.74.15s.38,0,.72.18l.69.3.69.28c.34.14.24.38.58.52s.36.1.69.26.39,0,.72.22.3.23.63.4.35.14.67.32.28.27.59.46.4,0,.72.24.36.14.68.33a5.11,5.11,0,0,1,.62.41l.61.43c.31.22.2.36.51.57s.25.29.54.51l.57.47c.28.24.48,0,.77.25s.17.37.45.61.19.34.45.61.48,0,.74.3.22.32.48.58.63-.07.5.56A3.84,3.84,0,0,1,80,51.31Z"/><path class="cls-1" d="M28.17,53.11c-.08.73-.15.12-.29.12s-.14-.15-.28-.17h-.29c-.14,0-.16.08-.3.05s-.16,0-.3,0-.18.07-.32,0,0-.33-.15-.39-.23.16-.36.09-.11-.11-.23-.19-.1-.1-.21-.18-.07-.14-.18-.23-.15,0-.26-.12-.15,0-.25-.14,0-.19-.1-.29l-.17-.2c-.09-.11-.25,0-.33-.09L24,51.15c-.09-.12.16-.28.09-.39s-.22,0-.29-.14.11-.21,0-.33-.13-.08-.19-.2-.24-.05-.29-.18a2,2,0,0,1-.08-.26c0-.13.19-.2.15-.33s-.23-.08-.26-.21.17-.18.15-.31-.18-.11-.2-.25-.12-.12-.14-.27.28-.15.28-.28,0-.13,0-.26-.29-.13-.29-.27.18-.12.19-.25l0-.26c0-.13.14-.11.16-.24s-.11-.15-.08-.27-.09-.15-.06-.28.11-.11.14-.23-.07-.15,0-.28.25-.06.29-.18-.14-.18-.1-.3.24,0,.28-.17,0-.13.06-.24,0-.15,0-.26.1-.1.14-.21,0-.16,0-.27.07-.1.12-.22.13-.07.19-.18,0-.14.05-.25,0-.14.06-.25.17-.05.23-.15.1-.08.16-.19l.13-.21c.06-.1-.21-.26-.15-.37s.25,0,.31-.09,0-.13.09-.23.14-.06.2-.16-.54-.49.13-.2a11.53,11.53,0,0,1,1.11.7c.55.49.09.2,0,.3s-.27,0-.33.07,0,.16,0,.26-.12.06-.18.16a2,2,0,0,1-.1.21c-.06.09-.07.08-.13.18s.06.17,0,.27-.16,0-.21.14l-.11.2c-.05.1.06.16,0,.26s-.24,0-.29.1,0,.13-.05.23.12.17.08.28l-.08.2c0,.1-.12.07-.16.17s0,.12,0,.22-.17.05-.21.16-.07.09-.11.19.05.13,0,.24a1.52,1.52,0,0,0,0,.21c0,.11,0,.12,0,.22s-.16.08-.18.19l0,.21c0,.1.11.12.09.22s.11.12.1.22,0,.1-.05.21-.18.09-.18.2.07.11.07.21.2.1.21.19-.07.1-.06.2-.21.13-.19.23.25.05.27.15-.12.13-.09.22l.05.2c0,.1.13.06.16.16s.1.07.13.16l.08.18.09.18c.05.08-.18.21-.12.3s.1.06.16.14.17,0,.22.09,0,.13.07.21.08.06.15.14,0,.13.07.2.18,0,.25,0,.12,0,.19.07l.16.11.15.1c.08,0,0,.2.08.24s0,.12.13.17l.18.07c.09,0,.19-.25.27-.23s0,.19.13.21.06.17.16.17.12-.29.2-.28.08.07.17.07,0-.5.18,0A11,11,0,0,1,28.17,53.11Z"/><path class="cls-1" d="M21.43,58.64c-.62-.4-.06-.14,0-.24s.2,0,.25-.12l.09-.2c0-.09-.05-.14,0-.24s0-.12.06-.22-.06-.15,0-.25.32.06.37,0S22,57.12,22.1,57s.1-.06.16-.16.09-.07.15-.16.11-.05.18-.14,0-.13.07-.22,0-.13.06-.22.17,0,.23-.1a1.09,1.09,0,0,0,.13-.17c.07-.09-.09-.21,0-.3l.12-.18c.07-.08.29.1.36,0s-.07-.2,0-.28.22,0,.29,0,0-.14.08-.22-.08-.22,0-.3l.17-.15c.07-.08.24.09.32,0s-.07-.21,0-.29.22.07.3,0,0-.18.05-.26,0-.16.08-.23.27.14.35.07.1-.06.18-.13-.11-.29,0-.37.2.07.28,0l.16-.14c.09-.07.17,0,.25,0s0-.17.09-.23,0-.16.11-.22.14,0,.23-.06,0-.15.11-.22.22.13.31.07,0-.21.08-.27.2.11.29,0,.07-.08.17-.14.05-.12.14-.18.12,0,.21-.06,0-.14.14-.19l.2-.09c.1-.06.14,0,.23,0s.07-.11.17-.15.06-.11.16-.16.15.06.25,0,.12,0,.22,0l.2-.09c.1,0,0-.33.07-.37s.18.15.29.11.08-.08.18-.11.14,0,.24,0-.15-.72.2-.07a10.58,10.58,0,0,1,.44,1.23c.16.71,0,.2-.12.24s-.18-.19-.27-.16-.05.15-.14.19-.11,0-.2,0l-.18.09c-.09,0-.09,0-.18.06s0,.17-.13.21-.13-.07-.22,0l-.18.08c-.09,0,0,.16-.12.21s-.18-.15-.27-.1-.06.09-.15.14,0,.21-.08.26l-.16.1c-.09,0-.13,0-.21,0s-.06.09-.15.14-.16-.07-.24,0-.11,0-.19.07,0,.12-.12.18-.06.08-.14.14-.06.09-.14.15-.16-.05-.24,0l-.15.12c-.08.06,0,.15-.08.21s0,.16-.08.22-.1,0-.17.1-.19-.07-.27,0,0,.11-.1.18.06.21,0,.28-.12,0-.19.07-.23-.09-.3,0,.09.23,0,.3-.17,0-.24,0l-.14.14c-.06.07,0,.14-.06.21s0,.11-.09.19l-.13.14-.13.14c-.06.08-.26-.09-.33,0s0,.11-.08.19.05.16,0,.24-.12,0-.19.11,0,.09-.1.17-.13,0-.18.1.07.18,0,.26,0,.12-.05.2a1.4,1.4,0,0,0-.1.16l-.1.17c-.05.08-.21,0-.26.07s-.13,0-.18.12l-.1.18c-.05.08.22.23.17.32s-.2,0-.25.08-.17,0-.22.11.23.23.19.31-.11.06-.15.15.4.3-.13.15A12.81,12.81,0,0,1,21.43,58.64Z"/><path class="cls-1" d="M52.62,58c-.69-.24-.09-.12-.07-.2s.19-.05.21-.14l0-.18c0-.08-.08-.11-.06-.2s0-.1,0-.19-.09-.12-.07-.21.33,0,.35-.08-.2-.16-.17-.24.09-.07.12-.16.06-.07.09-.15.1-.06.14-.14,0-.11,0-.19,0-.12,0-.2.16,0,.2-.11l.08-.16c0-.08-.15-.17-.11-.25l.08-.17c0-.08.29.06.34,0s-.11-.17-.07-.24.21,0,.26-.06,0-.12,0-.2-.12-.18-.07-.26a1.71,1.71,0,0,1,.11-.14c0-.08.25.05.3,0s-.11-.18-.06-.26.22.05.27,0-.07-.16,0-.23,0-.14,0-.22.29.11.34,0,.08,0,.14-.12-.17-.26-.11-.33.19.05.24,0l.12-.13c.06-.07.16,0,.22,0s0-.15,0-.22,0-.14,0-.2.12,0,.18-.07,0-.14.06-.2.22.11.29,0-.06-.19,0-.25.21.1.27,0,0-.08.12-.14,0-.11.09-.17.1,0,.17-.07,0-.12.09-.18.08,0,.16-.09.12,0,.19,0,0-.1.12-.15,0-.1.11-.15.14.06.22,0,.1,0,.18,0l.16-.09c.08,0-.08-.32,0-.36s.18.14.26.1.07-.07.15-.11.12,0,.2,0-.23-.69.16-.07c.09.15.49,1,.55,1.19.23.69,0,.19-.07.23s-.17-.18-.24-.15,0,.15-.08.18-.1,0-.17,0l-.13.09c-.07,0-.08,0-.14.06s0,.16-.07.2-.13-.06-.19,0l-.13.08c-.07,0,0,.15-.06.2s-.19-.14-.25-.09,0,.08-.1.13,0,.2,0,.24l-.11.1c-.07,0-.12,0-.18,0s0,.09-.09.14-.15-.07-.21,0-.1,0-.15.07,0,.11-.07.16,0,.08-.09.13,0,.09-.08.14-.15,0-.21,0l-.11.11c0,.06,0,.14,0,.19s0,.14,0,.2-.08,0-.13.09S56,54,56,54s0,.11,0,.16.1.19,0,.25-.1,0-.15.08-.23-.08-.28,0,.15.21.1.27-.16,0-.2,0l-.09.13c-.05.07,0,.12,0,.18s0,.1,0,.17l-.08.13-.08.13c0,.07-.27-.06-.31,0s0,.1,0,.17.08.13,0,.2-.1,0-.13.1,0,.08,0,.15-.12,0-.15.11.12.13.08.2,0,.1,0,.17a.83.83,0,0,0,0,.15l0,.14c0,.07-.2,0-.23.09s-.11,0-.13.12l0,.15c0,.07.27.16.25.24s-.19,0-.22.09-.16,0-.18.12.28.15.26.22-.08.06-.1.14.47.17-.08.14C53.88,58.25,52.79,58,52.62,58Z"/><path class="cls-1" d="M43.54,38.06c-.07.72-.07.11-.14.11s-.08-.17-.15-.17H43.1c-.07,0-.07.11-.15.11s-.07.05-.15.05-.07.13-.14.13-.08-.31-.15-.31-.08.24-.15.24-.07,0-.15,0-.07,0-.15,0-.07-.07-.14-.07-.08.06-.15.06-.08.08-.15.08-.07-.14-.15-.14h-.15c-.07,0-.07.21-.14.21H41c-.08,0-.08-.29-.15-.29s-.07.18-.15.18-.07-.19-.15-.19-.07.08-.14.08-.08.21-.15.21-.08,0-.15,0S40.07,38,40,38s-.07.19-.15.19-.07-.2-.14-.2-.08.16-.15.16-.08.11-.15.11-.07-.29-.15-.29-.07,0-.15,0-.07.29-.14.29-.08-.17-.15-.17h-.15c-.07,0-.07-.13-.15-.13s-.07.14-.15.14-.07.11-.14.11-.08-.09-.15-.09-.08.11-.15.11-.07-.23-.15-.23-.07.19-.15.19-.07-.21-.14-.21-.08,0-.15,0-.08.07-.15.07-.07,0-.15,0-.07.09-.15.09-.07,0-.14,0-.08-.08-.15-.08-.08.06-.15.06-.07.06-.15.06-.07-.12-.15-.12S36.07,38,36,38h-.15c-.08,0-.08.31-.15.31s-.07-.21-.15-.21-.07,0-.15,0-.07-.09-.14-.09-.08.72-.15,0c0-.19,0-1.13,0-1.31.07-.73.07-.18.15-.18s.07.24.14.24.08-.13.15-.13.08.07.15.07.07,0,.15,0,.07,0,.15,0,.07-.13.14-.13.08.11.15.11h.15c.07,0,.07-.13.15-.13s.07.21.15.21.07,0,.14,0,.08-.19.15-.19h.15c.07,0,.07.09.15.09s.07,0,.14,0,.08.14.15.14.08.05.15.05.07-.08.15-.08.07,0,.15,0,.07-.05.14-.05.08.14.15.14h.15c.07,0,.07-.12.15-.12s.07-.12.15-.12.07,0,.14,0,.08.17.15.17.08-.07.15-.07.07-.19.15-.19.07.07.15.07.07.23.14.23.08-.24.15-.24.08.15.15.15h.15c.07,0,.07-.09.15-.09s.07-.06.14-.06h.3c.07,0,.07.26.15.26s.07-.06.15-.06.07-.13.14-.13.08.07.15.07.08,0,.15,0,.07.09.15.09.07-.16.15-.16.07-.06.14-.06.08,0,.15,0h.15c.07,0,.07.18.15.18s.07.09.15.09h.14c.08,0,.08-.31.15-.31s.08.18.15.18.07.15.15.15.07-.31.15-.31.07.07.14.07.08-.49.15,0C43.56,36.76,43.56,37.87,43.54,38.06Z"/><path class="cls-1" d="M83.54,56.17c-.62-.41-.06-.16,0-.28s.21-.06.26-.19l.08-.25c0-.12-.07-.15,0-.28s0-.13,0-.25-.09-.15-.07-.27.32-.06.34-.19-.21-.15-.21-.26S84,54.09,84,54s0-.12,0-.23.06-.12,0-.23-.08-.1-.11-.2-.11-.07-.13-.17.08-.14,0-.24a1.62,1.62,0,0,0-.1-.18c-.06-.09-.23,0-.28,0a.44.44,0,0,0-.14-.13c-.06-.06.13-.28,0-.36s-.2.09-.28,0,0-.23-.09-.28-.15,0-.25,0-.18.15-.28.11-.1-.05-.21-.08-.06-.26-.18-.28-.15.16-.26.15-.1-.22-.22-.23-.14.15-.26.14-.12.11-.24.11-.13-.29-.26-.28a2.26,2.26,0,0,0-.26,0c-.13,0-.08.31-.2.33s-.16-.15-.28-.12l-.24.06c-.12,0-.15-.09-.28,0s-.08.16-.19.2-.07.15-.18.2-.15,0-.25,0-.06.16-.16.21-.21-.13-.32-.06,0,.21-.07.28-.22-.08-.31,0-.06.1-.13.19,0,.13-.08.21-.09.06-.15.15,0,.13,0,.22a1.51,1.51,0,0,1-.09.18c0,.09-.09.08-.11.18s0,.1,0,.2.06.1.06.19-.1.12-.08.23,0,.12,0,.23l.08.22c0,.11.33,0,.38.08s-.13.2-.07.3.08.09.16.19,0,.15.08.25.64-.35.15.21a9,9,0,0,1-1,.83c-.65.33-.24,0-.33-.15s.1-.27,0-.39-.19-.07-.28-.21,0-.18-.1-.32a2.11,2.11,0,0,1-.16-.3c-.06-.16,0-.17-.1-.33s-.17-.13-.22-.31.08-.2,0-.37V54c0-.19-.14-.19-.11-.39s.25-.15.28-.32a2.33,2.33,0,0,1,.08-.36c.06-.16-.11-.25,0-.41l.18-.33c.12-.14.19-.09.3-.23s.08-.17.21-.28.23,0,.36-.12.16-.07.29-.16.09-.17.23-.25.13-.1.28-.18.12-.12.27-.19.2.06.35,0l.3-.09c.15,0,.12-.17.27-.21s.13-.16.29-.2.16,0,.32,0,.19.15.34.13.16-.09.31-.1.15-.21.32-.22.17.08.33.09.15.23.31.24.18-.22.35-.2.14.17.3.2l.32.08c.16,0,.19,0,.35,0s.18,0,.34.06l.32.17a1.89,1.89,0,0,1,.3.19c.16.1,0,.31.14.41s.17.07.3.19.22,0,.33.18.06.19.16.33a2.59,2.59,0,0,1,.19.31c.08.17,0,.2.06.36s.21.12.26.29.11.16.14.34l.05.36a1.37,1.37,0,0,1,0,.35c0,.17-.18.16-.19.33s-.1.15-.12.31l0,.31c0,.16.28.23.23.38s-.21.11-.25.27-.19.11-.23.25.23.25.18.39-.12.12-.18.27.4.34-.16.27A8.93,8.93,0,0,1,83.54,56.17Z"/></g></g></svg>