<svg xmlns="http://www.w3.org/2000/svg" viewBox="0 0 91.03 44.36"><defs><style>.cls-1{fill:#0078a5;}</style></defs><g id="Layer_2" data-name="Layer 2"><g id="Artwork"><path class="cls-1" d="M42.55,33.8a2.39,2.39,0,0,1-.64-1.71,13.58,13.58,0,0,1,1.5-4.8L47.86,18c1.18-2.49,1.69-4,1.69-4.76s-.27-1-.82-1q-.58,0-1.74,1.29c-.78.87-17.36,20.8-17.36,20.8H25.86l6.68-17A22.35,22.35,0,0,0,34,13c0-.57-.24-.86-.73-.86q-1.39,0-4.94,5l-.65-.36q4.36-6.43,7.08-6.43a3.69,3.69,0,0,1,2.27.84A2.46,2.46,0,0,1,37.63,13a16.64,16.64,0,0,1-1.41,4.85L31,31C32,29.8,44.59,15,46.56,12.6c.31-.38.71-.84,1.06-1.19,1.23-1.22,3.82-1.49,5-.11a2.5,2.5,0,0,1,.59,1.7,12.79,12.79,0,0,1-1.51,5.16L47,27.73a12.82,12.82,0,0,0-1.39,4.32c0,.57.25.86.77.86.91,0,2.52-1.68,4.85-5l.69.28c-1.71,2.5-4.92,7.73-8.67,6.1A2.09,2.09,0,0,1,42.55,33.8Z"/><path class="cls-1" d="M12.54,34.76C5.16,34.76,0,29.71,0,22.49A12.12,12.12,0,0,1,12.32,10a11.75,11.75,0,0,1,12.19,12.1V23.7H3.44v.08c.55,4.64,4.2,7.75,9.09,7.75a8.54,8.54,0,0,0,8-4.53l3,1.79A12.24,12.24,0,0,1,12.54,34.76Zm-.22-21.54a8.87,8.87,0,0,0-8.78,7.35l0,.08H20.89v-.08A8.14,8.14,0,0,0,12.32,13.22Z"/><rect class="cls-1" x="57.94" width="3.54" height="34.28"/><path class="cls-1" d="M79,44.36c-5.17,0-9-1.61-11.54-4.92l2.9-2.26c2,2.77,4.66,4,8.6,4,5.31,0,8.61-3.4,8.61-8.87V28.94l-.13,0a9.55,9.55,0,0,1-9.23,5.84c-6.5,0-11.79-5.56-11.79-12.41S71.62,10,78.23,10c4.31,0,7.74,2,9.18,5.36l.13,0V11.92H91V32.17C91,39.46,86.21,44.36,79,44.36ZM78.75,13.3a8.92,8.92,0,0,0-9,9.05,9,9,0,1,0,18,0A9,9,0,0,0,78.75,13.3Z"/></g></g></svg>