<svg xmlns="http://www.w3.org/2000/svg" viewBox="0 0 304.79 359.58"><defs><style>.cls-1{fill:#ff8d6a;}.cls-2{fill:#b5b6a1;}.cls-3{fill:#b5b5aa;}</style></defs><g id="Layer_2" data-name="Layer 2"><g id="Artwork"><ellipse class="cls-1" cx="154.49" cy="164.98" rx="88.89" ry="86.68" transform="translate(-4.23 4.07) rotate(-1.49)"/><path class="cls-2" d="M190.24,117.66c-1.12-.47-.62-.81-1.1-1.7s-.3-1-.75-1.87-.44-.9-.82-1.83-.49-.88-.84-1.82-.4-.92-.73-1.86-.43-.91-.74-1.87,0-1-.26-2-.5-.9-.74-1.87-.2-1-.41-2-.19-1-.38-2-.12-1-.29-2-.23-1-.38-2-.22-1-.34-2,0-1-.08-2-.09-1-.16-2-.26-1-.31-2,0-1-.06-2,.3-1,.31-2-.14-1-.1-2,.26-1,.36-2,0-1,.17-2-.05-1,.15-2,.23-1,.47-2,.52-.91.81-1.88.14-1,.57-2a15,15,0,0,1,1.09-1.75c.23-.46.36-.68.46-.92a3.33,3.33,0,0,1,.54-.92,8.39,8.39,0,0,1,.74-.86,3.46,3.46,0,0,1,.84-.72c.92-.57,1.06-.31,2-.75a19,19,0,0,1,1.9-.72c.95-.32.87-.6,1.84-.88s1-.09,2-.34l1.92-.47c1-.23,1-.1,1.94-.35a4.3,4.3,0,0,0,.9-.32l.84-.37a1.35,1.35,0,0,0,.6-.42,2,2,0,0,0,.27-.52,3.3,3.3,0,0,0,.14-.7,3.7,3.7,0,0,0,0-.89,11.2,11.2,0,0,1-.29-2.11,2.39,2.39,0,0,1,.37-1.2c.17-.27.37-.51.69-.94a4.07,4.07,0,0,0,.52-.83c.09-.21.19-.41.29-.7a3.91,3.91,0,0,0,.13-.57,1.43,1.43,0,0,0-.19-.8l-.47-.88a3.34,3.34,0,0,1-.37-1.14,2.17,2.17,0,0,1,.31-1.38,5.72,5.72,0,0,1,.63-.81c.1-.13.13-.24.19-.32s.05-.17.08-.25a1.87,1.87,0,0,0,0-.73,9.22,9.22,0,0,0-.76-1.66,10.5,10.5,0,0,1-.78-2,3.25,3.25,0,0,1-.07-1.24,3.43,3.43,0,0,1,.51-1.22,4.54,4.54,0,0,1,.86-.85l.74-.57a1.14,1.14,0,0,0,.39-.52,2,2,0,0,0,.09-.64,4.86,4.86,0,0,0-.08-.74,1.78,1.78,0,0,0-.31-.74,7.15,7.15,0,0,0-1.22-1.33,18.64,18.64,0,0,1-1.52-1.35c-.71-.75-1-.55-1.59-1.4a16.36,16.36,0,0,1-.91-1.89c-.46-.9-.5-.89-.91-1.82s-.31-1-.66-1.91-1-.72-.65-1.87a1.26,1.26,0,0,1,1.24-.42c1,.66.48.86.81,1.78s.12,1,.49,1.89.5.83.93,1.68a14.79,14.79,0,0,0,.94,1.64,11.78,11.78,0,0,0,1.21,1.42,18.19,18.19,0,0,0,1.42,1.28c.77.68.9.55,1.6,1.45a3.22,3.22,0,0,1,.5,1.09,6.33,6.33,0,0,1,.17,1.2,2.89,2.89,0,0,1-.25,1.26,2.64,2.64,0,0,1-.79,1c-.45.37-.63.5-.8.67a4.54,4.54,0,0,0-.51.54l-.18.29a1.59,1.59,0,0,1-.13.22,1.18,1.18,0,0,0,0,.76,9.43,9.43,0,0,0,.74,1.7c.41.92.62.81,1,1.92a3.8,3.8,0,0,1,.09,1.28c0,.17-.07.34-.13.56a5.14,5.14,0,0,1-.4.73c-.41.5-.55.57-.65.7a.5.5,0,0,0-.16.42,1.93,1.93,0,0,0,.25.68c.1.2.22.39.46.86a3.18,3.18,0,0,1,.34,1.12,3.15,3.15,0,0,1-.71,2.35c-.17.21-.35.41-.63.78a2.16,2.16,0,0,0-.4.73,4.11,4.11,0,0,0-.12.76,10.73,10.73,0,0,0,.2,1.83c.07.51.1.79.12,1.07A3.29,3.29,0,0,1,204,59.4a2.24,2.24,0,0,1-.77,1.08,4.93,4.93,0,0,1-1.05.59,6.82,6.82,0,0,1-1,.35c-.24.08-.49.15-1,.28-1,.25-.94.36-1.91.6s-.93.34-1.89.58-1,.19-1.89.45-1,.11-1.9.41a18.65,18.65,0,0,0-1.76.76c-.85.4-.77.58-1.52,1a5.67,5.67,0,0,0-.72.5,2.16,2.16,0,0,0-.6.57c-.27.3-.44.53-.61.68a2.48,2.48,0,0,0-.59.76,12.92,12.92,0,0,0-.63,1.81c-.4.86-.49.83-.84,1.73s-.31.91-.56,1.84-.16,1-.34,1.91-.13,1-.28,1.91-.13,1-.25,1.93-.09,1-.17,1.93-.31,1-.34,1.94,0,1,0,2,.14,1,.18,2-.05,1,0,2,.08,1,.18,2,0,1,.12,2,.27,1,.42,1.92.21,1,.37,1.92.18,1,.37,1.93.2,1,.4,1.91.05,1,.28,1.95.16,1,.41,1.92.27.94.55,1.88.58.84.9,1.76.14,1,.49,1.9.21,1,.59,1.87.67.77,1.06,1.66.34.91.81,1.75.9.61.92,1.7C191.48,117.2,190.53,117.78,190.24,117.66Z"/><path class="cls-2" d="M159.92,40c.42-.83.56-.23,1.15-.36s.62,0,1.21-.09l1.15-.29c.58-.15.56-.25,1.13-.41s.55-.22,1.12-.39.52-.29,1.08-.48.66.11,1.2-.12.45-.44,1-.68.55-.2,1.06-.46.53-.24,1-.55.53-.24,1-.57.42-.4.86-.76.38-.42.76-.83.48-.33.84-.77.33-.46.65-.93.14-.58.37-1.08a6.65,6.65,0,0,0,.44-1c.21-.51.45-.43.63-1a11,11,0,0,0,0-1.14c.08-.55.27-.53.28-1.1a8.07,8.07,0,0,0-.14-1.1c-.11-.54-.26-.51-.42-1a5.86,5.86,0,0,0-.36-1c-.25-.46,0-.59-.33-1s-.48-.29-.84-.63-.27-.48-.72-.72-.5,0-.91-.07-.4.13-.72.27-.51,0-.79.34a2.48,2.48,0,0,0-.4.89c-.09.5.21.52.24,1s-.1.48.1.93a3.5,3.5,0,0,0,.58.82c.36.37.28.47.71.8s.53.2,1,.46a9.35,9.35,0,0,0,1.06.34c.54.16.52.23,1.06.38a4.77,4.77,0,0,0,1.13.12c.56.06.53.35,1.1.35s.58-.17,1.14-.15.58.15,1.16.1a7.06,7.06,0,0,0,1.13-.22,6.71,6.71,0,0,0,1.1-.35c.55-.17.57-.12,1.11-.3s.5-.32,1-.55a9.7,9.7,0,0,0,1-.51,6.26,6.26,0,0,0,1-.53c.48-.33.45-.37.91-.71s.4-.43.84-.8a10.13,10.13,0,0,0,.9-.72,6.28,6.28,0,0,0,.8-.83c.35-.46.38-.44.7-.92s0-.66.34-1.14.44-.4.69-.92a5,5,0,0,0,.37-1.07c.16-.55.3-.51.41-1.07s-.61-.69.21-1.12a2,2,0,0,1,1.3.17c.61.72.06.67-.06,1.29s-.41.55-.59,1.15a5.91,5.91,0,0,1-.34,1.23c-.28.57-.31.56-.62,1.11l-.64,1.08c-.36.52-.4.5-.78,1a7.48,7.48,0,0,1-.73,1,12.65,12.65,0,0,1-1,.8l-1,.81c-.5.37-.43.47-.95.83s-.64.17-1.19.47a10.58,10.58,0,0,1-1.09.62c-.57.25-.5.42-1.08.67l-1.21.4a8.59,8.59,0,0,1-1.25.22,8.78,8.78,0,0,1-1.24.25c-.64.06-.65-.08-1.28,0s-.63-.06-1.26-.07a8.86,8.86,0,0,1-1.26-.06,6.54,6.54,0,0,1-1.25-.22c-.62-.18-.63-.12-1.24-.31a9.58,9.58,0,0,1-1.13-.63,9.2,9.2,0,0,1-1.12-.67,6.28,6.28,0,0,1-1.08-.8c-.45-.53-.56-.46-.91-1.09a3.78,3.78,0,0,1-.4-1.44c-.05-.74.12-.73.24-1.43a3.68,3.68,0,0,1,.5-1.36c.22-.31.32-.48.43-.66a1.6,1.6,0,0,1,.61-.55,2.09,2.09,0,0,1,.8-.25,5,5,0,0,1,.81-.05c.8.07.74.32,1.39.57s.75.12,1.3.57.41.58.83,1.12a11,11,0,0,1,.67,1.14,7.75,7.75,0,0,1,.55,1.21,7.21,7.21,0,0,1,.34,1.29,8.34,8.34,0,0,1,.06,1.32,8.17,8.17,0,0,1-.1,1.31c-.08.65-.38.59-.5,1.21s-.11.63-.34,1.23a9.15,9.15,0,0,1-.4,1.22,12.05,12.05,0,0,1-.68,1.07c-.36.53-.33.55-.72,1.06a10.92,10.92,0,0,1-.9.9c-.43.47-.34.56-.81,1s-.45.46-1,.84-.51.38-1.05.71-.54.32-1.09.64-.64.13-1.2.39-.6.17-1.18.4-.57.22-1.15.43-.49.5-1.08.68-.64,0-1.23.17-.63,0-1.22.17-.52.44-1.11.58-.61.07-1.2.2-.5.62-1.2.21A2.36,2.36,0,0,1,159.92,40Z"/><path class="cls-2" d="M198.24,31.08c.46.57,0,.14-.05.21s-.19,0-.26,0l-.13.15c-.07.07,0,.14-.07.21s0,.11-.1.18,0,.16-.07.23-.28-.17-.35-.1.08.25,0,.31-.11,0-.19.09-.1,0-.18.1-.13,0-.21.06,0,.11-.13.17,0,.12-.13.18-.16-.06-.24,0L196,33c-.08,0,0,.23-.07.28a1.74,1.74,0,0,1-.18.11c-.09,0-.23-.21-.32-.16s0,.21-.1.25-.18-.13-.27-.09-.06.12-.15.16,0,.23-.11.26a1.52,1.52,0,0,1-.2.06c-.1,0-.18-.19-.27-.16s0,.22-.13.25-.16-.16-.25-.13-.05.17-.15.2-.07.14-.16.17-.17-.26-.27-.24a1.25,1.25,0,0,1-.19,0c-.1,0,0,.31-.12.33s-.14-.15-.23-.13l-.19,0c-.1,0-.13-.11-.22-.09s-.07.15-.17.17-.07.12-.17.14-.11-.07-.21-.06-.08.13-.17.14-.13-.21-.23-.2-.07.2-.17.21-.12-.19-.21-.18-.1,0-.19,0-.09.09-.19.1-.1,0-.19,0-.09.1-.19.1a1.2,1.2,0,0,1-.19,0c-.1,0-.1-.07-.2-.06s-.09.06-.18.07-.1.07-.19.07-.11-.11-.2-.11-.1,0-.19,0h-.19c-.1,0-.09.32-.18.32s-.11-.21-.2-.21-.1,0-.19,0-.1-.08-.19-.08-.09.73-.19,0a11.42,11.42,0,0,1,0-1.31c.08-.73.09-.18.18-.18s.09.24.19.23.09-.12.18-.12.09.06.18,0,.09,0,.18,0a1.28,1.28,0,0,0,.19,0c.09,0,.08-.14.17-.14s.1.11.19.11h.19c.09,0,.08-.13.17-.14s.1.21.2.2.08,0,.17-.06.08-.19.17-.2l.18,0c.09,0,.09.08.18.07s.09,0,.18-.06.11.13.2.12.09,0,.18,0,.08-.09.17-.1.08-.05.17-.06.08-.06.17-.08.11.12.2.11l.18,0c.09,0,.07-.13.15-.15s.07-.14.15-.16.1,0,.18,0,.13.15.22.13.07-.09.15-.11,0-.21.13-.24.1.06.18,0,.15.2.24.17,0-.25.09-.28.13.11.21.09l.17-.06c.08,0,0-.12.12-.15s.06-.09.14-.12l.16-.06.15-.06c.07,0,.19.2.26.16s0-.1.13-.14,0-.15.09-.19.11,0,.18,0a1.71,1.71,0,0,1,.14-.11c.07,0,.12,0,.19,0s0-.18.05-.22,0-.11.1-.16l.13-.11.13-.1c.07,0,.18.08.25,0s.12,0,.19-.05l.13-.11c.07-.06-.14-.29-.08-.35s.19.07.25,0,.17.05.23,0-.15-.27-.09-.34.12,0,.18-.07-.3-.41.16-.1A13.83,13.83,0,0,1,198.24,31.08Z"/><path class="cls-2" d="M166.48,51.5c-.39.62-.17,0-.27,0s0-.21-.12-.26l-.19-.1c-.08,0-.14,0-.22,0s-.1,0-.17,0-.12.07-.13.07.09-.3.05-.31-.08.23-.15.22-.06,0-.22-.07a3,3,0,0,1-.32-.08c-.16,0-.13-.11-.27-.16s-.16,0-.27-.07l0,0c-.12-.1-.17,0-.28-.17s0-.22-.06-.35a2.65,2.65,0,0,1-.11-.3c0-.07-.08-.09-.15-.15h-.12s.25-.19.23-.22-.09,0-.14.06a.05.05,0,0,1,0,0s.11-.18.07-.19-.08.06-.11.06,0,.19-.13.18l-.28-.09c-.17-.06-.07-.28-.21-.34s-.24.09-.37,0,0-.3-.06-.36-.16,0-.22,0-.14,0-.21-.05.13-.28.05-.35-.06-.1-.14-.19-.32.08-.41,0,.08-.21,0-.31l-.1-.18c0-.09.08-.15,0-.24s-.16,0-.21-.13-.14-.05-.18-.15,0-.17,0-.29v0c0-.15-.16-.13-.19-.3s.23-.17.25-.32-.16-.17-.1-.34.26-.11.3-.2,0-.06,0-.11-.06,0-.05-.07.06,0,.06-.07-.07,0-.1,0h0s0,0,0,0,.06-.06,0-.09-.08,0-.14-.09-.12-.05-.2-.17,0-.19,0-.34a.25.25,0,0,1,0-.18v-.12s0,0,0-.07-.31.08-.34,0,.15-.17.1-.26-.09-.07-.14-.18,0-.16,0-.29-.76,0-.07-.31a11.57,11.57,0,0,1,1.3-.17c.72-.08.17-.05.19,0s-.22.12-.19.18.14,0,.18.08,0,.11,0,.2a1.42,1.42,0,0,1,.13.22,1.73,1.73,0,0,1,.08.31.08.08,0,0,0,0,0l0,0h0a.38.38,0,0,0,.12,0s-.1.06-.07.1a.28.28,0,0,0,.07.11c.05.07.14,0,.24.11s-.08.24,0,.36.11.12.16.26,0,0,0,0,.2.1.21.23a1.79,1.79,0,0,1,0,.33c0,.17-.13.15-.18.31s0,.19-.07.28-.15,0-.17,0-.06,0-.07.06.07,0,.07.08,0,0,.05,0h0s.06,0,.07.05-.08.14,0,.22l.08.16c0,.08.14,0,.18.1s.14,0,.18.1,0,.11,0,.13-.12.14-.07.19.09,0,.14,0,.2-.08.26,0,0,.12.09.19-.09.24,0,.32.21-.12.23-.1-.07.13,0,.15,0,0,.06,0,0-.08.12-.06.16,0,.32,0a1.69,1.69,0,0,1,.31.13,1,1,0,0,1,.28.17.12.12,0,0,1,0,.1c0,.11-.08.22,0,.31s.13.08.19.22.17.08.22.24a.23.23,0,0,1,0,.16s0,0,0,0,0,0,0,0-.06.08,0,.12.14-.1.16-.08h0s.05,0,.07,0h.07s0,.18.13.19.1.1.24.13a.84.84,0,0,1,.28.09c.13,0,.29-.2.39-.15s0,.21.1.26,0,.18.08.23.23-.22.3-.18,0,.1.09.13.26-.43.1.1A14.44,14.44,0,0,1,166.48,51.5Z"/><path class="cls-2" d="M164.43,47.34c-.7.19-.11,0-.13,0s.15-.1.13-.14,0,0-.05-.09-.11,0-.13,0-.08,0-.1-.08-.13,0-.15-.07.27-.16.25-.22-.25,0-.27,0,0-.08,0-.15,0-.08,0-.15.06-.09,0-.16S164,46.07,164,46s-.08-.07-.08-.14.13-.07.13-.13v-.13c0-.06-.2-.08-.19-.14a.56.56,0,0,1,0-.13c0-.06.29,0,.3-.08s-.17-.08-.17-.13.2,0,.21-.08-.08-.06-.07-.11-.2-.08-.19-.12,0,0,0-.09.25,0,.25-.08-.18-.07-.18-.12.21,0,.21-.09-.15-.07-.14-.12-.11-.07-.1-.13.3,0,.31-.07,0-.06,0-.12-.28-.1-.27-.17.18,0,.2-.09l0-.12c0-.06.14,0,.16-.09s0,0,0-.07a.17.17,0,0,1,0-.13c0-.08-.06-.12,0-.21s.12,0,.16-.12,0-.12,0-.19.23.08.27,0-.1-.17-.07-.21.2.09.24,0,0-.06,0-.1,0-.08,0-.11.06,0,.08,0,0-.09,0-.11l0,0s.11,0,.15-.09,0-.1,0-.17,0-.1.05-.16.14,0,.19,0,.08,0,.13-.05l.09-.07s-.18-.27-.14-.31.19.13.22.1,0-.06,0-.09.09,0,.11,0-.51-.5.05,0c.15.12.87.72,1,.86.5.53.08.18,0,.22s-.22-.12-.27-.07,0,.13,0,.17-.09,0-.13,0,0,0-.06.08-.05,0-.08,0,.06.12,0,.15-.11-.06-.13,0l0,0s.09.1.08.11-.19-.1-.21-.06,0,.09-.05.15.11.17.07.23l-.08.12s-.11,0-.14,0,0,.07,0,.11-.15,0-.18,0-.06,0-.09,0,0,.08,0,.11,0,0,0,.06,0,0,0,.05-.13,0-.14,0v.05s.11.07.1.1.11.07.1.11-.05,0-.05.07-.18,0-.19.06.06,0,.06.1.19.07.18.11-.08,0-.09.09-.23,0-.24.07.24.08.23.13-.15,0-.15.09l0,.1c0,.06.09.07.08.13s.06.06,0,.12a.36.36,0,0,0,0,.1l0,.11c0,.05-.26,0-.27.06s.05.06.05.1.12.06.12.1-.08,0-.08.08,0,0,0,.08-.1,0-.1.08.17,0,.17.06.07,0,.07,0,0,0,0,0V46s-.16.08-.15.11-.07.07-.06.11l0,.08s.3-.06.32,0-.15.11-.13.16-.11.1-.1.15.31-.06.33,0-.05.08,0,.14.5-.1,0,.13C165.67,47,164.61,47.3,164.43,47.34Z"/><path class="cls-2" d="M167.39,46.94c-.72.11-.12,0-.13,0s.16-.07.16-.11,0,0,0-.06-.11,0-.12,0-.06,0-.07,0-.13,0-.14,0,.3-.11.29-.14-.24,0-.25,0,0,0,0-.07,0,0,0-.06.07-.06.05-.08-.07,0-.08,0-.08,0-.09,0,.11-.09.1-.11l0,0s-.2.08-.21.06l0,0s.23-.18.21-.2-.16.07-.18,0,.14-.13.12-.16-.08,0-.1,0-.18.1-.2.08,0,0,0-.06.17-.18.15-.2-.17.1-.19.07.13-.16.1-.18-.14.07-.16,0-.11.05-.13,0,.19-.22.17-.25,0,0,0-.06-.24.17-.27.15.11-.15.08-.17l0,0s.06-.12,0-.14-.12.07-.14.05-.09.06-.12,0,0-.09,0-.1-.09.06-.11,0,.12-.19.1-.21S166,45,166,45s.1-.18.08-.2-.05,0-.07,0-.07.05-.09,0,0,0,0-.07-.07.06-.1.05,0,0,0,0,0-.09,0-.1-.06,0-.08,0-.06,0-.08,0,0-.13,0-.14,0-.06,0-.08l-.06,0s-.15.28-.17.27,0-.22,0-.23,0,0-.08,0,0-.09,0-.1-.26.67-.07,0c.05-.18.33-1.07.4-1.25.26-.68.09-.16.13-.14s0,.24,0,.25.08-.1.12-.09,0,.08.06.09l.08,0s0,0,.08.05.09-.11.13-.09,0,.12,0,.14l.08,0s.1-.09.14-.07-.06.21,0,.23.06,0,.1,0,.13-.14.18-.11l.08,0s0,.1,0,.13.06,0,.1,0,0,.14,0,.17,0,.06,0,.09.08,0,.11,0,.06,0,.09,0,.07,0,.1,0-.06.13,0,.16l.06.06s.12-.06.15,0,.11-.06.14,0,0,.06,0,.09-.09.15-.07.18.08,0,.11,0,.17-.1.2-.07,0,.08,0,.11-.15.18-.12.21.2-.12.23-.09-.08.13-.06.16l.06.07s.1,0,.12,0,.08,0,.11,0,0,0,.05.08l.05.08s-.19.18-.16.22.07,0,.1,0,.13,0,.16,0-.05.08,0,.12,0,0,.06.08-.06.08,0,.12.17,0,.19,0,.08,0,.1.07l0,.09,0,.09s-.15.1-.14.14-.07.07-.05.11l0,.08s.31,0,.32,0-.16.09-.15.13-.13.07-.13.11.31,0,.32,0-.06.05-.06.09.5,0,0,.09C168.66,46.7,167.57,46.92,167.39,46.94Z"/><path class="cls-2" d="M155.07,37.45c-.78,0-.2-.25-.29-.53s.07-.34,0-.62-.09-.29-.17-.57-.18-.27-.25-.56-.12-.28-.19-.57-.18-.28-.24-.57.26-.35.22-.65-.28-.27-.32-.57,0-.3,0-.61,0-.3,0-.6.07-.31.06-.61-.07-.3-.07-.61-.06-.3,0-.61.16-.29.18-.59,0-.3.07-.6-.17-.33-.12-.63l.1-.6c.06-.3.33-.25.4-.54s-.1-.33,0-.62.26-.25.35-.53,0-.31.09-.6-.11-.35,0-.64.12-.28.23-.56.32-.19.44-.47-.06-.34.06-.62.3-.2.43-.46,0-.34.12-.6,0-.33.16-.59.4-.13.54-.39l.3-.51c.15-.25-.1-.4.05-.65s.3-.17.45-.42l.31-.51c.17-.25.27-.19.44-.43s.06-.32.24-.57.09-.3.27-.54.25-.19.43-.43.11-.3.3-.53.37-.08.57-.3.07-.35.27-.57.36-.07.57-.28.18-.24.4-.44.17-.26.39-.46.26-.16.48-.36.16-.27.4-.46l.48-.36c.24-.18.29-.11.53-.29s.2-.23.45-.4.21-.22.46-.38.32-.06.57-.22.29-.11.54-.26l.52-.29c.26-.15.12-.42.39-.56s.36.06.63-.08.26-.16.53-.29.3,0,.58-.16,0-.78.56-.22a4.53,4.53,0,0,1,.47,1.22c0,.78-.19.28-.45.38s-.35-.11-.61,0-.21.23-.46.34-.28.07-.53.2-.24.14-.49.28l-.5.26c-.24.14-.17.26-.41.4s-.3,0-.54.2l-.46.31c-.24.16-.16.27-.38.44s-.36,0-.58.16-.2.21-.42.39-.1.32-.31.5l-.41.38c-.21.19-.26.13-.47.32s-.18.22-.37.42-.3.1-.5.3-.22.18-.41.39-.14.25-.31.47-.16.23-.34.45-.14.25-.31.47-.28.14-.45.37l-.32.46c-.17.23-.06.3-.21.54s0,.3-.2.54-.18.22-.32.46-.29.16-.44.41-.07.28-.21.53,0,.34-.09.59-.2.22-.32.47-.33.15-.46.41.1.36,0,.61-.25.2-.36.46-.11.26-.21.52,0,.3-.11.56,0,.29-.11.55l-.18.53c-.09.26-.07.27-.15.53s-.32.21-.39.48,0,.29,0,.57.08.29,0,.57-.11.26-.15.54,0,.28-.05.55-.1.27-.12.55.14.29.13.56.07.28.07.56l0,.55,0,.55c0,.27-.16.29-.13.57s-.05.29,0,.56a5.43,5.43,0,0,0,.09.56c.05.28.35.22.41.49s-.13.31-.06.58-.07.31,0,.58.36.2.44.46,0,.29.1.56.56.11.13.55A4.76,4.76,0,0,1,155.07,37.45Z"/><path class="cls-2" d="M182.53,18.65c-.22-.7.07-.16.19-.23s.19.09.31,0l.23-.14c.12-.07.07-.16.18-.23s.09-.12.2-.19.05-.18.16-.24.28.19.4.12,0-.28.09-.36.14,0,.25-.1.13-.05.24-.12.16,0,.27-.09.07-.14.18-.22.06-.14.17-.22.19,0,.3,0l.21-.16c.1-.09,0-.25.08-.33l.2-.18c.1-.08.29.14.39.06s0-.23.09-.32.23.06.33,0,.05-.15.15-.24,0-.24.06-.33l.2-.17c.1-.09.27.08.37,0s0-.23.06-.33.23,0,.33-.05,0-.2.08-.3,0-.17.1-.27.31.11.4,0l.19-.19c.1-.1-.12-.3,0-.4s.22,0,.31-.08l.17-.21c.08-.1.18,0,.27-.12s0-.19.07-.3,0-.17.08-.27.15-.06.23-.16,0-.18.08-.28.26,0,.35-.08-.07-.22,0-.33.24,0,.32-.1,0-.13.13-.24,0-.15.09-.26.11-.09.19-.2,0-.16.07-.27a1.77,1.77,0,0,1,.16-.22c.07-.11.14-.07.21-.19s0-.15.08-.26,0-.15.09-.27.17,0,.24-.17.11-.09.17-.21l.13-.24c.07-.12-.21-.26-.15-.38s.26,0,.32-.14,0-.14.08-.26.13-.08.19-.21-.6-.42.12-.24a8.56,8.56,0,0,1,1.19.55c.6.43.11.2,0,.33s-.27,0-.34.15.05.19,0,.32-.12.1-.19.22l-.12.26a1.94,1.94,0,0,1-.15.24c-.06.13,0,.19,0,.32s-.18.07-.25.19l-.15.24c-.07.13,0,.19,0,.32s-.26,0-.33.13,0,.14-.12.26.08.22,0,.34a2.07,2.07,0,0,1-.15.25c-.07.12-.15.07-.23.19s0,.14-.13.25-.2,0-.29.15-.11.09-.2.21,0,.16-.11.27-.06.13-.15.24-.05.15-.13.26-.2,0-.29.13l-.19.22c-.09.11,0,.19-.09.3s0,.19-.09.3-.13.08-.22.18-.22,0-.32.1,0,.15-.14.26.05.24-.05.34-.16.05-.26.15-.26-.06-.36.05.07.27,0,.37-.21,0-.31.09l-.21.19c-.11.1,0,.17-.15.27s-.06.15-.17.24l-.22.18-.22.19c-.11.09-.28-.11-.38,0s-.07.13-.18.22,0,.19-.15.28-.15,0-.27.12-.09.11-.21.19-.17,0-.28.1,0,.21-.14.3-.07.14-.19.22l-.23.17-.24.17c-.12.08-.22-.07-.33,0s-.17,0-.29.08l-.24.15c-.12.07,0,.34-.08.41s-.22-.08-.34,0-.19,0-.32,0,0,.33-.1.4-.16,0-.28.08.1.51-.28.1A11,11,0,0,1,182.53,18.65Z"/><path class="cls-2" d="M172.52,14.37c.14-.74.16-.12.32-.13s.17.16.33.15l.33,0c.16,0,.15-.11.31-.13s.16-.08.32-.1.14-.14.3-.15.2.29.37.27.12-.27.28-.3.17,0,.32,0,.17,0,.33,0,.17.05.33,0,.15-.1.3-.14.14-.11.3-.15.19.1.35.06l.31-.09c.15,0,.1-.25.25-.3l.3-.1c.16-.05.25.23.4.18s.1-.23.25-.29.22.13.37.07.12-.14.27-.19.08-.25.23-.31l.3-.12c.14-.07.24.15.39.09s.07-.24.22-.31.23.11.37,0,.08-.21.22-.28.09-.18.24-.25.28.18.42.1l.29-.15c.14-.08,0-.34.13-.42s.23.07.37,0l.27-.19c.14-.09.21,0,.34-.07s.06-.2.2-.29.07-.18.2-.28.18,0,.31-.12.06-.19.19-.29.27.09.4,0,0-.25.13-.35.26.05.39-.05.1-.14.22-.24.08-.16.2-.27.15-.08.26-.19.06-.18.17-.29l.25-.22c.12-.11.17-.05.28-.17s.07-.16.18-.28.06-.17.17-.28.2,0,.31-.16.15-.09.25-.22l.21-.25c.1-.13-.15-.32-.05-.45s.28,0,.37-.12.06-.16.15-.29.17-.09.26-.22-.5-.54.19-.26a6.86,6.86,0,0,1,1.09.72c.51.54.05.25-.05.39s-.29,0-.39.15,0,.21-.11.35-.15.11-.26.24l-.2.28c-.11.14-.13.13-.24.26s0,.23-.12.36-.2.05-.32.18l-.24.26c-.11.13,0,.21-.14.34s-.27,0-.39.11-.1.15-.22.27,0,.25-.12.38l-.25.25c-.13.12-.19.05-.32.16s-.1.15-.24.26-.22,0-.36.12a2.82,2.82,0,0,1-.29.18c-.14.11-.09.17-.23.27s-.12.13-.26.24-.11.14-.25.25-.22,0-.36.08l-.29.19c-.15.1-.08.2-.23.3s-.07.2-.22.29-.17.06-.33.15-.23-.06-.38,0-.12.14-.27.23,0,.26-.21.34-.19,0-.35.1-.26-.13-.41,0,0,.29-.21.37-.22-.06-.38,0l-.32.14c-.16.07-.12.16-.28.23s-.13.13-.3.19l-.33.11-.33.13c-.16.06-.25-.19-.41-.13s-.15.11-.31.16-.13.18-.3.23-.19,0-.35,0-.16.08-.33.12-.19-.05-.36,0-.13.2-.3.24-.16.11-.33.15l-.34.08-.35.06c-.17,0-.2-.14-.37-.11s-.19-.06-.36,0l-.34,0c-.18,0-.14.32-.31.34s-.2-.15-.37-.13-.19-.12-.36-.12-.15.31-.33.32-.18-.06-.36-.05-.16.51-.35,0A8.59,8.59,0,0,1,172.52,14.37Z"/><path class="cls-2" d="M200.2,19.28c-.7-.21-.1-.1-.08-.18s.18-.05.19-.13l0-.17c0-.08-.1-.09-.09-.17s-.05-.09,0-.17-.12-.1-.11-.18.32-.05.33-.14-.24-.09-.24-.17.06-.08.06-.16,0-.09,0-.17.08-.08.07-.16-.06-.08-.07-.17-.07-.08-.08-.16.14-.08.14-.17v-.16c0-.08-.21-.07-.22-.15l0-.16c0-.08.28-.11.27-.19s-.19-.07-.2-.15.18-.1.17-.19-.1-.07-.11-.15-.21-.05-.22-.13a.88.88,0,0,1,0-.16c0-.08.22-.12.2-.21s-.2,0-.22-.12.18-.12.16-.2-.17,0-.19-.13-.13-.05-.15-.13.26-.15.24-.23,0-.09,0-.17-.31,0-.33-.07.14-.13.11-.21l-.06-.15c0-.08.09-.12.06-.2s-.15,0-.18-.11-.13,0-.16-.11,0-.11,0-.18-.13,0-.17-.11.18-.17.14-.25-.2,0-.23-.07.15-.16.11-.24-.07-.05-.11-.13-.1,0-.14-.11,0-.1,0-.17-.12,0-.16-.09,0-.08-.07-.15,0-.12,0-.19-.1,0-.15-.1-.09,0-.14-.1.06-.14,0-.21,0-.1,0-.16l-.1-.14c-.05-.07-.3.13-.35.06s.12-.2.07-.26-.09,0-.14-.1,0-.12,0-.18-.59.42-.1-.13c.12-.14.82-.77,1-.88.6-.42.19,0,.26,0s-.12.23-.06.3.15,0,.21.07,0,.11.07.18a1.79,1.79,0,0,0,.13.14c.06.08,0,.09.1.16s.16,0,.22.07,0,.15,0,.23l.1.16c.06.07.16,0,.22.08s-.13.2-.08.28.08,0,.13.13.21,0,.26.07l.1.16c0,.08,0,.13,0,.21s.08.06.13.15-.09.15,0,.23,0,.1,0,.19.11.05.15.14.06.07.1.16.08.06.12.15-.09.14-.06.23l.06.17c0,.09.15.05.18.14s.15,0,.19.13,0,.11,0,.2-.13.14-.11.23.1.07.13.16.21,0,.24.13,0,.11,0,.2-.2.15-.18.24.26,0,.28.13-.12.12-.1.21l0,.19c0,.09.11.07.13.16s.08.09.09.18l0,.19,0,.19c0,.09-.25.12-.23.22s.06.08.07.18.14.08.15.17-.07.1-.06.19,0,.1,0,.19-.09.1-.09.19.16.09.17.19.06.09.07.19a1.2,1.2,0,0,1,0,.19v.19c0,.09-.19.09-.19.18s-.09.09-.1.18l0,.19c0,.09.3.12.29.21s-.19.08-.2.17-.15.08-.16.17.28.14.26.23-.08.09-.1.18.48.19-.07.18A13.16,13.16,0,0,1,200.2,19.28Z"/><path class="cls-2" d="M160.19,35.55c-.74-.07-.13-.15-.14-.32s.15-.18.14-.34l0-.33c0-.17-.12-.16-.13-.33s-.07-.16-.07-.33-.12-.16-.13-.33.31-.17.31-.33-.25-.17-.25-.34.06-.16.07-.33.05-.16.06-.33.08-.16.09-.32-.06-.18,0-.34-.05-.17,0-.34.15-.15.18-.31l0-.33c0-.16-.19-.2-.16-.36l0-.33c0-.17.32-.11.35-.27s-.15-.2-.12-.36.22-.13.26-.28,0-.18,0-.34-.15-.21-.11-.38l.09-.31c.05-.17.28-.1.33-.25s-.14-.22-.09-.38.25-.09.3-.25-.1-.2,0-.36-.05-.19,0-.35.33-.05.39-.21.07-.14.13-.3-.22-.26-.15-.41.23-.09.29-.24l.12-.3c.07-.15.19-.1.25-.25s0-.2,0-.35,0-.19,0-.34.14-.11.21-.26,0-.2.05-.34.28,0,.36-.18-.08-.23,0-.38.26,0,.34-.19,0-.15.13-.29,0-.18.1-.32.12-.12.2-.26,0-.19.09-.33l.19-.26c.08-.14.15-.1.24-.24s0-.17.12-.31,0-.16.13-.3.19-.07.28-.2.13-.11.22-.24a2.61,2.61,0,0,1,.19-.27c.09-.13-.17-.31-.08-.44s.27,0,.36-.15.06-.15.16-.28.16-.09.25-.22-.49-.55.19-.25A6.19,6.19,0,0,1,167,19c.5.55.06.24,0,.36s-.29,0-.38.12,0,.2-.08.33-.14.09-.23.22a2.46,2.46,0,0,1-.17.27c-.09.13-.1.12-.19.25s0,.21-.06.34-.18.06-.27.19l-.18.26c-.08.13,0,.21,0,.34s-.27,0-.35.15,0,.16-.12.29.07.23,0,.36l-.14.28c-.08.13-.16.09-.23.22s-.05.16-.12.29-.2.07-.28.21-.11.12-.18.25,0,.18-.08.32a2.49,2.49,0,0,0-.11.29c-.07.14,0,.16-.09.3s-.2.08-.26.22l-.14.28c-.07.14,0,.19,0,.33s.06.19,0,.33-.1.13-.16.27-.23.08-.28.22,0,.17,0,.32.13.21.07.36-.12.11-.18.26-.26.07-.31.22.18.22.14.37-.19.1-.24.25-.05.14-.09.29.06.17,0,.32,0,.17,0,.32l-.08.29c0,.15,0,.15-.07.3s-.28.09-.31.25,0,.16,0,.31.1.17.07.32-.1.14-.12.3,0,.15,0,.3-.11.14-.13.3.14.17.12.32.06.16,0,.31,0,.15,0,.3l0,.31c0,.15-.18.14-.19.29s-.09.16-.09.31,0,.16,0,.31.31.15.31.3-.17.16-.17.31-.13.16-.12.31.31.14.33.29-.06.15-.05.31.51.09,0,.31A9.18,9.18,0,0,1,160.19,35.55Z"/><path class="cls-2" d="M173.07,9.05c0-.73.08-.12.17-.13s.12.16.21.14l.19,0c.1,0,.08-.12.18-.14s.08-.07.17-.09.07-.14.17-.16.15.29.25.27,0-.26.13-.28.11,0,.2,0,.1,0,.19,0,.12,0,.21,0,.07-.09.16-.12.07-.1.17-.13.13.11.22.08l.18-.06c.09,0,0-.23.12-.26l.17-.07c.09,0,.19.25.28.21s0-.2.12-.24.16.15.25.11.06-.11.15-.15,0-.22.09-.26.09,0,.18-.06.19.18.27.14,0-.22.1-.26.17.14.26.1,0-.18.1-.23,0-.14.12-.18.22.21.3.16.1,0,.18-.07-.06-.31,0-.36.17.11.26.06L179,7c.08,0,.15.06.23,0s0-.16.09-.21,0-.14.1-.2.12,0,.2,0,0-.14.1-.2.21.13.29.08,0-.21,0-.26.2.1.28,0,.06-.08.13-.14,0-.12.11-.18.1,0,.18-.08,0-.14.08-.2.09,0,.16-.11.13,0,.2-.07,0-.11.1-.17,0-.11.09-.18.16,0,.23,0,.1,0,.17-.1l.14-.14c.07-.07-.16-.29-.1-.35s.23.08.29,0,0-.1.1-.17.12,0,.19-.09-.49-.53.13-.14a11.4,11.4,0,0,1,1,.84c.49.54.07.2,0,.28s-.25-.08-.32,0,0,.16,0,.24-.12,0-.19.11-.07.09-.14.16-.09.07-.16.14,0,.17-.05.25-.16,0-.24.06l-.15.14c-.08.07,0,.17-.07.24s-.22-.08-.3,0-.05.11-.13.18,0,.2,0,.27l-.16.15c-.08.07-.13,0-.22.06s0,.1-.14.16-.17,0-.25,0-.11,0-.2.09,0,.12-.12.18-.07.08-.16.15-.06.1-.15.16-.16-.06-.25,0l-.18.1c-.09.06,0,.16-.11.22s0,.16-.12.22-.11,0-.2.07-.18-.1-.27-.05-.06.11-.15.16,0,.23-.1.28-.13,0-.22,0-.2-.16-.29-.11,0,.26-.09.31-.16-.09-.25,0l-.2.09c-.09,0-.05.13-.15.17s-.07.1-.17.14l-.2.07-.2.08c-.1,0-.19-.21-.29-.17s-.08.09-.18.13-.05.15-.15.19-.13,0-.23,0a1.63,1.63,0,0,1-.19.09c-.1,0-.13-.06-.23,0s-.06.18-.16.21-.08.1-.18.13l-.21.06-.21,0c-.1,0-.14-.15-.24-.13s-.12-.06-.23,0l-.2,0c-.11,0,0,.32-.15.34s-.14-.15-.24-.14-.13-.12-.23-.1-.06.31-.17.32-.12-.05-.22,0-.05.51-.22,0A12.73,12.73,0,0,1,173.07,9.05Z"/><path class="cls-2" d="M164.46,33.67c-.73,0-.12-.06-.12-.13s.17-.07.17-.13,0-.07,0-.13-.11-.06-.11-.13-.06-.07-.06-.13-.12-.07-.12-.14.31-.05.32-.11-.24-.08-.24-.15.06-.06.06-.12,0-.07.05-.13.08-.06.08-.12-.06-.08,0-.14-.07-.07-.06-.14.14,0,.15-.11l0-.13c0-.06-.19-.09-.18-.16s0-.07,0-.13.29,0,.31-.08-.17-.09-.15-.16.2,0,.21-.09-.07-.08-.06-.14-.18-.11-.16-.17,0-.06,0-.13.25,0,.27-.06-.18-.12-.16-.18.22,0,.23-.07-.13-.1-.11-.17-.09-.09-.07-.16.3,0,.32,0,0-.05.06-.11-.26-.16-.23-.22.18,0,.2-.07l.05-.12c0-.06.14,0,.16-.07s-.09-.11-.07-.17-.08-.1-.05-.16.1,0,.13-.09-.07-.1,0-.16.23,0,.26,0-.14-.14-.11-.2.22,0,.25,0,0-.07,0-.13,0-.09,0-.15.07,0,.11-.09-.05-.1,0-.16.05,0,.08-.1.1,0,.14-.07,0-.08,0-.14,0-.09,0-.14.14,0,.17,0,.09,0,.12-.08l.08-.1c0-.05-.22-.24-.18-.29s.21.07.25,0,0-.07.05-.13.1,0,.14,0-.52-.5.09-.1c.15.11.88.7,1,.83.54.49.11.15.08.2s-.22-.11-.26-.06.07.12,0,.16-.08,0-.11.05,0,.06,0,.1-.05,0-.08.08.08.13,0,.17-.12,0-.15,0l-.07.09c0,.05.08.12.05.16s-.21-.06-.24,0,0,.07,0,.12.13.14.1.19l0,.1c0,.05-.11,0-.13.05s0,.07,0,.12-.15,0-.18,0-.06,0-.09.08,0,.08,0,.13,0,.07,0,.12,0,.07,0,.12-.15,0-.18.05l0,.1c0,.05.09.1.07.15s.09.09.07.14,0,0-.07.09-.18,0-.2.05,0,.08,0,.13.16.11.15.17-.09,0-.11.08-.23,0-.25,0,.22.12.2.17-.16,0-.17.07l0,.11c0,.05.08.07.06.13s0,.07,0,.12l0,.1,0,.11c0,.06-.26,0-.27.06s0,.07,0,.12.12.08.11.14-.09,0-.1.09,0,.06,0,.12-.1,0-.1.1.15.07.14.13.06.06.06.11a.4.4,0,0,0,0,.11v.11c0,.06-.18,0-.18.1s-.1,0-.1.11v.11c0,.06.3.07.3.12s-.18.05-.18.11-.14.05-.14.11.3,0,.3.11-.07,0-.06.11.49,0,0,.11C165.75,33.62,164.64,33.67,164.46,33.67Z"/><path class="cls-2" d="M205.44,23.11c-.46-1.37.14-1.27.25-2.59a15.4,15.4,0,0,0,.11-2.63,15.17,15.17,0,0,0-.49-2.59,13.94,13.94,0,0,0-1-2.44,8.72,8.72,0,0,0-.6-1.16c-.17-.28-.35-.56-.73-1.09a13,13,0,0,0-1.68-2c-.87-1-.62-1.21-1.65-2.06s-1.16-.65-2.26-1.36a16,16,0,0,0-2.28-1.31,10.7,10.7,0,0,0-1.21-.53l-1.24-.48c-1.26-.39-1.26-.42-2.55-.78s-1.32-.18-2.64-.37-1.34-.08-2.68-.14-1.33-.2-2.68-.15-1.35,0-2.68.18-1.32.32-2.64.56-1.33.22-2.63.53a27.06,27.06,0,0,0-2.68.4c-1.3.36-1.23.58-2.5,1s-1.32.32-2.58.82-1.2.61-2.39,1.25S163,7,161.82,7.66s-1.14.7-2.18,1.52a25.38,25.38,0,0,0-2.19,1.54,25.64,25.64,0,0,0-1.66,2.08c-.44.49-.65.74-.89,1a4.91,4.91,0,0,0-.85,1,19,19,0,0,0-1.21,2.38c-.59,1.19-.49,1.24-1,2.46s-.76,1.15-1.17,2.43-.39,1.29-.73,2.6a21.58,21.58,0,0,0-.16,2.66c-.09.65-.13,1-.2,1.31a6.21,6.21,0,0,0-.13,1.33,23.7,23.7,0,0,0,.14,2.66c.17,1.32,0,1.34.27,2.66s.43,1.28.77,2.58.48,1.25,1,2.49.44,1.27,1,2.49.69,1.15,1.36,2.31.48,1.28,1.25,2.38.94,1,1.76,2.05a24.21,24.21,0,0,1,1.43,2.46,21.43,21.43,0,0,1,1.26,2.54,19.25,19.25,0,0,1,.92,2.68,20.81,20.81,0,0,1,.4,2.82,20.55,20.55,0,0,1,.13,2.83,22.18,22.18,0,0,1-.36,2.82,21,21,0,0,1-.79,2.71c-.2.68-.35,1-.45,1.34a8.83,8.83,0,0,1-.53,1.31c-.28.65-.47,1-.61,1.28a9.6,9.6,0,0,1-.68,1.24,8.11,8.11,0,0,1-.83,1.14l-.9,1.1a9.1,9.1,0,0,1-.92,1c-.26.25-.48.53-1,1A26.54,26.54,0,0,1,152,79.8c-1.12.85-.94,1.1-2.13,1.89s-1.33.54-2.59,1.16c-.63.31-1,.43-1.29.58a8.73,8.73,0,0,1-1.31.52,8.28,8.28,0,0,1-1.36.38l-1.38.3c-1.36.29-1.3,1-2.76.46-.36-.14-.45-1.07-.15-1.3,1.19-.89,1.28-.34,2.59-.62a9.31,9.31,0,0,1,1.31-.21,4,4,0,0,0,1.31-.28,7,7,0,0,0,1.23-.52c.29-.17.59-.29,1.19-.59,1.19-.58,1.21-.55,2.37-1.21a23.69,23.69,0,0,0,2.16-1.56,20.81,20.81,0,0,0,2-1.76,6.31,6.31,0,0,0,.86-1c.21-.27.41-.53.8-1.06l.85-1a7,7,0,0,0,.78-1.08c.35-.56.52-.85.67-1.15a12,12,0,0,0,.6-1.18,19.06,19.06,0,0,0,.86-2.51,21.88,21.88,0,0,0,.87-2.51,19.54,19.54,0,0,0,.28-2.64,19.32,19.32,0,0,0-.22-2.64,18.74,18.74,0,0,0-.42-2.58,17.26,17.26,0,0,0-.7-2.53,20.57,20.57,0,0,0-1.17-2.35,20.91,20.91,0,0,0-1.37-2.26c-.82-1.09-.84-1.1-1.62-2.25s-.84-1.12-1.57-2.31-.72-1.19-1.35-2.45-.65-1.24-1.16-2.54-.34-1.37-.78-2.69-.38-1.34-.66-2.72c-.15-.68-.22-1-.3-1.36a9.25,9.25,0,0,1-.24-1.39,23.86,23.86,0,0,1-.27-2.81,13.4,13.4,0,0,1,.07-1.41c0-.36,0-.71.14-1.41a23.51,23.51,0,0,1,.64-2.76c.35-1.35.26-1.37.67-2.7a25.27,25.27,0,0,1,.75-2.71c.53-1.31.62-1.27,1.23-2.54A23.46,23.46,0,0,1,153,14.15a14.07,14.07,0,0,0,.71-1.22,4.8,4.8,0,0,1,.77-1.19,25.14,25.14,0,0,1,2-2A24.77,24.77,0,0,1,158.65,8c1.1-.87,1.08-.9,2.24-1.7s1.17-.8,2.41-1.44,1.26-.6,2.53-1.21,1.27-.55,2.59-1,1.39-.25,2.73-.63,1.31-.45,2.67-.76,1.33-.43,2.7-.67,1.39-.12,2.77-.29S180.68.1,182.07,0s1.4.1,2.79.1,1.4,0,2.8.06,1.4.16,2.79.4,1.38.32,2.73.74l1.33.49a9.53,9.53,0,0,1,1.31.55,8.92,8.92,0,0,1,1.23.72c.31.18.59.41,1.18.8a13.72,13.72,0,0,1,2.22,1.74,13,13,0,0,1,2,2,14.38,14.38,0,0,1,2,2.08,5,5,0,0,1,.69,1.26c.14.33.26.67.55,1.32a16.47,16.47,0,0,1,.82,2.73c.32,1.37.63,1.32.81,2.75a18.33,18.33,0,0,1,0,2.87c-.11,1.42.37,1.55-.44,2.84C206.62,23.79,205.56,23.46,205.44,23.11Z"/><path class="cls-2" d="M140.57,236.31a16,16,0,0,1,3.66-.32,23,23,0,0,0,3.75,0c1.86-.11,2.78-.22,3.71-.27a34.83,34.83,0,0,0,3.7-.45c3.67-.68,3.67-.69,7.28-1.6,1.79-.51,2.69-.77,3.56-1.1s1.77-.59,3.51-1.25,2.61-1,3.46-1.38,1.71-.74,3.4-1.52c3.36-1.61,3.3-1.73,6.55-3.53s3.37-1.64,6.46-3.73a28.84,28.84,0,0,0,2.94-2.29c.71-.61,1.41-1.22,2.84-2.42,2.83-2.41,2.85-2.38,5.54-5s2.62-2.65,5-5.48c1.2-1.43,1.76-2.17,2.33-2.91s1.14-1.47,2.19-3a66.37,66.37,0,0,0,3.75-6.42c.84-1.66,1.25-2.49,1.59-3.35s.75-1.7,1.4-3.44.95-2.61,1.3-3.47.61-1.77,1.15-3.56c1-3.6,1-3.6,2-7.23s.67-3.68,1.4-7.35.65-3.67,1.2-7.36.76-3.68,1.09-7.41.12-3.75.33-7.49.36-3.73.48-7.48,0-3.76.07-7.51-.2-3.75-.26-7.49-.06-3.75-.18-7.5.09-3.76-.09-7.51-.4-3.74-.64-7.49,0-3.74-.5-7.45c-.25-1.85-.45-2.76-.65-3.67s-.43-1.81-.86-3.61a32.58,32.58,0,0,0-1.07-3.54c-.32-.86-.64-1.73-1.35-3.42L219.09,73a18.16,18.16,0,0,0-1.89-3.13,8.5,8.5,0,0,0-2.71-2.18,15.41,15.41,0,0,0-3.37-1.29,14.51,14.51,0,0,0-3.62-.5c-.46,0-.92,0-1.49,0a18.7,18.7,0,0,1-2.27-.12l-3.69-.41c-.46,0-.91-.07-1.47-.07a8.42,8.42,0,0,0-2.07.22,4.11,4.11,0,0,0-2.66,1.73,9.22,9.22,0,0,0-1.41,3.15,4.9,4.9,0,0,0,.09,3.2c.1.24.39.48.9.89a4.36,4.36,0,0,1,1.42,2.12A8.58,8.58,0,0,1,195,79a8.56,8.56,0,0,0,.08,1.43,5.15,5.15,0,0,0,.39,1.29,9.19,9.19,0,0,0,1,1.79,5.81,5.81,0,0,0,2.54,2.14,5.24,5.24,0,0,0,1.24.33,3,3,0,0,0,1.71-.39,8.17,8.17,0,0,1,2.29-.8,6.12,6.12,0,0,1,1.75,0,3.5,3.5,0,0,1,.83.17,4.12,4.12,0,0,1,.9.36A5.4,5.4,0,0,1,209.68,87a10.82,10.82,0,0,1,1.11,2.15c.22.59.37,1.06.5,1.53A22.36,22.36,0,0,1,212,94.5c.29,3.77.17,3.78.28,7.56.09,1.89.15,2.83.18,3.78s.08,1.89.06,3.79-.21,2.83-.31,3.77-.21,1.88-.42,3.76c-.35,3.76-.43,3.76-.95,7.5-.35,1.86-.52,2.79-.7,3.72-.08.46-.17.93-.27,1.51s-.31,1.27-.54,2.18c-.9,3.69-1,3.65-2.13,7.27l-1.24,3.58a31.92,31.92,0,0,1-1.38,3.53c-1.48,3.49-1.57,3.45-3.26,6.84-.89,1.67-1.43,2.46-1.91,3.27s-1,1.64-2,3.2a69.83,69.83,0,0,1-4.4,6.17c-1.17,1.5-1.85,2.17-2.44,2.9a33.1,33.1,0,0,1-2.57,2.81l-1.62,1.58c-.44.39-.81.69-1.18,1l-1.18,1-.75.65c-.3.23-.63.48-1,.78-1.49,1.17-2.24,1.76-3,2.27S177.6,180,176,181a66.88,66.88,0,0,1-6.62,3.69c-1.73.78-2.55,1.27-3.4,1.7a37.1,37.1,0,0,1-3.51,1.5c-1.83.56-2.76.78-3.69,1s-1.88.33-3.74.75l-3.76.62c-.94.12-1.9.17-3.8.32a46.37,46.37,0,0,1-7.63-.42c-3.74-.64-4,.07-7.4-1.7-.84-.44-.53-1.33.39-1.25,3.63.34,3.55.84,7.2,1.46,1.83.16,2.74.37,3.66.44a33.27,33.27,0,0,0,3.7.13c1.85-.15,2.78-.21,3.69-.35s1.83-.33,3.66-.64l3.62-.8,3.56-1.05,3.47-1.32c.86-.36,1.69-.77,3.39-1.53a64.37,64.37,0,0,0,6.5-3.61c1.59-1,2.29-1.6,3.05-2.13s1.46-1.15,2.92-2.3c.74-.57,1.28-1,1.71-1.39l1.16-1,1.15-1,1.58-1.55c1.34-1.29,1.91-2,2.54-2.72s1.27-1.36,2.42-2.82a67.39,67.39,0,0,0,4.27-6.1c1.06-1.53,1.55-2.32,2.07-3.1a36.16,36.16,0,0,0,1.94-3.18c1.66-3.34,1.7-3.33,3.16-6.76.37-.86.65-1.5.85-2.05s.32-1,.46-1.44c.27-.9.58-1.78,1.18-3.54,1.07-3.57,1.17-3.54,2-7.17.23-.9.41-1.57.55-2.14s.23-1,.33-1.48c.2-.91.41-1.82.76-3.65.52-3.69.6-3.68.94-7.4s.43-3.71.66-7.44c0-1.87,0-2.8.06-3.74,0-.47,0-.93,0-1.52s-.05-1.28-.08-2.22c-.11-3.73-.29-3.72-.58-7.45a23.31,23.31,0,0,0-.59-3.61,10.34,10.34,0,0,0-1.33-3.22,3.45,3.45,0,0,0-2.59-1.63,6,6,0,0,0-1.31,0,7,7,0,0,0-1.9.69,6.41,6.41,0,0,1-1.33.47,4.22,4.22,0,0,1-1.21,0,5.93,5.93,0,0,1-1.66-.5,8.13,8.13,0,0,1-3.06-2.67,9.63,9.63,0,0,1-1.16-2.07,6.35,6.35,0,0,1-.44-1.62,9.48,9.48,0,0,1-.05-1.62,7.8,7.8,0,0,0-.11-2.05,2.83,2.83,0,0,0-1-1.51,5.25,5.25,0,0,1-1.28-1.17,5.56,5.56,0,0,1-.4-4.17,11.46,11.46,0,0,1,1.58-3.72,6.26,6.26,0,0,1,1.15-1.31A6,6,0,0,1,196.06,64a11.31,11.31,0,0,1,2.39-.3c.62,0,1.1,0,1.59,0,1,.05,1.93.15,3.79.34.94.1,1.58.15,2.18.19s1.08.11,1.56.18a36.14,36.14,0,0,1,3.78.76A18.78,18.78,0,0,1,215,66.53a12.34,12.34,0,0,1,1.39.83A8.18,8.18,0,0,1,218.19,69c1.18,1.57,1.67,2.36,2.22,3.17a25.72,25.72,0,0,1,1.81,3.4,38.36,38.36,0,0,1,1.32,3.61c.27.92.55,1.83,1,3.68a30.85,30.85,0,0,1,.69,3.75c.11.94.22,1.88.48,3.76.45,3.75.68,3.74,1,7.51s.1,3.76.3,7.52.18,3.76.33,7.52.22,3.76.3,7.53.12,3.77.11,7.54-.06,3.78-.16,7.54-.12,3.76-.29,7.53-.46,3.75-.76,7.51-.29,3.76-.76,7.5-.4,3.76-1.09,7.48-.82,3.69-1.68,7.37-.91,3.66-1.94,7.29-1.13,3.61-2.45,7.17c-.66,1.78-1,2.65-1.39,3.53a32.54,32.54,0,0,1-1.59,3.46,67.19,67.19,0,0,1-3.83,6.56c-1.07,1.58-1.61,2.35-2.19,3.11s-1.13,1.53-2.35,3c-2.45,2.9-2.47,2.89-5.1,5.63s-2.85,2.52-5.73,5l-1.75,1.41-1.24.91c-.77.56-1.53,1.12-3.09,2.19-3.13,2.13-3.14,2.12-6.39,4.06s-3.16,2.12-6.59,3.76a33.22,33.22,0,0,1-3.51,1.45l-3.56,1.29a37.21,37.21,0,0,1-3.62,1.16c-.9.27-1.83.48-3.65,1-3.67.92-3.61,1.22-7.35,1.91-1.88.29-2.82.44-3.77.51s-1.89.22-3.78.33-2.86.28-3.82.37a13.26,13.26,0,0,1-3.79-.24C139.47,237.58,139.66,236.48,140.57,236.31Z"/><path class="cls-2" d="M175.83,338.56c-.2-2.25.42-2.16.93-4.3s.69-2.11,1.2-4.26l1-4.3c.51-2.15.4-2.17.9-4.32l.94-4.32c.49-2.16.37-2.18.85-4.34s.79-2.09,1.27-4.24.24-2.21.72-4.37.49-2.15,1-4.3l1-4.31c.46-2.16.53-2.15,1-4.31s.39-2.17.84-4.33.37-2.18.83-4.35.6-2.13,1-4.29c.2-1.07.28-1.61.35-2.14s.13-1.07.22-2.14c0-.53,0-.93,0-1.26l-.13-.83a4.59,4.59,0,0,0-.19-.8,5.75,5.75,0,0,0-.33-1.12,3.9,3.9,0,0,0-.48-1c-.08-.12-.14-.24-.21-.35l-.24-.26a5.13,5.13,0,0,0-.52-.55c-.25-.16-.5-.41-.92-.65s-.76-.41-1-.55-.52-.22-.76-.34a6.38,6.38,0,0,0-2-.56,34.81,34.81,0,0,0-4.34-.1c-2.19,0-2.19-.22-4.39-.17s-2.2.15-4.4.25-2.2.31-4.4.43l-4.42.2c-2.21.11-2.22-.13-4.43,0s-2.2.31-4.4.41-2.22-.09-4.43,0-2.2.26-4.41.36-2.21.21-4.42.29-2.22-.21-4.43-.14l-4.43.09c-2.21,0-2.21.34-4.42.36s-2.22-.15-4.43-.16h-4.42c-2.21,0-2.21-.12-4.42-.11s-2.22.13-4.44.09-2.23.05-4.45-.08-2.22-.24-4.44-.5-2.24-.18-4.45-.62a12,12,0,0,1-2.16-.64c-.53-.19-1.06-.4-2.13-.75l-2.14-.71a11.54,11.54,0,0,1-2.1-.88,20.72,20.72,0,0,1-3.7-2.67c-.45-.35-.75-.65-1-.89a7,7,0,0,1-.67-.64,15.79,15.79,0,0,1-1.51-1.71c-.67-.93-1-1.4-1.29-1.89a14.21,14.21,0,0,1-1.1-2,28,28,0,0,1-1.57-4.24,38.63,38.63,0,0,1-1.1-4.36c-.19-1.11-.26-1.67-.32-2.23s-.13-1.11-.21-2.23a21.59,21.59,0,0,1-.1-2.24v-2.23c0-2.23-.07-2.23,0-4.46s.06-2.23.26-4.45.35-2.2.64-4.4.37-2.2.74-4.39.38-2.18.82-4.36.13-2.24.62-4.41.71-2.11,1.25-4.26.51-2.16,1.1-4.3.67-2.12,1.29-4.25,0-2.38,1.29-4.22a.73.73,0,0,1,1.25.38c.06,2.26-.47,2.15-1.1,4.26s-.85,2.05-1.44,4.17-.46,2.16-1,4.29-.6,2.12-1.1,4.27-.46,2.15-.91,4.3-.44,2.16-.83,4.33-.22,2.19-.53,4.36-.4,2.16-.63,4.34-.2,2.19-.33,4.38,0,2.19,0,4.38c0,1.09,0,1.64-.06,2.18a13.74,13.74,0,0,0,0,2.19c.08,1.09.16,1.63.24,2.17s.15,1.08.34,2.15a36.81,36.81,0,0,0,1.14,4.18,27.64,27.64,0,0,0,1.53,4c.46,1,.71,1.44,1,1.9a12.16,12.16,0,0,0,1.13,1.8l.8,1,.6.62a7.21,7.21,0,0,0,.62.59c.25.22.53.51,1,.83a19.08,19.08,0,0,0,3.49,2.46c1,.49,1.44.73,1.94.94s1,.43,2,.79a36.13,36.13,0,0,0,4.22,1.05c2.13.43,2.14.39,4.3.69s2.18.19,4.37.35,2.18.26,4.38.33,2.2,0,4.4.05,2.21-.13,4.42-.14,2.23-.13,4.43-.12,2.2,0,4.41,0,2.2.15,4.41.11,2.21-.12,4.41-.19,2.2-.26,4.41-.34,2.21,0,4.41-.1,2.22.13,4.43,0,2.19-.35,4.4-.45,2.21,0,4.42-.07l4.42-.21c2.21-.11,2.2-.2,4.41-.32s2.2-.18,4.41-.28,2.22-.09,4.44-.16,2.22-.05,4.46,0a37.68,37.68,0,0,1,4.46.54,16,16,0,0,1,2.26.43l.91.26c.35.12.74.34,1.28.6a8.1,8.1,0,0,1,1.91,1.49,3.13,3.13,0,0,1,.62.78,5,5,0,0,1,.66,1.31,5.42,5.42,0,0,1,.36,1.38,5.13,5.13,0,0,1,.12,1c0,.29,0,.58,0,.94s0,.79,0,1.37c-.08,1.14-.13,1.7-.21,2.26s-.14,1.12-.35,2.22c-.42,2.19-.53,2.16-1,4.32s-.29,2.2-.74,4.36-.39,2.18-.84,4.35-.46,2.16-.91,4.33l-.93,4.32c-.47,2.16-.65,2.13-1.12,4.29s-.56,2.14-1,4.3l-1,4.31c-.49,2.16-.19,2.23-.68,4.38s-.67,2.12-1.17,4.28-.64,2.12-1.14,4.27-.21,2.23-.73,4.38-.58,2.13-1.1,4.29,0,2.31-1.09,4.29C176.94,339.47,175.88,339.13,175.83,338.56Z"/><path class="cls-2" d="M225.11,328.32c-.39-1.55.22-1.44.55-2.87s.5-1.38.83-2.81.32-1.42.65-2.85.23-1.45.56-2.87.27-1.44.6-2.86.21-1.45.55-2.88.63-1.35,1-2.78.1-1.48.43-2.9.35-1.42.71-2.84l.7-2.84c.33-1.42.4-1.41.73-2.83s.27-1.44.6-2.86.26-1.45.59-2.87.46-1.39.8-2.82l.66-2.85c.33-1.42.13-1.47.46-2.89s.33-1.43.65-2.85.62-1.36,1-2.79.16-1.46.49-2.89.52-1.38.85-2.8.25-1.45.58-2.87.13-1.47.46-2.9l.68-2.84c.33-1.43.57-1.37.9-2.8s.14-1.46.47-2.89.53-1.38.86-2.8.18-1.46.51-2.89.22-1.45.55-2.87.62-1.36.95-2.79.34-1.42.69-2.84,0-1.49.37-2.92.5-1.38.83-2.81l.66-2.85c.33-1.42.46-1.4.8-2.82s.22-1.46.57-2.88.24-1.44.59-2.86.41-1.4.73-2.82.2-1.44.48-2.86.48-1.39.7-2.82,0-1.46.16-2.89.33-1.41.37-2.85a27.12,27.12,0,0,0-.14-2.86,20,20,0,0,0-.51-2.78c-.18-.68-.26-1-.37-1.35a7.42,7.42,0,0,0-.48-1.31,10.71,10.71,0,0,0-1.5-2.3,9.54,9.54,0,0,0-1.93-1.93c-.54-.42-.83-.6-1.12-.79a6.4,6.4,0,0,0-1.22-.69,7.86,7.86,0,0,0-1.31-.51c-.34-.09-.66-.23-1.35-.41a28.18,28.18,0,0,0-2.79-.6c-1.41-.22-1.39-.37-2.82-.53s-1.44-.2-2.88-.32-1.45-.1-2.91-.14-1.46.27-2.91.24-1.46-.23-2.92-.24l-2.92.05c-1.46,0-1.46-.08-2.93-.07s-1.49.72-2.92,0a.94.94,0,0,1,0-1.31c1.41-.73,1.45-.18,2.91-.19s1.46.23,2.93.23,1.46-.13,2.92-.13,1.47.07,2.94.08,1.46,0,2.93.06,1.47.08,3,.16,1.48,0,2.95.13,1.46.31,2.93.55a26.72,26.72,0,0,1,2.91.69c.73.18,1.09.32,1.46.41a6.1,6.1,0,0,1,1.43.52A4.83,4.83,0,0,1,246,197l1.22.93a10.89,10.89,0,0,1,2.22,2.12,11.47,11.47,0,0,1,1.76,2.55,12.69,12.69,0,0,1,.57,1.44,12.88,12.88,0,0,1,.43,1.47,20.67,20.67,0,0,1,.39,3,27.41,27.41,0,0,1,.16,3c0,1.5-.19,1.49-.31,3s-.19,1.47-.39,2.93-.15,1.47-.41,2.92-.26,1.46-.57,2.89-.27,1.45-.61,2.88-.48,1.39-.83,2.81l-.7,2.84c-.34,1.42-.22,1.44-.55,2.87s-.21,1.45-.54,2.88l-.7,2.84c-.34,1.42-.5,1.38-.83,2.81s-.27,1.44-.6,2.86-.14,1.47-.47,2.89-.41,1.41-.74,2.84-.55,1.37-.89,2.8-.09,1.47-.43,2.9-.47,1.39-.8,2.82-.33,1.42-.67,2.84-.24,1.45-.57,2.87-.27,1.44-.6,2.87-.34,1.42-.67,2.85-.34,1.42-.67,2.85-.58,1.36-.91,2.79-.28,1.43-.61,2.86-.2,1.45-.53,2.88-.41,1.41-.74,2.83l-.64,2.85c-.33,1.43-.42,1.41-.75,2.83s-.18,1.46-.51,2.89-.27,1.44-.6,2.86-.32,1.43-.65,2.86l-.66,2.85c-.34,1.42-.51,1.38-.84,2.81s-.42,1.4-.75,2.83l-.66,2.85c-.33,1.42,0,1.49-.37,2.92s-.5,1.38-.83,2.81-.47,1.39-.81,2.81,0,1.5-.37,2.92-.4,1.41-.73,2.84.15,1.56-.71,2.84C226.28,329,225.2,328.71,225.11,328.32Z"/><path class="cls-2" d="M251.22,318.06c-.35-1.73.26-1.63.64-3.24s.54-1.58.91-3.2l.74-3.23c.38-1.61.28-1.64.65-3.25l.7-3.25c.37-1.61.25-1.64.63-3.26s.68-1.54,1.05-3.16.14-1.67.52-3.28l.8-3.22c.39-1.61.39-1.61.79-3.22s.45-1.6.82-3.22.31-1.63.69-3.24.3-1.64.67-3.25.51-1.59.89-3.2.38-1.62.75-3.23.18-1.66.55-3.28l.74-3.23c.38-1.62.66-1.55,1-3.17s.2-1.66.58-3.27.56-1.57.94-3.19.29-1.63.66-3.25.18-1.66.56-3.28l.76-3.22c.38-1.62.61-1.57,1-3.18s.19-1.66.56-3.28.58-1.57.95-3.18.23-1.65.6-3.27.27-1.64.64-3.26.66-1.55,1-3.16l.76-3.23c.37-1.62.08-1.68.43-3.29s.51-1.59.83-3.21l.6-3.24c.28-1.63.4-1.61.65-3.24s.1-1.65.3-3.29.07-1.65.21-3.28.2-1.64.27-3.28a9.18,9.18,0,0,0,0-1.61c0-.39-.09-.78-.17-1.55s-.14-1.16-.21-1.54a4.91,4.91,0,0,0-.42-1.51,5.12,5.12,0,0,0-.81-1.33l-1-1.18a11.37,11.37,0,0,0-2.19-2.25,16.89,16.89,0,0,0-2.79-1.56,25,25,0,0,0-3-1.09c-1.55-.47-1.55-.51-3.14-.88s-1.61-.24-3.23-.49-1.62-.25-3.25-.42-1.63-.24-3.28-.35-1.65,0-3.3-.1-1.66,0-3.31-.05-1.66-.18-3.32-.25l-3.31-.17-3.32-.13c-1.66-.06-1.67.25-3.33.19s-1.65-.28-3.31-.34l-3.32-.08c-1.66-.06-1.65-.15-3.31-.21s-1.72.66-3.3-.13a.85.85,0,0,1,0-1.3c1.63-.67,1.65-.12,3.31-.06s1.65.3,3.3.36,1.67-.06,3.32,0,1.66.12,3.31.19l3.32.1,3.31.14c1.66.07,1.66-.07,3.32,0s1.65.18,3.31.24l3.32.12c1.66.07,1.67-.07,3.34,0s1.65.33,3.31.48,1.67.13,3.33.37,1.69.08,3.34.41,1.66.37,3.29.86a24.57,24.57,0,0,1,3.15,1.3,18.2,18.2,0,0,1,3,1.67,7.5,7.5,0,0,1,1.32,1.14c.31.31.6.65,1.18,1.3a9.25,9.25,0,0,1,1,1.41,14,14,0,0,1,.81,1.55,16.71,16.71,0,0,1,.63,1.63,9.16,9.16,0,0,1,.4,1.69c.09.87.16,1.3.16,1.73a16.2,16.2,0,0,1,0,1.7c-.06,1.68,0,1.68-.14,3.35s-.27,1.65-.46,3.31-.2,1.66-.44,3.31-.12,1.67-.41,3.31-.16,1.67-.48,3.3-.37,1.63-.71,3.26-.52,1.59-.88,3.21-.31,1.64-.68,3.25-.19,1.66-.56,3.28-.45,1.6-.83,3.21-.6,1.57-1,3.18-.15,1.67-.52,3.29-.52,1.58-.9,3.2-.37,1.61-.75,3.23-.29,1.63-.66,3.25-.32,1.63-.69,3.25l-.76,3.23L267,257c-.37,1.61-.63,1.55-1,3.17s-.32,1.63-.7,3.24-.25,1.65-.62,3.27-.45,1.59-.83,3.21-.36,1.62-.73,3.24-.46,1.59-.84,3.21-.22,1.65-.59,3.27-.31,1.63-.69,3.24l-.74,3.24c-.38,1.61-.38,1.61-.75,3.23s-.55,1.58-.93,3.19-.46,1.6-.84,3.22-.37,1.61-.75,3.23-.08,1.68-.45,3.3-.55,1.57-.93,3.19-.51,1.59-.89,3.2-.08,1.69-.46,3.3-.44,1.6-.82,3.22.1,1.76-.8,3.23C252.37,318.8,251.3,318.5,251.22,318.06Z"/><path class="cls-2" d="M184.64,103.07c-.11.76-.25.16-.52.21s-.31-.11-.58-.06l-.54.11c-.27,0-.25.16-.53.19s-.26.09-.54.12-.26.16-.54.19-.3-.27-.57-.24-.26.26-.54.27-.28,0-.55,0-.28,0-.56,0a4.87,4.87,0,0,1-.55-.06c-.28,0-.28.07-.55.06s-.28.08-.56.07-.27-.14-.55-.14l-.55,0c-.27,0-.29.18-.56.16l-.56,0c-.27,0-.25-.3-.52-.34s-.29.14-.57.1-.24-.22-.52-.26-.28,0-.55,0-.31.15-.58.1l-.54-.12c-.28-.06-.23-.29-.5-.35s-.31.14-.58.08-.22-.27-.49-.34-.3.08-.57,0-.3,0-.56,0-.19-.35-.45-.44l-.51-.2c-.26-.08-.36.2-.62.11s-.21-.25-.47-.34l-.51-.2c-.26-.1-.21-.22-.47-.32s-.3,0-.56-.09-.3,0-.55-.11-.21-.2-.46-.32-.3,0-.55-.14-.15-.32-.4-.44-.32,0-.57-.1-.14-.32-.38-.45-.26-.1-.5-.24-.28-.06-.51-.21-.21-.19-.44-.33-.28-.08-.52-.23l-.45-.31c-.24-.15-.19-.22-.41-.38s-.26-.12-.48-.28-.26-.11-.48-.28-.15-.26-.37-.42-.18-.22-.39-.4l-.42-.36c-.21-.18-.41.06-.63-.12s-.07-.34-.26-.53-.23-.16-.43-.35-.14-.26-.34-.45-.72.31-.39-.38a4.32,4.32,0,0,1,.94-.92c.7-.33.31.06.5.24s0,.35.22.54.27.09.46.27.14.23.35.4l.41.33.39.35c.2.17.29.07.49.23s.14.25.35.41l.42.32c.21.15.29,0,.5.2s.08.34.31.48.25.1.47.25.32,0,.54.12l.45.28c.22.14.18.2.41.33s.25.1.48.22.16.26.39.39.21.17.44.29.28,0,.52.15.25.09.49.2.25.07.49.19.19.23.43.33l.49.2c.24.1.29,0,.53.09s.29,0,.53.08.24.12.49.2.19.25.44.33.28,0,.53.1.3-.1.56,0,.23.14.48.21.2.29.45.36.32-.17.57-.1.22.2.48.25l.52.11c.26,0,.27,0,.53,0a4.71,4.71,0,0,0,.53,0l.52.08.52.08c.26,0,.23.29.49.33s.27,0,.53,0,.28-.11.54-.09.26.1.52.12H177c.27,0,.27.09.53.1s.27-.16.53-.16.26-.06.52-.06a4.78,4.78,0,0,0,.53,0l.52,0c.26,0,.27.16.53.15s.27.07.54.06l.52-.07c.27,0,.23-.33.49-.36s.28.14.54.11.29.12.55.06.21-.34.46-.39.27,0,.53,0,.16-.53.53,0A5.45,5.45,0,0,1,184.64,103.07Z"/><path class="cls-2" d="M136.66,331.91c-.62-.63,0-.52.09-1s.26-.46.36-1,.09-.49.19-1,0-.52.09-1,0-.51.14-1,0-.53.08-1,.4-.44.5-.94-.14-.54,0-1,.15-.49.25-1,.13-.49.23-1,.17-.48.27-1,0-.51.14-1,0-.51.12-1,.23-.47.33-1l.2-1c.1-.5-.1-.54,0-1s.1-.49.19-1,.39-.44.48-.94-.07-.53,0-1,.28-.46.38-1,0-.51.12-1-.1-.54,0-1,.1-.5.21-1,.33-.45.43-.95-.09-.54,0-1,.3-.45.39-.95-.05-.53,0-1,0-.52.09-1,.38-.44.48-.94l.22-1c.1-.5-.19-.56-.09-1s.27-.47.37-1l.19-1c.1-.5.22-.47.32-1s0-.52.07-1,0-.52.09-1,.18-.48.28-1,0-.51.09-1,.33-.45.43-.95-.08-.53,0-1,.31-.46.41-1,.06-.5.16-1,0-.51.13-1,.14-.49.24-1,0-.52.11-1l.22-1c.1-.49.18-.48.27-1s0-.51.14-1,0-.51.14-1,.22-.47.32-1,.15-.49.25-1l.2-1c.1-.5-.21-.56-.11-1.05s.31-.46.41-1,.06-.5.16-1,.18-.48.28-1-.61-.64.2-1a2.3,2.3,0,0,1,1.29.24c.62.62.08.53,0,1s-.33.45-.43.95,0,.52-.08,1-.16.49-.26,1l-.18,1-.22,1c-.1.49,0,.52-.06,1s-.22.47-.32,1l-.2,1c-.1.5,0,.53-.07,1s-.31.46-.41,1,0,.5-.15,1,.08.53,0,1l-.19,1c-.09.5-.18.48-.28,1s-.06.5-.16,1-.24.47-.34,1-.14.49-.24,1,0,.52-.12,1-.09.51-.17,1-.05.5-.15,1-.23.47-.33,1-.1.5-.21,1,0,.52-.08,1,0,.52-.07,1-.14.49-.24,1-.27.46-.37,1,0,.51-.13,1,.1.53,0,1-.18.48-.28,1-.32.46-.42,1,.14.55,0,1-.25.46-.34,1l-.21,1c-.09.49,0,.51-.1,1s0,.51-.14,1l-.2,1-.2,1c-.1.49-.36.44-.46.94s0,.51-.14,1,0,.52-.07,1-.17.48-.27,1-.09.5-.17,1-.19.48-.29,1,.06.53,0,1,0,.51-.13,1-.1.5-.19,1l-.2,1c-.1.49-.27.46-.37,1s-.19.48-.29,1l-.2,1c-.09.5.21.56.11,1.06s-.28.46-.37,1-.24.46-.34,1,.19.56.09,1.06-.17.48-.26,1,.38.61-.25,1A2.73,2.73,0,0,1,136.66,331.91Z"/><path class="cls-2" d="M101,348.58c-.61-.67,0-.56.1-1.1s.28-.51.39-1.05l.2-1.08c.11-.54,0-.57.11-1.11s0-.55.16-1.09,0-.57.1-1.11.41-.48.52-1-.13-.59,0-1.13.16-.53.27-1.07.14-.53.25-1.08.18-.52.29-1.06,0-.56.15-1.1,0-.56.14-1.1.24-.51.35-1.05l.22-1.08c.11-.55-.1-.59,0-1.13s.1-.54.21-1.08.39-.48.5-1-.07-.57,0-1.11.29-.51.4-1.05,0-.56.13-1.1-.09-.58,0-1.12.12-.54.23-1.08.35-.49.45-1-.08-.58,0-1.13.31-.5.41-1,0-.57.07-1.11,0-.56.1-1.11.4-.48.5-1l.24-1.08c.11-.54-.18-.6-.07-1.14s.28-.51.38-1.05l.22-1.08c.1-.54.23-.52.34-1.06s0-.57.08-1.11,0-.56.11-1.1.19-.53.3-1.07,0-.56.11-1.1.33-.5.44-1-.07-.58,0-1.12.31-.5.42-1l.18-1.09c.11-.54,0-.55.15-1.09s.15-.54.26-1.08,0-.56.13-1.1.11-.54.23-1.08.19-.52.29-1.06.05-.56.16-1.1,0-.55.16-1.09.22-.52.33-1.06.17-.53.27-1.08l.22-1.08c.11-.54-.2-.6-.09-1.14s.32-.5.43-1,.07-.55.18-1.09.19-.53.29-1.07-.59-.69.23-1.08a2.18,2.18,0,0,1,1.28.24c.61.67.07.58,0,1.12s-.34.49-.45,1,0,.56-.09,1.1-.17.53-.28,1.07l-.2,1.09-.24,1.08c-.1.54,0,.56-.08,1.1s-.22.52-.33,1.07l-.22,1.08c-.11.54,0,.56-.09,1.1s-.32.51-.43,1-.06.55-.17,1.09.08.57,0,1.12l-.21,1.08c-.11.54-.19.53-.3,1.07s-.07.55-.17,1.09-.26.51-.36,1-.16.53-.26,1.08,0,.55-.14,1.09-.1.55-.19,1.09-.06.55-.17,1.09-.24.52-.35,1.06l-.22,1.08c-.11.54,0,.57-.1,1.11s0,.56-.09,1.11-.15.53-.26,1.07-.28.51-.39,1.05,0,.56-.14,1.1.08.58,0,1.12-.18.52-.29,1.07-.33.49-.44,1,.13.59,0,1.13-.25.52-.36,1.06l-.22,1.08c-.11.54,0,.56-.12,1.1s-.05.56-.16,1.1l-.22,1.08-.22,1.08c-.11.54-.36.49-.47,1s0,.56-.16,1.1,0,.57-.09,1.11-.18.52-.29,1.06-.1.55-.19,1.09-.2.53-.31,1.07,0,.57-.06,1.11,0,.56-.15,1.1l-.2,1.08-.22,1.09c-.11.54-.28.5-.39,1s-.19.53-.3,1.07l-.22,1.08c-.11.54.19.61.09,1.15s-.29.5-.39,1.05-.25.51-.36,1,.19.6.08,1.14-.18.53-.29,1.07.38.66-.26,1.08A2.44,2.44,0,0,1,101,348.58Z"/><path class="cls-2" d="M65.29,359.25c-.61-.68,0-.56.11-1.11s.27-.5.38-1L66,356c.11-.54,0-.56.12-1.1s.05-.55.15-1.1,0-.56.1-1.1.41-.48.52-1-.13-.59,0-1.13.16-.53.26-1.07.15-.54.26-1.08.18-.53.28-1.07,0-.55.15-1.09,0-.56.15-1.1.24-.51.35-1.06l.21-1.08c.11-.54-.09-.58,0-1.12l.2-1.09c.11-.54.39-.48.5-1s-.07-.58,0-1.12.3-.5.41-1,0-.56.13-1.1-.09-.58,0-1.12.11-.54.23-1.08.34-.5.45-1-.08-.58,0-1.12.31-.5.42-1,0-.57.06-1.11,0-.57.1-1.11.4-.48.51-1,.12-.54.23-1.08-.18-.6-.07-1.14.28-.51.39-1.05.1-.54.21-1.09.23-.51.34-1,0-.57.09-1.11,0-.56.11-1.1.19-.53.3-1.07,0-.56.1-1.1.34-.5.44-1-.07-.58,0-1.12.31-.5.42-1,.09-.55.19-1.09,0-.56.14-1.1.15-.53.26-1.07,0-.56.13-1.1.12-.54.23-1.08.19-.53.3-1.07,0-.55.15-1.09,0-.56.16-1.1.23-.52.34-1.06.16-.53.27-1.07l.22-1.08c.11-.54-.2-.6-.1-1.14s.32-.5.43-1,.07-.54.18-1.09.19-.52.3-1.06-.6-.69.22-1.08a2.1,2.1,0,0,1,1.28.24c.61.66.08.57,0,1.11s-.35.5-.45,1,0,.57-.1,1.11-.17.53-.28,1.07l-.2,1.08c-.11.54-.11.54-.23,1.08s0,.57-.09,1.11-.22.52-.33,1.06L77,307.54c-.11.55,0,.57-.09,1.11s-.31.5-.42,1-.07.55-.17,1.09.07.58,0,1.12l-.2,1.09c-.11.54-.2.52-.31,1.06s-.06.55-.17,1.09-.25.52-.36,1.06-.15.53-.26,1.07,0,.56-.14,1.1-.09.55-.19,1.09-.06.55-.17,1.09-.24.52-.35,1.06l-.22,1.08c-.11.54,0,.56-.1,1.11s0,.56-.09,1.1-.15.54-.26,1.08-.27.51-.38,1,0,.55-.15,1.09.08.58,0,1.12-.19.53-.3,1.07-.33.5-.44,1,.13.59,0,1.13-.25.51-.36,1.06l-.22,1.08c-.1.54,0,.56-.12,1.1s0,.55-.15,1.09-.12.55-.23,1.09L70.88,339c-.11.54-.36.49-.47,1s0,.55-.16,1.09,0,.57-.08,1.11-.19.53-.29,1.07l-.2,1.09c-.11.54-.2.52-.3,1.06s0,.58-.06,1.12,0,.55-.15,1.1-.11.54-.21,1.08l-.22,1.08c-.1.55-.28.51-.39,1.05s-.19.53-.3,1.07L67.83,353c-.1.54.2.6.09,1.15s-.28.5-.39,1-.25.51-.36,1.06.19.6.08,1.14-.18.53-.28,1.07.37.65-.27,1.08A2.54,2.54,0,0,1,65.29,359.25Z"/><path class="cls-2" d="M14.27,313.43c.72-1,1-.46,1.95-.82s1.05-.2,2.05-.56l2-.73c1-.36,1-.46,2-.82s1-.42,2-.78.95-.47,1.94-.83,1.11-.07,2.1-.43.91-.59,1.91-.95,1-.31,2-.67,1-.32,2-.68,1-.29,2-.65,1-.43,2-.79,1-.43,2-.79,1-.23,2-.59l2-.72c1-.36.93-.55,1.92-.91l2-.73c1-.36,1.09-.09,2.09-.45S51,300,52,299.64s1.06-.18,2.05-.54,1-.44,2-.8.92-.55,1.92-.91,1-.34,2-.7,1.08-.14,2.07-.5.93-.54,1.93-.9,1.06-.17,2.06-.53.94-.5,1.94-.86,1-.47,2-.83S71,293,72,292.62s1-.34,2-.7.89-.63,1.89-1,1-.2,2-.56l2-.73c1-.36,1-.23,2-.59s1-.49,2-.85,1-.46,2-.82,1-.28,2-.64,1-.46,2-.82,1.08-.15,2.07-.51.94-.53,1.93-.89,1.07-.16,2.06-.52,1-.4,2-.76,1-.43,2-.79,1-.31,2-.67,1-.45,2-.81,1-.34,2-.7,1-.28,2-.64,1-.42,2-.78,1-.42,2-.78,1-.24,2-.6,1-.31,2-.67l2-.72c1-.36.88-.65,1.88-1s1.07-.16,2.07-.52,1-.4,2-.76,1-.28,2-.64.78-1,2-.71a1.21,1.21,0,0,1,.45,1.23c-.72,1-.93.53-1.92.89s-1.08.13-2.08.49-1,.48-1.94.84-1,.3-2,.66l-2,.73-2,.7c-1,.36-1,.49-1.94.85s-1,.25-2,.61l-2,.71c-1,.36-1,.49-2,.85s-1.07.15-2.06.51-1,.41-2,.77-.93.53-1.92.89l-2,.73c-1,.36-1,.28-2,.64s-1,.4-2,.76-1,.22-2,.58-1,.32-2,.68-1,.43-2,.79-1,.39-2,.75-1,.4-2,.76-1,.23-2,.59l-2,.72c-1,.36-1,.47-2,.83s-1,.48-2,.84-1,.32-2,.68-1.06.2-2,.56-1,.42-2,.78-.93.55-1.92.91-1,.28-2,.64-1.07.15-2.07.51-.91.58-1.91.94-1,.23-2,.59l-2,.71c-1,.36-1,.45-2,.81s-1,.42-2,.78l-2,.71-2,.72c-1,.36-1.08.12-2.07.48s-1,.41-2,.77-1,.48-2,.84-1,.29-2,.65-1,.38-2,.74-1,.28-2,.64-.94.51-1.94.87-1,.42-2,.78l-2,.73-2,.72c-1,.36-1.06.19-2.06.55s-1,.28-2,.64l-2,.72c-1,.36-.89.65-1.89,1s-1.05.19-2.05.55-1,.23-2,.59-.89.64-1.89,1-1,.3-2,.66-.85.83-2,.67C14.44,314.75,14.09,313.69,14.27,313.43Z"/><path class="cls-2" d="M.09,269c-.21-.7,0-.12.05-.14s.11.14.16.13l.09-.05s0-.12.06-.13,0-.08.07-.09,0-.14,0-.15.16.27.2.25,0-.24,0-.26.06,0,.11,0,.06,0,.11,0,.07.05.12,0,0-.08.07-.1,0-.09.07-.1.09.11.14.09l.1,0s0-.21,0-.23l.09-.05s.15.26.2.24,0-.18,0-.2.11.16.16.15,0-.1.07-.12,0-.21,0-.22a.44.44,0,0,1,.1,0s.13.2.18.19,0-.2,0-.22.12.17.16.16,0-.17.05-.19,0-.12,0-.14.15.26.2.24,0,0,.1,0-.05-.3,0-.31.11.14.16.13,0,0,.09,0,.09.1.14.08,0-.14,0-.15,0-.12.06-.14.08.06.12,0,0-.12.06-.13.13.19.17.18,0-.19,0-.21.12.18.16.16,0-.05.09-.06,0-.09.07-.11.06,0,.11,0,0-.1.06-.12.06,0,.1,0,.08.06.13.05,0-.08.07-.1,0-.07.08-.09.08.1.13.08.07,0,.12,0l.09,0c.05,0-.06-.31,0-.33s.12.19.17.17,0-.06.08-.07.08.06.13,0-.2-.69.09,0c.08.17.4,1.06.45,1.23.2.7,0,.19,0,.21s-.13-.21-.18-.19,0,.13,0,.15-.07-.05-.12,0l-.09.05s-.06,0-.1,0,0,.14-.05.16-.09-.09-.14-.08l-.09,0s0,.14,0,.16-.13-.18-.17-.17,0,.06-.08.08,0,.19,0,.21a.42.42,0,0,1-.1,0s-.07-.06-.12,0,0,.05-.08.07-.1-.12-.15-.1-.06,0-.11,0,0,.09-.07.11,0,0-.08.06,0,.06-.08.08-.09-.11-.14-.1l-.1,0s0,.13,0,.15,0,.13-.06.15-.06,0-.11,0-.1-.15-.15-.13,0,.08-.07.1,0,.2,0,.22-.07-.06-.12,0-.13-.2-.17-.18,0,.24,0,.26-.09-.12-.14-.1l-.1,0c-.05,0,0,.1-.06.12s0,.08-.07.09l-.1,0-.1,0c-.05,0-.14-.23-.18-.21s0,.08-.08.09,0,.14,0,.16-.07-.05-.12,0,0,0-.09.06-.08-.07-.12-.05,0,.17,0,.18,0,.08-.08.1a.25.25,0,0,1-.09,0l-.09,0c-.05,0-.11-.15-.16-.13s-.08-.07-.12-.05l-.1,0c-.05,0,.06.31,0,.32s-.11-.14-.16-.13-.09-.12-.14-.1.06.3,0,.32-.07,0-.12,0,.12.48-.11,0C.51,270.22.14,269.18.09,269Z"/><path class="cls-2" d="M36.4,255.85c.08-.8.3-.23.63-.35s.39,0,.72-.08l.66-.25c.33-.12.29-.22.63-.34s.31-.17.64-.29.29-.24.62-.36.44.17.77,0,.25-.35.58-.47.35-.07.68-.19.35-.09.68-.21.36-.05.69-.17.31-.18.64-.3.31-.19.64-.31.38,0,.71-.11l.66-.24c.33-.12.26-.32.6-.44l.66-.25c.33-.12.43.16.76,0s.27-.29.6-.41.4.06.73-.06.3-.2.63-.33.27-.31.6-.43.34-.1.67-.22.41.1.74,0,.27-.3.6-.42.4.07.73-.05.28-.27.62-.39.29-.22.62-.34.43.15.76,0,.34-.1.67-.22.24-.4.57-.52.39.05.72-.07l.66-.25c.34-.12.38,0,.71-.12s.29-.24.62-.36.3-.23.63-.35.36,0,.69-.16.29-.22.63-.34.41.09.74,0,.27-.29.6-.41.4.08.73,0,.33-.15.66-.28.3-.19.64-.31.34-.07.68-.19.3-.21.63-.33.34-.1.67-.22.36,0,.69-.16.31-.18.64-.3.32-.18.65-.3.37,0,.7-.13.35-.06.69-.18l.66-.24c.33-.12.23-.42.56-.54s.4.09.74,0,.31-.16.65-.28.36,0,.69-.16.09-.8.66-.24a3.27,3.27,0,0,1,.45,1.23c-.07.8-.27.29-.6.41s-.41-.1-.75,0-.29.23-.62.35-.35.06-.68.18l-.66.26c-.33.12-.34.1-.67.22s-.29.25-.62.37-.37,0-.7.13l-.67.24c-.33.12-.28.24-.62.36s-.4-.08-.73,0-.32.16-.65.28-.27.29-.6.41l-.66.25c-.33.12-.36,0-.7.16s-.31.16-.65.28-.38,0-.71.1-.35.08-.68.2-.3.2-.64.32-.32.14-.65.26-.31.17-.65.29-.38,0-.71.11l-.66.24c-.33.12-.29.23-.63.35s-.29.24-.62.36-.34.08-.68.2-.39,0-.72.08-.31.18-.64.3-.26.31-.6.43-.35,0-.69.17-.41-.1-.74,0-.25.35-.58.47-.38,0-.71.1l-.67.24c-.33.12-.3.21-.63.33s-.31.18-.64.3l-.67.23-.66.24c-.34.12-.42-.13-.76,0s-.31.18-.64.3-.29.24-.62.36-.36,0-.69.17-.32.14-.66.26-.36,0-.69.16-.28.27-.61.39-.31.18-.64.3l-.66.25-.67.24c-.33.12-.39,0-.72.08s-.36,0-.69.15l-.67.24c-.33.12-.23.41-.56.53s-.39,0-.72.08-.38,0-.72.1-.23.4-.56.53-.35.05-.69.17-.16.59-.68.2A4.09,4.09,0,0,1,36.4,255.85Z"/><path class="cls-2" d="M33.46,345.42c.86-1.11,1.11-.55,2.27-1s1.22-.29,2.38-.74l2.32-.91c1.16-.45,1.12-.55,2.29-1s1.14-.51,2.3-1,1.11-.56,2.27-1,1.28-.16,2.44-.61,1.07-.68,2.23-1.13,1.18-.4,2.34-.85,1.18-.42,2.34-.87,1.19-.38,2.35-.83,1.14-.51,2.3-1,1.13-.53,2.29-1,1.21-.32,2.37-.77l2.33-.9c1.16-.45,1.08-.64,2.25-1.09l2.31-.91c1.17-.45,1.27-.18,2.43-.63s1.1-.62,2.26-1.07,1.23-.27,2.39-.72,1.13-.53,2.29-1,1.09-.64,2.25-1.09l2.33-.89c1.16-.45,1.25-.22,2.41-.67s1.09-.64,2.25-1.09,1.24-.26,2.4-.71,1.1-.59,2.27-1,1.12-.56,2.28-1,1.26-.18,2.43-.63,1.17-.43,2.33-.88,1-.72,2.21-1.17,1.23-.29,2.39-.74l2.32-.91c1.16-.45,1.21-.33,2.37-.78s1.11-.57,2.28-1,1.12-.55,2.28-1,1.19-.38,2.35-.83,1.12-.55,2.29-1,1.24-.24,2.4-.69,1.1-.62,2.26-1.07,1.24-.25,2.4-.7,1.15-.49,2.31-.94,1.13-.52,2.29-1,1.18-.4,2.34-.85,1.13-.54,2.29-1,1.17-.43,2.33-.88,1.2-.38,2.36-.83,1.14-.5,2.3-.95,1.14-.51,2.3-1,1.21-.34,2.37-.79,1.18-.4,2.34-.85l2.33-.89c1.16-.45,1-.75,2.21-1.2s1.24-.25,2.4-.7,1.15-.49,2.31-.94,1.19-.37,2.35-.82.93-1.13,2.32-.89a1.07,1.07,0,0,1,.48,1.22c-.87,1.11-1.09.61-2.25,1.06s-1.25.23-2.41.68-1.12.57-2.28,1-1.18.39-2.34.84l-2.32.91c-1.16.45-1.17.43-2.33.88s-1.11.58-2.27,1-1.21.34-2.37.79l-2.32.9c-1.16.45-1.12.57-2.28,1s-1.24.25-2.4.7-1.14.49-2.3.94-1.1.63-2.26,1.08l-2.32.91c-1.16.45-1.19.37-2.35.82s-1.15.48-2.31.93-1.21.32-2.38.77-1.17.41-2.33.86-1.14.52-2.3,1-1.15.48-2.31.93-1.14.49-2.31.94-1.21.33-2.37.78l-2.32.89c-1.16.45-1.12.56-2.28,1s-1.12.57-2.28,1-1.18.41-2.34.86-1.22.29-2.38.74-1.14.52-2.3,1-1.09.63-2.25,1.08-1.19.38-2.35.83-1.25.24-2.41.69-1.07.67-2.24,1.12-1.21.32-2.37.77l-2.33.89c-1.16.45-1.12.54-2.29,1s-1.13.51-2.3,1l-2.32.89-2.33.9c-1.16.45-1.25.21-2.41.66s-1.14.51-2.3,1-1.12.57-2.28,1-1.19.38-2.35.83-1.15.47-2.31.92-1.2.37-2.36.82-1.1.6-2.27,1.05-1.13.51-2.3,1l-2.31.91-2.33.9c-1.16.45-1.22.29-2.39.74s-1.19.36-2.35.81l-2.33.91c-1.16.45-1.05.73-2.21,1.18s-1.22.29-2.39.74-1.21.31-2.37.76-1.05.74-2.22,1.19-1.18.38-2.35.83-1,.93-2.34.86C33.6,346.75,33.24,345.7,33.46,345.42Z"/><path class="cls-3" d="M23.87,216.8c.59.39.77.62.88.92a3.33,3.33,0,0,0,.56,1.15A10.8,10.8,0,0,0,27,220.79a11.31,11.31,0,0,0,2.14,1.38,8.22,8.22,0,0,0,1.22.49,5.38,5.38,0,0,1,1.34.66,3.6,3.6,0,0,1,1.15,1.25,4.18,4.18,0,0,1,.47,1.55c.12,1.47.19,1.41.24,2.77s-.27,1.35-.24,2.7.28,1.34.32,2.68l0,2.7,0,2.69c0,1.35,0,1.35,0,2.7s.11,1.34.14,2.69.12,1.35.15,2.69-.1,1.35-.06,2.7,0,1.35.07,2.69.24,1.35.28,2.69l.08,2.7c0,1.34-.25,1.35-.22,2.7s.22,1.34.25,2.69-.15,1.35-.12,2.7.12,1.35.1,2.73a20.38,20.38,0,0,1-.06,2.81,10.3,10.3,0,0,1-.31,1.41,11.75,11.75,0,0,1-.48,1.38,7.93,7.93,0,0,1-1.79,2.36c-.51.52-.77.79-1,1a4.49,4.49,0,0,1-1.2.85,13.12,13.12,0,0,1-2.72.84,21.42,21.42,0,0,1-2.69.73c-1.38.19-1.36.3-2.75.41s-1.39-.23-2.76-.23-1.36-.05-2.73-.14a25.88,25.88,0,0,1-2.78-.05,16.4,16.4,0,0,1-2.69-.84A10.88,10.88,0,0,1,9,279.38a7.3,7.3,0,0,1-1.27-.73,4.76,4.76,0,0,1-1.09-1.06,8.15,8.15,0,0,1-.75-1.34c-.28-.69-.38-1-.5-1.37a7.16,7.16,0,0,1-.29-1.39c-.14-1.39-.23-1.38-.29-2.74s0-1.32,0-2.67-.19-1.34-.27-2.69.14-1.36.06-2.71-.26-1.34-.34-2.69.12-1.36,0-2.7-.08-1.35-.15-2.7-.12-1.35-.17-2.7,0-1.35,0-2.7-.12-1.34-.15-2.7l0-2.7c0-1.35.07-1.35.06-2.7s-.07-1.35-.06-2.7-.06-1.35-.05-2.7.12-1.36.2-2.74a13.36,13.36,0,0,1,.51-2.77,8.28,8.28,0,0,1,1.21-2.61,14.23,14.23,0,0,0,.77-1.22,4.07,4.07,0,0,1,.88-1.13c1-.94,1.19-.76,2.25-1.62s1-.86,2-1.72a11.44,11.44,0,0,0,1.82-1.79,2.21,2.21,0,0,0,.42-1.18c0-.31.17-.53.67-1,.27-.23,1.2-.06,1.27.34a1.87,1.87,0,0,1-.2,1.52c-.21.34-.53.6-1,1.2-.91,1.15-1.11,1-2.12,1.9s-1,1-2,1.83-1.09.78-2.06,1.65a12.48,12.48,0,0,0-.89.93,9.2,9.2,0,0,0-.77,1,7,7,0,0,0-1.06,2.23A11.81,11.81,0,0,0,5.35,233c-.08,1.3-.18,1.3-.2,2.65l0,2.69c0,1.34.13,1.34.13,2.69s-.21,1.34-.19,2.69.06,1.34.08,2.69.21,1.34.25,2.68l.08,2.69c0,1.35,0,1.35,0,2.69l.16,2.69c.07,1.34-.07,1.35,0,2.69l.12,2.69c.08,1.34.16,1.34.24,2.68s.09,1.34.19,2.69.14,1.38.18,2.71-.09,1.34,0,2.65a12.11,12.11,0,0,0,.21,1.27A6.16,6.16,0,0,0,7,275.76a2.67,2.67,0,0,0,.65.95,9.54,9.54,0,0,0,.91.74,3.84,3.84,0,0,0,1.08.56l1.18.41a15.57,15.57,0,0,0,2.48.65,24,24,0,0,0,2.58.5c1.32.09,1.33,0,2.65.05s1.32-.19,2.63-.26,1.32,0,2.61-.2a20.29,20.29,0,0,0,2.6-.32,12,12,0,0,0,2.3-1.13c.54-.29.82-.42,1.08-.57a3.61,3.61,0,0,0,1-.74,6.68,6.68,0,0,0,1.32-2,5.35,5.35,0,0,0,.36-1.2c.07-.31.12-.62.23-1.25a18.33,18.33,0,0,0,.17-2.58c0-1.31,0-1.31,0-2.65s0-1.35-.07-2.69.23-1.36.19-2.7-.09-1.35-.13-2.7-.17-1.34-.2-2.69,0-1.35,0-2.69l-.09-2.7c0-1.35.05-1.35,0-2.7s-.2-1.34-.24-2.69-.1-1.35-.14-2.69l-.08-2.7c0-1.35,0-1.35-.07-2.7s.14-1.35.1-2.7,0-1.35,0-2.69l-.08-2.7c0-1.33-.31-1.4-.41-2.6a7.06,7.06,0,0,0-.18-1,1.37,1.37,0,0,0-.58-.78c-.46-.31-.76-.46-1-.62s-.59-.32-1.23-.64c-1.23-.67-1.4-.42-2.55-1.3a12.18,12.18,0,0,1-2-2.09c-.85-1.13-1.32-.93-1.5-2.45C22.53,217,23.57,216.61,23.87,216.8Z"/><path class="cls-3" d="M20.51,212.16c-.73-.35-.11-.37-.12-.74s.17-.37.17-.74l0-.75c0-.37-.11-.37-.11-.74s-.06-.37-.07-.75-.12-.37-.12-.74.3-.37.3-.75-.25-.37-.25-.74.05-.37.05-.74,0-.38,0-.75.07-.37.07-.74a3.33,3.33,0,0,0-.1-.62c0-.16-.1-.08-.15-.14s0-.16-.18-.2a4.58,4.58,0,0,0-.63,0c-.37,0-.36.23-.73.26l-.74.06c-.37,0-.39-.26-.77-.24s-.36.21-.73.23-.38-.16-.75-.14-.37.11-.74.14-.36.22-.73.25l-.74,0c-.37,0-.39-.22-.76-.19s-.36.22-.73.24-.39-.18-.76-.15-.36.18-.73.21-.36.14-.74.16-.39-.27-.76-.24l-.69,0c-.18,0,0,.29-.07.3l0,0S8,203.91,8,204s0,.24,0,.48-.13.38-.13.75.13.33.13.44.07.06.1.09l0,0c.07,0,0,.09.14.09l.13,0,.15,0a.86.86,0,0,1,.37,0c.37,0,.37.23.74.23s.38-.18.75-.17.37.21.74.22.37,0,.75,0,.37-.07.74-.07.37.06.75.06.35-.09.78-.07a2.44,2.44,0,0,1,1,.25c.53.33.5.44.77.92a2.67,2.67,0,0,1,.28.95c0,.43.07.42.08.79s-.13.38-.13.75-.06.37-.06.74v.75c0,.37.31.37.31.74s-.22.38-.22.75,0,.37,0,.74-.09.38-.09.75.72.38,0,.74a3.21,3.21,0,0,1-1.31,0c-.72-.37-.18-.37-.18-.75s.25-.37.25-.74-.12-.37-.12-.74.06-.38.06-.75v-.74l0-.75c0-.37-.13-.37-.13-.74s.12-.37.12-.75,0-.38,0-.69-.16-.29-.21-.44.12-.24,0-.34-.21,0-.5,0-.35.17-.71.17h-.75c-.37,0-.37-.09-.74-.1s-.38,0-.75,0-.37-.15-.74-.16-.37-.05-.74-.05-.38.07-.75.07H8.12c-.62,0-.64,0-1.29,0H6.58c0-.44.12-.6.12-1.06v-1c0-.37-.12-.37-.12-.74a1.35,1.35,0,0,0-.07-.38,3.17,3.17,0,0,1-.06-.67c0-.55,0-.64,0-1.07h.25c.67,0,.76.12,1.35.08s.4-.1.79-.12.36-.22.73-.25.38,0,.75,0,.39.2.76.18.36-.27.73-.29.38.12.75.09l.74,0c.37,0,.37-.12.74-.14s.37-.09.74-.12l.74,0,.74,0c.38,0,.39.23.77.2s.36-.08.73-.11.37-.15.74-.18.37,0,.75,0a5.44,5.44,0,0,1,.85,0,1.33,1.33,0,0,1,.54.16,3,3,0,0,1,.49.34,5.66,5.66,0,0,1,.43.43,1,1,0,0,1,.26.54A5.86,5.86,0,0,1,22,204v1.49c0,.37-.17.37-.17.74s-.09.38-.08.75v.75c0,.37.31.36.31.74s-.17.37-.17.74-.14.38-.13.75.3.37.3.74-.07.38-.06.75.5.37,0,.74A3.54,3.54,0,0,1,20.51,212.16Z"/><path class="cls-3" d="M42.8,267.41c.67.64,0,.56.06,1.12,0,.28,0,.4,0,.55a.82.82,0,0,0,.08.54,3.2,3.2,0,0,0,.6.91c.39.4.47.32.93.65a5.67,5.67,0,0,0,1.06.49c.55.25.61.11,1.18.3s.51.47,1.12.6.66-.11,1.29,0,.61.13,1.25.2.63.08,1.27.13.63.09,1.27.12.65-.06,1.29-.07.64-.08,1.29-.1.65.12,1.29.08l1.29-.09c.65,0,.63-.25,1.28-.31s.64-.07,1.28-.13.68.22,1.32.14.63-.25,1.27-.34.67.1,1.31,0,.63-.18,1.27-.28.61-.3,1.26-.41.65-.08,1.26-.2.66.11,1.24-.06.49-.38,1-.64.58-.14,1-.5a1.25,1.25,0,0,0,.36-.46c.06-.14.16-.25.29-.48.32-.44.18-.51.38-1a.91.91,0,0,1,.25-.46.89.89,0,0,0,.17-.53,4.25,4.25,0,0,0-.2-1.1c-.24-.53-.48-.4-.78-.86s-.19-.58-.6-1a6.58,6.58,0,0,0-.9-.76c-.5-.32-.42-.45-1-.72s-.6-.12-1.16-.33a9.8,9.8,0,0,0-1.21-.18c-.6-.1-.59-.18-1.21-.25s-.64.06-1.27,0-.64-.24-1.29-.26-.66.17-1.31.16-.65-.23-1.31-.25-.65,0-1.3,0-.65.06-1.3.05-.65-.06-1.29-.05-.64.1-1.28.13-.64,0-1.28.07-.64,0-1.27.06-.63.16-1.27.26-.62.17-1.25.29-.65,0-1.27.15-.64.1-1.25.28-.61.18-1.2.4-.48.52-1,.77-.63.07-1.13.4a5.29,5.29,0,0,0-.85.78,4.23,4.23,0,0,0-.71.87c-.25.54.45.71-.38,1.05a1.9,1.9,0,0,1-1.28-.26c-.53-.9,0-.82.33-1.48s.59-.54,1.06-1.09.43-.61,1-1a8.36,8.36,0,0,1,1.26-.65,13.64,13.64,0,0,1,1.26-.54c.63-.24.64-.21,1.28-.42s.61-.31,1.27-.48.68,0,1.33-.17l1.31-.23c.65-.11.62-.24,1.29-.33s.69.12,1.35.06.67-.1,1.33-.14.66-.21,1.33-.22h1.32c.66,0,.66.09,1.32.1s.66,0,1.31,0,.65.17,1.3.18.65.06,1.3.08.66-.07,1.33-.05.66,0,1.34.06.68,0,1.36.13a12.91,12.91,0,0,1,1.32.46,9.79,9.79,0,0,1,1.3.52,8.88,8.88,0,0,1,1.28.62c.56.44.66.32,1.17.83a3.12,3.12,0,0,1,.48.56c.1.15.23.28.43.6.4.62.23.72.52,1.39a5.15,5.15,0,0,1,.38,1.46,3.22,3.22,0,0,0,.06.79,2.31,2.31,0,0,1-.08.8,4.87,4.87,0,0,1-.78,1.37,1.39,1.39,0,0,1-.56.51,3.55,3.55,0,0,0-.6.42c-.56.43-.39.66-1,1a6.71,6.71,0,0,1-1.4.45,10.91,10.91,0,0,1-1.34.33c-.67.13-.65.22-1.3.32s-.63.17-1.28.28l-1.31.18-1.3.18c-.66.09-.69-.17-1.34-.09s-.65.14-1.3.21-.64.2-1.3.26-.66,0-1.32,0-.66.07-1.32.11-.66-.06-1.32,0-.66.17-1.32.19-.67.06-1.33.06l-1.34,0c-.67-.05-.67,0-1.34-.09s-.65-.24-1.31-.34-.66-.19-1.32-.31-.66-.16-1.31-.33-.76.1-1.42-.2-.57-.47-1.19-.83-.52-.53-1-1a2.43,2.43,0,0,0-.58-.51,1.26,1.26,0,0,1-.5-.63,2,2,0,0,1-.21-.76,4.79,4.79,0,0,1-.09-.78c-.06-.75-.51-.82.1-1.49C41.55,267,42.63,267.25,42.8,267.41Z"/><path class="cls-3" d="M74.21,272.31c.75.44.14.49.16,1s-.14.51-.12,1l.06,1c0,.5.13.49.16,1s.08.5.1,1,.15.49.18,1-.29.52-.26,1,.26.49.29,1,0,.5,0,1,0,.5,0,1-.05.5,0,1,.09.5.12,1c0,.25,0,.4,0,.64a1.45,1.45,0,0,1-.24.85,1.28,1.28,0,0,1-.7.52l-.63.16-1,.31c-.49.14-.43.35-.93.48s-.49.15-1,.27-.56-.16-1.06-.05-.46.28-1,.38-.54-.09-1,0-.49.17-1,.25-.47.27-1,.34-.51.05-1,.11-.53-.19-1-.13-.49.23-1,.28-.52-.17-1-.13-.49.18-1,.21-.5.14-1,.16-.52-.27-1-.26h-1c-.5,0-.5.31-1,.32s-.51-.17-1-.17h-1c-.51,0-.5-.14-1-.15s-.51.12-1,.1-.51.08-1,.06-.51-.12-1-.16-.52.06-1,0-.48-.29-1-.36-.53.12-1,0-.47-.29-1-.39-.5-.06-1-.18-.52,0-1-.17a3.2,3.2,0,0,1-.66-.23,1.19,1.19,0,0,1-.56-.55c-.16-.35-.2-.62-.25-.71a2.63,2.63,0,0,1-.14-.51c-.07-.51-.07-.52-.13-1s0-.52,0-1-.1-.51-.14-1-.1-.51-.13-1,.1-.51.07-1,0-.5,0-1l0-1c0-.5-.33-.48-.36-1s.2-.51.17-1-.07-.49-.1-1,.05-.5,0-1-.77-.41-.11-1a2.42,2.42,0,0,1,1.3-.18c.78.4.25.49.3,1s-.2.53-.16,1,.16.5.19,1,0,.51,0,1l.06,1,0,1c0,.5.16.49.18,1s-.09.5-.06,1l.06,1c0,.49.16.49.21,1s-.17.51-.11,1,.11.48.18,1a1.09,1.09,0,0,0,.31.62.11.11,0,0,0,.08.07l.24.05c.47.13.45.21.93.32s.48.07,1,.16.46.24.94.32.48.12,1,.2.5,0,1,0,.49,0,1,.07.5,0,1,0,.48.17,1,.19l1,0c.5,0,.5-.11,1-.1s.5-.12,1-.13.49,0,1,0,.5.16,1,.15.5-.09,1-.1.5-.21,1-.23.5.05,1,0,.51.2,1,.17.48-.27,1-.31.5.11,1,.06l1-.1c.49-.06.48-.14,1-.21s.49-.12,1-.2l1-.14,1-.18c.49-.09.54.16,1,.06s.47-.17,1-.28.45-.25.92-.38.49-.06,1-.19.46-.17.93-.32a1,1,0,0,1,.37-.09.2.2,0,0,0,.18-.08.16.16,0,0,0,0-.21s-.08-.11-.09-.36c0-.5-.09-.49-.12-1l-.06-1c0-.5,0-.5,0-1s.16-.51.13-1,.07-.51,0-1,0-.5,0-1-.33-.48-.35-1,.15-.51.13-1,.12-.51.09-1-.32-.48-.35-1,0-.5,0-1-.52-.48,0-1A2.69,2.69,0,0,1,74.21,272.31Z"/><path class="cls-3" d="M286.05,95.83c-.63-.94,0-.9.08-1.79s.27-.87.37-1.76l.18-1.78c.1-.89,0-.9.1-1.79s0-.89.14-1.78,0-.91.08-1.79.41-.86.51-1.75-.14-.91,0-1.8.15-.89.26-1.78.12-.88.25-1.77.18-.88.29-1.77.05-.89.16-1.78,0-.9.15-1.79.25-.87.37-1.76l.24-1.77c.13-.89-.08-.92.05-1.81l.24-1.77c.13-.89.41-.85.55-1.73s-.05-.92.09-1.8.33-.86.47-1.74,0-.9.2-1.79a3.27,3.27,0,0,0,0-.9,1.3,1.3,0,0,0,0-.34.08.08,0,0,0-.06-.09h-.31c-.89,0-.9-.22-1.79-.19s-.89.22-1.78.24-.91-.17-1.8-.15-.89.19-1.78.21-.89.14-1.79.17-.9-.27-1.8-.24l-1.79,0c-.89,0-.88.32-1.77.34s-.9-.14-1.8-.12l-1.79.06a.94.94,0,0,1-.31,0l-.15,0c-.09,0-.31-.12-.22.12a1.62,1.62,0,0,0,.06.22l0,.08,0,.15a4.67,4.67,0,0,1,.19.88c.12.89.23.88.35,1.76s0,.9.15,1.79.23.88.34,1.76-.11.92,0,1.81.29.87.4,1.75-.1.92,0,1.81.13.88.25,1.77.18.88.29,1.77.06.89.16,1.78.19.88.3,1.77l.18,1.78c.1.89,0,.9.12,1.79s.16.89.26,1.78.15.88.25,1.77,0,.91.06,1.8,0,.89.13,1.79l.17,1.78c.08.89.39.86.48,1.76s-.14.91-.07,1.8.12.9.18,1.79,0,.91,0,1.8.77.89.09,1.8a1.38,1.38,0,0,1-1.31,0c-.77-.82-.22-.87-.27-1.75s.18-.91.12-1.79-.19-.88-.27-1.77,0-.9-.08-1.78-.09-.89-.19-1.78-.07-.89-.15-1.78-.22-.88-.31-1.76,0-.91-.07-1.79l-.19-1.78c-.09-.89-.22-.88-.32-1.76s.11-.92,0-1.8-.14-.89-.24-1.77-.29-.87-.39-1.76l-.22-1.77c-.11-.89,0-.9-.13-1.79l-.26-1.77c-.11-.89,0-.9-.07-1.79s-.07-.89-.18-1.78-.19-.88-.3-1.76l-.26-1.77c-.11-.89-.16-.88-.28-1.77s0-.9-.1-1.79L270.55,57c0-.17-.06-.33-.08-.47l0-.2s.09,0,.14,0l.55-.06.58-.06.76,0c.9,0,.89-.15,1.79-.17h1.79c.89,0,.9.14,1.79.11s.89-.09,1.79-.12.89-.22,1.78-.24.9,0,1.79,0,.9.2,1.8.18.88-.27,1.78-.29.9.12,1.79.09l1.79,0,.74,0a1.82,1.82,0,0,1,.58,0,1,1,0,0,1,.85.92,2.82,2.82,0,0,1,0,.89c0,.28,0,.34-.05.46s0,.45-.11.89l-.3,1.76-.28,1.76c-.13.88-.39.84-.52,1.73s-.07.89-.2,1.77,0,.91-.13,1.79-.19.88-.32,1.76l-.22,1.77c-.12.89-.2.88-.32,1.76s0,.91-.07,1.8,0,.89-.16,1.78l-.2,1.77L289.39,80c-.1.89-.28.87-.39,1.75s-.19.88-.29,1.77l-.21,1.78c-.1.89.21.92.11,1.81s-.28.87-.38,1.76-.24.87-.34,1.76.2.92.1,1.81-.16.88-.26,1.77.39,1-.24,1.78C287.31,96.22,286.21,96.06,286.05,95.83Z"/><path class="cls-3" d="M276.09,97.28c.19-.76.28-.15.56-.18s.3.14.59.11l.57,0c.28,0,.28-.13.56-.14s.29-.08.58-.09.28-.13.57-.14.29.31.58.31.28-.24.57-.24.29.06.58.07.28,0,.57.06.28.09.57.11.29,0,.58,0,.29,0,.58,0,.27.16.55.2l.57.07c.28,0,.32-.16.6-.11l.57.08c.29,0,.23.34.51.4s.52-.12.94.1.23.43.39.81a2.42,2.42,0,0,1,.12.86c0,.28.19.29.17.57s0,.28-.05.56-.26.27-.28.55.18.29.16.57-.22.27-.24.55.14.29.12.57.09.29.07.57-.3.19-.33.65a1.64,1.64,0,0,1-.29.79c-.28.29-.13.54-.59.69a.91.91,0,0,1-.52,0,1.6,1.6,0,0,0-.39-.1h-.56c-.28,0-.28-.14-.56-.14s-.28.13-.57.13-.28.1-.56.1-.28-.08-.56-.09-.28.11-.56.11-.28-.23-.56-.24-.28.18-.56.18-.28-.21-.56-.21-.28,0-.56,0-.29.07-.57.07-.28-.06-.56-.06-.28.09-.56.09l-.56,0c-.28,0-.28-.09-.56-.09a2.31,2.31,0,0,0-.37,0,1.8,1.8,0,0,1-.47,0c-.41-.1-.48,0-.77-.39s-.07-.49-.17-.92,0-.31-.07-.59-.05-.28-.11-.56-.36-.21-.42-.48.16-.32.1-.6-.09-.26-.15-.54,0-.29,0-.57-.76-.13-.11-.54a4.07,4.07,0,0,1,1.29-.27c.76.12.23.24.29.51s-.18.33-.13.6.18.25.24.53,0,.28.05.56.06.27.13.55l.09.55c0,.26.19.28.24.49s-.1.12-.07.22.06.08.15.08a.11.11,0,0,0,.11-.06s0-.06.19-.06.27.21.56.22.28,0,.56,0,.28-.19.56-.18h.56c.28,0,.28.09.56.09s.28,0,.56,0,.28.15.56.15.28,0,.57,0,.28-.08.56-.08.28,0,.56,0,.28,0,.56,0,.28.14.56.14h.56c.28,0,.28-.12.56-.12s.29-.12.57-.11.16,0,.17,0a.08.08,0,0,0,.06,0c.05,0,.18.17.26.08s0-.14,0-.23-.18-.19-.17-.44.1-.28.12-.56.25-.26.26-.54-.22-.29-.2-.57.17-.27.18-.55l0-.56c0-.28-.07-.29,0-.57s-.05-.28,0-.56c0-.1,0-.07,0-.13s0-.06-.06-.09.08-.25-.08-.28-.28,0-.56,0-.29.08-.56,0-.26-.12-.53-.16l-.55,0c-.27,0-.26-.12-.53-.15s-.29.13-.56.11-.28,0-.56,0l-.54,0-.55,0c-.27,0-.27-.19-.54-.19s-.27-.09-.55-.1h-.55c-.28,0-.27.31-.54.32s-.28-.17-.56-.15-.28-.13-.55-.11-.26.32-.53.34-.28,0-.55,0-.22.53-.55,0A5.14,5.14,0,0,1,276.09,97.28Z"/><path class="cls-3" d="M221.53,179.58c.35-1.34.8-.92,1.67-1.78s1-.74,1.82-1.62.83-.9,1.66-1.8.73-1,1.53-1.91.76-1,1.55-1.9.7-1,1.51-1.95,1-.74,1.85-1.66.64-1.09,1.48-2,.85-.87,1.63-1.77.78-.93,1.52-1.89.79-.94,1.51-1.93.66-1,1.37-2,.63-1.05,1.33-2.06.81-.93,1.5-1.95l1.38-2c.69-1,.52-1.13,1.2-2.15s.67-1,1.35-2.05.92-.87,1.6-1.89.52-1.13,1.2-2.16.83-.92,1.5-2,.6-1.07,1.27-2.11.5-1.14,1.16-2.17l1.35-2.06c.66-1,.86-.9,1.53-1.93s.5-1.14,1.16-2.18.84-.92,1.5-2,.53-1.12,1.2-2.16.54-1.08,1.19-2.13.89-.9,1.55-1.94.68-1,1.37-2.07.46-1.19,1.2-2.2.9-.9,1.71-1.86a18.17,18.17,0,0,1,1.8-1.82,5.2,5.2,0,0,1,1.09-.75l.47-.26.75-.33a20.68,20.68,0,0,1,2.38-.89c1.24-.28,1.22-.4,2.47-.6s1.26-.09,2.5-.2,1.24-.2,2.48-.27,1.24.17,2.46.11,1.21-.25,2.41-.36,1.22.09,2.41-.11a20.87,20.87,0,0,0,2.34-.54,5,5,0,0,0,1.08-.39c.26-.1.49-.28,1-.53a11.12,11.12,0,0,0,1.86-1.39,17.68,17.68,0,0,0,1.54-1.79c.76-.93.77-.92,1.47-1.9s.76-1,1.41-2,.6-1.07,1.23-2.12.58-1.08,1.22-2.14l.6-1a3.1,3.1,0,0,0,.43-1,3.56,3.56,0,0,0,.12-.93.67.67,0,0,0-.08-.41h-.12a5.69,5.69,0,0,0-.87.06,9.41,9.41,0,0,0-1.14.21c-1.16.29-1.06.61-2.22,1s-1.22.18-2.37.59l-2.3.88c-1.16.42-1.19.34-2.37.74s-1,1.08-2.38.71c-.34-.09-.58-1-.34-1.26.92-1,1.09-.5,2.25-.87s1.23-.17,2.38-.58,1.11-.53,2.27-.95,1.19-.36,2.36-.75a25.06,25.06,0,0,1,2.41-.73,9.89,9.89,0,0,1,1.28-.23,8.81,8.81,0,0,1,1.6-.06l.5,0a4.84,4.84,0,0,1,.51,1.56,3.47,3.47,0,0,1-.07,1.36,4.54,4.54,0,0,1-.52,1.27l-.67,1.13-1.27,2.1c-.64,1-.53,1.12-1.19,2.17s-.86.93-1.56,2-.69,1-1.48,2a18.83,18.83,0,0,1-1.6,2,12.82,12.82,0,0,1-2.07,1.63,5.81,5.81,0,0,1-1.23.56c-.32.1-.66.23-1.27.38a23.12,23.12,0,0,1-2.46.58c-1.25.21-1.27,0-2.51.18s-1.24.06-2.48.14-1.23.14-2.45.2-1.22.09-2.43.18-1.2.16-2.39.32a23.49,23.49,0,0,0-2.38.33,19.29,19.29,0,0,0-2.27.71,4.89,4.89,0,0,0-.57.29l-.36.28c-.23.17-.43.37-.88.74a16.36,16.36,0,0,0-1.56,1.75c-.77.91-.8.89-1.53,1.84s-.85.88-1.54,1.88-.62,1.06-1.28,2.08-.48,1.14-1.12,2.19-.71,1-1.38,2.06-.85.91-1.51,2-.46,1.16-1.13,2.2-.79,1-1.45,2-.67,1-1.33,2.07-.59,1.08-1.26,2.12-.61,1.06-1.28,2.1-.68,1-1.35,2.05l-1.35,2.06c-.67,1-.89.89-1.57,1.92s-.63,1.06-1.3,2.08-.57,1.1-1.26,2.13-.75,1-1.43,2-.68,1-1.37,2.05-.76,1-1.46,2-.57,1.11-1.28,2.12-.66,1-1.38,2l-1.46,2-1.53,2c-.83,1-1,.87-1.79,1.76s-.89.84-1.71,1.76l-1.61,1.85c-.79.93-.56,1.13-1.35,2.06s-.93.83-1.74,1.76-.92.84-1.75,1.76-.61,1.13-1.46,2-.91.84-1.79,1.73-.55,1.24-1.81,1.69C222.18,180.76,221.45,179.92,221.53,179.58Z"/><path class="cls-3" d="M275.66,93.47c-.26.87-.48.29-1,.51s-.58.08-1.06.35-.48.29-.95.6-.4.41-.85.75-.4.4-.84.76-.34.46-.75.85-.63.16-1,.57-.23.58-.63,1-.44.38-.83.81-.42.4-.81.83-.45.39-.84.82-.35.48-.75.91-.34.49-.74.92-.5.34-.89.77l-.81.85c-.4.43-.25.57-.65,1l-.8.86c-.4.42-.62.22-1,.64s-.28.55-.69,1-.54.29-1,.72-.35.47-.76.89-.26.56-.67,1l-.83.83c-.42.42-.59.25-1,.66s-.28.56-.69,1-.56.28-1,.69-.31.52-.73.93-.34.5-.75.91-.62.21-1,.61l-.86.81c-.42.41-.21.62-.63,1s-.54.28-1,.69l-.84.82c-.43.41-.52.31-.94.72s-.33.5-.75.9-.35.49-.78.89-.48.34-.91.75-.35.48-.77.88-.59.24-1,.64-.31.54-.73.94-.57.24-1,.64l-.84.83c-.43.4-.37.45-.8.85s-.47.36-.9.76-.37.47-.8.86l-.87.78c-.43.4-.49.34-.92.74s-.39.44-.83.83-.38.44-.82.84-.52.3-1,.7-.47.35-.9.74l-.88.79c-.43.39-.22.62-.66,1s-.58.24-1,.63-.41.42-.85.81-.49.33-.93.72,0,.94-.87.78a2,2,0,0,1-.87-1c-.07-.92.31-.52.74-.91s.6-.21,1-.6.35-.48.78-.88.48-.34.92-.73l.85-.8.88-.77c.44-.39.35-.49.78-.89s.51-.3.94-.69l.87-.79c.43-.4.34-.49.78-.89s.57-.23,1-.63.4-.43.83-.82.31-.54.74-.93l.85-.8c.43-.4.49-.34.91-.74s.4-.43.83-.83.53-.29,1-.69.45-.36.88-.77.37-.45.8-.85l.83-.83c.42-.4.39-.44.81-.84s.52-.3.94-.71l.85-.8c.42-.41.34-.49.76-.9s.34-.49.76-.9.45-.37.87-.78.53-.29.95-.7.37-.45.79-.86.28-.55.7-1,.47-.36.88-.77.58-.25,1-.66.25-.58.66-1,.52-.31.93-.72l.83-.83c.41-.41.34-.48.75-.9s.36-.46.77-.88l.82-.83.82-.84c.4-.42.59-.24,1-.66s.37-.46.77-.88.31-.52.71-.94.45-.38.85-.8l.79-.87c.39-.43.46-.37.86-.8s.28-.53.67-1,.35-.48.74-.91l.78-.87c.39-.44.39-.44.79-.87s.53-.32.94-.75.47-.37.89-.79l.85-.83c.44-.4.24-.63.69-1s.58-.26,1.06-.63.57-.25,1.06-.59.35-.59.88-.91.59-.24,1.15-.5.41-.72,1.16-.41A2.37,2.37,0,0,1,275.66,93.47Z"/><path class="cls-3" d="M289.53,104.23c.13-.72.11-.11.22-.11s.11.18.22.17l.22,0c.11,0,.1-.11.21-.12s.1-.07.21-.09.09-.13.19-.15.17.29.28.26.06-.25.16-.28.12,0,.23,0,.12,0,.22,0,.13,0,.24,0,.09-.1.19-.14.08-.11.19-.15.15.09.26,0l.21-.09c.1-.05,0-.24.12-.28s.1-.06.2-.11.23.21.34.16,0-.21.12-.27.19.12.3.06.06-.13.16-.19,0-.23.1-.29.1,0,.2-.1.23.14.33.08,0-.23.09-.29.21.1.31,0,0-.2.11-.27,0-.16.13-.23.27.18.37.11.11,0,.21-.12-.08-.31,0-.38.2.07.3,0l.19-.15c.1-.07.17,0,.27,0s0-.18.12-.25,0-.16.14-.23.14,0,.24-.08,0-.16.14-.23.23.11.33,0,0-.22.1-.3.22.1.32,0,.09-.1.19-.17.06-.13.16-.2.13,0,.24-.1.05-.15.16-.22l.22-.12c.11-.07.15,0,.26-.06s.07-.12.18-.19.08-.11.2-.18.18,0,.31,0,.15,0,.28-.07l.28-.1c.14,0,.06-.34.23-.38s.21.18.38.16.18,0,.38,0,.18.11.37.17.55-.55.35.19a8.55,8.55,0,0,1-.72,1.09c-.4.6-.09.15-.13.13s0-.24,0-.25-.06.12-.12.12-.08-.06-.16,0a1.66,1.66,0,0,0-.16.06,1.21,1.21,0,0,0-.18,0c-.09,0,0,.16-.13.2s-.14-.06-.23,0l-.2.12c-.1.06,0,.17-.13.23s-.22-.12-.32-.06-.07.1-.17.17,0,.22-.1.28l-.19.14c-.1.07-.15,0-.24.07s-.08.1-.18.17-.18,0-.28,0-.12,0-.22.1,0,.14-.15.21-.08.09-.18.16-.07.11-.17.19-.18,0-.28,0l-.2.14c-.1.07,0,.17-.12.24s0,.17-.13.25-.13,0-.23.11-.2-.07-.3,0-.06.13-.16.2,0,.23-.09.31-.15,0-.26.07-.23-.12-.33,0,0,.27-.08.34-.19,0-.29,0l-.22.13c-.11.07-.06.14-.17.21s-.08.12-.19.19l-.23.11-.23.12c-.12.06-.23-.17-.35-.11s-.09.11-.2.17-.06.17-.18.23-.15,0-.27,0-.11.07-.23.12-.15,0-.27,0-.07.2-.19.25-.11.1-.23.14a1.34,1.34,0,0,1-.26.09l-.25.08c-.14,0-.18-.14-.31-.11s-.14-.06-.27,0l-.26,0c-.13,0-.09.32-.22.34s-.16-.16-.29-.15-.15-.13-.28-.12-.12.31-.26.32-.14-.07-.28-.07-.16.49-.27-.06A11.86,11.86,0,0,1,289.53,104.23Z"/><path class="cls-3" d="M289.93,100.52c0-.74.1-.12.22-.14s.14.15.26.13l.24,0c.12,0,.1-.13.22-.16s.1-.08.22-.1.09-.15.21-.18.19.27.31.24.05-.27.17-.3.13,0,.24,0,.13,0,.24,0,.14,0,.26,0,.1-.09.21-.14.09-.12.2-.16.17.08.28,0l.23-.09c.12,0,0-.24.15-.29l.22-.11c.11-.05.23.22.35.16s0-.21.15-.27.19.12.31.07.07-.13.19-.19,0-.24.13-.29l.23-.1c.11-.06.22.15.34.09s0-.23.13-.29.21.13.32.07,0-.2.15-.26.06-.16.17-.22.26.19.37.13.12,0,.23-.1,0-.32.09-.38.2.09.31,0l.22-.13c.12-.06.18,0,.29,0s0-.18.17-.24.06-.16.18-.22.15,0,.27,0,.06-.15.18-.22.22.15.33.09,0-.22.16-.28.21.12.32.06.1-.08.22-.14.09-.12.21-.18.14,0,.26-.07.08-.14.2-.19.13,0,.25-.1.16,0,.28,0,.09-.11.22-.16.11-.11.25-.16.18.07.32,0,.15,0,.3,0l.29,0c.15,0,.12-.34.3-.36s.18.21.35.22a1.45,1.45,0,0,1,.36,0c.19,0,.17.12.34.18s.52-.56.33.17a8.57,8.57,0,0,1-.68,1.12c-.41.6-.12.14-.19.11s0-.25-.06-.27-.1.11-.18.1-.08-.06-.17-.06a1.06,1.06,0,0,0-.19,0,.75.75,0,0,0-.21,0c-.1,0-.07.16-.17.18s-.14-.08-.25,0l-.22.08c-.1,0-.06.17-.17.22s-.2-.15-.31-.1-.1.09-.21.14,0,.22-.15.28l-.22.11c-.12,0-.15,0-.27,0s-.09.09-.21.15-.17-.07-.29,0-.13,0-.24.08-.08.12-.19.18-.1.09-.21.15-.09.1-.21.16-.17-.06-.29,0l-.22.12c-.12.06-.06.16-.17.22s-.06.17-.17.23-.13,0-.25.09-.19-.09-.3,0-.08.12-.2.19,0,.23-.13.29-.15,0-.27.06-.22-.14-.34-.08,0,.27-.11.33-.19-.07-.3,0l-.24.12c-.12.06-.07.14-.19.2s-.09.12-.21.18a2.44,2.44,0,0,1-.24.1l-.24.12c-.12,0-.23-.18-.35-.13s-.09.11-.22.17-.06.17-.19.22-.15,0-.27,0-.12.07-.24.12-.16,0-.28,0-.07.2-.2.25-.1.11-.23.15l-.25.1-.26.08c-.13,0-.19-.13-.31-.09s-.16,0-.29,0l-.26.07c-.13,0-.06.32-.2.35s-.17-.14-.3-.11-.16-.12-.3-.09-.08.32-.22.34-.15,0-.28,0-.09.51-.28,0A9.35,9.35,0,0,1,289.93,100.52Z"/></g></g></svg>