<svg xmlns="http://www.w3.org/2000/svg" viewBox="0 0 287.75 193.1"><defs><style>.cls-1{fill:#286e73;}.cls-2{fill:#b4b5aa;}</style></defs><g id="Layer_2" data-name="Layer 2"><g id="Artwork"><polygon class="cls-1" points="39.95 0 23.23 147.43 270.87 147.43 287.75 0 39.95 0"/><path class="cls-2" d="M63.39,114.41c1.22-.91,1.36-.39,2.75-.65s1.42-.11,2.82-.33,1.39-.24,2.79-.43,1.39-.29,2.8-.46,1.4-.21,2.81-.35,1.41-.23,2.82-.34,1.43.19,2.85.1,1.4-.27,2.82-.32,1.42,0,2.83,0,1.42,0,2.84.06,1.41.08,2.83.15,1.41,0,2.83.08,1.42,0,2.83.14,1.4.26,2.81.39l2.8.29c1.4.14,1.41,0,2.82.08l2.81.25c1.41.15,1.38.41,2.79.57s1.43,0,2.83.22,1.38.39,2.78.66,1.4.22,2.79.54,1.43.17,2.82.6a18.94,18.94,0,0,1,2.71,1.09,11.81,11.81,0,0,1,2.4,1.77c.58.47.86.74,1.15,1a4.91,4.91,0,0,1,1,1.2,7,7,0,0,1,.39.84c.07.23.11.42.16.61.1.37.13.76.27,1.5a11.71,11.71,0,0,0,.25,1.38,4.37,4.37,0,0,0,.41,1,1,1,0,0,0,.72.47c.26,0,.58.08,1.28.18a9.65,9.65,0,0,1,1.32.28,3.19,3.19,0,0,0,1.3.1,4.74,4.74,0,0,0,1.2-.31,4.24,4.24,0,0,0,1.06-.68c1-.88.76-1.13,1.79-2.14s1.15-.87,2.26-1.8a27.55,27.55,0,0,1,2.31-1.71c1.21-.79,1.27-.68,2.51-1.39s1.21-.78,2.51-1.38a19.26,19.26,0,0,1,2.68-1.14,21.45,21.45,0,0,1,2.84-.61c1.41-.25,1.4-.34,2.83-.51s1.43.06,2.85,0,1.41-.26,2.83-.31,1.42.16,2.84.14,1.42,0,2.84,0,1.42,0,2.84.08,1.41.16,2.83.3,1.42.07,2.83.27,1.4.22,2.8.48,1.38.34,2.77.63,1.4.27,2.78.63,1.39.32,2.75.74,1.32.54,2.66,1,1.32.53,2.64,1,1.31.54,2.61,1.09,1.42.31,2.71.9,1.2.78,2.47,1.41,1.29.6,2.55,1.25,1.21.74,2.45,1.43,1.59.15,2.44,1.42c.22.32-.22,1-.6,1-1.5-.13-1.28-.56-2.49-1.26s-1.12-.87-2.36-1.52-1.29-.56-2.55-1.18-1.23-.67-2.5-1.27-1.28-.57-2.56-1.13-1.28-.57-2.58-1.08-1.35-.4-2.66-.88-1.28-.56-2.61-1-1.33-.41-2.67-.79-1.38-.24-2.74-.55-1.33-.49-2.7-.74-1.39-.2-2.77-.42-1.41,0-2.79-.18-1.39-.14-2.79-.24-1.38-.16-2.78-.23-1.4,0-2.79,0-1.4-.13-2.8-.08-1.4,0-2.8.1-1.39.17-2.78.31-1.38.19-2.74.42a24.11,24.11,0,0,0-2.66.68,19.22,19.22,0,0,0-2.59.87c-1.26.59-1.27.58-2.49,1.24s-1.15.77-2.31,1.52a27.44,27.44,0,0,0-2.15,1.72c-1.05.88-1.08.85-2.08,1.8s-1,.9-2.15,1.9a6.26,6.26,0,0,1-1.29.87,4.42,4.42,0,0,1-1.52.46c-.78.09-1.15.1-1.53.13a6.85,6.85,0,0,1-1.48-.07,7.79,7.79,0,0,1-1.49-.32,2.82,2.82,0,0,1-1.52-1.14,2.92,2.92,0,0,1-.45-1.63,12.19,12.19,0,0,0-.08-1.42,3.54,3.54,0,0,0-.42-1.24c-.08-.14-.15-.29-.24-.46s-.23-.38-.37-.66c-.33-.53-.49-.81-.68-1.07a4.18,4.18,0,0,0-.89-1,9.82,9.82,0,0,0-2.24-1.43,18.24,18.24,0,0,0-2.57-.93c-1.31-.41-1.33-.34-2.67-.69s-1.37-.33-2.72-.61-1.37-.27-2.74-.49-1.35-.43-2.75-.61-1.39-.1-2.79-.24-1.41,0-2.82-.15-1.39-.19-2.8-.33l-2.81-.27c-1.4-.14-1.39-.24-2.79-.35s-1.41,0-2.81-.06-1.4,0-2.8-.09-1.4,0-2.8-.07-1.4,0-2.8,0-1.4-.14-2.81-.12-1.4,0-2.81,0l-2.8.17c-1.4.11-1.38.37-2.77.5s-1.41,0-2.8.14-1.41,0-2.81.23-1.35.47-2.73.68-1.39.18-2.77.42-1.31.72-2.76.5C63.25,115.63,63.08,114.64,63.39,114.41Z"/><path class="cls-2" d="M62.29,111.38c-.43-1.43.13-1.37.39-2.73s.42-1.32.72-2.67.29-1.34.62-2.68.24-1.36.58-2.69.3-1.35.66-2.68.26-1.36.64-2.68.65-1.24,1-2.56.18-1.38.59-2.69.45-1.3.86-2.62l.86-2.61c.43-1.3.49-1.28.92-2.59s.37-1.32.81-2.62.37-1.33.82-2.63.56-1.26,1-2.56l.9-2.59c.46-1.3.28-1.36.75-2.65l.91-2.59c.47-1.29.72-1.2,1.19-2.49s.32-1.35.8-2.64.64-1.22,1.12-2.51.41-1.31.9-2.6.32-1.35.81-2.63l1-2.56c.5-1.28.7-1.2,1.2-2.48s.34-1.34.85-2.62.68-1.21,1.19-2.48.38-1.33.9-2.6.43-1.31,1-2.58.78-1.17,1.31-2.43l1.1-2.52c.55-1.26.31-1.37.88-2.63s.71-1.19,1.31-2.44c.31-.62.46-.93.63-1.25l.29-.51c.07-.11.11-.19.25-.38a1.48,1.48,0,0,1,.6-.45C94,25.27,94,25.4,95.34,25s1.28-.54,2.6-.93,1.3-.5,2.63-.86,1.37-.26,2.71-.59,1.32-.4,2.68-.68,1.39-.08,2.75-.33,1.34-.37,2.7-.59,1.4,0,2.77-.17,1.37-.18,2.74-.32,1.37-.16,2.75-.25,1.38-.05,2.76-.08,1.38-.11,2.77-.13l2.76.08c1.38,0,1.38.1,2.76.21s1.38.05,2.76.16,1.38.11,2.75.28,1.37.26,2.73.52l2.71.54c1.35.29,1.34.31,2.69.63s1.42,0,2.75.43,1.28.58,2.6,1,1.32.43,2.62.91a26,26,0,0,1,2.55,1.09c1.26.56,1.57,0,2.52,1.12.24.29-.13,1.05-.5,1.06-1.48.07-1.3-.39-2.54-.94a25.22,25.22,0,0,0-2.45-1.2c-1.27-.46-1.3-.38-2.59-.82s-1.28-.45-2.59-.84-1.31-.35-2.63-.67-1.32-.35-2.65-.64-1.36-.12-2.7-.36-1.32-.33-2.67-.51l-2.7-.34c-1.36-.1-1.37,0-2.73-.08s-1.34-.3-2.71-.33l-2.72,0c-1.37,0-1.37.19-2.73.22s-1.36,0-2.72.12-1.36,0-2.72.1-1.35.19-2.7.34-1.38,0-2.72.21l-2.71.38c-1.34.25-1.32.33-2.66.6s-1.34.27-2.66.6l-2.63.69c-1.32.36-1.35.26-2.66.63S97,25.52,95.7,26s-1.28.55-2.52,1c-.13,0-.34.52-.46.77s-.26.61-.56,1.22c-.59,1.22-.62,1.2-1.19,2.45s-.7,1.18-1.25,2.43-.48,1.29-1,2.55-.37,1.33-.9,2.59-.59,1.24-1.1,2.51-.71,1.19-1.23,2.46-.31,1.35-.82,2.63-.62,1.22-1.13,2.5l-1,2.55c-.49,1.28-.41,1.31-.91,2.59s-.43,1.3-.92,2.58l-1,2.56-1,2.57c-.47,1.29-.69,1.21-1.16,2.5s-.42,1.3-.89,2.59-.36,1.33-.82,2.62-.52,1.27-1,2.56-.44,1.3-.89,2.6-.52,1.27-1,2.56-.3,1.35-.74,2.65-.38,1.32-.8,2.62-.43,1.3-.85,2.6l-.83,2.62c-.41,1.3-.56,1.26-1,2.57S68.38,91.67,68,93l-.77,2.63c-.38,1.31-.11,1.39-.48,2.71s-.52,1.27-.86,2.6-.47,1.29-.8,2.62-.06,1.39-.36,2.72-.36,1.32-.62,2.66.17,1.43-.53,2.67C63.38,111.94,62.4,111.74,62.29,111.38Z"/><path class="cls-2" d="M165.83,22.9a5,5,0,0,1,1.87-1.13c.54-.14,1.08-.31,2.12-.63s1.57-.49,2.1-.63,1.05-.3,2.1-.55l2.11-.55a20.92,20.92,0,0,1,2.12-.49c2.14-.39,2.11-.56,4.26-.86s2.15-.39,4.31-.59,2.16-.33,4.33-.45,2.18.18,4.35.13,2.17-.22,4.34-.2l4.34.23,4.32.36c2.16.21,2.15.3,4.3.53s2.16.24,4.3.55,2.15.29,4.29.67,2.1.55,4.23,1,2.1.51,4.21,1,2.14.41,4.23,1a12.27,12.27,0,0,1,2.16.82,5.23,5.23,0,0,1,1.95,1.6,3.86,3.86,0,0,1,.61,1.46,4,4,0,0,1,0,1,18.6,18.6,0,0,1-.36,2.28c-.47,2.15-.35,2.14-.81,4.25s-.64,2.07-1.11,4.18-.4,2.12-.87,4.23-.29,2.14-.77,4.25-.49,2.1-1,4.21-.72,2-1.24,4.15-.37,2.13-.9,4.23-.73,2-1.3,4.13-.43,2.12-1,4.2-.48,2.11-1.09,4.18-.85,2-1.46,4.07-.63,2.07-1.25,4.14-.37,2.14-1,4.21-.77,2-1.39,4.09l-1.22,4.13c-.61,2.07-.72,2-1.32,4.11s-.48,2.11-1.07,4.18-.49,2.1-1.06,4.18-.64,2.06-1.19,4.14-.46,2.11-1,4.2-.72,2-1.22,4.14c-.25,1-.33,1.58-.41,2.11-.05.27-.09.54-.14.87,0,.17-.08.36-.12.58-.08.37-.17.78-.28,1.25-.06.23-.11.45-.16.66a.57.57,0,0,1,0,.14l-.13-.08-.26-.14-.89-.49-.66-.38-.35-.22a18.22,18.22,0,0,0-1.85-1.09c-1.92-1-2-.91-3.88-1.85s-2-.8-4-1.66-2-.83-4-1.61-2.06-.63-4.09-1.31-2-.65-4.1-1.22-2.05-.63-4.15-1.09c-1.05-.23-1.57-.33-2.1-.43l-2.12-.32c-2.11-.34-2.11-.31-4.24-.52s-2.12-.38-4.26-.45-2.14-.21-4.28-.14l-2.14,0a18.45,18.45,0,0,0-2.14.12,13.93,13.93,0,0,0-2.11.34c-.53.12-1,.21-2.1.4-2.1.36-2.15.09-4.24.53s-2.08.5-4.14,1.05-2.07.57-4.1,1.22-1.78,1.42-4,1.58a.63.63,0,0,1-.48-1.07c1.71-1.39,2-1,4-1.77s2.14-.46,4.22-1.12,2.08-.62,4.2-1.14,2.16-.32,4.3-.69c1.07-.19,1.62-.21,2.16-.27l2.17-.2,1.29-.11h.88l2.18,0c2.17-.07,2.17-.1,4.35,0s2.17.24,4.33.45,2.16.24,4.31.59c1.07.18,1.61.24,2.15.3s1.08.17,2.14.4c2.13.47,2.09.63,4.18,1.21s2.11.5,4.17,1.19,2.14.46,4.16,1.25,2.06.71,4.05,1.57,2,.89,3.95,1.82,2,.88,3.92,1.86c1,.5,1.43.79,1.89,1.07l.36.21.09.06,0,0,.07,0,.19.12s.09.06.1,0l0-.14.9-3.73c.5-2.1.45-2.12,1-4.21s.53-2.1,1-4.2.5-2.1,1.07-4.19.68-2.05,1.28-4.13L219.68,96c.6-2.07.49-2.1,1.1-4.18s.51-2.1,1.13-4.17.64-2.06,1.27-4.12.77-2,1.39-4.09.56-2.08,1.17-4.15.44-2.12,1-4.19.66-2,1.25-4.13.79-2,1.36-4.09.36-2.14.9-4.22.69-2,1.2-4.14.52-2.1,1-4.19.41-2.12.89-4.22.42-2.11.89-4.22l1-4.21.94-4.21c.46-2.1.74-2.08,1.19-4.15a8,8,0,0,0,.2-2,3.52,3.52,0,0,0-.54-1.73,3.38,3.38,0,0,0-1.47-1.13,16.37,16.37,0,0,0-1.92-.67c-2.06-.58-2-.68-4.11-1.23s-2.08-.53-4.18-1-2.07-.56-4.19-1-2.13-.27-4.25-.59-2.14-.27-4.26-.54L208.4,19l-4.28-.33c-2.15-.08-2.14-.24-4.29-.33s-2.14-.09-4.29-.1-2.15.07-4.29.15-2.12.43-4.26.6-2.14.1-4.26.37-2.13.25-4.24.63a8.46,8.46,0,0,0-2.06.6,14.79,14.79,0,0,1-2,.67c-1,.24-1.54.43-2.05.58s-1,.31-2,.65a9.43,9.43,0,0,0-1.92.94,6,6,0,0,1-2,.65C165.79,24.19,165.41,23.26,165.83,22.9Z"/><path class="cls-2" d="M56.61,107.75c1.33-.83,1.44-.28,2.89-.46s1.48,0,2.93-.21l2.92-.36c1.45-.17,1.44-.26,2.9-.42s1.46-.22,2.92-.37,1.45-.26,2.91-.4,1.49.14,3,0,1.45-.33,2.91-.44,1.48,0,2.94-.14,1.48,0,3-.11,1.47,0,2.94,0,1.47-.09,3-.09,1.47-.07,3,0,1.47.16,2.94.21l2.94.16c1.47.11,1.49-.08,3,.05s1.47.13,2.94.3,1.43.44,2.89.63,1.48,0,2.94.29,1.43.42,2.87.7,1.46.21,2.91.52,1.48.15,2.91.5,1.41.35,2.88.81,1.35.72,2.71,1.28,1.43.43,2.77,1,1.27.74,2.62,1.26a18.54,18.54,0,0,0,2.75.71,4.33,4.33,0,0,0,1.32.14,1.54,1.54,0,0,0,.47,0c.09,0,.19,0,.29,0l.32-.11a3.25,3.25,0,0,0,.86-.58,2.28,2.28,0,0,0,.65-1.1,25,25,0,0,0,.63-2.8c.14-.73.19-1.13.23-1.52a6.47,6.47,0,0,1,.27-1.43c.4-1.41.56-1.37.95-2.78l.8-2.82c.4-1.42.51-1.38.91-2.8s.28-1.44.67-2.85.31-1.44.7-2.85.47-1.4.87-2.81.3-1.44.69-2.85.6-1.36,1-2.77.24-1.46.63-2.87.58-1.36,1-2.77l.76-2.84c.39-1.41.33-1.43.72-2.84s.41-1.41.83-2.82.31-1.43.7-2.85l.8-2.82c.39-1.41.46-1.39.85-2.81s.37-1.42.73-2.84.34-1.43.72-2.84.5-1.39.88-2.8.44-1.41.83-2.82l.77-2.83c.38-1.42.11-1.49.49-2.91s.57-1.36,1-2.78l.72-2.84c.37-1.42.45-1.4.82-2.82s-.26-1.61.73-2.82c.25-.31,1.08-.11,1.15.28.27,1.54-.21,1.46-.58,2.88s-.58,1.36-1,2.78-.26,1.45-.65,2.86-.43,1.41-.81,2.82l-.76,2.84-.78,2.82c-.39,1.42-.27,1.45-.66,2.86s-.49,1.39-.88,2.81L154.53,58c-.39,1.42-.28,1.45-.67,2.86s-.57,1.36-1,2.78l-.74,2.84c-.4,1.41-.23,1.45-.63,2.87s-.39,1.41-.77,2.83-.47,1.39-.86,2.8l-.76,2.84c-.39,1.41-.52,1.37-.91,2.79l-.83,2.81c-.39,1.41-.32,1.43-.72,2.85s-.38,1.41-.77,2.83l-.74,2.83c-.4,1.42-.52,1.38-.92,2.79l-.8,2.83c-.39,1.41-.29,1.44-.69,2.85s-.29,1.44-.69,2.86l-.84,2.81a12.47,12.47,0,0,1-.48,1.4,6.34,6.34,0,0,0-.4,1.34,26.42,26.42,0,0,1-.58,2.95,10,10,0,0,1-.61,1.55,2.85,2.85,0,0,1-1.36,1.28,3.53,3.53,0,0,1-1.07.27,2.92,2.92,0,0,1-.72,0,10.12,10.12,0,0,1-1.59-.26,20.42,20.42,0,0,1-2.83-1.08c-1.38-.54-1.46-.35-2.82-.92s-1.3-.71-2.64-1.28-1.34-.57-2.69-1-1.4-.32-2.8-.69-1.43-.29-2.85-.61-1.42-.33-2.85-.6-1.43-.28-2.87-.53-1.4-.46-2.84-.67-1.46-.15-2.91-.32-1.46,0-2.91-.19-1.45-.19-2.9-.3-1.46-.07-2.92-.14-1.45-.14-2.91-.16-1.47.11-2.93.12-1.46.07-2.92.09l-2.91.1-2.92.14c-1.46.09-1.47-.09-2.93,0s-1.47,0-2.93.14l-2.91.26c-1.46.13-1.43.42-2.89.56s-1.47,0-2.93.15-1.47,0-2.93.21-1.42.44-2.88.61-1.46.12-2.92.3-1.42.63-2.92.32C56.35,109,56.28,108,56.61,107.75Z"/><path class="cls-2" d="M159.74,23.56c-1.55.09-1.37-.43-2.72-1s-1.28-.69-2.66-1.15l-2.74-.91c-1.37-.47-1.42-.33-2.8-.73s-1.41-.36-2.8-.73-1.44-.22-2.85-.55-1.34-.62-2.77-.87-1.46,0-2.89-.3-1.42-.27-2.85-.48-1.43-.23-2.87-.41-1.43-.2-2.87-.33S127.47,16,126,16s-1.45,0-2.9-.06-1.44-.14-2.89-.16h-2.9c-1.44.07-1.44.25-2.88.32s-1.44.06-2.88.2-1.47-.12-2.91,0-1.42.35-2.85.54-1.46,0-2.89.26-1.4.35-2.83.62-1.37.49-2.77.82-1.42.31-2.81.69-1.44.2-2.83.62S90.37,20.47,89,21s-1.43.31-2.78.83a5.54,5.54,0,0,0-1.21.65,7.68,7.68,0,0,0-1,.81,3.4,3.4,0,0,0-.69,1.05c-.13.3-.25.6-.5,1.25-.47,1.33-.72,1.27-1.19,2.64l-1,2.75c-.47,1.38-.22,1.47-.69,2.85s-.63,1.32-1.1,2.7L78,39.24c-.47,1.38-.58,1.34-1,2.72s-.36,1.42-.83,2.8-.38,1.41-.86,2.79-.54,1.35-1,2.73-.38,1.41-.85,2.79-.67,1.31-1.14,2.69-.32,1.43-.79,2.81-.65,1.32-1.12,2.69L69.42,64c-.47,1.38-.4,1.4-.88,2.78l-1,2.74c-.47,1.38-.4,1.41-.87,2.79l-1,2.75c-.46,1.38-.54,1.36-1,2.74s-.41,1.4-.87,2.78-.4,1.4-.86,2.78-.55,1.35-1,2.74-.49,1.37-.93,2.76l-.87,2.78c-.42,1.39-.15,1.47-.57,2.86s-.6,1.34-1,2.74-.37,1.41-.75,2.81-.46,1.38-.84,2.79.26,1.59-.72,2.8c-.25.3-1.08.1-1.15-.28-.28-1.54.19-1.45.57-2.87s.58-1.35,1-2.76.29-1.43.69-2.84.47-1.38.88-2.78.41-1.4.83-2.8L60,88.56c.44-1.39.32-1.43.77-2.82s.55-1.35,1-2.74l.92-2.77c.45-1.38.35-1.42.81-2.8s.65-1.32,1.11-2.7L65.5,72c.47-1.38.31-1.44.78-2.82l.94-2.76c.47-1.37.55-1.35,1-2.73s.45-1.38.91-2.77.59-1.33,1.07-2.71l1-2.74c.47-1.38.4-1.4.87-2.78L73,49.88c.46-1.38.46-1.38.91-2.77s.59-1.34,1.06-2.72l1-2.75c.47-1.38.37-1.41.84-2.79s.37-1.42.84-2.8l1-2.74c.47-1.38.62-1.33,1.09-2.71s.41-1.4.88-2.78.29-1.41.79-2.83A8.06,8.06,0,0,1,82,23.57a6.82,6.82,0,0,1,1-1.32,3.76,3.76,0,0,1,1.37-.92l1.43-.57c1.38-.53,1.3-.71,2.69-1.22s1.41-.41,2.82-.82l2.82-.84c1.41-.39,1.4-.44,2.82-.8s1.41-.44,2.86-.7l2.88-.55c1.45-.27,1.46-.22,2.91-.44s1.48,0,2.93-.15l2.92-.33c1.45-.14,1.45-.24,2.91-.31s1.47,0,2.93-.07l2.94,0c1.46,0,1.46,0,2.92.12s1.47-.09,2.94,0,1.47,0,2.93.15l2.92.25,2.92.39c1.45.21,1.43.32,2.87.59s1.43.34,2.87.6,1.44.28,2.87.61,1.49.06,2.92.39,1.37.55,2.79,1,1.38.48,2.77.95,1.47.21,2.87.68,1.36.55,2.73,1.09,1.56.14,2.72,1.12C160.58,22.64,160.13,23.54,159.74,23.56Z"/><path class="cls-2" d="M221.72,124.83c-.27-1.6.28-1.5.65-3s.52-1.44.89-2.93l.73-3c.37-1.48.28-1.5.65-3s.35-1.49.69-3,.27-1.51.64-3,.64-1.41,1-2.89.16-1.54.54-3,.39-1.47.79-2.95.38-1.48.77-3,.44-1.47.81-3,.31-1.49.68-3,.31-1.49.68-3,.49-1.45.86-2.93l.75-3c.37-1.48.19-1.53.56-3s.37-1.48.73-3,.63-1.42,1-2.9.21-1.52.59-3,.54-1.44.91-2.92.29-1.5.67-3,.19-1.52.56-3l.76-3c.37-1.48.58-1.43,1-2.91s.2-1.53.58-3,.54-1.43.92-2.92.23-1.51.6-3,.28-1.51.65-3,.62-1.42,1-2.9l.76-3c0-.17.09-.38.1-.46a.86.86,0,0,0,0-.15s0-.08,0-.09h-.29l-.16-.05c-.22-.08-.49-.19-.83-.35-1.37-.64-1.29-.8-2.67-1.43l-2.81-1.14c-1.4-.58-1.36-.7-2.8-1.2s-1.47-.39-2.9-.89-1.48-.36-2.93-.8-1.43-.53-2.89-.93-1.5-.27-3-.64-1.42-.59-2.92-.88-1.52-.15-3-.45-1.47-.45-3-.71l-3-.45c-1.51-.19-1.52-.11-3-.29s-1.5-.25-3-.37-1.52,0-3-.13-1.52-.14-3-.17-1.52-.11-3-.15-1.52.07-3,.09l-3,.13c-1.51.11-1.52,0-3,.12s-1.53,0-3,.24l-3,.4c-1.51.19-1.45.52-2.93.8s-1.52.11-3,.41l-2.91.83a22.47,22.47,0,0,0-2.91.83c-1.43.51-1.22,1.12-2.84,1-.41,0-.73-.81-.44-1.09,1.17-1.12,1.39-.68,2.84-1.2a24.3,24.3,0,0,1,3-.7c1.49-.41,1.46-.52,2.95-.92s1.52-.25,3-.56,1.5-.35,3-.55l3.05-.39c1.53-.22,1.52-.27,3-.41s1.54,0,3.08-.13l3.07-.08c1.53,0,1.53-.19,3.07-.14s1.53.23,3.07.26,1.53,0,3.06.11,1.54-.05,3.08.06,1.53.15,3,.31,1.52.25,3,.44l3,.45c1.52.26,1.5.34,3,.66l3,.65c1.51.3,1.52.25,3,.62l3,.73c1.48.4,1.49.38,3,.81s1.44.54,2.9,1l2.89,1c1.46.5,1.49.41,2.91,1s1.47.48,2.9,1.06,1.38.69,2.77,1.35c.35.16.6.3.82.41l.79.44.41.22c.12,0,0,.13,0,.22l-.09.27-.32,1.18c-.37,1.48-.31,1.5-.68,3s-.2,1.52-.57,3-.44,1.46-.81,2.94-.57,1.43-1,2.91-.16,1.54-.53,3-.5,1.45-.87,2.93-.37,1.48-.75,3-.29,1.51-.66,3-.31,1.49-.69,3-.37,1.48-.75,3l-.74,3c-.38,1.48-.6,1.42-1,2.91l-.7,3c-.37,1.48-.25,1.51-.63,3s-.43,1.47-.8,3-.37,1.48-.73,3-.45,1.46-.82,2.94-.23,1.52-.61,3-.31,1.49-.68,3l-.74,3-.74,3c-.37,1.48-.53,1.44-.9,2.92s-.45,1.46-.82,2.94l-.74,3c-.37,1.48-.11,1.55-.48,3s-.52,1.44-.9,2.92-.49,1.45-.87,2.94-.1,1.54-.48,3-.43,1.46-.8,3,0,1.62-.79,3C222.75,125.52,221.79,125.23,221.72,124.83Z"/><path class="cls-2" d="M220.59,47c-.67.44-.47-.08-.92-.26s-.38-.31-.83-.48l-.9-.32c-.45-.15-.48-.06-.93-.21s-.47-.1-.92-.24-.49,0-.94-.17-.38-.4-.84-.53-.52.09-1,0-.44-.16-.91-.27-.45-.13-.92-.24-.45-.16-.91-.26-.48,0-1-.12-.48,0-.95-.08-.45-.2-.92-.27l-.94-.13c-.48-.05-.5.13-1,.08s-.47,0-.94-.08S204.47,43,204,43s-.48.13-1,.1-.46-.2-.94-.21-.48.06-1,0-.47.18-.95.17h-.94c-.48,0-.48-.21-1-.19s-.47.19-.95.21-.49-.16-1-.15-.48.16-1,.16-.5.1-1,.08-.49-.29-1-.34-.49-.08-1-.17-.56.15-1.07,0-.45-.32-.92-.52l-.88-.41c-.42-.19-.37-.3-.78-.44s-.43,0-.84-.05a4.39,4.39,0,0,0-.81.11,4.93,4.93,0,0,0-.85.1c-.42.13-.39.22-.81.38s-.5,0-.92.18-.34.36-.76.58-.51,0-.94.28-.41.26-.86.48-.44.27-.92.45a8.64,8.64,0,0,1-1,.26,7.86,7.86,0,0,1-1,.27,5.55,5.55,0,0,1-1.08,0,4.49,4.49,0,0,1-1.07-.25,4.22,4.22,0,0,1-1.06-.43,4.08,4.08,0,0,1-.9-.75c-.32-.41-.22-.49-.48-.79s-.2-.25-.45-.31a1.29,1.29,0,0,0-.66.15c-.38.19-.23.45-.65.69s-.52.07-.93.31-.4.28-.82.52-.45.18-.87.42-.1.81-.83.48a2.07,2.07,0,0,1-.59-1c.07-.8.33-.38.74-.62s.53-.06.94-.3.37-.34.78-.58.45-.19.86-.43a8.8,8.8,0,0,1,.89-.51,2.15,2.15,0,0,1,.56-.19,2,2,0,0,1,.68-.05,3,3,0,0,1,.72.16,1.37,1.37,0,0,1,.57.38c.4.44.28.51.56.86a2.85,2.85,0,0,0,.57.53c.33.2.38.09.74.22s.34.28.77.32a4.16,4.16,0,0,0,.86-.07c.44-.06.41-.22.84-.32s.42-.12.84-.26.45-.09.86-.27.39-.24.81-.46.48-.11.91-.34.45-.19.9-.41.41-.28.88-.47a10.18,10.18,0,0,1,1-.36,6.46,6.46,0,0,1,1-.25,5,5,0,0,1,1.09.1,4.86,4.86,0,0,1,1.06.21,7.3,7.3,0,0,1,1,.29c.45.21.5.12.91.31a8.16,8.16,0,0,0,.81.34c.41.13.38.28.82.38s.46,0,.91.08.47-.13.93-.11.45.09.92.09.47.21.95.19.46-.23.94-.25.49.11,1,.09l1,0c.49,0,.48-.1,1-.09s.49-.06,1-.06l1,0,1,.05c.49,0,.47.26,1,.29s.49,0,1,0,.5-.07,1,0,.48.12,1,.18l1,.11c.48.07.47.15.95.23s.51-.06,1,0,.49,0,1,.12.48.08,1,.19l.95.21c.47.12.44.27.91.39s.45.19.92.33l.94.26c.46.14.54-.13,1,0s.42.29.88.45.42.28.88.43.55-.09,1,.08.44.23.89.41.63-.23.89.4A2.35,2.35,0,0,1,220.59,47Z"/><path class="cls-2" d="M219.89,58.19c-.46.54-.29,0-.54-.07s-.21-.23-.47-.32l-.51-.15c-.26-.09-.29,0-.55-.08s-.27,0-.53-.1-.29,0-.54,0-.18-.34-.44-.42-.32.14-.58.07-.25-.12-.51-.19-.25-.1-.51-.17-.24-.14-.5-.21-.28,0-.54-.07-.28,0-.54-.06-.23-.19-.49-.25l-.53-.12c-.26-.06-.3.12-.57.06L211,56c-.27-.06-.21-.32-.47-.37s-.3.1-.57,0-.23-.22-.49-.27-.28,0-.54,0-.3.13-.57.08l-.53-.1c-.26,0-.22-.26-.49-.31s-.29.13-.56.08-.24-.22-.5-.26-.29.1-.56.06-.28.06-.55,0-.23-.31-.49-.34l-.54-.08c-.26,0-.3.23-.56.19s-.25-.18-.52-.22l-.54,0c-.27,0-.25-.14-.52-.17s-.28.1-.55.07-.28.07-.55,0-.26-.1-.53-.12-.27.08-.54.06-.26-.23-.52-.25-.28.15-.55.14-.26-.2-.53-.22-.27,0-.54,0-.27.05-.54.05-.27-.05-.54-.06-.27.07-.54.07l-.54,0c-.27,0-.27-.08-.54-.08s-.27,0-.54,0-.27.05-.54.05-.27-.11-.54-.11-.27,0-.54,0h-.54c-.27,0-.26.29-.53.3s-.27-.19-.54-.18-.27.05-.54.06-.27-.06-.54,0-.24.66-.54,0a3.35,3.35,0,0,1-.07-1.18c.23-.66.27-.17.54-.19s.28.21.56.19.26-.12.54-.13.27,0,.55,0l.54,0h.55c.27,0,.27-.13.55-.14s.27.11.55.11h.54c.28,0,.28-.12.55-.12s.27.19.55.2.27,0,.54,0,.28-.16.56-.15h.54c.28,0,.28.09.55.1s.27,0,.55,0,.26.15.54.16.27,0,.54.07.28-.05.55,0,.28,0,.55,0,.28,0,.55,0,.26.14.53.17l.55.06c.27,0,.28-.08.55-.06s.29-.08.56,0,.27.07.54.1.25.19.53.22.28,0,.55,0,.29-.14.56-.1.27.11.54.15.24.24.51.28.3-.17.57-.13.25.17.52.22l.54.1c.27,0,.29,0,.56,0a5.09,5.09,0,0,1,.55,0l.53.11.54.11c.27.05.22.28.49.34s.28,0,.55.06.29-.06.56,0,.25.13.52.19.27,0,.53.1.25.15.52.21.3-.07.56,0,.28,0,.55.08l.53.13.53.14c.27.08.23.23.49.3s.24.15.51.23l.52.15c.26.08.34-.18.6-.1s.22.23.48.31.23.2.49.28.34-.17.6-.08.24.14.5.23.41-.34.51.21A3.9,3.9,0,0,1,219.89,58.19Z"/><path class="cls-2" d="M149.23,41.34c-.62.52-.49,0-.95-.13s-.42-.27-.88-.38l-.93-.22c-.46-.12-.48,0-.94-.14s-.47-.07-.93-.19-.49,0-.95-.12-.4-.39-.86-.51-.51.11-1,0-.46-.16-.92-.26-.46-.13-.92-.24-.45-.16-.92-.26-.47,0-.94-.13-.48,0-.94-.12-.44-.21-.91-.3l-.94-.17c-.46-.09-.49.1-1,0s-.47-.07-.94-.15-.42-.33-.89-.4-.5.08-1,0-.45-.25-.92-.31-.48,0-.95-.05-.49.12-1,.06-.47-.08-.94-.12-.45-.27-.92-.32-.49.13-1,.08-.45-.24-.93-.27-.48.1-1,.07-.48.07-1,0-.46-.3-.93-.32l-1-.06c-.47,0-.48.24-1,.22s-.46-.18-.94-.18h-.94c-.48,0-.48-.12-.95-.13s-.47.11-1,.12-.47.11-.94.12-.48-.06-1,0-.47.1-.94.13-.48-.18-1-.15-.46.19-.93.22-.49-.16-1-.13l-.94.13c-.47,0-.46.11-.93.16s-.48,0-1,0-.46.15-.93.21l-.94.12c-.47.06-.48,0-1,.05s-.46.13-.92.21-.46.14-.92.22-.49,0-1,.06-.47,0-.94.13l-.92.2c-.47.1-.4.38-.86.48s-.51-.1-1,0-.45.16-.91.28-.48,0-.93.16-.3.75-.92.24a2,2,0,0,1-.32-1.14c.28-.75.42-.28.89-.4s.52.09,1,0,.44-.23.9-.35.49,0,1-.16l.94-.22.94-.19c.47-.1.45-.22.92-.31s.49,0,1-.06l.94-.16c.48-.08.46-.21.94-.28s.5.13,1,.06.47-.1.94-.17.46-.23.94-.29l1-.11c.48,0,.49,0,1,0s.47-.09,1-.13.49.1,1,.07.48,0,1,0,.48-.1,1-.13l1-.06c.48,0,.48,0,1-.06s.48.11,1,.1.48,0,1,0,.48-.1,1-.09.48-.11,1-.11.48,0,1,.07.47.18,1,.2.48,0,1,0,.49-.16,1-.12.48.1,1,.14.46.24.94.28.5-.18,1-.13.46.18.94.23l.95.1c.48,0,.49,0,1,0s.48,0,.95.07l1,.14.95.14c.47.07.44.3.91.38s.48,0,1,.09.5,0,1,.05.46.15.93.24l.95.15c.47.09.45.16.92.26s.5,0,1,0,.48,0,1,.13l.94.19.94.21c.47.1.43.26.9.36s.45.18.91.3l.93.23c.46.12.53-.15,1,0s.43.27.89.39.44.24.9.36.53-.15,1,0,.45.18.91.29.59-.31.92.28A2.38,2.38,0,0,1,149.23,41.34Z"/><path class="cls-2" d="M125,53c-.43.58-.32,0-.62,0s-.26-.22-.56-.27l-.61-.09c-.3-.05-.31,0-.62,0s-.3,0-.61,0-.31.07-.61,0-.28-.3-.58-.33-.32.2-.62.18-.3-.06-.61-.07-.3,0-.61,0-.3-.08-.6-.08-.31.07-.61.08-.3.07-.61.09-.31-.1-.61-.08l-.61.05c-.3,0-.28.21-.58.25s-.3,0-.6.08-.34-.21-.64-.17-.28.21-.58.26-.33-.11-.63-.06-.28.14-.58.21-.26.24-.55.31l-.59.14c-.29.08-.35-.14-.65,0s-.24.26-.53.35-.34-.09-.63,0-.24.23-.53.33-.25.2-.53.31-.38-.13-.67,0l-.58.22c-.3.12-.21.37-.54.48s-.39,0-.75,0a2.78,2.78,0,0,1-.77,0c-.4,0-.38-.16-.74-.27s-.4,0-.72-.22-.36-.13-.64-.35-.21-.28-.45-.5-.3-.15-.52-.35-.08-.36-.3-.55-.32,0-.53-.18-.13-.3-.38-.42a4.44,4.44,0,0,0-.52-.15c-.26-.08-.28,0-.55-.06a4.68,4.68,0,0,0-.54-.09,5.43,5.43,0,0,0-.56.09,5.35,5.35,0,0,0-.55.05,5.48,5.48,0,0,0-.57,0,4.93,4.93,0,0,0-.53.22c-.26.09-.24.15-.5.26s-.31,0-.57.16a5.29,5.29,0,0,0-.54.25c-.25.15-.26.15-.51.32s-.08.4-.32.57-.35,0-.59.21-.22.22-.46.41-.28.14-.52.34.18.69-.47.39a3.13,3.13,0,0,1-.77-.89c-.19-.7.13-.33.37-.53s.38,0,.63-.24.17-.29.42-.48.29-.16.55-.35.25-.2.52-.38a6.42,6.42,0,0,1,.56-.34c.28-.17.22-.27.51-.44s.34-.06.64-.2.31-.13.63-.24.28-.23.61-.31.38.1.71,0,.33-.09.66-.12.34-.18.69-.18a5.67,5.67,0,0,1,.71.06,6,6,0,0,1,.68.23,3.63,3.63,0,0,1,.69.21c.32.15.27.26.57.45a4.58,4.58,0,0,1,.53.44c.26.22.3.17.54.39l.47.4c.22.21.25.18.46.36s.14.27.37.42a2.13,2.13,0,0,0,.45.23c.23.07.25,0,.47,0s.22-.1.45-.13a3.1,3.1,0,0,0,.5-.09c.26-.09.32.05.59-.06s.26-.17.55-.29.23-.28.53-.4.32,0,.63-.16.37.09.67,0,.23-.31.53-.4.35,0,.65-.06.31-.08.62-.17.28-.16.59-.24.3-.13.61-.2l.63-.13.63-.11c.31-.05.35.17.66.12s.31-.1.62-.14.3-.17.62-.2.32,0,.64,0,.31-.05.63-.07.32.06.64,0,.31-.15.63-.17.32-.06.64-.07h1.28c.31,0,.31.18.63.19s.31.09.62.12l.64,0c.31,0,.34-.25.66-.2s.3.19.61.23.3.17.61.23.36-.22.68-.16.3.12.61.18.42-.37.62.17A3.6,3.6,0,0,1,125,53Z"/><path class="cls-2" d="M138.07,74.26c-.66.46-.47-.07-.92-.23s-.38-.3-.82-.46l-.89-.3c-.44-.16-.47-.07-.91-.22s-.46-.09-.91-.23-.48,0-.92-.18-.36-.41-.81-.55-.51.08-1,0-.44-.17-.89-.3-.44-.16-.89-.29-.43-.2-.88-.31-.47,0-.93-.16-.47,0-.92-.16-.43-.23-.88-.34l-.92-.2c-.45-.1-.49.08-1,0l-.92-.18c-.45-.1-.4-.36-.86-.45s-.49.08-1,0-.43-.25-.9-.33-.47,0-.93-.08-.49.1-1,0l-.93-.15c-.46-.06-.43-.27-.89-.34s-.49.11-1,0-.45-.23-.91-.28-.48.09-1,0-.47.06-.94,0-.44-.32-.91-.35l-.93-.08c-.47,0-.48.23-1,.2s-.46-.19-.92-.23l-.94,0c-.47,0-.46-.13-.93-.15s-.47.11-.94.09-.47.07-.94.07-.46-.07-.93-.07-.47.09-.94.09-.47-.2-.93-.2-.47.17-.94.18-.47-.17-.94-.15l-.93.06c-.47,0-.47.07-.93.1s-.47,0-.94,0-.46.11-.93.14l-.93,0c-.47,0-.48,0-.94,0s-.46.1-.93.15-.46.1-.92.15-.48-.06-1,0-.47,0-.93.07l-.93.13c-.46.06-.42.34-.89.41s-.49-.14-1,0-.45.11-.92.19-.47,0-.93.09-.35.72-.92.15a1.94,1.94,0,0,1-.22-1.16c.33-.72.43-.24.9-.32s.5.13,1,0,.45-.19.91-.27.48,0,1-.09L90,67.7l.94-.11c.47-.07.45-.19.92-.25s.49,0,1,0l.94-.1c.47,0,.46-.16.93-.21s.49.14,1,.11.47-.07.95-.11.46-.19.93-.23l1-.07c.47,0,.47.06.95,0s.47,0,.94-.06.48.11,1,.1.47,0,.94,0,.48-.07,1-.07l1,0c.47,0,.47,0,1,0s.47.13.94.14l1,0c.47,0,.48-.09.95-.07s.48-.1,1-.08.47.08,1,.11.46.19.93.22.48,0,1,0,.49-.14,1-.09.47.12.94.17.45.25.92.3.5-.16,1-.11.45.19.92.26l.94.13c.47.06.48,0,1,0s.48,0,.95.08l.93.17.94.17c.47.08.42.31.89.39s.48,0,.94.14.49,0,1,.08.45.16.91.26.47.07.94.18.44.19.9.3.49,0,1,.09.48.06.94.17.46.11.92.24l.91.26c.46.13.41.28.87.41s.43.2.89.33l.9.3c.45.14.54-.12,1,0s.4.3.85.44.41.27.86.43.53-.09,1,.07.43.22.87.38.62-.25.88.36A2.38,2.38,0,0,1,138.07,74.26Z"/><path class="cls-2" d="M135.41,83.08c-.65.46-.47-.06-.91-.22s-.39-.3-.83-.46l-.88-.31c-.44-.16-.47-.07-.92-.21s-.46-.09-.9-.24-.48,0-.93-.18-.36-.41-.8-.55-.52.08-1,0-.43-.17-.88-.3-.44-.16-.89-.28-.43-.2-.89-.31-.47-.06-.92-.17-.47,0-.93-.15-.42-.24-.88-.35-.45-.1-.91-.2-.5.09-1,0l-.92-.18c-.46-.09-.4-.36-.87-.44s-.49.08-1,0-.43-.25-.89-.34-.47,0-.93-.08-.49.11-1,0l-.92-.14c-.46-.07-.43-.28-.9-.34s-.48.1-1,0-.44-.23-.91-.28-.48.09-.94,0-.48.06-.94,0-.44-.31-.91-.34L108.1,77c-.47,0-.49.23-.95.2s-.46-.19-.93-.22l-.93,0c-.47,0-.47-.14-.93-.15s-.48.1-.94.08-.47.07-.94.08-.47-.08-.93-.08-.47.1-.94.1-.47-.21-.94-.21-.46.18-.93.19-.47-.18-.94-.16l-.93.06c-.47,0-.47.08-.94.1s-.47,0-.93,0-.47.12-.93.15l-.94,0c-.46,0-.47,0-.94,0s-.46.11-.92.15-.46.11-.93.15-.47-.06-.94,0-.47,0-.93.08l-.93.12c-.47.07-.43.35-.89.41s-.49-.13-1,0-.46.12-.92.2-.47,0-.94.08-.35.72-.92.15a2.09,2.09,0,0,1-.22-1.15c.33-.72.44-.24.9-.32s.51.13,1,0,.44-.19.91-.27.48,0,1-.09l.93-.15.94-.11c.47-.06.46-.18.93-.25s.48.06,1,0l1-.09c.47,0,.46-.17.93-.21s.49.13,1,.1.47-.07.94-.1.46-.2.94-.23l.94-.07c.48,0,.48.05,1,0s.48-.06,1-.07.48.12,1,.1.48,0,1,0,.47-.07.95-.07l.94,0c.48,0,.48,0,.95,0s.47.13,1,.15l.94,0c.48,0,.48-.09,1-.08s.47-.09,1-.07.47.07.94.1.47.19.94.22.48,0,1,0,.49-.15,1-.1.47.12.94.17.45.26.92.3.49-.16,1-.11.45.19.92.26l.94.13c.47.07.48,0,1,0s.48,0,1,.08l.93.18.94.16c.46.08.42.31.89.39s.47,0,.94.14.48,0,.95.08.45.16.91.26.47.07.93.18.44.19.9.31.5,0,1,.08.47.06.93.17.47.11.92.24l.92.26c.46.13.41.28.87.41s.43.21.89.34l.9.29c.45.14.53-.12,1,0s.41.29.86.44.41.26.85.43.54-.1,1,.06.42.22.87.38.61-.25.88.37A2.37,2.37,0,0,1,135.41,83.08Z"/><path class="cls-2" d="M132.76,91.9c-.66.46-.47-.06-.91-.22s-.39-.3-.83-.46l-.88-.31c-.44-.16-.47-.07-.92-.21s-.46-.09-.91-.23-.48,0-.92-.18-.36-.41-.81-.56-.51.08-1,0-.44-.18-.89-.31-.44-.15-.89-.28-.43-.2-.88-.31-.47-.05-.93-.16-.47,0-.92-.16-.42-.23-.88-.34-.46-.1-.91-.2-.5.08-1,0l-.91-.19c-.46-.09-.41-.36-.87-.44s-.49.08-1,0-.43-.25-.89-.33-.48,0-.94-.09-.49.11-1,0l-.92-.14c-.47-.06-.44-.28-.9-.34s-.49.1-1,0-.44-.23-.91-.27-.48.09-.94,0-.48.05-.94,0-.45-.31-.91-.34l-.94-.09c-.46,0-.48.24-1,.2s-.45-.19-.92-.22l-.94,0c-.46,0-.46-.13-.93-.15s-.47.1-.94.09-.47.07-.93.07-.47-.08-.94-.08-.47.1-.93.1-.47-.21-.94-.21-.47.18-.93.19-.48-.17-.94-.16l-.94.06c-.47,0-.46.08-.93.11s-.47,0-.94,0-.46.11-.93.14l-.93,0c-.47,0-.47,0-.94,0s-.46.1-.92.15-.46.1-.93.15-.48-.07-.94,0-.47,0-.94.08l-.93.12c-.46.07-.42.35-.88.41s-.5-.13-1,0-.45.12-.91.2-.48,0-.94.08-.35.72-.92.16a2.14,2.14,0,0,1-.22-1.16c.33-.72.43-.24.9-.32s.51.13,1,0,.45-.19.92-.27.47,0,.94-.09l.94-.14.94-.12c.47-.06.46-.18.93-.24s.48.05,1,0l.94-.09c.47-.05.46-.16.94-.21s.48.14,1,.11.47-.08.94-.11.46-.2.93-.23l1-.07c.47,0,.48.06,1,0s.47-.05.95-.07.48.12,1,.1.47,0,1,0,.47-.07.94-.07l1,0c.47,0,.48,0,1,0s.47.14.94.15l1,0c.47,0,.48-.09,1-.07s.48-.1,1-.08.47.07.94.1.46.19.94.23.47,0,1,0,.48-.15,1-.09.46.11.93.16.45.26.92.31.5-.17,1-.12.46.2.93.26l.93.13c.47.07.49,0,1,0s.48,0,.94.09l.94.17.93.16c.47.09.43.32.89.4s.48,0,.94.13.49,0,1,.08.45.17.92.26.47.07.93.18.44.2.9.31.49,0,1,.09.48,0,.94.17l.92.23.91.26c.46.13.42.29.87.42s.44.2.89.33l.9.29c.45.15.54-.12,1,0s.4.3.85.44.42.27.86.43.54-.1,1,.06.43.23.88.39.61-.26.87.36A2.24,2.24,0,0,1,132.76,91.9Z"/><path class="cls-2" d="M175.64,73.64c-.21.65-.19.1-.37.09s-.18-.16-.36-.16h-.37c-.18,0-.19.09-.37.09s-.18,0-.37,0-.18.11-.36.1-.18-.28-.37-.28-.18.21-.36.21-.19,0-.37,0-.18,0-.37,0-.18-.07-.36-.07-.19.07-.37.07-.18.07-.37.07-.18-.12-.36-.12h-.37c-.18,0-.18.19-.36.2l-.37,0c-.18,0-.19-.26-.37-.26s-.18.17-.36.18-.19-.17-.38-.16-.18.09-.36.09-.17.19-.36.2h-.36c-.18,0-.2-.2-.38-.19s-.17.18-.36.19-.19-.17-.37-.16-.18.16-.36.17-.17.11-.36.13-.2-.25-.38-.24h-.37c-.18,0-.16.28-.34.3s-.2-.14-.38-.13l-.37,0c-.18,0-.19-.1-.37-.08s-.17.14-.36.16-.17.11-.35.13-.19,0-.37,0-.17.12-.35.14-.21-.19-.39-.17-.17.19-.35.21-.2-.16-.38-.14-.18,0-.36.08-.18.09-.36.11-.19,0-.37,0-.17.11-.35.13l-.36,0c-.19,0-.2,0-.38,0s-.17.08-.35.11-.17.08-.36.11-.19-.08-.38,0-.18,0-.37,0l-.36.06c-.18,0-.13.31-.31.34s-.22-.16-.4-.12-.17.07-.35.1-.19,0-.37,0-.07.67-.36.06a5,5,0,0,1-.23-1.15c0-.68.15-.2.33-.23s.23.18.41.14.16-.14.34-.17.2,0,.38,0l.36-.08.37,0c.19,0,.17-.15.35-.18s.2.08.38.05l.37-.06c.19,0,.17-.14.35-.17s.21.16.4.14.18-.07.36-.1.16-.19.34-.21l.37-.07c.19,0,.2.06.38,0s.18-.06.36-.08.21.11.39.08.19,0,.37,0,.18-.09.36-.11.19,0,.37-.07.18-.07.37-.09.19.11.38.09l.37,0c.18,0,.17-.13.36-.15s.17-.13.36-.14.19,0,.37,0,.2.14.39.13.18-.08.36-.1.17-.19.36-.2.19,0,.38,0,.19.19.38.18.17-.23.36-.24.19.12.38.11l.37,0c.18,0,.18-.09.36-.1s.19-.07.37-.08h.38l.37,0c.18,0,.19.23.38.22s.18-.06.37-.06.18-.12.37-.13.18.07.37.06.18,0,.37,0,.19.08.37.08.19-.15.37-.15.19-.06.38-.06h.74c.19,0,.19.16.37.16s.19.08.37.08h.37c.19,0,.19-.28.38-.27s.18.16.37.16.18.14.37.14.19-.26.38-.26.18.07.37.08.2-.44.37,0A6.34,6.34,0,0,1,175.64,73.64Z"/><path class="cls-2" d="M168.84,91.24c-.16.66-.15.1-.31.1s-.16-.15-.32-.15h-.32c-.16,0-.16.09-.32.1s-.15,0-.31,0-.16.11-.32.12-.16-.28-.32-.28-.16.22-.31.23-.16,0-.32,0-.16,0-.32,0-.16-.06-.32-.06-.16.07-.32.07-.15.08-.31.08-.16-.11-.32-.11l-.32,0c-.16,0-.15.19-.31.2l-.31,0c-.16,0-.18-.25-.33-.24s-.15.17-.31.18-.17-.17-.33-.16-.15.09-.31.1-.15.19-.31.2h-.31c-.16,0-.18-.2-.34-.19s-.14.19-.3.2-.17-.17-.33-.16-.15.16-.31.17-.15.12-.3.13-.19-.25-.34-.23-.16,0-.32,0-.13.28-.29.29-.18-.14-.33-.12l-.32,0c-.16,0-.17-.1-.33-.08s-.14.13-.3.15-.15.11-.3.13-.17,0-.33,0-.14.11-.3.13-.18-.18-.34-.16-.14.18-.3.2S156,92,155.84,92s-.15,0-.31.07-.14.09-.3.11-.17,0-.32,0-.15.1-.3.12l-.32,0c-.16,0-.17,0-.33,0s-.15.08-.3.11-.15.08-.31.1-.17-.08-.33-.06-.16,0-.32,0l-.31,0c-.16,0-.11.31-.27.34s-.19-.17-.34-.14-.15.06-.31.09-.17,0-.33,0,0,.67-.31,0a5.69,5.69,0,0,1-.22-1.15c0-.68.12-.2.28-.23s.2.19.36.16.14-.14.29-.17.17,0,.33,0l.32-.07.32,0c.15,0,.13-.15.29-.17s.18.07.34,0l.32,0c.16,0,.14-.14.3-.17s.19.17.34.14.16-.06.32-.08.13-.19.29-.22l.32,0c.16,0,.17,0,.33,0s.15-.06.31-.08.18.11.34.09.16,0,.32,0,.15-.08.31-.1.16,0,.32-.07.16-.06.32-.08.17.1.33.08l.32,0c.16,0,.15-.12.31-.14s.15-.13.31-.15.16,0,.32,0,.18.14.34.12.15-.08.31-.09.15-.19.31-.21.16.06.32,0,.18.2.34.18.15-.23.31-.24.17.12.33.11l.32,0c.16,0,.15-.1.32-.11s.15-.07.31-.08h.33l.32,0c.16,0,.17.23.33.22s.16-.07.32-.07.16-.13.32-.14.16.06.32.06.16,0,.32,0,.17.08.33.07.15-.15.32-.15.15-.07.32-.08H166c.16,0,.17.16.33.15s.16.08.32.07h.32c.16,0,.16-.28.32-.28s.16.16.32.16.17.13.33.13.16-.27.32-.27.16.06.32.06.17-.45.33,0A7.09,7.09,0,0,1,168.84,91.24Z"/><path class="cls-2" d="M166.32,83c-.14.65-.11.1-.22.09S166,83,165.9,83h-.2c-.11,0-.11.09-.22.08s-.1,0-.21,0-.1.11-.21.1-.09-.28-.2-.28-.11.21-.21.21-.1-.05-.21-.05-.1,0-.21,0-.1-.07-.2-.07-.11.06-.21.06-.11.07-.21.07-.11-.12-.21-.12h-.21c-.1,0-.1.19-.2.19h-.21c-.1,0-.11-.26-.21-.26s-.1.17-.21.17-.11-.17-.21-.17-.1.08-.21.09-.1.18-.2.19h-.21c-.1,0-.11-.21-.22-.2s-.09.18-.19.18S161,83,160.9,83s-.1.15-.2.16-.1.11-.2.11-.12-.25-.23-.25-.1,0-.21,0-.08.28-.19.28-.11-.14-.22-.14l-.2,0c-.11,0-.12-.11-.22-.1s-.09.13-.2.14-.09.11-.19.12-.12-.06-.22,0-.09.11-.2.12-.12-.19-.23-.18-.08.17-.18.19-.13-.18-.23-.16-.1,0-.21,0-.09.08-.19.1-.11,0-.22,0-.09.1-.19.11-.11,0-.21,0-.11-.06-.22,0-.09.07-.19.09-.1.07-.2.08-.12-.09-.23-.07-.11,0-.21,0l-.21,0c-.1,0-.05.3-.15.32s-.14-.18-.24-.16-.1.06-.2.08-.12-.06-.22,0,0,.66-.2,0a9.18,9.18,0,0,1-.24-1.16c0-.66.07-.18.18-.2s.15.19.25.17.08-.13.19-.15.12,0,.22,0l.21,0c.1,0,.11,0,.21,0s.09-.14.19-.16.13.09.23.07l.21,0c.11,0,.09-.13.2-.15s.13.17.24.16.1-.06.2-.07.09-.18.19-.2l.21,0c.11,0,.12.06.23,0s.1,0,.2-.06.13.11.23.1.11,0,.22,0,.1-.08.21-.09.1,0,.21-.05.1-.06.2-.07.12.11.23.1h.21c.11,0,.1-.12.21-.13s.09-.12.2-.13.11,0,.22,0,.12.14.22.14.1-.08.21-.08.1-.19.2-.2.11.07.22.06.12.2.23.19.09-.22.2-.23.11.13.22.12h.22c.1,0,.1-.09.21-.1s.1-.06.21-.06h.43c.11,0,.11.23.22.23s.1,0,.21-.06.11-.11.21-.12.11.07.22.07.11,0,.21,0,.11.08.22.08.1-.15.21-.15.11-.06.22,0h.43c.1,0,.1.16.21.17s.1.08.21.08h.21c.11,0,.12-.27.23-.27s.1.16.21.17.1.13.2.13.12-.26.23-.25.11.06.21.07.14-.44.21,0A9.61,9.61,0,0,1,166.32,83Z"/><path class="cls-2" d="M.16,183.83c-.43-1.47.12-1.41.35-2.82s.39-1.39.63-2.8l.48-2.81c.25-1.41.16-1.42.42-2.83s.21-1.41.48-2.82.16-1.42.45-2.82.55-1.35.84-2.74.08-1.45.39-2.84.35-1.39.66-2.79l.68-2.77c.33-1.4.4-1.38.73-2.77s.28-1.4.63-2.78.29-1.41.64-2.79.48-1.35.85-2.73.37-1.38.75-2.76.2-1.43.59-2.81.39-1.37.79-2.74.66-1.3,1.07-2.67.26-1.41.69-2.78.6-1.31,1-2.67.38-1.38.83-2.74.27-1.41.74-2.77l1-2.69c.48-1.35.7-1.27,1.19-2.61s.32-1.41.84-2.74.69-1.27,1.21-2.6.4-1.38.94-2.71.43-1.37,1-2.68.81-1.21,1.37-2.53.61-1.3,1.19-2.6.34-1.42,1-2.71.76-1.23,1.38-2.52.63-1.28,1.27-2.56.74-1.23,1.41-2.49.57-1.32,1.25-2.58.61-1.3,1.32-2.55.76-1.22,1.49-2.45.66-1.27,1.4-2.5.93-1.11,1.7-2.32.62-1.3,1.42-2.49,1-1.08,1.78-2.26.8-1.18,1.64-2.34.77-1.22,1.66-2.35l1.79-2.23c.89-1.12.85-1.16,1.76-2.27s.92-1.1,1.88-2.17,1-1,2-2.09,1-1.07,2-2.1,1-1.08,2-2.07,1.11-.92,2.15-1.91l2.19-1.86c1.07-1,1.09-.93,2.2-1.84s.93-1.14,2.08-2,1.27-.7,2.43-1.55,1.16-.85,2.35-1.66,1.22-.76,2.45-1.5.93-1.31,2.46-1.47c.38,0,.8.7.59,1-.85,1.27-1.12.86-2.33,1.6s-1.31.57-2.5,1.35-1.13.86-2.27,1.69-1.17.8-2.31,1.64S62,51,60.88,51.85s-1.13.86-2.19,1.8-1,1-2,2-1.1.9-2.12,1.88-1,1-2,2-.91,1.09-1.88,2.12-1.09.93-2,2-.9,1.09-1.81,2.18S46,67,45.11,68.08l-1.74,2.25c-.87,1.11-.9,1.09-1.75,2.23S40.8,73.72,40,74.89s-.91,1.09-1.71,2.27-.81,1.17-1.59,2.36S36,80.74,35.25,82s-.73,1.22-1.45,2.45-.67,1.25-1.38,2.48-.83,1.17-1.5,2.42l-1.35,2.51c-.67,1.25-.55,1.31-1.2,2.57S27.81,95.7,27.2,97l-1.27,2.54c-.61,1.29-.73,1.23-1.33,2.52s-.54,1.32-1.1,2.62-.4,1.38-1,2.69-.61,1.28-1.15,2.6-.74,1.23-1.26,2.56-.31,1.4-.83,2.73-.62,1.28-1.12,2.62-.51,1.33-1,2.67-.39,1.37-.87,2.71-.4,1.37-.86,2.72-.47,1.34-.9,2.7-.43,1.35-.87,2.71-.64,1.29-1.06,2.65-.37,1.38-.76,2.75-.29,1.4-.69,2.76-.45,1.36-.83,2.73S10,143.64,9.62,145s-.44,1.36-.81,2.73-.21,1.42-.56,2.8S8,152,7.63,153.33L7,156.1l-.64,2.78c-.31,1.39-.47,1.35-.78,2.74s-.37,1.38-.67,2.77-.29,1.4-.57,2.79,0,1.46-.29,2.85-.42,1.37-.68,2.77-.39,1.38-.64,2.78,0,1.45-.23,2.86-.3,1.39-.53,2.8.21,1.5-.5,2.81C1.25,184.41.27,184.2.16,183.83Z"/><path class="cls-2" d="M34.71,183.88c-.69-.74-.14-.79-.18-1.59s.11-.81.06-1.61l-.09-1.6c0-.8-.14-.8-.16-1.6s-.07-.8-.09-1.6-.13-.8-.15-1.6.25-.81.23-1.61-.21-.8-.21-1.6.05-.81.05-1.61l0-1.6c0-.8.06-.8.09-1.6s0-.81,0-1.61,0-.8,0-1.6.15-.8.17-1.6,0-.8.09-1.6-.13-.81-.08-1.62l.09-1.6c.06-.8.3-.78.37-1.58s-.08-.81,0-1.61.25-.78.32-1.58,0-.81.07-1.6-.1-.82,0-1.62.11-.8.21-1.59.31-.77.41-1.57-.07-.82,0-1.61.3-.77.43-1.56,0-.81.1-1.61,0-.81.15-1.6.38-.75.53-1.54.16-.78.31-1.57-.11-.84,0-1.63.3-.76.45-1.54l.34-1.57c.17-.79.28-.76.46-1.54s.05-.81.23-1.6.06-.81.27-1.58.27-.76.47-1.54.1-.8.3-1.58.4-.73.6-1.5,0-.82.27-1.59.41-.72.63-1.49l.42-1.55c.23-.77.15-.79.4-1.55s.29-.75.54-1.51.17-.79.42-1.56l.52-1.52c.25-.76.33-.73.6-1.48s.23-.78.5-1.53.23-.77.5-1.53.38-.71.66-1.46.35-.73.65-1.47.31-.74.61-1.49,0-.85.35-1.59.48-.67.81-1.4l.62-1.48c.33-.74.4-.7.73-1.44s-.25-1,.66-1.45a1.24,1.24,0,0,1,1.06.5c.28,1-.17.79-.5,1.51s-.52.64-.85,1.36-.22.78-.55,1.5-.38.7-.67,1.44-.3.74-.59,1.48l-.62,1.47c-.3.74-.18.78-.48,1.52s-.38.71-.65,1.46l-.56,1.49c-.27.75-.16.79-.44,1.53s-.46.68-.71,1.44-.21.77-.45,1.53-.09.81-.34,1.56l-.49,1.52c-.24.75-.3.74-.53,1.5s-.21.77-.41,1.54-.35.73-.57,1.49-.28.75-.48,1.52-.13.79-.32,1.56L41,125.29c-.2.78-.16.79-.35,1.56s-.31.74-.49,1.52l-.34,1.56c-.18.77-.07.8-.24,1.57s-.07.8-.23,1.58L39,134.64c-.14.78-.29.75-.44,1.54s-.09.79-.23,1.57,0,.82-.1,1.6-.19.78-.31,1.56-.33.76-.45,1.55.09.82,0,1.6-.23.77-.33,1.56l-.2,1.59c-.1.79,0,.8-.11,1.59s-.05.79-.12,1.59L36.53,152c-.07.79-.07.79-.15,1.59s-.3.77-.38,1.56,0,.8,0,1.6.06.8,0,1.59-.12.8-.17,1.59,0,.8-.07,1.59-.1.8-.13,1.59.12.8.09,1.6,0,.8,0,1.59,0,.8,0,1.6v1.59c0,.8-.16.8-.17,1.59s-.08.8-.08,1.6l0,1.59c0,.8.3.79.32,1.59s-.14.8-.12,1.6-.12.8-.07,1.59.31.79.35,1.58,0,.8,0,1.6.49.78,0,1.6C35.89,184,34.89,184.06,34.71,183.88Z"/><path class="cls-2" d="M264.37,190.83c-.67-1.1-.12-1.12-.13-2.26s.14-1.14.12-2.28l0-2.27c0-1.14-.11-1.14-.15-2.27s-.09-1.14-.13-2.27-.15-1.14-.19-2.27.24-1.15.2-2.29-.28-1.12-.34-2.26l-.08-2.27c0-1.14,0-1.14-.09-2.27s0-1.14-.08-2.28-.14-1.13-.23-2.26-.16-1.13-.24-2.26,0-1.15-.05-2.28-.11-1.13-.22-2.27-.29-1.11-.4-2.24l-.23-2.26c-.12-1.13.16-1.16,0-2.29s-.29-1.12-.43-2.24,0-1.15-.1-2.28-.21-1.12-.34-2.25-.33-1.11-.48-2.23-.16-1.13-.31-2.26.05-1.15-.1-2.28-.33-1.1-.5-2.23,0-1.15-.19-2.27-.32-1.1-.5-2.22-.29-1.11-.47-2.23.08-1.17-.13-2.29l-.4-2.24c-.2-1.12-.46-1.07-.67-2.19s-.06-1.14-.26-2.26-.23-1.12-.47-2.23-.11-1.14-.35-2.25-.34-1.09-.57-2.2-.32-1.1-.58-2.21-.18-1.12-.44-2.23-.35-1.09-.6-2.19-.06-1.16-.31-2.27-.44-1.06-.71-2.17-.1-1.15-.38-2.25l-.58-2.2c-.29-1.1-.34-1.09-.64-2.18l-.56-2.21c-.3-1.1-.38-1.07-.69-2.17s-.29-1.1-.59-2.2-.24-1.11-.56-2.2-.38-1.08-.71-2.17-.38-1.07-.7-2.16-.22-1.12-.56-2.21-.3-1.1-.65-2.18l-.7-2.17c-.35-1.08-.62-1-1-2.07s-.16-1.15-.53-2.22S244,69.1,243.6,68s-.3-1.1-.67-2.18-1-.88-.74-2.14a.92.92,0,0,1,1.1-.4c1,.82.53,1,.9,2.09s.18,1.15.55,2.23.48,1,.86,2.12.32,1.09.67,2.18.36,1.08.71,2.16.35,1.09.69,2.18.47,1,.82,2.14.23,1.12.56,2.21.32,1.1.65,2.19.44,1.06.77,2.15.15,1.15.45,2.25.32,1.09.65,2.19.46,1,.76,2.15l.62,2.2c.3,1.1.21,1.13.5,2.23s.29,1.1.59,2.2.15,1.14.43,2.25.26,1.11.52,2.22.32,1.1.58,2.21.26,1.11.53,2.22l.56,2.21c.26,1.12.12,1.14.36,2.26l.46,2.24c.23,1.11.34,1.09.57,2.21s.34,1.09.57,2.21l.38,2.26c.21,1.12.05,1.15.26,2.27s.27,1.11.48,2.23.38,1.09.57,2.22.11,1.14.3,2.27,0,1.16.16,2.28.4,1.1.58,2.22,0,1.15.19,2.28l.32,2.26c.16,1.13.25,1.12.41,2.25s.22,1.12.36,2.26l.26,2.27c.13,1.13.13,1.13.27,2.26s-.1,1.16,0,2.3.17,1.13.28,2.26.23,1.12.34,2.26.05,1.14.16,2.28.14,1.13.23,2.27,0,1.14.09,2.28.24,1.13.32,2.27.15,1.13.24,2.27.08,1.14.15,2.28l.13,2.28c.06,1.14-.1,1.15,0,2.29s0,1.14,0,2.28,0,1.14.07,2.28.32,1.13.36,2.28-.12,1.14-.09,2.28-.08,1.15-.07,2.29.28,1.14.3,2.28-.05,1.14,0,2.28.46,1.17,0,2.29C265.54,191.15,264.54,191.11,264.37,190.83Z"/><path class="cls-2" d="M233,192.89c-.59-.73,0-.69,0-1.38s.22-.68.28-1.37l.11-1.37c.07-.69,0-.7,0-1.39s0-.69.06-1.38-.06-.7,0-1.39.33-.66.39-1.35-.17-.71-.12-1.4.1-.68.15-1.37.07-.69.13-1.38.12-.68.17-1.37,0-.69,0-1.38,0-.7,0-1.39.17-.68.21-1.37l.08-1.38c0-.69-.15-.7-.11-1.39l.06-1.38c0-.69.3-.67.33-1.36s-.13-.7-.1-1.39.2-.68.23-1.38-.05-.69,0-1.38-.15-.7-.13-1.39,0-.69.05-1.38.24-.68.26-1.37-.15-.7-.13-1.39.2-.68.21-1.37-.13-.7-.11-1.39-.09-.69-.08-1.38.28-.69.28-1.38l0-1.38c0-.69-.26-.69-.26-1.38s.16-.69.17-1.38v-1.39c0-.69.11-.69.11-1.38s-.13-.69-.13-1.38-.1-.69-.11-1.38.06-.69,0-1.38-.11-.69-.12-1.38.19-.7.17-1.39-.18-.68-.2-1.37.16-.7.14-1.39l-.08-1.38c0-.69-.09-.69-.12-1.38s0-.69,0-1.38-.12-.68-.15-1.37l0-1.38c0-.69,0-.7,0-1.39s-.1-.68-.15-1.37-.1-.69-.14-1.38.07-.69,0-1.38,0-.7-.06-1.39l-.11-1.37c-.06-.69-.34-.67-.39-1.36s.14-.7.07-1.39-.09-.69-.17-1.37,0-.7-.06-1.38-.71-.64-.13-1.37a1.42,1.42,0,0,1,1.17-.13c.72.6.23.67.3,1.36s-.15.71-.08,1.4.18.68.24,1.37,0,.7.07,1.39.06.69.13,1.38,0,.69.09,1.38.18.68.23,1.37-.06.7,0,1.39l.08,1.39c0,.69.17.68.21,1.37s-.14.71-.11,1.4.07.69.11,1.38.2.69.23,1.38l.08,1.38c0,.7,0,.7,0,1.39s.05.69.09,1.39-.11.69-.09,1.39,0,.69,0,1.38.08.69.1,1.39,0,.69,0,1.38.06.69.07,1.39-.11.69-.11,1.38,0,.7,0,1.39.11.69.11,1.39.12.69.12,1.38,0,.7-.05,1.39-.15.69-.16,1.38.06.7.05,1.39.18.7.16,1.39-.08.69-.09,1.38-.22.69-.24,1.39.21.69.19,1.39-.15.69-.17,1.38,0,.69-.05,1.38.07.7.05,1.39,0,.7,0,1.39l-.06,1.39-.06,1.38c0,.69-.27.68-.3,1.37s0,.7,0,1.39.08.7,0,1.39-.1.69-.14,1.38l-.06,1.38c0,.7-.12.69-.17,1.38s.1.7.06,1.4,0,.69,0,1.38l-.08,1.39-.1,1.38c-.05.69-.21.68-.26,1.37s-.13.68-.19,1.38l-.11,1.38c-.06.69.22.71.16,1.4s-.21.68-.27,1.37-.18.68-.25,1.37.21.71.15,1.4-.13.69-.19,1.38.38.74-.17,1.38A1.67,1.67,0,0,1,233,192.89Z"/><path class="cls-2" d="M61.42,73.36c-.54-.44,0-.27.06-.5s.23-.19.31-.43.07-.23.15-.47,0-.26.06-.5,0-.25.11-.49,0-.27,0-.5.35-.15.43-.38-.13-.31-.05-.54.12-.22.2-.46.11-.22.19-.46.14-.21.22-.45,0-.25.1-.49,0-.26.1-.49.19-.2.27-.43l.16-.47c.08-.24-.1-.3,0-.53s.08-.24.15-.48.33-.15.41-.38-.08-.28,0-.5.23-.18.28-.4,0-.24,0-.47-.15-.24-.13-.45,0-.21,0-.41.21-.21.17-.41-.21-.15-.26-.31.14-.14.09-.22-.14.07-.18,0-.06.1-.08.13-.11-.26-.19-.18a2.06,2.06,0,0,0-.29.24c-.18.16,0,.36-.18.52s-.28.06-.45.23l-.34.34c-.17.18-.25.1-.42.27s-.09.26-.25.44-.09.24-.25.42-.22.13-.38.32-.08.25-.24.43-.32,0-.47.25,0,.29-.17.48-.3.07-.44.27-.13.21-.27.41-.09.24-.23.43-.18.18-.32.38-.06.25-.2.45l-.28.4c-.13.2-.19.16-.31.37s-.09.24-.21.44-.07.24-.2.45-.22.16-.33.37-.16.19-.27.41l-.23.43c-.11.22.14.34,0,.56s-.28.13-.38.35-.07.24-.17.46-.17.19-.26.42.5.47-.2.44a4,4,0,0,1-1.09-.44c-.51-.48,0-.3.05-.53s.29-.15.4-.38,0-.28.11-.51.15-.2.27-.43L56.3,70c.11-.23.13-.22.25-.44s0-.28.13-.5.22-.17.34-.39l.26-.44c.13-.22,0-.28.16-.49s.3-.12.43-.33.11-.24.24-.45,0-.3.15-.51l.28-.42c.15-.21.21-.17.36-.37s.12-.23.27-.43.26-.13.42-.32.19-.18.34-.37.11-.24.27-.44.14-.21.31-.4.13-.22.3-.41.26-.11.43-.29.17-.19.35-.37.1-.26.27-.44.1-.26.28-.44.21-.15.4-.32.29-.06.47-.24.1-.19.43-.44.24-.39.59-.65c.18-.11.26-.22.35-.17a1.74,1.74,0,0,0,.35.26c.34.23.25.41.5.68s.41.14.6.59,0,.35,0,.64a3,3,0,0,1,0,.59c0,.28.09.28.07.57a5.28,5.28,0,0,1,0,.56c0,.27-.06.26-.11.53l-.14.52c-.08.26-.31.19-.39.43s0,.25-.1.48,0,.28,0,.51-.14.22-.22.45l-.14.48c-.08.23-.16.21-.24.44s.06.28,0,.52,0,.25-.1.49l-.15.47-.16.47c-.08.24-.23.19-.31.42s-.15.21-.23.45l-.16.47c-.08.24.18.32.1.56s-.23.18-.31.42-.2.19-.28.43.18.32.1.55-.14.22-.22.46.34.38-.2.45A4.45,4.45,0,0,1,61.42,73.36Z"/><path class="cls-2" d="M232.19,98.76c-.59-.37-.05-.26,0-.51s.21-.21.26-.45l.09-.49c.05-.24,0-.26,0-.5s0-.26,0-.5-.06-.26,0-.51.33-.18.38-.42-.16-.29-.11-.54.1-.23.15-.47.08-.24.13-.48.12-.23.17-.47,0-.26,0-.5,0-.26,0-.5.17-.22.22-.46l.1-.49c.06-.24-.12-.28-.07-.52l.09-.49c.05-.24.31-.19.36-.43s-.11-.29,0-.54.23-.22.31-.47,0-.28.1-.53-.06-.33,0-.58a5.24,5.24,0,0,1,.3-.51c.16-.25.33-.13.52-.35s.08-.35.33-.57.46-.07.81-.23.38-.24.78-.27a1.52,1.52,0,0,0,.43-.06c.12,0,.13.12.23.29.17.4,0,.57.11.91a4.83,4.83,0,0,1,.18.57c.07.24.32.17.4.41s-.09.29,0,.54.06.24.13.48-.05.28,0,.52.18.22.23.47.15.23.2.48,0,.26,0,.51.14.24.18.49-.15.28-.12.53.2.23.23.48-.15.28-.12.53,0,.24.08.5.09.24.11.49,0,.26,0,.51.09.25.11.5v.51c0,.25-.07.26-.07.51s.06.25.07.51.05.25.05.5-.11.25-.12.51-.06.25-.08.5l0,.51c0,.25.27.27.25.52s-.21.24-.24.49,0,.26,0,.51-.11.24-.14.49.61.35-.07.5a3.61,3.61,0,0,1-1.17-.17c-.62-.32-.13-.26-.1-.5s.25-.21.28-.45-.09-.26-.06-.5.08-.24.1-.48l0-.48c0-.25,0-.25,0-.49s-.11-.25-.1-.49.11-.24.11-.48v-.49c0-.24-.12-.24-.12-.48s.19-.25.18-.49-.05-.25-.06-.49-.18-.23-.2-.48l0-.48c0-.24.06-.25,0-.49s-.06-.24-.09-.48.11-.25.08-.5,0-.24,0-.48-.11-.23-.15-.47-.06-.24-.1-.48-.09-.23-.14-.47.07-.26,0-.5-.06-.24-.11-.48-.16-.21-.21-.44-.17-.21-.24-.45,0-.24-.09-.47.08-.28,0-.51a1.19,1.19,0,0,0-.16-.33c0-.09-.17,0-.18,0s0-.12,0-.12,0-.23-.13-.19,0,.26,0,.27-.22,0-.35.15-.12.16-.24.33,0,.23-.13.41,0,.22-.12.43-.09.2-.16.41l-.12.44c0,.23-.28.16-.33.41s0,.25-.05.5.06.26,0,.51-.12.23-.17.47l-.08.49c-.05.24-.14.22-.19.47s.09.27,0,.51,0,.26,0,.5l-.1.49-.1.48c-.05.25-.21.21-.26.46s-.13.22-.18.47l-.1.48c-.05.25.22.3.17.55s-.21.21-.26.45-.18.21-.23.46.21.3.16.54-.11.23-.16.47.38.34-.15.48A4.51,4.51,0,0,1,232.19,98.76Z"/><path class="cls-2" d="M186.75,100.31c-.44.31-.7.28-.91.18A5.7,5.7,0,0,0,185,100c-.82-.4-.74-.54-1.39-1.09a6.67,6.67,0,0,1-1.07-1.31,8.9,8.9,0,0,1-.82-1.45,8.22,8.22,0,0,1-.46-1.61c-.07-.41-.11-.62-.15-.83a3,3,0,0,1-.07-.84c0-.84.34-.81.44-1.61s-.06-.85.18-1.62.31-.75.59-1.51.33-.72.7-1.43.43-.67.82-1.36.36-.7.78-1.36.38-.7.85-1.33.57-.56,1.05-1.18.5-.6,1-1.2.37-.72.9-1.3.52-.58,1.07-1.14.74-.37,1.29-.92.46-.65,1-1.19.69-.4,1.28-.9.54-.57,1.15-1.06.49-.64,1.11-1.12.64-.46,1.28-.92.76-.27,1.42-.7.58-.57,1.28-1,.8-.19,1.52-.53a10.25,10.25,0,0,1,1.45-.71,11.2,11.2,0,0,1,1.58-.5,1.73,1.73,0,0,1,.86,0,4.07,4.07,0,0,0,.84.11,5.12,5.12,0,0,1,1.66.37c.42.11.61.24.85.28a1.49,1.49,0,0,1,.8.46,1.8,1.8,0,0,1,.54.75c.08.22.21.41.38.81s.23.6.31.81.09.41.18.83a2.41,2.41,0,0,1,0,.84c0,.2,0,.41,0,.82a10.92,10.92,0,0,1-.07,1.62,10.5,10.5,0,0,1-.29,1.6,10.82,10.82,0,0,1-.61,1.49,9.69,9.69,0,0,1-.58,1.52c-.38.7-.56.59-1,1.26s-.28.76-.71,1.41-.59.54-1,1.18-.43.65-.89,1.27-.41.67-.89,1.28-.52.58-1,1.19-.43.66-.93,1.25-.52.58-1,1.17-.57.53-1.1,1.1-.49.61-1,1.17-.51.59-1.07,1.14-.65.45-1.22,1-.61.49-1.22,1-.61.49-1.23,1-.45.71-1.12,1.15-.78.26-1.47.67a14.86,14.86,0,0,1-1.43.74,9.51,9.51,0,0,1-1.58.45c-.79.17-.78.84-1.66.21-.21-.16-.17-1,0-1.18.62-.67.64-.19,1.34-.34s.74,0,1.43-.25a11.74,11.74,0,0,0,1.27-.75c.64-.38.68-.31,1.31-.73s.6-.44,1.22-.88.61-.44,1.19-.93.5-.59,1.07-1.08.63-.44,1.18-1,.55-.53,1.08-1.07.45-.64,1-1.19.67-.42,1.17-1,.48-.6,1-1.18.37-.69.85-1.28l1-1.2c.47-.6.52-.56,1-1.17s.43-.63.87-1.26.55-.54,1-1.18.46-.61.86-1.25.34-.69.7-1.34a10.81,10.81,0,0,0,.59-1.35,11,11,0,0,0,.45-1.41,9.21,9.21,0,0,0,.47-1.4,9.1,9.1,0,0,0,.18-1.46A8.12,8.12,0,0,0,209,73a3.78,3.78,0,0,0-.19-.66,3.37,3.37,0,0,1-.29-.6,4.86,4.86,0,0,0-.3-.56,1.79,1.79,0,0,0-.13-.22l-.26-.27a4.44,4.44,0,0,0-.44-.44,1.08,1.08,0,0,0-.55-.37,3.89,3.89,0,0,0-1.32-.22c-.7,0-.69.18-1.37.26a9.64,9.64,0,0,0-1.4.28c-.68.26-.77,0-1.45.33s-.59.49-1.24.84-.72.25-1.36.65-.63.42-1.25.84-.57.51-1.18,1-.56.51-1.16,1-.59.47-1.17,1-.57.5-1.13,1-.72.35-1.28.88-.51.57-1,1.11-.44.63-1,1.19-.56.52-1.06,1.09-.48.59-1,1.19-.54.54-1,1.15-.32.7-.75,1.32-.36.67-.75,1.31-.37.65-.71,1.31-.31.67-.63,1.35-.43.62-.64,1.33a14.35,14.35,0,0,0-.44,1.41,10.3,10.3,0,0,0-.14,1.46,1.19,1.19,0,0,0,.15.71,3.64,3.64,0,0,1,.21.69,6.62,6.62,0,0,0,.18,1.39c.29.63.14.71.52,1.33s.61.43,1.06.9a3.58,3.58,0,0,0,1,.75c.62.23.67-.22,1.25.32A1.49,1.49,0,0,1,186.75,100.31Z"/><path class="cls-2" d="M186.75,100.31c-.44.31-.7.28-.91.18A5.7,5.7,0,0,0,185,100c-.82-.4-.74-.54-1.39-1.09a6.67,6.67,0,0,1-1.07-1.31,8.9,8.9,0,0,1-.82-1.45,8.22,8.22,0,0,1-.46-1.61c-.07-.41-.11-.62-.15-.83a3,3,0,0,1-.07-.84c0-.84.34-.81.44-1.61s-.06-.85.18-1.62.31-.75.59-1.51.33-.72.7-1.43.43-.67.82-1.36.36-.7.78-1.36.38-.7.85-1.33.57-.56,1.05-1.18.5-.6,1-1.2.37-.72.9-1.3.52-.58,1.07-1.14.74-.37,1.29-.92.46-.65,1-1.19.69-.4,1.28-.9.54-.57,1.15-1.06.49-.64,1.11-1.12.64-.46,1.28-.92.76-.27,1.42-.7.58-.57,1.28-1,.8-.19,1.52-.53a10.25,10.25,0,0,1,1.45-.71,11.2,11.2,0,0,1,1.58-.5,1.73,1.73,0,0,1,.86,0,4.07,4.07,0,0,0,.84.11,5.12,5.12,0,0,1,1.66.37c.42.11.61.24.85.28a1.49,1.49,0,0,1,.8.46,1.8,1.8,0,0,1,.54.75c.08.22.21.41.38.81s.23.6.31.81.09.41.18.83a2.41,2.41,0,0,1,0,.84c0,.2,0,.41,0,.82a10.92,10.92,0,0,1-.07,1.62,10.5,10.5,0,0,1-.29,1.6,10.82,10.82,0,0,1-.61,1.49,9.69,9.69,0,0,1-.58,1.52c-.38.7-.56.59-1,1.26s-.28.76-.71,1.41-.59.54-1,1.18-.43.65-.89,1.27-.41.67-.89,1.28-.52.58-1,1.19-.43.66-.93,1.25-.52.58-1,1.17-.57.53-1.1,1.1-.49.61-1,1.17-.51.59-1.07,1.14-.65.45-1.22,1-.61.49-1.22,1-.61.49-1.23,1-.45.71-1.12,1.15-.78.26-1.47.67a14.86,14.86,0,0,1-1.43.74,9.51,9.51,0,0,1-1.58.45c-.79.17-.78.84-1.66.21-.21-.16-.17-1,0-1.18.62-.67.64-.19,1.34-.34s.74,0,1.43-.25a11.74,11.74,0,0,0,1.27-.75c.64-.38.68-.31,1.31-.73s.6-.44,1.22-.88.61-.44,1.19-.93.5-.59,1.07-1.08.63-.44,1.18-1,.55-.53,1.08-1.07.45-.64,1-1.19.67-.42,1.17-1,.48-.6,1-1.18.37-.69.85-1.28l1-1.2c.47-.6.52-.56,1-1.17s.43-.63.87-1.26.55-.54,1-1.18.46-.61.86-1.25.34-.69.7-1.34a10.81,10.81,0,0,0,.59-1.35,11,11,0,0,0,.45-1.41,9.21,9.21,0,0,0,.47-1.4,9.1,9.1,0,0,0,.18-1.46A8.12,8.12,0,0,0,209,73a3.78,3.78,0,0,0-.19-.66,3.37,3.37,0,0,1-.29-.6,4.86,4.86,0,0,0-.3-.56,1.79,1.79,0,0,0-.13-.22l-.26-.27a4.44,4.44,0,0,0-.44-.44,1.08,1.08,0,0,0-.55-.37,3.89,3.89,0,0,0-1.32-.22c-.7,0-.69.18-1.37.26a9.64,9.64,0,0,0-1.4.28c-.68.26-.77,0-1.45.33s-.59.49-1.24.84-.72.25-1.36.65-.63.42-1.25.84-.57.51-1.18,1-.56.51-1.16,1-.59.47-1.17,1-.57.5-1.13,1-.72.35-1.28.88-.51.57-1,1.11-.44.63-1,1.19-.56.52-1.06,1.09-.48.59-1,1.19-.54.54-1,1.15-.32.7-.75,1.32-.36.67-.75,1.31-.37.65-.71,1.31-.31.67-.63,1.35-.43.62-.64,1.33a14.35,14.35,0,0,0-.44,1.41,10.3,10.3,0,0,0-.14,1.46,1.19,1.19,0,0,0,.15.71,3.64,3.64,0,0,1,.21.69,6.62,6.62,0,0,0,.18,1.39c.29.63.14.71.52,1.33s.61.43,1.06.9a3.58,3.58,0,0,0,1,.75c.62.23.67-.22,1.25.32A1.49,1.49,0,0,1,186.75,100.31Z"/><path class="cls-2" d="M177.79,89.29c-.53-.1-.69-.3-.77-.52a7.46,7.46,0,0,0-.25-.92,4.58,4.58,0,0,1-.21-1.75,6.16,6.16,0,0,1,.17-1.67,8.36,8.36,0,0,1,.44-1.61,8.73,8.73,0,0,1,.81-1.47l.49-.69A2.82,2.82,0,0,1,179,80c.62-.58.81-.34,1.45-.83s.56-.64,1.28-1a16,16,0,0,1,1.47-.65c.75-.27.76-.28,1.51-.52s.78-.17,1.54-.38.76-.24,1.53-.41.76-.22,1.54-.34.79,0,1.57-.08.78-.08,1.56-.15.76-.25,1.55-.28.78,0,1.56,0,.79.26,1.57.26.78-.14,1.56-.11.77.2,1.55.26.78,0,1.56.06.8-.1,1.57,0,.78.12,1.56.25.73.34,1.5.51.81,0,1.58.22.7.44,1.45.7A11.1,11.1,0,0,1,211,78a9.76,9.76,0,0,1,1.47.76,1.75,1.75,0,0,1,.57.64,4.42,4.42,0,0,0,.52.67,5.36,5.36,0,0,1,.92,1.44c.21.38.26.6.4.8a1.46,1.46,0,0,1,.24.89,1.84,1.84,0,0,1-.15.91c-.1.21-.15.43-.3.84l-.36.79c-.1.19-.23.36-.46.71a2.13,2.13,0,0,1-.58.61c-.16.13-.3.28-.61.55-.62.51-.52.66-1.2,1.1a9.34,9.34,0,0,1-1.33.93,10.54,10.54,0,0,1-1.48.62,11,11,0,0,1-1.48.67c-.78.22-.83,0-1.59.21s-.73.33-1.49.49-.81,0-1.57.09-.76.16-1.53.28-.76.18-1.54.27-.77,0-1.55.14-.76.16-1.54.22-.78.05-1.55.09-.78,0-1.56,0-.78.08-1.56.09-.78.06-1.56.05-.78-.14-1.56-.17-.78-.09-1.56-.16-.78-.09-1.56-.18-.82.18-1.6,0-.74-.36-1.51-.56a12.5,12.5,0,0,1-1.54-.49,9.72,9.72,0,0,1-1.44-.8c-.67-.44-1.14,0-1.32-1,0-.26.6-.83.83-.83.92,0,.6.31,1.19.7s.52.54,1.19.84.73.15,1.43.37.7.26,1.44.4.74.12,1.49.24.74.12,1.5.19.76-.06,1.52,0,.75.14,1.51.15.76,0,1.53,0,.76-.13,1.52-.15.77.17,1.53.12.76-.09,1.53-.15.74-.23,1.5-.3l1.52-.19c.76-.09.77,0,1.52-.12s.75-.15,1.5-.28.78,0,1.53-.14.75-.12,1.49-.29.72-.24,1.44-.45a10,10,0,0,0,1.37-.54,9.65,9.65,0,0,0,1.32-.68,8.13,8.13,0,0,0,1.32-.66,8.55,8.55,0,0,0,1.16-.9,7.66,7.66,0,0,0,.86-1.13,3.8,3.8,0,0,0,.34-.6,2.8,2.8,0,0,1,.22-.63c.12-.3.12-.45.18-.61s0-.15.07-.25v-.37c0-.31,0-.46,0-.63a1.09,1.09,0,0,0-.13-.64,3.76,3.76,0,0,0-.78-1.09c-.49-.49-.61-.36-1.15-.79a9.82,9.82,0,0,0-1.19-.79c-.66-.3-.55-.54-1.26-.79s-.76-.07-1.47-.28-.68-.33-1.42-.5-.74-.15-1.48-.29-.76,0-1.51-.15-.76,0-1.52-.12-.75-.09-1.51-.14-.76,0-1.52-.1-.75-.26-1.52-.28-.76,0-1.52,0-.76.14-1.52.16-.77,0-1.53,0-.75.08-1.51.17-.76,0-1.51.12-.72.27-1.47.4-.72.21-1.45.39-.72.2-1.43.43-.7.26-1.39.51-.76.13-1.4.49a12.56,12.56,0,0,0-1.31.69A10.07,10.07,0,0,0,180,81a1.25,1.25,0,0,0-.4.62,2.68,2.68,0,0,1-.34.63,6.66,6.66,0,0,0-.85,1.11c-.24.66-.41.6-.58,1.31s.13.74.12,1.38a3.33,3.33,0,0,0,.2,1.26c.28.61.63.32.65,1.12C178.78,88.65,178.06,89.34,177.79,89.29Z"/><path class="cls-2" d="M185.53,68.37c-.05-.54.1-.75.29-.89a5.23,5.23,0,0,0,.81-.49,4.9,4.9,0,0,1,1.62-.69,6.45,6.45,0,0,1,1.66-.3,8.46,8.46,0,0,1,1.67,0,7.78,7.78,0,0,1,1.64.37l.79.28a2.68,2.68,0,0,1,.77.34c.73.43.55.68,1.2,1.16s.77.35,1.33.94.51.63,1,1.24.47.65.91,1.31.38.7.8,1.37.44.66.81,1.35.43.67.76,1.38.21.77.52,1.49.29.73.58,1.46.44.67.69,1.41.26.74.49,1.49,0,.82.18,1.57.35.72.54,1.47,0,.8.18,1.56.23.75.37,1.52.32.74.44,1.51.1.78.19,1.56-.13.81-.08,1.59.23.78.23,1.58-.22.8-.27,1.59a11.13,11.13,0,0,1-.08,1.62,10.35,10.35,0,0,1-.33,1.62,1.66,1.66,0,0,1-.45.73,4.11,4.11,0,0,0-.5.68,5.28,5.28,0,0,1-1.13,1.28c-.3.31-.51.42-.66.61a1.42,1.42,0,0,1-.79.48,1.79,1.79,0,0,1-.91.11c-.23,0-.46,0-.89-.06l-.86-.12c-.21,0-.41-.12-.81-.25a2.52,2.52,0,0,1-.75-.38c-.17-.13-.35-.22-.7-.44-.66-.46-.77-.31-1.39-.84a10.3,10.3,0,0,1-1.26-1,11,11,0,0,1-1-1.25,10.57,10.57,0,0,1-1-1.24c-.43-.67-.24-.78-.64-1.46s-.52-.61-.88-1.3-.2-.78-.53-1.48-.36-.69-.69-1.39-.39-.68-.69-1.4-.26-.73-.56-1.45-.37-.69-.64-1.42-.26-.74-.53-1.47-.18-.76-.43-1.5-.3-.72-.52-1.47-.28-.73-.48-1.48-.09-.79-.28-1.55-.13-.77-.28-1.54-.13-.77-.26-1.54-.39-.75-.45-1.55.14-.81.11-1.6a14.51,14.51,0,0,1,0-1.61,9.14,9.14,0,0,1,.37-1.61c.23-.76-.36-1.08.61-1.55.24-.11,1,.34,1,.57.3.87-.13.65-.34,1.34s-.37.64-.47,1.37a14.68,14.68,0,0,0,0,1.48c0,.74-.05.74,0,1.49s.09.75.18,1.49.09.76.24,1.5.27.72.43,1.46.07.76.27,1.5.2.73.42,1.46.33.7.56,1.42.06.79.32,1.51.29.71.56,1.42.44.65.71,1.36l.6,1.41c.3.7.23.73.55,1.43s.34.68.68,1.36.22.75.56,1.43.32.69.69,1.35.43.63.83,1.26a9.19,9.19,0,0,0,.91,1.17,10.22,10.22,0,0,0,1,1.07,8,8,0,0,0,1,1.09,9,9,0,0,0,1.19.86,7.69,7.69,0,0,0,1.32.52,3.69,3.69,0,0,0,.67.15,3.57,3.57,0,0,1,.67,0,4.26,4.26,0,0,0,.63,0h.26l.36-.1a5.8,5.8,0,0,0,.6-.17,1.17,1.17,0,0,0,.59-.3,4.15,4.15,0,0,0,.83-1.06c.33-.61.17-.69.43-1.33a8.3,8.3,0,0,0,.43-1.36c.11-.71.38-.67.41-1.42s-.14-.76-.13-1.5.12-.74.08-1.5-.06-.75-.13-1.5-.17-.75-.28-1.5-.17-.74-.3-1.49-.13-.75-.29-1.49-.16-.74-.33-1.49.05-.79-.15-1.53-.25-.72-.48-1.45-.33-.7-.57-1.42-.19-.74-.44-1.45-.29-.71-.58-1.41-.21-.73-.54-1.42-.46-.62-.79-1.3-.41-.63-.78-1.28-.39-.64-.81-1.26-.44-.6-.88-1.2-.33-.68-.86-1.21a12.7,12.7,0,0,0-1-1.06,10.7,10.7,0,0,0-1.2-.83,1.3,1.3,0,0,0-.7-.21,2.76,2.76,0,0,1-.7-.15,6.71,6.71,0,0,0-1.31-.51,8.25,8.25,0,0,0-1.41-.19c-.72.06-.68.33-1.3.5a3.43,3.43,0,0,0-1.16.54c-.5.43-.13.69-.89.93C186.43,69.14,185.56,68.64,185.53,68.37Z"/></g></g></svg>