<svg xmlns="http://www.w3.org/2000/svg" viewBox="0 0 128.61 409.21"><defs><style>.cls-1{fill:#ededed;}.cls-2{fill:none;stroke:#cfd1d2;stroke-linejoin:round;stroke-width:0.65px;}.cls-3{fill:#cfd1d2;}.cls-4{fill:#0078af;}.cls-5{font-size:9.07px;font-family:AlethiaProenlg, "Alethia Pro (enlg)";letter-spacing:-0.01em;}</style></defs><g id="Layer_2" data-name="Layer 2"><g id="Artwork"><polyline class="cls-1" points="38.7 102.4 38.7 77.67 89.91 77.67 89.91 102.4"/><rect class="cls-1" x="29.26" y="102.33" width="70.08" height="67.81"/><path class="cls-2" d="M97.13,102.73V7.35a7,7,0,0,0-7-7H38.5a7,7,0,0,0-7,7v95.38"/><path class="cls-1" d="M5.39,170.14H123.22a5.39,5.39,0,0,1,5.39,5.39V403.1a6.11,6.11,0,0,1-6.11,6.11H6.11A6.11,6.11,0,0,1,0,403.1V175.53A5.39,5.39,0,0,1,5.39,170.14Z"/><line class="cls-2" x1="33.41" y1="102.33" x2="33.41" y2="164.52"/><line class="cls-2" x1="38.16" y1="102.33" x2="38.16" y2="164.52"/><line class="cls-2" x1="42.92" y1="102.33" x2="42.92" y2="164.52"/><line class="cls-2" x1="47.67" y1="102.33" x2="47.67" y2="164.52"/><line class="cls-2" x1="52.42" y1="102.33" x2="52.42" y2="164.52"/><line class="cls-2" x1="57.18" y1="102.33" x2="57.18" y2="164.52"/><line class="cls-2" x1="61.93" y1="102.33" x2="61.93" y2="164.52"/><line class="cls-2" x1="66.68" y1="102.33" x2="66.68" y2="164.52"/><line class="cls-2" x1="71.44" y1="102.33" x2="71.44" y2="164.52"/><line class="cls-2" x1="76.19" y1="102.33" x2="76.19" y2="164.52"/><line class="cls-2" x1="80.94" y1="102.33" x2="80.94" y2="164.52"/><line class="cls-2" x1="85.69" y1="102.33" x2="85.69" y2="164.52"/><line class="cls-2" x1="90.45" y1="102.33" x2="90.45" y2="164.52"/><line class="cls-2" x1="95.2" y1="102.33" x2="95.2" y2="164.52"/><path class="cls-2" d="M44,77.93V18.12a7.37,7.37,0,0,1,7.37-7.37H77.25a7.36,7.36,0,0,1,7.36,7.37V77.93"/><circle class="cls-3" cx="64.31" cy="22.79" r="5.24"/><path d="M30.51,385.37a1.32,1.32,0,0,1-.33-.93,7.37,7.37,0,0,1,.8-2.59l2.39-5.1a8.48,8.48,0,0,0,.91-2.57c0-.36-.15-.54-.44-.54s-.53.23-.94.7-9.38,11.28-9.38,11.28H21.58l3.58-9.22a11.72,11.72,0,0,0,.78-2.3c0-.31-.13-.46-.39-.46-.5,0-1.39.9-2.65,2.71l-.27-.19q2.34-3.46,3.8-3.47a1.49,1.49,0,0,1,1.05.46,1.32,1.32,0,0,1,.33.93,9.1,9.1,0,0,1-.75,2.61l-2.82,7.18c.55-.67,7.37-8.74,8.43-10l.57-.64a1.83,1.83,0,0,1,2.59-.06,1.39,1.39,0,0,1,.32.92,6.84,6.84,0,0,1-.81,2.77l-2.46,5.24a8.11,8.11,0,0,0-.83,2.32c0,.31.14.47.42.47.48,0,1.35-.9,2.6-2.71l.29.14c-1.58,2.31-2.83,3.47-3.77,3.47A1.57,1.57,0,0,1,30.51,385.37Z"/><path d="M14.35,385.88a6.4,6.4,0,0,1-6.75-6.61,6.52,6.52,0,0,1,6.64-6.71,6.33,6.33,0,0,1,6.56,6.52v.84H9.45v0a4.67,4.67,0,0,0,4.89,4.18,4.59,4.59,0,0,0,4.3-2.44l1.63,1A6.6,6.6,0,0,1,14.35,385.88Zm-.11-11.6a4.77,4.77,0,0,0-4.73,4v0h9.35v0A4.37,4.37,0,0,0,14.24,374.28Z"/><rect x="38.39" y="367.16" width="1.9" height="18.45"/><path d="M49.49,391c-2.78,0-4.81-.86-6.21-2.64l1.56-1.22a5.18,5.18,0,0,0,4.63,2.15c2.86,0,4.63-1.83,4.63-4.78v-1.81H54a5.13,5.13,0,0,1-5,3.15,6.53,6.53,0,0,1-6.35-6.69,6.42,6.42,0,0,1,6.35-6.63A5.09,5.09,0,0,1,54,375.45l.07,0v-1.85H56v10.9A6.17,6.17,0,0,1,49.49,391Zm-.15-16.72a4.89,4.89,0,1,0,4.88,4.87A4.8,4.8,0,0,0,49.34,374.32Z"/><path d="M15.54,197v2.07a1.75,1.75,0,0,0-.86-.17,3.63,3.63,0,0,0-3.69,3.5V209H8.6V197.19h1.45l.91,2.24A5.61,5.61,0,0,1,15.54,197Z"/><path d="M26,197.63a5.09,5.09,0,0,1,3,4.73v1H19.41A6.71,6.71,0,0,0,20,206a3.65,3.65,0,0,0,3.28,2.39,3.58,3.58,0,0,0,3.42-3h2.29a3.47,3.47,0,0,1-1,2,6.75,6.75,0,0,1-4.76,1.8,6.54,6.54,0,0,1-3.22-.79,5.74,5.74,0,0,1-3-5.27,6.57,6.57,0,0,1,.78-3.18A5.88,5.88,0,0,1,23.05,197,6.69,6.69,0,0,1,26,197.63Zm-4.58.79a5.15,5.15,0,0,0-1.95,3.94h7.22a5.4,5.4,0,0,0-.54-2.29,3.66,3.66,0,0,0-3-2.22A2.87,2.87,0,0,0,21.38,198.42Z"/><path d="M33.69,200.83A9.34,9.34,0,0,0,37,202.46c2.49,1,3.5,1.84,3.5,3.49,0,2-1.6,3.26-4.58,3.26s-4.9-1.31-5-3.67h2.27A2.57,2.57,0,0,0,36,208.37c1.45,0,2.44-.69,2.44-2a1.64,1.64,0,0,0-.37-1.11,10,10,0,0,0-3.28-1.7,20.73,20.73,0,0,1-1.94-.84,2.7,2.7,0,0,1-1.63-2.53c0-1.9,1.41-3.21,4.39-3.21s4.7,1.16,4.72,3.45H38.13a2.43,2.43,0,0,0-2.66-2.61c-1.46,0-2.24.76-2.24,1.87A1.42,1.42,0,0,0,33.69,200.83Z"/><path d="M50.57,197.19v.91H46.33v7.71a1.94,1.94,0,0,0,2,2.21,2.61,2.61,0,0,0,2-.88l.35.44a3.43,3.43,0,0,1-3.18,1.65,3.25,3.25,0,0,1-3.59-3.35V198.1h-1.7v-.91h1.7V195l2.41-.86v3.08Z"/><path d="M52.86,199.94A5.85,5.85,0,0,1,58.15,197a6.48,6.48,0,0,1,3.15.79,6,6,0,0,1,2.93,5.32,6.23,6.23,0,0,1-.76,3.13,5.88,5.88,0,0,1-5.32,2.93,6.25,6.25,0,0,1-3.13-.79,5.81,5.81,0,0,1-3-5.29A6.44,6.44,0,0,1,52.86,199.94ZM55,205.83a3.47,3.47,0,0,0,3.15,2.54,2.94,2.94,0,0,0,1.9-.67,5.84,5.84,0,0,0,1.75-4.6,7.47,7.47,0,0,0-.47-2.74,3.49,3.49,0,0,0-3.18-2.51,3,3,0,0,0-1.85.64,5.82,5.82,0,0,0-1.77,4.61A7.23,7.23,0,0,0,55,205.83Z"/><path d="M73.84,197v2.07a1.75,1.75,0,0,0-.86-.17,3.63,3.63,0,0,0-3.7,3.5V209H66.9V197.19h1.45l.91,2.24A5.6,5.6,0,0,1,73.84,197Z"/><path d="M77.36,192a1.5,1.5,0,1,1-1.5,1.5A1.52,1.52,0,0,1,77.36,192Zm1.21,5.15V209H76.18V197.19Z"/><path d="M90.47,209.16a1.22,1.22,0,0,1-1.21-1.09c-.12-1.28,1.08-3.64,2.56-6.62a11,11,0,0,0,1.28-3.25c0-.47-.32-.77-.89-.18-.78.84-9.16,11-9.16,11H81l3.67-9.46c.47-1.18.59-1.8,0-1.8-.45,0-1.28.84-2.49,2.56l-.34-.17c1.47-2.22,2.7-3.32,3.64-3.32a1.32,1.32,0,0,1,1.45,1.33,7.49,7.49,0,0,1-.69,2.46l-2.66,6.75,7.93-9.58c1.11-1.31,2.64-1.16,3.18-.52.76.91.37,1.77-1.4,5.49-2,4.26-2.56,5.54-1.87,5.54.44,0,1.28-.81,2.46-2.56l.37.15C93.45,207,92.07,209.23,90.47,209.16Z"/><path d="M97.88,198.86a5.66,5.66,0,0,1,4.56-1.85,6.87,6.87,0,0,1,3,.64,5.45,5.45,0,0,1,4.21-2.06v2.06a2,2,0,0,0-.89-.17,3.45,3.45,0,0,0-2.31.81A3.56,3.56,0,0,1,107,203a5.46,5.46,0,0,1-4.49,1.87,6.64,6.64,0,0,1-3-.61A2.86,2.86,0,0,0,99,205.9c0,.92.64,1.7,2.68,1.7H105c2.34,0,4,1,4,3a3.88,3.88,0,0,1-.81,2.39c-1.11,1.43-3.32,2.32-6.48,2.32-3.35,0-5.24-1.06-5.24-3.06a4.75,4.75,0,0,1,1.82-3.4,2.64,2.64,0,0,1-1.08-2.21,4.22,4.22,0,0,1,1.4-3,3.33,3.33,0,0,1-1.33-2.73A3.21,3.21,0,0,1,97.88,198.86Zm1.43,10.54a3.3,3.3,0,0,0-1.16,2.44c0,1.55,1.26,2.34,3.74,2.34a10.6,10.6,0,0,0,2.79-.35c1.67-.49,2.68-1.4,2.68-2.51s-1.11-1.7-2.81-1.7h-3.49A6.35,6.35,0,0,1,99.31,209.4Zm3.22-5.34a2.83,2.83,0,0,0,2.91-3.11,3,3,0,1,0-6,0A3,3,0,0,0,102.53,204.06Z"/><path d="M14.68,225.53a5.68,5.68,0,0,1,3,.77,6,6,0,0,1,2.78,5.32,6.42,6.42,0,0,1-.74,3.12,5.49,5.49,0,0,1-5,3,4.62,4.62,0,0,1-4.09-2.14l-.71,2H8.6V219.06H11v8.1A4.6,4.6,0,0,1,14.68,225.53Zm-.34,11.28a3,3,0,0,0,1.89-.66A5.61,5.61,0,0,0,18,231.62a7.26,7.26,0,0,0-.46-2.74,3.47,3.47,0,0,0-3.2-2.46c-2.1,0-3.43,2-3.43,5.2S12.19,236.81,14.34,236.81Z"/><path d="M29.85,225.53v2.07a1.75,1.75,0,0,0-.86-.17,3.63,3.63,0,0,0-3.69,3.5v6.6H22.91V225.71h1.45l.91,2.24A5.61,5.61,0,0,1,29.85,225.53Z"/><path d="M33.37,220.56a1.5,1.5,0,1,1-1.5,1.5A1.51,1.51,0,0,1,33.37,220.56Zm1.21,5.15v11.82H32.19V225.71Z"/><path d="M38.5,227.38a5.64,5.64,0,0,1,4.55-1.85,6.67,6.67,0,0,1,3,.64,5.47,5.47,0,0,1,4.21-2.07v2.07a2,2,0,0,0-.88-.17,3.47,3.47,0,0,0-2.32.81,3.56,3.56,0,0,1,.59,4.73,5.46,5.46,0,0,1-4.48,1.87,6.72,6.72,0,0,1-3-.61,2.92,2.92,0,0,0-.51,1.62c0,.91.64,1.7,2.68,1.7h3.28c2.34,0,4,1,4,3a3.9,3.9,0,0,1-.81,2.39c-1.11,1.43-3.33,2.32-6.48,2.32-3.35,0-5.24-1.06-5.24-3.06a4.75,4.75,0,0,1,1.82-3.4,2.63,2.63,0,0,1-1.09-2.21,4.24,4.24,0,0,1,1.41-3,3.33,3.33,0,0,1-1.33-2.73A3.21,3.21,0,0,1,38.5,227.38Zm1.43,10.54a3.3,3.3,0,0,0-1.16,2.44c0,1.55,1.25,2.34,3.74,2.34a10.47,10.47,0,0,0,2.78-.35C47,241.86,48,241,48,239.84s-1.11-1.7-2.81-1.7h-3.5A6.23,6.23,0,0,1,39.93,237.92Zm3.22-5.34a2.83,2.83,0,0,0,2.91-3.11,3,3,0,1,0-6-.05A3,3,0,0,0,43.15,232.58Z"/><path d="M58.84,225.53c2.66,0,4.38,1.65,4.38,4.14v7.86H60.81v-7.61c0-2.17-.93-3.5-2.58-3.5s-3.38,1.58-3.7,4.11v7H52.14V219.06h2.39v8.42A5.56,5.56,0,0,1,58.84,225.53Z"/><path d="M73.59,225.71v.91H69.36v7.71a2,2,0,0,0,2,2.21,2.63,2.63,0,0,0,2-.88l.35.44a3.43,3.43,0,0,1-3.18,1.65A3.25,3.25,0,0,1,67,234.4v-7.78h-1.7v-.91H67v-2.22l2.41-.86v3.08Z"/><path d="M84.11,226.15a5.09,5.09,0,0,1,3,4.73v1H77.56a6.9,6.9,0,0,0,.54,2.61,3.65,3.65,0,0,0,3.28,2.39,3.58,3.58,0,0,0,3.42-3h2.29a3.54,3.54,0,0,1-1,2,6.73,6.73,0,0,1-4.76,1.8,6.54,6.54,0,0,1-3.22-.79,5.74,5.74,0,0,1-3-5.27,6.46,6.46,0,0,1,.79-3.18,5.86,5.86,0,0,1,5.32-2.93A6.68,6.68,0,0,1,84.11,226.15Zm-4.58.79a5.12,5.12,0,0,0-1.94,3.94H84.8a5.4,5.4,0,0,0-.54-2.29,3.66,3.66,0,0,0-3-2.22A2.87,2.87,0,0,0,79.53,226.94Z"/><path d="M98.25,237.67A1.21,1.21,0,0,1,97,236.59c-.12-1.28,1.09-3.64,2.56-6.62a11,11,0,0,0,1.28-3.26c0-.46-.32-.76-.88-.17-.79.84-9.16,11-9.16,11h-2l3.67-9.46c.46-1.18.59-1.8,0-1.8-.44,0-1.28.84-2.49,2.56l-.34-.17c1.48-2.22,2.71-3.32,3.64-3.32a1.32,1.32,0,0,1,1.46,1.33,7.76,7.76,0,0,1-.69,2.46l-2.66,6.75,7.93-9.58c1.11-1.31,2.63-1.16,3.17-.52.77.91.37,1.77-1.4,5.49-2,4.26-2.56,5.54-1.87,5.54.44,0,1.28-.81,2.46-2.56l.37.15C101.23,235.56,99.85,237.75,98.25,237.67Z"/><path d="M106.75,220.56a1.5,1.5,0,1,1,0,3,1.5,1.5,0,1,1,0-3Zm1.2,5.15v11.82h-2.39V225.71Z"/><path d="M119.85,237.67a1.21,1.21,0,0,1-1.21-1.08c-.12-1.28,1.09-3.64,2.56-6.62a11,11,0,0,0,1.28-3.26c0-.46-.32-.76-.88-.17-.79.84-9.16,11-9.16,11h-2l3.67-9.46c.46-1.18.59-1.8,0-1.8-.44,0-1.28.84-2.49,2.56l-.34-.17c1.48-2.22,2.71-3.32,3.64-3.32a1.32,1.32,0,0,1,1.46,1.33,7.76,7.76,0,0,1-.69,2.46L113,235.88l7.93-9.58c1.11-1.31,2.63-1.16,3.17-.52.77.91.37,1.77-1.4,5.49-2,4.26-2.56,5.54-1.87,5.54.44,0,1.28-.81,2.46-2.56l.37.15C122.83,235.56,121.45,237.75,119.85,237.67Z"/><path d="M15.3,254.05c2.66,0,4.38,1.65,4.38,4.14v7.86H17.27v-7.61c0-2.17-.94-3.5-2.59-3.5-1.8,0-3.37,1.57-3.69,4.11v7H8.6V247.58H11V256A5.56,5.56,0,0,1,15.3,254.05Z"/><path d="M27,265.77l-5.59-11.55h2.7l4.17,9,3.86-9h1.38l-7.61,18H23.74Z"/><path d="M40.32,266.22a5.69,5.69,0,0,1-3-.79,5.94,5.94,0,0,1-2.81-5.3,6.74,6.74,0,0,1,.74-3.15,5.54,5.54,0,0,1,5-2.93,4.71,4.71,0,0,1,3.67,1.6v-8.07H46.4v18.47H44.85l-.54-1.88A4.59,4.59,0,0,1,40.32,266.22Zm.34-11.28a3.06,3.06,0,0,0-1.89.64A5.62,5.62,0,0,0,37,260.13a7,7,0,0,0,.46,2.71,3.49,3.49,0,0,0,3.2,2.49c2.1,0,3.43-2,3.43-5.2S42.76,254.94,40.66,254.94Z"/><path d="M56.43,254.05v2.07a1.75,1.75,0,0,0-.86-.17,3.63,3.63,0,0,0-3.7,3.5v6.6H49.48V254.22h1.46l.91,2.25A5.6,5.6,0,0,1,56.43,254.05Z"/><path d="M68.62,258.36v7.69H67.14l-.59-1.6a4.64,4.64,0,0,1-4,1.77c-2.56,0-4.46-1.16-4.46-3.35,0-2.39,2.27-3.5,5.74-3.5a16.73,16.73,0,0,1,2.44.2v-1.16c0-2.29-.84-3.45-2.68-3.45a2.7,2.7,0,0,0-2.94,2.86H58.47c0-2.39,2.07-3.74,5.1-3.74C66.8,254.08,68.62,255.6,68.62,258.36Zm-5.49,6.85c1.84,0,2.83-1.11,3.1-3.38v-1.45a13.52,13.52,0,0,0-1.82-.15c-2.49,0-4.07.84-4.07,2.61C60.34,264.4,61.55,265.21,63.13,265.21Z"/><path d="M78.62,254.22v.92H74.38v7.7a2,2,0,0,0,2,2.22,2.62,2.62,0,0,0,2-.89l.34.45a3.41,3.41,0,0,1-3.17,1.65c-2.25,0-3.6-1.36-3.6-3.35v-7.78h-1.7v-.92H72V252l2.41-.86v3.07Z"/><path d="M82.24,249.08a1.5,1.5,0,1,1-1.5,1.5A1.52,1.52,0,0,1,82.24,249.08Zm1.21,5.14v11.83H81.06V254.22Z"/><path d="M95.34,266.19a1.2,1.2,0,0,1-1.2-1.08c-.13-1.28,1.08-3.65,2.56-6.62A11,11,0,0,0,98,255.23c0-.46-.32-.76-.89-.17-.79.84-9.16,11-9.16,11h-2l3.67-9.46c.47-1.18.59-1.8,0-1.8-.44,0-1.28.84-2.48,2.56l-.35-.17c1.48-2.22,2.71-3.33,3.65-3.33a1.32,1.32,0,0,1,1.45,1.33,7.73,7.73,0,0,1-.69,2.47l-2.66,6.75,7.93-9.58c1.11-1.31,2.64-1.16,3.18-.52.76.91.37,1.77-1.41,5.49-2,4.26-2.56,5.54-1.87,5.54.45,0,1.28-.81,2.47-2.56l.37.15C98.32,264.08,96.94,266.27,95.34,266.19Z"/><path d="M102.76,255.9a5.64,5.64,0,0,1,4.55-1.85,6.67,6.67,0,0,1,3,.64,5.47,5.47,0,0,1,4.21-2.07v2.07a2,2,0,0,0-.88-.17,3.47,3.47,0,0,0-2.32.81,3.56,3.56,0,0,1,.59,4.73,5.46,5.46,0,0,1-4.48,1.87,6.72,6.72,0,0,1-3-.61,2.91,2.91,0,0,0-.52,1.62c0,.91.65,1.7,2.69,1.7h3.27c2.34,0,4,1,4,3a3.9,3.9,0,0,1-.81,2.39c-1.11,1.43-3.33,2.31-6.48,2.31-3.35,0-5.25-1.05-5.25-3.05a4.76,4.76,0,0,1,1.83-3.4,2.63,2.63,0,0,1-1.09-2.21,4.24,4.24,0,0,1,1.41-3,3.33,3.33,0,0,1-1.33-2.73A3.21,3.21,0,0,1,102.76,255.9Zm1.43,10.54a3.3,3.3,0,0,0-1.16,2.44c0,1.55,1.25,2.34,3.74,2.34a10.9,10.9,0,0,0,2.78-.35c1.68-.49,2.69-1.4,2.69-2.51s-1.11-1.7-2.81-1.7h-3.5A6.23,6.23,0,0,1,104.19,266.44Zm3.22-5.34a2.83,2.83,0,0,0,2.91-3.11,3,3,0,1,0-6-.05A3,3,0,0,0,107.41,261.1Z"/><rect class="cls-4" x="5.49" y="342.27" width="102.31" height="13.4"/><path d="M12.76,333.68v.38H11v3.25a.83.83,0,0,0,.85.94,1.11,1.11,0,0,0,.84-.38l.14.19a1.43,1.43,0,0,1-1.34.69A1.37,1.37,0,0,1,10,337.34v-3.28H9.24v-.38H10v-.93l1-.37v1.3Z"/><path d="M16.76,333.61a1.69,1.69,0,0,1,1.85,1.74v3.31h-1v-3.2c0-.92-.39-1.48-1.09-1.48s-1.42.67-1.55,1.73v3h-1v-7.78h1v3.55A2.33,2.33,0,0,1,16.76,333.61Z"/><path d="M23.67,333.87a2.13,2.13,0,0,1,1.25,2v.43h-4a2.68,2.68,0,0,0,.23,1.09,1.53,1.53,0,0,0,1.38,1A1.51,1.51,0,0,0,24,337.15h1a1.53,1.53,0,0,1-.44.83,2.85,2.85,0,0,1-2,.75,2.74,2.74,0,0,1-1.36-.33,2.42,2.42,0,0,1-1.26-2.22,2.72,2.72,0,0,1,.34-1.34,2.45,2.45,0,0,1,2.24-1.23A2.76,2.76,0,0,1,23.67,333.87Zm-1.93.33a2.14,2.14,0,0,0-.82,1.66h3a2.27,2.27,0,0,0-.23-1,1.53,1.53,0,0,0-1.27-.93A1.2,1.2,0,0,0,21.74,334.2Z"/><path d="M33.09,335.42v3.24h-.62l-.25-.67a2,2,0,0,1-1.71.74c-1.07,0-1.87-.48-1.87-1.41s.95-1.47,2.41-1.47a7,7,0,0,1,1,.08v-.48c0-1-.35-1.46-1.13-1.46a1.13,1.13,0,0,0-1.23,1.21h-.91c0-1,.87-1.58,2.15-1.58S33.09,334.26,33.09,335.42Zm-2.32,2.89c.78,0,1.2-.47,1.31-1.42v-.61a4.75,4.75,0,0,0-.77-.07c-1,0-1.71.36-1.71,1.1S30.11,338.31,30.77,338.31Z"/><path d="M35.65,330.88v7.78h-1v-7.78Z"/><path d="M38.31,330.88v7.78h-1v-7.78Z"/><path d="M39.61,335.68H42.2v.42H39.61Z"/><path d="M46.42,333.61v.87a.72.72,0,0,0-.36-.07,1.53,1.53,0,0,0-1.56,1.47v2.78h-1v-5h.61l.38.94A2.38,2.38,0,0,1,46.42,333.61Z"/><path d="M47.5,334.84a2.47,2.47,0,0,1,2.23-1.23,2.7,2.7,0,0,1,1.33.33,2.53,2.53,0,0,1,1.23,2.24A2.61,2.61,0,0,1,52,337.5a2.46,2.46,0,0,1-2.24,1.23,2.64,2.64,0,0,1-1.32-.33,2.43,2.43,0,0,1-1.24-2.23A2.7,2.7,0,0,1,47.5,334.84Zm.9,2.48a1.46,1.46,0,0,0,1.33,1.07,1.24,1.24,0,0,0,.8-.28,2.45,2.45,0,0,0,.74-1.94,3.23,3.23,0,0,0-.2-1.15A1.48,1.48,0,0,0,49.73,334a1.23,1.23,0,0,0-.78.27,2.45,2.45,0,0,0-.74,1.94A3.12,3.12,0,0,0,48.4,337.32Z"/><path d="M55.31,338.73A1.69,1.69,0,0,1,53.46,337v-3.31h1v3.21c0,.92.39,1.47,1.1,1.47s1.38-.63,1.55-1.66v-3h1v5h-.62l-.33-.81A2.38,2.38,0,0,1,55.31,338.73Z"/><path d="M63.19,338.72a.51.51,0,0,1-.51-.45,7.76,7.76,0,0,1,1.08-2.79,4.58,4.58,0,0,0,.54-1.37c0-.2-.13-.32-.37-.08s-3.86,4.63-3.86,4.63h-.85l1.54-4c.2-.5.25-.76,0-.76s-.54.35-1,1.08l-.15-.07c.62-.94,1.14-1.4,1.54-1.4a.55.55,0,0,1,.61.56,3.12,3.12,0,0,1-.29,1L60.3,338l3.34-4a.92.92,0,0,1,1.34-.22c.32.39.15.75-.59,2.32-.86,1.79-1.08,2.33-.79,2.33s.54-.34,1-1.08l.16.06C64.45,337.83,63.87,338.75,63.19,338.72Z"/><path d="M68.21,338.73A2.36,2.36,0,0,1,67,338.4a2.48,2.48,0,0,1-1.19-2.23,2.93,2.93,0,0,1,.31-1.33,2.33,2.33,0,0,1,2.13-1.23,2,2,0,0,1,1.55.67v-3.4h1v7.78h-.65l-.23-.79A1.93,1.93,0,0,1,68.21,338.73Zm.15-4.75a1.35,1.35,0,0,0-.8.27,2.38,2.38,0,0,0-.75,1.92,2.83,2.83,0,0,0,.2,1.14,1.46,1.46,0,0,0,1.35,1.05c.88,0,1.44-.86,1.44-2.19S69.24,334,68.36,334Z"/><path d="M75.94,333.87a2.14,2.14,0,0,1,1.24,2v.43h-4a2.68,2.68,0,0,0,.23,1.09,1.45,1.45,0,0,0,2.82-.23h1a1.46,1.46,0,0,1-.43.83,2.87,2.87,0,0,1-2,.75,2.74,2.74,0,0,1-1.36-.33,2.42,2.42,0,0,1-1.26-2.22,2.72,2.72,0,0,1,.33-1.34,2.47,2.47,0,0,1,2.24-1.23A2.8,2.8,0,0,1,75.94,333.87ZM74,334.2a2.14,2.14,0,0,0-.82,1.66h3a2.27,2.27,0,0,0-.23-1,1.54,1.54,0,0,0-1.28-.93A1.17,1.17,0,0,0,74,334.2Z"/><path d="M81.57,333.61v.87a.74.74,0,0,0-.36-.07,1.52,1.52,0,0,0-1.56,1.47v2.78h-1v-5h.61l.39.94A2.37,2.37,0,0,1,81.57,333.61Z"/><path d="M82.55,335.55h8.93V336H82.55Z"/><path d="M11.45,343.81a1.57,1.57,0,0,1,1.16.43l-.16.25a1.23,1.23,0,0,0-.7-.22c-.46,0-.77.34-.77,1.12v1.25h1.48V347H11v4.59H10V347H9.24v-.39H10v-1C10,344.41,10.49,343.81,11.45,343.81Z"/><path d="M13.52,347.81a2.45,2.45,0,0,1,2.23-1.24,2.85,2.85,0,0,1,1.33.33,2.55,2.55,0,0,1,1.23,2.24,2.61,2.61,0,0,1-.32,1.32,2.49,2.49,0,0,1-2.24,1.24,2.72,2.72,0,0,1-1.32-.33,2.47,2.47,0,0,1-1.25-2.24A2.67,2.67,0,0,1,13.52,347.81Zm.9,2.48a1.47,1.47,0,0,0,1.33,1.07,1.3,1.3,0,0,0,.8-.28,2.51,2.51,0,0,0,.73-1.95,3.27,3.27,0,0,0-.19-1.15,1.48,1.48,0,0,0-1.34-1.06,1.29,1.29,0,0,0-.78.27,2.44,2.44,0,0,0-.75,1.94A3,3,0,0,0,14.42,350.29Z"/><path d="M22.51,346.57v.87a.74.74,0,0,0-.36-.07,1.53,1.53,0,0,0-1.56,1.47v2.78h-1v-5h.62l.38.95A2.38,2.38,0,0,1,22.51,346.57Z"/><path d="M28.36,351.7a2.4,2.4,0,0,1-2.44-2.57,2.76,2.76,0,0,1,.31-1.32,2.33,2.33,0,0,1,2.13-1.24,2,2,0,0,1,1.54.68v-3.41h1v7.78h-.65l-.23-.78A2,2,0,0,1,28.36,351.7ZM28.5,347a1.34,1.34,0,0,0-.8.26,2.41,2.41,0,0,0-.74,1.92,3.12,3.12,0,0,0,.19,1.15,1.47,1.47,0,0,0,1.35,1c.88,0,1.45-.86,1.45-2.19S29.38,347,28.5,347Z"/><path d="M36,346.83a2.13,2.13,0,0,1,1.25,2v.43h-4a2.73,2.73,0,0,0,.23,1.1,1.55,1.55,0,0,0,1.38,1,1.51,1.51,0,0,0,1.44-1.25h1a1.53,1.53,0,0,1-.44.83,2.81,2.81,0,0,1-2,.76,2.85,2.85,0,0,1-1.36-.33,2.44,2.44,0,0,1-1.26-2.23,2.79,2.79,0,0,1,.33-1.33,2.48,2.48,0,0,1,2.25-1.24A2.76,2.76,0,0,1,36,346.83Zm-1.93.33a2.16,2.16,0,0,0-.82,1.66h3a2.19,2.19,0,0,0-.23-1,1.55,1.55,0,0,0-1.27-.94A1.27,1.27,0,0,0,34.05,347.16Z"/><path d="M41.4,346.57a1.69,1.69,0,0,1,1.85,1.74v3.31h-1v-3.2c0-.91-.39-1.47-1.09-1.47s-1.42.66-1.55,1.73v2.94h-1v-7.78h1v3.55A2.33,2.33,0,0,1,41.4,346.57Z"/><path d="M46.67,351.51l-2.35-4.87h1.14l1.75,3.79,1.63-3.79h.58l-3.2,7.58h-.9Z"/><path d="M52.58,351.7a2.48,2.48,0,0,1-1.25-.33,2.51,2.51,0,0,1-1.19-2.24,2.77,2.77,0,0,1,.32-1.32,2.31,2.31,0,0,1,2.12-1.24,2,2,0,0,1,1.55.68v-3.41h1v7.78h-.66l-.23-.78A1.93,1.93,0,0,1,52.58,351.7Zm.15-4.75a1.34,1.34,0,0,0-.8.26,2.38,2.38,0,0,0-.75,1.92,2.92,2.92,0,0,0,.2,1.15,1.47,1.47,0,0,0,1.35,1c.88,0,1.44-.86,1.44-2.19S53.61,347,52.73,347Z"/><path d="M59.73,346.57v.87a.74.74,0,0,0-.36-.07,1.53,1.53,0,0,0-1.56,1.47v2.78h-1v-5h.61l.39.95A2.38,2.38,0,0,1,59.73,346.57Z"/><path d="M65,348.39v3.23H64.4l-.25-.67a2,2,0,0,1-1.7.75c-1.08,0-1.88-.49-1.88-1.41s1-1.48,2.41-1.48a5.89,5.89,0,0,1,1,.09v-.49c0-1-.35-1.45-1.13-1.45a1.13,1.13,0,0,0-1.23,1.2h-.91c0-1,.87-1.58,2.15-1.58S65,347.23,65,348.39Zm-2.32,2.88c.78,0,1.2-.47,1.31-1.42v-.61a6,6,0,0,0-.77-.06c-1,0-1.71.35-1.71,1.1S62,351.27,62.7,351.27Z"/><path d="M69.69,346.64V347H67.91v3.25a.82.82,0,0,0,.85.93,1.14,1.14,0,0,0,.84-.37l.15.18a1.44,1.44,0,0,1-1.34.7,1.37,1.37,0,0,1-1.52-1.41V347h-.71v-.39h.71v-.93l1-.36v1.29Z"/><path d="M74.28,346.83a2.12,2.12,0,0,1,1.24,2v.43h-4a2.73,2.73,0,0,0,.23,1.1,1.55,1.55,0,0,0,1.38,1,1.51,1.51,0,0,0,1.44-1.25h1a1.46,1.46,0,0,1-.43.83,3,3,0,0,1-3.36.43,2.44,2.44,0,0,1-1.26-2.23,2.68,2.68,0,0,1,.33-1.33,2.48,2.48,0,0,1,2.24-1.24A2.77,2.77,0,0,1,74.28,346.83Zm-1.93.33a2.16,2.16,0,0,0-.82,1.66h3a2.19,2.19,0,0,0-.23-1,1.55,1.55,0,0,0-1.28-.94A1.24,1.24,0,0,0,72.35,347.16Z"/><path d="M78.92,351.7a2.4,2.4,0,0,1-2.43-2.57,2.76,2.76,0,0,1,.31-1.32,2.31,2.31,0,0,1,2.12-1.24,2,2,0,0,1,1.55.68v-3.41h1v7.78h-.66l-.23-.78A1.93,1.93,0,0,1,78.92,351.7Zm.15-4.75a1.34,1.34,0,0,0-.8.26,2.38,2.38,0,0,0-.75,1.92,3.11,3.11,0,0,0,.2,1.15,1.47,1.47,0,0,0,1.35,1c.88,0,1.44-.86,1.44-2.19S80,347,79.07,347Z"/><path d="M86.62,348.18a3.85,3.85,0,0,0,1.38.69c1,.42,1.47.77,1.47,1.47s-.67,1.37-1.93,1.37-2.06-.55-2.09-1.55h1a1.09,1.09,0,0,0,1.17,1.2c.61,0,1-.3,1-.83a.67.67,0,0,0-.16-.47,4.09,4.09,0,0,0-1.38-.72c-.34-.13-.62-.25-.82-.35a1.15,1.15,0,0,1-.68-1.07c0-.8.59-1.35,1.85-1.35s2,.49,2,1.45h-.91a1,1,0,0,0-1.13-1.1c-.61,0-.94.33-.94.79A.59.59,0,0,0,86.62,348.18Z"/><path d="M91.87,348.69,94,346.64h.77l-2.1,2,2.58,2.94H94.13l-2.26-2.39v2.39h-1v-7.78h1Z"/><path d="M96.76,344.48a.63.63,0,1,1-.63.63A.64.64,0,0,1,96.76,344.48Zm.51,2.16v5h-1v-5Z"/><path d="M102.43,351.69a.51.51,0,0,1-.5-.46,7.44,7.44,0,0,1,1.08-2.79,4.79,4.79,0,0,0,.53-1.37c0-.2-.13-.32-.37-.07s-3.86,4.62-3.86,4.62h-.85l1.55-4c.19-.5.25-.76,0-.76s-.54.36-1,1.08l-.15-.07c.63-.93,1.14-1.4,1.54-1.4a.55.55,0,0,1,.61.56,3.15,3.15,0,0,1-.29,1l-1.12,2.84,3.34-4a.92.92,0,0,1,1.34-.21c.32.38.15.74-.59,2.31-.85,1.79-1.08,2.33-.79,2.33s.54-.34,1-1.07l.15.06C103.69,350.79,103.11,351.72,102.43,351.69Z"/><text class="cls-5" transform="translate(89.36 386.03)">55ml</text><path d="M120.76,381.48a3.92,3.92,0,0,0-1.09-1.88,3.88,3.88,0,0,0-.6-.47,3.74,3.74,0,0,0-.84-.38,3.63,3.63,0,0,0-1.5-.13,3.47,3.47,0,0,0-.77.19,3.64,3.64,0,0,0-1.56,1.12,3.8,3.8,0,0,0-.68,1.19,4.11,4.11,0,0,0-.23,1.2,4.31,4.31,0,0,0,.14,1.19,4.07,4.07,0,0,0,.46,1.07,3.81,3.81,0,0,0,.77.88,3.4,3.4,0,0,0,.86.55,3.5,3.5,0,0,0,1.31.32,4.19,4.19,0,0,0,1-.09,4.3,4.3,0,0,0,1-.37,3.92,3.92,0,0,0,.9-.6,3.2,3.2,0,0,0,.55-.61l.12-.19h-.47l0,0a3.47,3.47,0,0,1-.59.68,3.06,3.06,0,0,1-.84.53,4,4,0,0,1-1.13.31,3,3,0,0,1-.79,0,3.25,3.25,0,0,1-.74-.2,3.7,3.7,0,0,1-1.07-.69.05.05,0,0,1,0-.05v-2.45h5.93v0A4.11,4.11,0,0,0,120.76,381.48Zm-1.34-1.19v2H115v-2.45a.08.08,0,0,1,0-.05,3.8,3.8,0,0,1,.78-.55,3.58,3.58,0,0,1,.9-.32,2.93,2.93,0,0,1,.66,0,3,3,0,0,1,1.24.33,3.76,3.76,0,0,1,.85.58.08.08,0,0,1,0,.05Z"/></g></g></svg>