<svg xmlns="http://www.w3.org/2000/svg" viewBox="0 0 1064.59 509.66"><defs><style>.cls-1{fill:#ededed;}.cls-2,.cls-41,.cls-56,.cls-57{fill:none;}.cls-2{stroke:#c8cacb;stroke-linejoin:round;stroke-width:0.65px;}.cls-3{fill:#c8cacb;}.cls-4{font-size:24.67px;}.cls-16,.cls-18,.cls-4,.cls-42{font-family:AlethiaProenlg, "Alethia Pro (enlg)";}.cls-12,.cls-4{letter-spacing:-0.04em;}.cls-5{letter-spacing:-0.03em;}.cls-6{letter-spacing:-0.05em;}.cls-7{letter-spacing:0em;}.cls-8{letter-spacing:-0.04em;}.cls-9{letter-spacing:-0.02em;}.cls-10{letter-spacing:-0.04em;}.cls-11{letter-spacing:-0.02em;}.cls-13{letter-spacing:-0.03em;}.cls-14{letter-spacing:-0.01em;}.cls-15{letter-spacing:-0.05em;}.cls-16{font-size:9.09px;letter-spacing:-0.01em;}.cls-17{fill:#0078af;}.cls-18,.cls-42{font-size:48px;}.cls-18,.cls-21{letter-spacing:-0.02em;}.cls-19{letter-spacing:-0.03em;}.cls-20{letter-spacing:-0.03em;}.cls-21{font-size:24px;font-family:AlethiaPro-Regular, Alethia Pro;}.cls-22,.cls-47,.cls-50,.cls-51,.cls-52,.cls-53,.cls-54{font-size:16px;}.cls-22{letter-spacing:-0.02em;}.cls-23,.cls-29,.cls-33,.cls-34,.cls-35,.cls-36{font-size:15px;}.cls-23{letter-spacing:-0.03em;}.cls-24,.cls-33,.cls-52{letter-spacing:-0.02em;}.cls-25{letter-spacing:-0.04em;}.cls-26,.cls-35{letter-spacing:-0.03em;}.cls-27{letter-spacing:-0.03em;}.cls-28,.cls-29{letter-spacing:-0.02em;}.cls-30{letter-spacing:-0.04em;}.cls-31{letter-spacing:-0.04em;}.cls-32{letter-spacing:-0.04em;}.cls-34,.cls-38{letter-spacing:-0.03em;}.cls-36{letter-spacing:-0.04em;}.cls-37{letter-spacing:-0.04em;}.cls-39{letter-spacing:-0.03em;}.cls-40{letter-spacing:-0.04em;}.cls-41{stroke:#000;stroke-width:0.7px;}.cls-41,.cls-55,.cls-56,.cls-57{stroke-miterlimit:10;}.cls-42{letter-spacing:-0.04em;}.cls-43{letter-spacing:-0.04em;}.cls-44{letter-spacing:-0.02em;}.cls-45{letter-spacing:-0.03em;}.cls-46{letter-spacing:-0.02em;}.cls-47{letter-spacing:-0.03em;}.cls-48{letter-spacing:-0.07em;}.cls-49{letter-spacing:-0.04em;}.cls-50{letter-spacing:-0.04em;}.cls-51{letter-spacing:-0.04em;}.cls-53{letter-spacing:-0.03em;}.cls-54{letter-spacing:-0.03em;}.cls-55{fill:#dadad9;}.cls-55,.cls-56{stroke:#fff;stroke-width:0.96px;}.cls-57{stroke:#dadad9;stroke-width:0.94px;}</style></defs><g id="Layer_2" data-name="Layer 2"><g id="Artwork"><polyline class="cls-1" points="508.36 180.9 508.36 156.13 559.64 156.13 559.64 180.9"/><rect class="cls-1" x="498.9" y="180.83" width="70.2" height="67.92"/><path class="cls-2" d="M566.88,181.23V85.69a7,7,0,0,0-7-7H508.16a7,7,0,0,0-7,7v95.54"/><path class="cls-1" d="M476.59,248.75H591.41a7,7,0,0,1,7,7V480.28a7.93,7.93,0,0,1-7.93,7.93h-113a7.93,7.93,0,0,1-7.93-7.93V255.75a7,7,0,0,1,7-7Z"/><line class="cls-2" x1="503.05" y1="180.83" x2="503.05" y2="243.12"/><line class="cls-2" x1="507.81" y1="180.83" x2="507.81" y2="243.12"/><line class="cls-2" x1="512.58" y1="180.83" x2="512.58" y2="243.12"/><line class="cls-2" x1="517.34" y1="180.83" x2="517.34" y2="243.12"/><line class="cls-2" x1="522.1" y1="180.83" x2="522.1" y2="243.12"/><line class="cls-2" x1="526.86" y1="180.83" x2="526.86" y2="243.12"/><line class="cls-2" x1="531.62" y1="180.83" x2="531.62" y2="243.12"/><line class="cls-2" x1="536.38" y1="180.83" x2="536.38" y2="243.12"/><line class="cls-2" x1="541.14" y1="180.83" x2="541.14" y2="243.12"/><line class="cls-2" x1="545.9" y1="180.83" x2="545.9" y2="243.12"/><line class="cls-2" x1="550.66" y1="180.83" x2="550.66" y2="243.12"/><line class="cls-2" x1="555.42" y1="180.83" x2="555.42" y2="243.12"/><line class="cls-2" x1="560.19" y1="180.83" x2="560.19" y2="243.12"/><line class="cls-2" x1="564.95" y1="180.83" x2="564.95" y2="243.12"/><path class="cls-2" d="M513.66,156.39V96.48A7.37,7.37,0,0,1,521,89.1H547a7.37,7.37,0,0,1,7.38,7.38v59.91"/><circle class="cls-3" cx="534" cy="101.16" r="5.25"/><path d="M499.73,464.07a1.32,1.32,0,0,1-.33-.93,7.12,7.12,0,0,1,.81-2.59l2.39-5.12a8,8,0,0,0,.9-2.57c0-.36-.14-.54-.44-.54s-.52.23-.93.7-9.4,11.3-9.4,11.3h-2l3.59-9.22a11.93,11.93,0,0,0,.78-2.31c0-.31-.13-.47-.39-.47-.5,0-1.39.91-2.65,2.72l-.27-.19c1.56-2.32,2.83-3.47,3.8-3.47a1.55,1.55,0,0,1,1.06.45,1.35,1.35,0,0,1,.33.94,8.89,8.89,0,0,1-.76,2.61l-2.82,7.19c.55-.66,7.39-8.75,8.44-10l.57-.64a1.84,1.84,0,0,1,2.6-.06,1.39,1.39,0,0,1,.32.92,6.92,6.92,0,0,1-.81,2.78l-2.46,5.24a7.9,7.9,0,0,0-.83,2.33c0,.31.13.47.41.47.49,0,1.36-.91,2.61-2.72l.29.15q-2.37,3.47-3.78,3.47A1.57,1.57,0,0,1,499.73,464.07Z"/><path d="M483.55,464.57a6.41,6.41,0,0,1-6.77-6.62,6.54,6.54,0,0,1,6.65-6.71,6.33,6.33,0,0,1,6.57,6.52v.85H478.64v0a4.68,4.68,0,0,0,4.9,4.18,4.62,4.62,0,0,0,4.31-2.44l1.63,1A6.6,6.6,0,0,1,483.55,464.57ZM483.43,453a4.8,4.8,0,0,0-4.74,4v0h9.36v0A4.4,4.4,0,0,0,483.43,453Z"/><rect x="507.62" y="445.83" width="1.91" height="18.48"/><path d="M518.75,469.75c-2.79,0-4.83-.87-6.23-2.65l1.57-1.22a5.18,5.18,0,0,0,4.63,2.15c2.87,0,4.64-1.83,4.64-4.78v-1.81l-.07,0a5.13,5.13,0,0,1-5,3.15,6.54,6.54,0,0,1-6.36-6.69,6.44,6.44,0,0,1,6.36-6.64,5.11,5.11,0,0,1,4.95,2.89l.07,0v-1.86h1.88v10.93A6.17,6.17,0,0,1,518.75,469.75ZM518.6,453a4.9,4.9,0,1,0,4.88,4.88A4.81,4.81,0,0,0,518.6,453Z"/><text class="cls-4" transform="translate(475.69 287.42)">h<tspan class="cls-5" x="14.19" y="0">y</tspan><tspan x="27.21" y="0">dra</tspan><tspan class="cls-5" x="63.01" y="0">t</tspan><tspan x="72.63" y="0">i</tspan><tspan class="cls-6" x="78.11" y="0">n</tspan><tspan class="cls-5" x="93.15" y="0">g</tspan><tspan class="cls-5"><tspan x="0" y="28.57">e</tspan><tspan class="cls-7" x="13.91" y="28.57">x</tspan><tspan class="cls-8" x="26.67" y="28.57">f</tspan><tspan class="cls-9" x="35.06" y="28.57">o</tspan><tspan class="cls-10" x="49.22" y="28.57">l</tspan><tspan class="cls-11" x="54.82" y="28.57">i</tspan><tspan class="cls-12" x="60.79" y="28.57">a</tspan><tspan x="73.74" y="28.57">t</tspan><tspan class="cls-12" x="83.36" y="28.57">i</tspan><tspan class="cls-6" x="88.84" y="28.57">n</tspan><tspan x="103.88" y="28.57">g</tspan></tspan><tspan class="cls-13"><tspan x="0" y="57.13">c</tspan><tspan class="cls-11" x="13.52" y="57.13">l</tspan><tspan class="cls-6" x="19.49" y="57.13">a</tspan><tspan class="cls-11" x="32.32" y="57.13">ri</tspan><tspan class="cls-14" x="47.59" y="57.13">f</tspan><tspan class="cls-11" x="56.84" y="57.13">y</tspan><tspan class="cls-15" x="69.86" y="57.13">i</tspan><tspan class="cls-6" x="75.34" y="57.13">n</tspan><tspan class="cls-5" x="90.39" y="57.13">g</tspan></tspan></text><text class="cls-16" transform="translate(569.15 464.72)">50ml</text><rect class="cls-17" x="474.67" y="416.4" width="86.67" height="13.42"/><path d="M482,407.8v.38h-1.78v3.26a.82.82,0,0,0,.85.93,1.11,1.11,0,0,0,.84-.37l.14.18a1.42,1.42,0,0,1-1.34.7,1.37,1.37,0,0,1-1.51-1.41v-3.29h-.72v-.38h.72v-.94l1-.36v1.3Z"/><path d="M486,407.73a1.69,1.69,0,0,1,1.85,1.74v3.32h-1v-3.21c0-.92-.39-1.48-1.09-1.48s-1.42.67-1.56,1.74v3h-1V405h1v3.56A2.35,2.35,0,0,1,486,407.73Z"/><path d="M492.88,408a2.13,2.13,0,0,1,1.25,2v.43h-4a2.91,2.91,0,0,0,.22,1.1,1.56,1.56,0,0,0,1.39,1,1.51,1.51,0,0,0,1.44-1.25h1a1.47,1.47,0,0,1-.44.83,3,3,0,0,1-3.37.43,2.43,2.43,0,0,1-1.25-2.23,2.72,2.72,0,0,1,.33-1.34,2.47,2.47,0,0,1,2.24-1.23A2.77,2.77,0,0,1,492.88,408Zm-1.93.33a2.14,2.14,0,0,0-.82,1.66h3a2.19,2.19,0,0,0-.23-1,1.53,1.53,0,0,0-1.28-.94A1.17,1.17,0,0,0,491,408.32Z"/><path d="M502.31,409.55v3.24h-.62l-.25-.68a2,2,0,0,1-1.71.75c-1.08,0-1.88-.49-1.88-1.41s1-1.48,2.43-1.48a7,7,0,0,1,1,.08v-.48c0-1-.35-1.46-1.13-1.46a1.14,1.14,0,0,0-1.24,1.21H498c0-1,.87-1.58,2.15-1.58S502.31,408.38,502.31,409.55ZM500,412.43c.78,0,1.2-.46,1.31-1.42v-.61a6,6,0,0,0-.77-.06c-1,0-1.71.35-1.71,1.1S499.33,412.43,500,412.43Z"/><path d="M504.88,405v7.8h-1V405Z"/><path d="M507.55,405v7.8h-1V405Z"/><path d="M508.84,409.8h2.6v.42h-2.6Z"/><path d="M515.67,407.73v.87a.74.74,0,0,0-.36-.07,1.53,1.53,0,0,0-1.56,1.47v2.79h-1v-5h.61l.39.95A2.34,2.34,0,0,1,515.67,407.73Z"/><path d="M516.75,409a2.47,2.47,0,0,1,2.23-1.23,2.68,2.68,0,0,1,1.33.33,2.54,2.54,0,0,1,1.24,2.24,2.61,2.61,0,0,1-.32,1.32,2.5,2.5,0,0,1-2.25,1.24,2.64,2.64,0,0,1-1.32-.33,2.46,2.46,0,0,1-1.24-2.24A2.7,2.7,0,0,1,516.75,409Zm.9,2.49a1.47,1.47,0,0,0,1.33,1.07,1.3,1.3,0,0,0,.8-.28,2.47,2.47,0,0,0,.74-1.95,3,3,0,0,0-.2-1.15,1.45,1.45,0,0,0-1.34-1.06,1.23,1.23,0,0,0-.78.27,2.45,2.45,0,0,0-.74,1.94A3.21,3.21,0,0,0,517.65,411.45Z"/><path d="M524.57,412.86a1.7,1.7,0,0,1-1.85-1.75V407.8h1V411c0,.93.39,1.48,1.1,1.48s1.38-.64,1.55-1.67v-3h1v5h-.63l-.33-.81A2.38,2.38,0,0,1,524.57,412.86Z"/><path d="M532.47,412.85a.51.51,0,0,1-.51-.46A7.38,7.38,0,0,1,533,409.6a4.58,4.58,0,0,0,.54-1.37c0-.2-.14-.33-.38-.08s-3.86,4.64-3.86,4.64h-.85l1.54-4c.2-.5.25-.76,0-.76s-.54.35-1,1.08l-.14-.07c.62-.94,1.14-1.41,1.54-1.41a.56.56,0,0,1,.61.56,3.15,3.15,0,0,1-.29,1l-1.12,2.85,3.34-4a.92.92,0,0,1,1.34-.22c.33.39.16.75-.59,2.32-.85,1.8-1.08,2.34-.79,2.34s.54-.35,1-1.08l.16.06C533.72,412,533.14,412.88,532.47,412.85Z"/><path d="M537.49,412.86a2.38,2.38,0,0,1-1.25-.33,2.51,2.51,0,0,1-1.19-2.24,2.8,2.8,0,0,1,.31-1.33,2.33,2.33,0,0,1,2.13-1.23,2,2,0,0,1,1.55.67V405h1v7.8h-.66l-.22-.79A2,2,0,0,1,537.49,412.86Zm.15-4.76a1.29,1.29,0,0,0-.8.27,2.36,2.36,0,0,0-.75,1.92,2.92,2.92,0,0,0,.2,1.15,1.48,1.48,0,0,0,1.35,1.05c.88,0,1.44-.87,1.44-2.2S538.52,408.1,537.64,408.1Z"/><path d="M545.23,408a2.13,2.13,0,0,1,1.25,2v.43h-4a2.73,2.73,0,0,0,.23,1.1,1.55,1.55,0,0,0,1.38,1,1.51,1.51,0,0,0,1.44-1.25h1a1.47,1.47,0,0,1-.44.83,2.8,2.8,0,0,1-2,.76,2.74,2.74,0,0,1-1.36-.33,2.44,2.44,0,0,1-1.26-2.23,2.72,2.72,0,0,1,.33-1.34,2.48,2.48,0,0,1,2.25-1.23A2.76,2.76,0,0,1,545.23,408Zm-1.93.33a2.14,2.14,0,0,0-.82,1.66h3a2.19,2.19,0,0,0-.23-1,1.53,1.53,0,0,0-1.27-.94A1.2,1.2,0,0,0,543.3,408.32Z"/><path d="M550.87,407.73v.87a.74.74,0,0,0-.36-.07A1.53,1.53,0,0,0,549,410v2.79h-1v-5h.61l.39.95A2.35,2.35,0,0,1,550.87,407.73Z"/><path d="M551.86,409.67h8.93v.42h-8.93Z"/><path d="M480.64,418a1.57,1.57,0,0,1,1.16.42l-.16.25a1.31,1.31,0,0,0-.7-.22c-.46,0-.77.35-.77,1.13v1.25h1.48v.39h-1.48v4.6h-1v-4.6h-.72v-.39h.72v-1C479.15,418.55,479.68,418,480.64,418Z"/><path d="M482.71,422a2.47,2.47,0,0,1,2.23-1.24,2.79,2.79,0,0,1,1.33.33,2.54,2.54,0,0,1,1.24,2.25,2.63,2.63,0,0,1-.32,1.32,2.49,2.49,0,0,1-2.25,1.23,2.67,2.67,0,0,1-1.32-.33,2.44,2.44,0,0,1-1.24-2.23A2.68,2.68,0,0,1,482.71,422Zm.9,2.48a1.46,1.46,0,0,0,1.33,1.07,1.24,1.24,0,0,0,.8-.28,2.45,2.45,0,0,0,.74-1.94,3.07,3.07,0,0,0-.2-1.16,1.47,1.47,0,0,0-1.34-1.06,1.29,1.29,0,0,0-.78.27,2.49,2.49,0,0,0-.74,1.95A3.15,3.15,0,0,0,483.61,424.43Z"/><path d="M491.7,420.71v.87a.79.79,0,0,0-.37-.07,1.54,1.54,0,0,0-1.56,1.48v2.78h-1v-5h.61l.38,1A2.4,2.4,0,0,1,491.7,420.71Z"/><path d="M499.66,422.53v3.24H499l-.25-.67a1.94,1.94,0,0,1-1.7.74c-1.08,0-1.88-.48-1.88-1.41s1-1.47,2.42-1.47a7.26,7.26,0,0,1,1,.08v-.49c0-1-.36-1.45-1.14-1.45a1.13,1.13,0,0,0-1.23,1.2h-.91c0-1,.87-1.58,2.15-1.58S499.66,421.37,499.66,422.53Zm-2.31,2.89c.77,0,1.19-.47,1.31-1.43v-.61a6.28,6.28,0,0,0-.77-.06c-1.05,0-1.72.35-1.72,1.1S496.68,425.42,497.35,425.42Z"/><path d="M502.23,418v7.79h-1V418Z"/><path d="M504.9,418v7.79h-1V418Z"/><path d="M510,422.32a3.85,3.85,0,0,0,1.38.69c1.05.42,1.48.78,1.48,1.47s-.68,1.37-1.94,1.37-2.06-.55-2.1-1.54h1A1.08,1.08,0,0,0,511,425.5c.62,0,1-.29,1-.83a.73.73,0,0,0-.15-.47,4.34,4.34,0,0,0-1.38-.71,8.36,8.36,0,0,1-.83-.36,1.15,1.15,0,0,1-.68-1.07c0-.8.59-1.35,1.85-1.35s2,.49,2,1.46h-.91a1,1,0,0,0-1.12-1.11c-.62,0-1,.33-1,.79A.59.59,0,0,0,510,422.32Z"/><path d="M515.29,422.83l2.18-2.05h.77l-2.11,2,2.58,2.95h-1.15l-2.27-2.4v2.4h-1V418h1Z"/><path d="M520.2,418.61a.64.64,0,1,1-.64.64A.64.64,0,0,1,520.2,418.61Zm.51,2.17v5h-1v-5Z"/><path d="M525.78,425.83a.5.5,0,0,1-.51-.45,7.66,7.66,0,0,1,1.08-2.8,4.58,4.58,0,0,0,.54-1.37c0-.2-.14-.32-.38-.07s-3.86,4.63-3.86,4.63h-.85l1.55-4c.19-.5.24-.76,0-.76s-.54.36-1,1.08l-.15-.07c.62-.93,1.14-1.4,1.54-1.4a.55.55,0,0,1,.61.56,3.15,3.15,0,0,1-.29,1l-1.12,2.85,3.34-4.05a.92.92,0,0,1,1.34-.21c.33.38.16.74-.59,2.31-.85,1.8-1.08,2.34-.79,2.34s.54-.34,1-1.08l.16.06C527,424.94,526.45,425.87,525.78,425.83Z"/><path d="M534.45,420.78v.39h-1.79v3.25a.83.83,0,0,0,.85.94,1.12,1.12,0,0,0,.85-.38l.14.19a1.45,1.45,0,0,1-1.34.7,1.38,1.38,0,0,1-1.52-1.42v-3.28h-.71v-.39h.71v-.93l1-.36v1.29Z"/><path d="M537.4,425.66,535,420.78h1.14l1.76,3.8,1.63-3.8h.58l-3.21,7.59h-.89Z"/><path d="M543.85,420.71a2.39,2.39,0,0,1,1.25.34,2.6,2.6,0,0,1,1.17,2.25,2.66,2.66,0,0,1-.31,1.3,2.35,2.35,0,0,1-2.11,1.24,1.94,1.94,0,0,1-1.57-.68v3.21h-1v-7.59h.65l.22.8A2,2,0,0,1,543.85,420.71Zm-.16,4.76a1.25,1.25,0,0,0,.8-.27,2.34,2.34,0,0,0,.75-1.91,3.19,3.19,0,0,0-.19-1.15,1.47,1.47,0,0,0-1.36-1.05c-.9,0-1.44.85-1.44,2.19S542.81,425.47,543.69,425.47Z"/><path d="M551,421a2.14,2.14,0,0,1,1.24,2v.42h-4a2.7,2.7,0,0,0,.23,1.1,1.46,1.46,0,0,0,2.83-.24h1a1.45,1.45,0,0,1-.43.84,2.88,2.88,0,0,1-2,.75,2.74,2.74,0,0,1-1.36-.33,2.42,2.42,0,0,1-1.26-2.22,2.8,2.8,0,0,1,.33-1.34,2.48,2.48,0,0,1,2.25-1.24A2.8,2.8,0,0,1,551,421Zm-1.94.33a2.21,2.21,0,0,0-.82,1.67h3a2.35,2.35,0,0,0-.23-1,1.55,1.55,0,0,0-1.28-.94A1.27,1.27,0,0,0,549,421.3Z"/><path d="M554.37,422.32a3.94,3.94,0,0,0,1.38.69c1,.42,1.48.78,1.48,1.47s-.68,1.37-1.93,1.37-2.07-.55-2.1-1.54h.95a1.09,1.09,0,0,0,1.18,1.19c.61,0,1-.29,1-.83a.74.74,0,0,0-.16-.47,4.34,4.34,0,0,0-1.38-.71c-.34-.14-.62-.25-.82-.36a1.14,1.14,0,0,1-.69-1.07c0-.8.59-1.35,1.85-1.35s2,.49,2,1.46h-.92a1,1,0,0,0-1.12-1.11c-.61,0-1,.33-1,.79A.62.62,0,0,0,554.37,422.32Z"/><text class="cls-18" transform="translate(0 128.53)">brig<tspan class="cls-19" x="85.82" y="0">h</tspan><tspan class="cls-20" x="114.14" y="0">t</tspan><tspan x="132.72" y="0">ening</tspan></text><text class="cls-21" transform="translate(1 175.15)">5%<tspan class="cls-22" x="31.9" y="0" xml:space="preserve">    Niacinamide</tspan><tspan class="cls-23"><tspan x="0" y="28">R</tspan><tspan class="cls-24" x="9.5" y="28">educes sebum p</tspan><tspan class="cls-25" x="123.51" y="28">r</tspan><tspan class="cls-24" x="128.97" y="28">oduction and lig</tspan><tspan class="cls-26" x="240.37" y="28">h</tspan><tspan class="cls-27" x="249.22" y="28">t</tspan><tspan class="cls-28" x="255.03" y="28">ens blemishes. </tspan></tspan><tspan class="cls-29"><tspan x="0" y="51">Has aging p</tspan><tspan class="cls-30" x="81.42" y="51">r</tspan><tspan class="cls-31" x="86.88" y="51">e</tspan><tspan class="cls-32" x="95.04" y="51">v</tspan><tspan x="102.81" y="51">e</tspan><tspan class="cls-26" x="111.34" y="51">n</tspan><tspan class="cls-24" x="120.19" y="51">tion ben</tspan><tspan class="cls-26" x="177.54" y="51">e</tspan><tspan x="185.92" y="51">fits.</tspan></tspan><tspan x="0" y="90">2%</tspan><tspan class="cls-22" x="31.22" y="90" xml:space="preserve">    </tspan><tspan class="cls-29" x="47.03" y="90">alpha-arbutin: </tspan><tspan class="cls-23" x="147.21" y="90">R</tspan><tspan class="cls-33" x="156.71" y="90">educes appea</tspan><tspan class="cls-34" x="253.77" y="90">r</tspan><tspan class="cls-29" x="259.35" y="90">ance </tspan><tspan class="cls-35" x="297.21" y="90">o</tspan><tspan class="cls-29" x="305.6" y="90">f </tspan><tspan class="cls-36"><tspan x="0" y="113">h</tspan><tspan class="cls-24" x="8.63" y="113">yperpigme</tspan><tspan class="cls-26" x="82.95" y="113">n</tspan><tspan class="cls-24" x="91.8" y="113">t</tspan><tspan class="cls-26" x="97.72" y="113">a</tspan><tspan class="cls-24" x="105.82" y="113">tion and UV-</tspan><tspan class="cls-37" x="193.11" y="113">r</tspan><tspan class="cls-24" x="198.57" y="113">el</tspan><tspan class="cls-38" x="210.81" y="113">a</tspan><tspan class="cls-39" x="218.91" y="113">t</tspan><tspan class="cls-28" x="224.71" y="113">ed skin dama</tspan><tspan x="316.06" y="113">g</tspan><tspan class="cls-40" x="324.13" y="113">e</tspan><tspan class="cls-28" x="332.37" y="113">. </tspan></tspan></text><line class="cls-41" x1="276" y1="116.66" x2="480" y2="116.66"/><line class="cls-41" x1="624" y1="276.66" x2="814" y2="276.66"/><text class="cls-42" transform="translate(847.64 289.35)">h<tspan class="cls-43" x="27.6" y="0">y</tspan><tspan class="cls-44" x="52.22" y="0">d</tspan><tspan class="cls-45" x="80.74" y="0">ra</tspan><tspan class="cls-46" x="124.51" y="0">ting</tspan></text><text class="cls-21" transform="translate(923.38 335.97)">2% <tspan class="cls-22" x="37.15" y="0" xml:space="preserve">  D-pa</tspan><tspan class="cls-47" x="80.37" y="0">n</tspan><tspan class="cls-22" x="89.81" y="0">thenol</tspan><tspan class="cls-29"><tspan x="-79.41" y="28">H</tspan><tspan class="cls-40" x="-67.56" y="28">y</tspan><tspan x="-59.86" y="28">d</tspan><tspan class="cls-38" x="-50.95" y="28">ra</tspan><tspan class="cls-20" x="-37.27" y="28">t</tspan><tspan class="cls-24" x="-31.47" y="28">es the skin and supports </tspan><tspan x="23.19" y="51">moistu</tspan><tspan class="cls-30" x="71.07" y="51">r</tspan><tspan x="76.53" y="51">e barrie</tspan><tspan class="cls-48" x="129.66" y="51">r</tspan><tspan class="cls-24" x="134.64" y="51">. </tspan></tspan><tspan class="cls-49"><tspan x="-74.95" y="90">0</tspan><tspan class="cls-24" x="-60.19" y="90">.1% </tspan><tspan class="cls-22" x="-22.66" y="90" xml:space="preserve">  Sodium H</tspan><tspan class="cls-50" x="58.46" y="90">y</tspan><tspan class="cls-22" x="66.67" y="90">alu</tspan><tspan class="cls-51" x="89.02" y="90">r</tspan><tspan class="cls-52" x="94.85" y="90">on</tspan><tspan class="cls-53" x="113.55" y="90">a</tspan><tspan class="cls-54" x="122.19" y="90">t</tspan><tspan class="cls-22" x="128.38" y="90">e</tspan></tspan><tspan class="cls-23"><tspan x="28.05" y="118">R</tspan><tspan class="cls-24" x="37.55" y="118">educes flaking </tspan></tspan><tspan class="cls-29"><tspan x="-33.63" y="141">and </tspan><tspan class="cls-37" x="-3.76" y="141">r</tspan><tspan x="1.7" y="141">es</tspan><tspan class="cls-39" x="17.39" y="141">t</tspan><tspan class="cls-24" x="23.19" y="141">o</tspan><tspan class="cls-37" x="31.73" y="141">r</tspan><tspan x="37.19" y="141">es suppleness.</tspan></tspan></text><path class="cls-55" d="M68,70.66H3.2V27.46a233.29,233.29,0,0,1,32.25-2.8c15.2,0,32.55,2.8,32.55,2.8Z"/><path class="cls-56" d="M3.05,47.06c6.48,0,6.48,2.4,13,2.4s6.48-2.4,13-2.4,6.48,2.4,13,2.4,6.48-2.4,13-2.4,6.49,2.4,13,2.4"/><line class="cls-56" x1="3.05" y1="38.26" x2="67.85" y2="38.26"/><path class="cls-55" d="M1026.75,178a7,7,0,0,1-7-6.95c0-2.75,3.46-7.9,5.52-10.73a1.82,1.82,0,0,1,2.86,0c2.06,2.83,5.52,8,5.52,10.73A7,7,0,0,1,1026.75,178Z"/><path class="cls-55" d="M1059,231.66h-64.8v-43.2a233.29,233.29,0,0,1,32.25-2.8c15.2,0,32.55,2.8,32.55,2.8Z"/><path class="cls-56" d="M994,208.06c6.48,0,6.48,2.4,13,2.4s6.48-2.4,13-2.4,6.47,2.4,12.95,2.4,6.48-2.4,13-2.4,6.48,2.4,13,2.4"/><line class="cls-56" x1="994" y1="199.26" x2="1058.8" y2="199.26"/><line class="cls-57" x1="56.93" y1="5.29" x2="61.18" y2="5.29"/><line class="cls-57" x1="62.12" x2="62.12" y2="4.25"/><line class="cls-57" x1="67.41" y1="5.19" x2="63.16" y2="5.19"/><line class="cls-57" x1="62.22" y1="10.48" x2="62.22" y2="6.23"/><line class="cls-57" x1="67.52" y1="16" x2="71.77" y2="16"/><line class="cls-57" x1="72.71" y1="10.71" x2="72.71" y2="14.97"/><line class="cls-57" x1="78" y1="15.9" x2="73.75" y2="15.9"/><line class="cls-57" x1="72.81" y1="21.19" x2="72.81" y2="16.94"/></g></g></svg>