<svg xmlns="http://www.w3.org/2000/svg" viewBox="0 0 510.29 149.04"><defs><style>.cls-1{fill:none;stroke:#251e20;stroke-miterlimit:10;}.cls-2,.cls-3,.cls-7{font-size:14px;}.cls-2,.cls-3{font-family:AlethiaPro-Regular, Alethia Pro;}.cls-2,.cls-7{letter-spacing:-0.02em;}.cls-3{letter-spacing:-0.04em;}.cls-4{letter-spacing:-0.03em;}.cls-5{letter-spacing:-0.03em;}.cls-6{letter-spacing:-0.02em;}.cls-7{font-family:AlethiaPro-Italic, Alethia Pro;font-style:italic;}</style></defs><g id="Layer_2" data-name="Layer 2"><g id="Artwork"><line class="cls-1" x1="9.15" y1="65.71" x2="9.15" y2="85.71"/><line class="cls-1" x1="44.29" y1="65.71" x2="44.29" y2="85.71"/><line class="cls-1" x1="79.43" y1="65.71" x2="79.43" y2="85.71"/><line class="cls-1" x1="114.57" y1="65.71" x2="114.57" y2="85.71"/><line class="cls-1" x1="149.72" y1="65.71" x2="149.72" y2="85.71"/><line class="cls-1" x1="184.86" y1="65.71" x2="184.86" y2="85.71"/><line class="cls-1" x1="167.29" y1="22.71" x2="167.29" y2="85.71"/><line class="cls-1" x1="220" y1="65.71" x2="220" y2="85.71"/><line class="cls-1" x1="255.15" y1="22.71" x2="255.15" y2="85.71"/><line class="cls-1" x1="290.29" y1="65.71" x2="290.29" y2="85.71"/><line class="cls-1" x1="325.43" y1="65.71" x2="325.43" y2="85.71"/><line class="cls-1" x1="360.57" y1="65.71" x2="360.57" y2="85.71"/><line class="cls-1" x1="395.72" y1="65.71" x2="395.72" y2="85.71"/><line class="cls-1" x1="430.86" y1="65.71" x2="430.86" y2="85.71"/><line class="cls-1" x1="466" y1="65.71" x2="466" y2="85.71"/><line class="cls-1" x1="501.43" y1="65.71" x2="501.43" y2="85.71"/><text class="cls-2" transform="translate(4.53 106.9)">0</text><text class="cls-2" transform="translate(41.37 106.9)">1</text><text class="cls-2" transform="translate(75.29 106.9)">2</text><text class="cls-2" transform="translate(110.09 106.9)">3</text><text class="cls-2" transform="translate(145.44 106.9)">4</text><text class="cls-2" transform="translate(180.52 106.9)">5</text><text class="cls-2" transform="translate(215.49 106.9)">6</text><text class="cls-2" transform="translate(251.09 106.9)">7</text><text class="cls-2" transform="translate(287.73 106.9)">8</text><text class="cls-2" transform="translate(321.01 106.9)">9</text><text class="cls-2" transform="translate(353.18 106.9)">10</text><text class="cls-2" transform="translate(390.02 106.9)">11</text><text class="cls-2" transform="translate(423.94 106.9)">12</text><text class="cls-2" transform="translate(458.74 106.9)">13</text><text class="cls-2" transform="translate(494.09 106.9)">14</text><text class="cls-3" transform="translate(237.64 11.9)">w<tspan class="cls-4" x="11.12" y="0">a</tspan><tspan class="cls-5" x="18.68" y="0">t</tspan><tspan class="cls-6" x="24.09" y="0">er</tspan></text><text class="cls-2" transform="translate(154.3 11.9)">skin</text><text class="cls-7" transform="translate(215.02 141.56)">the pH scale</text></g></g></svg>